<svg width="402" height="579" viewBox="0 0 402 579" fill="none" xmlns="http://www.w3.org/2000/svg">
<g clip-path="url(#clip0_977_2939)">
<g clip-path="url(#clip1_977_2939)">
<path d="M113.073 70.6433C17.1487 94.4023 -73.3786 166.877 -125.215 261.495C-138.71 286.14 -149.93 313.106 -150.622 340.105C-151.3 367.08 -139.433 376.499 -116.811 384.847C-86.7405 395.968 0.0546378 378.964 31.44 380.021C48.452 380.58 104.386 374.944 106.497 392.966C107.885 405.013 98.5111 411.887 90.0448 421.462C68.4161 445.896 45.6819 456.724 35.9188 487.782C29.5894 507.853 34.7833 529.085 45.7877 544.019C56.7779 558.977 72.8897 568.474 89.6107 575.593C132.127 593.705 180.063 598.207 227.902 597.583C287.139 596.812 349.386 587.671 403.99 553.804C418.541 544.784 433.941 531.444 435.848 514.247C437.949 495.341 422.942 482.354 409.339 472.583C387.266 456.719 365.179 440.879 343.084 425.003C329.754 415.421 315.152 403.156 316.055 384.696C316.833 369.252 328.512 355.487 340.506 345.348C359.523 329.254 382.165 321.233 402.982 309.298C420.831 299.095 450.899 276.835 449.691 252.314C449.442 247.198 447.366 242.651 444.685 238.796C431.93 220.381 406.491 213.299 385.819 208.19C359.008 201.551 331.131 198.132 302.836 197.981C271.082 197.816 237.907 201.641 209.105 190.765C199.629 187.179 190.023 180.918 188.321 170.023C185.159 149.801 209.617 133.24 215.969 112.467C223.636 87.3818 201.685 66.4208 178.873 63.0331C156.069 59.6826 141.307 64.8433 113.073 70.6433Z" fill="#5349A5"/>
</g>
<path d="M217.039 228.082C223.857 214.405 234.211 202.966 247.159 194.857C248.431 194.069 247.261 192.061 245.989 192.849C232.71 201.161 222.025 212.88 215.03 226.912C214.343 228.26 216.353 229.429 217.039 228.082Z" fill="white"/>
<path d="M295.188 406.152C297.63 372.496 274.938 339.271 246.243 325.163C243.216 323.688 240.01 326.815 241.104 330.171C241.944 332.713 243.521 335.178 245.2 337.212C247.439 339.932 251.738 343.974 254.205 347.914C255.477 349.948 253.697 352.566 251.484 351.905C233.193 346.363 216.505 336.5 216.505 336.5C208.237 330.577 198.087 325.341 190.608 323.841C186.893 323.104 184.273 327.527 186.486 330.806C189.768 335.687 194.016 341.279 196.866 342.423C192.312 341.711 187.886 336.78 182.976 338.432C180.941 339.119 179.414 341.076 179.389 343.389C179.313 350.202 191.142 350.99 193.686 357.192C190.582 356.379 183.993 355.184 180.915 354.32C180.839 354.295 180.763 354.269 180.661 354.244C174.148 352.49 171.172 362.505 177.379 365.276L207.906 378.927C211.493 380.528 210.018 386.273 206.176 385.638L187.529 382.562C185.24 382.232 182.95 383.503 182.136 385.816C180.559 390.214 185.749 392.756 189.59 394.255C199.995 398.323 208.237 408.338 210.654 419.905C211.112 422.091 222.458 591.037 222.585 593.198C225.281 634.887 283.995 659.164 306.763 614.5L295.188 406.152Z" fill="#A694F5"/>
<path d="M238.917 382.537C244.845 386.808 252.604 390.85 256.369 397.307C259.955 403.458 260.566 410.906 261.151 417.821C261.278 419.295 263.593 419.321 263.466 417.821C262.856 410.474 262.143 402.645 258.353 396.137C254.359 389.274 246.32 385.054 240.062 380.529C238.892 379.639 237.722 381.648 238.917 382.537Z" fill="#8978E3"/>
<path d="M253.571 330.222C250.569 329.841 248.102 327.883 246.652 325.265C245.914 323.968 243.904 325.138 244.642 326.434C246.525 329.815 249.73 332.052 253.571 332.535C255.072 332.738 255.047 330.4 253.571 330.222Z" fill="#8978E3"/>
<path d="M221.669 355.184C212.359 349.591 203.048 343.999 193.737 338.406C192.44 337.644 191.269 339.652 192.567 340.415C201.878 346.007 211.188 351.6 220.499 357.192C221.771 357.955 222.967 355.946 221.669 355.184Z" fill="#8978E3"/>
<path d="M217.548 367.081C208.441 363.573 199.613 359.48 191.04 354.828C189.718 354.116 188.547 356.125 189.87 356.836C198.621 361.59 207.652 365.759 216.938 369.318C218.337 369.852 218.922 367.615 217.548 367.081Z" fill="#8978E3"/>
<path d="M241.767 355.138C239.706 357.247 238.18 359.688 237.086 362.408C236.526 363.806 238.79 364.391 239.324 363.018C240.266 360.679 241.639 358.569 243.42 356.764C244.463 355.722 242.81 354.07 241.767 355.138Z" fill="white"/>
<path d="M231.159 367.437C229.429 369.42 227.725 371.403 225.995 373.36C225.028 374.479 226.656 376.131 227.648 375.012C229.378 373.03 231.083 371.047 232.812 369.09C233.779 367.946 232.126 366.293 231.159 367.437Z" fill="white"/>
<path d="M214.445 391.078C213.835 393.137 212.893 395.018 211.622 396.772C210.731 397.992 212.766 399.136 213.631 397.941C215.005 396.035 216.022 393.925 216.684 391.688C217.116 390.264 214.878 389.654 214.445 391.078Z" fill="white"/>
<path d="M183.383 415.913C198.392 388.077 191.752 350.989 172.647 327.933C170.638 325.492 166.669 326.967 166.338 330.246C166.084 332.737 166.491 335.457 167.127 337.847C167.992 341.024 170.103 346.134 170.714 350.455C171.019 352.692 168.501 354.243 166.873 352.819C153.364 341.075 142.884 326.229 142.884 326.229C138.076 317.993 131.41 309.63 125.61 305.486C122.736 303.427 118.767 306.198 119.403 309.859C120.344 315.299 121.82 321.705 123.83 323.764C120.217 321.425 118.335 315.502 113.501 315.019C111.492 314.816 109.431 315.934 108.541 317.866C105.844 323.662 115.664 328.873 115.46 335.152C113.12 333.271 107.956 329.737 105.641 327.806C105.59 327.755 105.513 327.704 105.462 327.653C100.578 323.662 94.1675 331.085 98.4158 335.838L119.251 359.225C121.693 361.971 118.233 366.317 115.206 364.309L100.451 354.548C98.6193 353.378 96.1772 353.607 94.6 355.26C91.5727 358.412 95.0324 362.581 97.729 365.326C105.081 372.8 108.261 384.518 105.87 395.322C105.412 397.381 2.77765 621.42 2.06535 623.301C-11.6464 659.957 42.59 684.462 79.197 655L183.383 415.913Z" fill="#8978E3"/>
<path d="M144.233 374.096C147.693 380.096 152.882 386.654 153.544 393.695C154.18 400.279 151.814 406.863 149.677 412.964C149.168 414.388 151.432 414.998 151.916 413.574C154.282 406.838 156.724 399.644 155.732 392.424C154.739 385.358 149.728 378.977 146.243 372.927C145.505 371.631 143.495 372.8 144.233 374.096Z" fill="#8978E3"/>
<path d="M177.126 335.05C174.735 333.576 173.285 331.084 173.03 328.288C172.903 326.814 170.563 326.788 170.715 328.288C171.02 331.898 172.827 335.126 175.956 337.058C177.228 337.846 178.398 335.838 177.126 335.05Z" fill="#8978E3"/>
<path d="M140.24 344.199C134.415 335.861 128.614 327.497 122.789 319.159C121.949 317.939 119.914 319.109 120.779 320.329C126.605 328.667 132.405 337.03 138.23 345.368C139.07 346.588 141.08 345.444 140.24 344.199Z" fill="#8978E3"/>
<path d="M132.149 352.744C125.713 346.261 119.735 339.398 114.189 332.128C113.299 330.958 111.264 332.102 112.179 333.297C117.827 340.72 123.932 347.761 130.496 354.371C131.564 355.464 133.218 353.811 132.149 352.744Z" fill="#8978E3"/>
<path d="M157.384 351.73C154.815 352.747 152.526 354.196 150.516 356.128C149.447 357.17 151.075 358.823 152.169 357.78C153.848 356.153 155.807 354.832 157.995 353.993C159.394 353.433 158.784 351.171 157.384 351.73Z" fill="white"/>
<path d="M143.317 358.286C141.078 359.328 138.865 360.345 136.626 361.387C135.278 362.022 136.448 364.031 137.796 363.395C140.035 362.353 142.248 361.336 144.487 360.294C145.835 359.658 144.665 357.65 143.317 358.286Z" fill="white"/>
<path d="M120.167 371.938C118.844 373.463 117.343 374.734 115.588 375.751C114.29 376.488 115.46 378.496 116.758 377.759C118.666 376.666 120.37 375.268 121.795 373.59C122.787 372.446 121.133 370.794 120.167 371.938Z" fill="white"/>
<path d="M99.1035 406.431C94.5753 405.287 90.4033 407.931 88.4699 412.074C86.3584 416.65 87.9611 421.759 90.327 425.903C96.3052 436.401 105.845 445.68 115.385 452.925C125.179 460.398 136.346 466.118 148.303 469.168C153.187 470.414 159.242 471.609 163.541 468.177C167.484 465.05 167.891 459.687 168.095 455.035C168.171 453.535 165.83 453.535 165.78 455.035C165.525 460.729 164.533 467.287 157.614 468.024C153.009 468.507 147.972 466.779 143.648 465.381C135.024 462.559 126.909 458.314 119.531 453.077C112.077 447.815 105.387 441.511 99.5359 434.52C96.2797 430.631 92.6419 426.36 90.8103 421.556C88.8006 416.268 90.8866 406.71 98.4929 408.642C99.943 409.049 100.554 406.812 99.1035 406.431Z" fill="#A694F5"/>
<path d="M97.4506 415.126C89.9969 415.1 78.3712 418.837 81.2967 428.7C82.4669 432.589 85.9012 435.36 89.132 437.521C93.7874 440.622 98.8243 443.291 103.938 445.579C123.628 454.4 146.396 457.933 167.765 454.273C171.86 453.587 176.567 452.112 178.424 447.994C179.925 444.689 179.11 440.724 175.88 438.868C174.582 438.131 173.412 440.139 174.709 440.876C177.889 442.707 177.126 447.028 174.684 449.138C172.776 450.816 170.13 451.451 167.688 451.909C162.575 452.849 157.258 453.18 152.069 453.256C141.944 453.383 131.819 452.112 122.05 449.519C112.256 446.926 102.844 443.012 94.1181 437.851C90.1496 435.487 84.5021 432.462 83.3828 427.556C81.5511 419.472 91.7523 417.413 97.4506 417.439C98.9515 417.464 98.9515 415.126 97.4506 415.126Z" fill="#A694F5"/>
<path d="M313.352 188.122C311.063 184.716 308.697 181.716 306.306 179.098C266.595 127.647 210.502 181.665 194.221 220.457C191.626 216.364 188.599 212.221 187.886 211.077C181.705 201.061 175.014 191.63 166.441 183.852C158.377 176.531 148.99 170.43 138.967 166.82C124.848 159.931 109.101 157.542 93.914 163.414C73.6644 171.243 61.9115 191.707 65.1169 214.737C69.5433 246.64 88.7244 275.848 105.972 301.37C126.934 332.434 185.292 379.741 185.292 379.741C186.182 379.284 187.047 378.826 187.937 378.343C188.929 379.182 189.464 379.639 189.464 379.639C221.39 363.726 252.476 336.959 276.415 306.378C297.809 279.051 335.993 221.753 313.352 188.122Z" fill="#C2C1FF"/>
<path d="M374.738 513.604C372.143 509.359 310.733 408.059 308.163 403.814C295.316 382.715 285.929 360.014 276.847 337.034C267.664 313.775 272.625 286.066 289.567 268.043C290.33 267.23 293.485 265.756 294.579 265.501C296.843 264.993 298.929 267.408 298.954 269.721C298.98 272.034 297.631 274.144 296.258 276C293.968 279.127 291.45 282.203 290.229 285.888C289.007 289.574 289.414 294.099 292.34 296.641C296.563 296.921 298.496 291.557 299.158 287.388C301.574 272.314 303.559 256.604 308.087 242.013C309.155 238.581 313.48 235.073 316.787 236.471C318.873 237.361 319.458 240.005 319.713 242.267C321.213 255.892 319.28 269.416 318.084 283.092C318.568 271.882 321.137 260.926 321.62 249.715C321.748 246.69 321.442 242.547 322.816 239.852C324.19 237.158 327.166 235.022 330.117 235.582C332.763 236.09 334.645 238.581 335.281 241.174C335.943 243.767 336.07 247.529 335.79 250.198C334.467 262.4 334.213 274.729 335.027 286.982C335.18 277.144 336.273 267.332 338.334 257.723C339.021 254.571 340.115 251.012 343.04 249.664C346.551 248.063 350.774 250.758 352.3 254.266C353.852 257.774 353.47 261.79 353.267 265.628C351.588 295.574 353.648 344.076 466.446 491.184L374.738 513.604Z" fill="#8978E3"/>
<path d="M328.972 235.865C327.598 241.228 329.277 246.846 333.526 250.456C334.671 251.422 336.324 249.795 335.179 248.804C331.567 245.702 330.041 241.101 331.236 236.475C331.592 235.026 329.354 234.416 328.972 235.865Z" fill="#C2B1FF"/>
<path d="M314.42 237.185C312.003 242.04 313.377 247.709 317.676 251.013C318.872 251.929 320.017 249.895 318.846 249.005C315.616 246.514 314.649 241.989 316.43 238.354C317.091 237.007 315.081 235.837 314.42 237.185Z" fill="#8978E3"/>
<path d="M344.591 249.257C343.726 252.613 344.032 256.044 345.532 259.196C346.296 260.798 347.364 262.298 348.662 263.518C349.526 264.357 352.045 265.246 352.477 266.111C352.605 265.577 352.757 265.043 352.884 264.509C352.808 264.56 352.706 264.611 352.63 264.662C353.164 264.789 353.698 264.941 354.233 265.069C354.182 265.018 354.156 264.941 354.105 264.891C353.266 263.67 351.231 264.84 352.096 266.06C352.147 266.111 352.172 266.187 352.223 266.238C352.579 266.746 353.241 267 353.826 266.645C353.902 266.594 354.004 266.543 354.08 266.492C354.64 266.162 354.792 265.475 354.487 264.891C354.105 264.128 353.52 264.001 352.808 263.594C351.129 262.603 349.705 261.433 348.611 259.807C346.601 256.858 345.99 253.273 346.855 249.816C347.211 248.418 344.973 247.808 344.591 249.257Z" fill="#C2B1FF"/>
<path d="M334.849 268.021C334.824 275.316 335.307 282.561 336.299 289.806C336.503 291.28 338.742 290.645 338.538 289.196C337.597 282.18 337.139 275.138 337.164 268.046C337.19 266.521 334.849 266.521 334.849 268.021Z" fill="#C2B1FF"/>
<path d="M318.847 257.06C317.982 268.88 317.117 280.701 316.227 292.521C316.125 294.021 318.44 293.996 318.567 292.521C319.432 280.701 320.297 268.88 321.188 257.06C321.289 255.585 318.949 255.585 318.847 257.06Z" fill="#C2B1FF"/>
<path d="M350.035 298.978C347.441 299.08 344.973 299.588 342.556 300.554C341.183 301.088 341.793 303.35 343.167 302.791C345.38 301.901 347.644 301.393 350.01 301.291C351.536 301.24 351.536 298.902 350.035 298.978Z" fill="white"/>
<path d="M332.458 301.825C329.914 302.359 327.37 302.588 324.776 302.511C323.275 302.461 323.275 304.799 324.776 304.825C327.574 304.901 330.347 304.647 333.069 304.062C334.519 303.757 333.908 301.52 332.458 301.825Z" fill="white"/>
<path d="M314.065 302.007C311.037 302.287 308.01 302.567 304.983 302.846C303.507 302.973 303.482 305.312 304.983 305.16C308.01 304.88 311.037 304.6 314.065 304.321C315.54 304.194 315.54 301.88 314.065 302.007Z" fill="white"/>
<path d="M282.317 309.555C280.282 310.546 278.094 311.106 275.83 311.207C274.329 311.284 274.329 313.597 275.83 313.521C278.526 313.393 281.07 312.733 283.487 311.538C284.835 310.902 283.665 308.894 282.317 309.555Z" fill="white"/>
<path d="M285.777 274.628C291.119 276.992 296.894 272.29 295.139 266.545C294.706 265.121 292.442 265.731 292.9 267.155C293.994 270.764 290.56 274.222 286.973 272.62C285.599 272.036 284.403 274.018 285.777 274.628Z" fill="#C2B1FF"/>
<path d="M419.275 594L318.644 432.589L401.143 383.934L513.726 550.4L419.275 594Z" fill="#C2B1FF"/>
<path d="M301.829 375.927C302.439 379.588 299.946 383.07 296.283 383.68C292.62 384.291 289.135 381.799 288.524 378.139C287.914 374.478 290.407 370.996 294.07 370.386C297.733 369.775 301.218 372.267 301.829 375.927Z" fill="white"/>
<path d="M315.566 373.082C316.176 376.742 313.683 380.225 310.02 380.835C306.357 381.445 302.872 378.954 302.261 375.293C301.651 371.633 304.144 368.15 307.807 367.54C311.496 366.93 314.955 369.396 315.566 373.082Z" fill="white"/>
<path d="M338.003 363.931C338.613 367.592 336.12 371.074 332.457 371.685C328.794 372.295 325.309 369.803 324.698 366.143C324.087 362.482 326.58 359 330.244 358.39C333.932 357.78 337.392 360.271 338.003 363.931Z" fill="white"/>
<path d="M357.287 355.819C357.897 359.479 355.404 362.962 351.741 363.572C348.078 364.182 344.592 361.691 343.982 358.03C343.371 354.37 345.864 350.887 349.528 350.277C353.216 349.667 356.676 352.133 357.287 355.819Z" fill="white"/>
<path d="M373.847 344.584C374.458 348.244 371.965 351.727 368.302 352.337C364.638 352.947 361.153 350.456 360.543 346.795C359.932 343.135 362.425 339.652 366.088 339.042C369.752 338.432 373.237 340.923 373.847 344.584Z" fill="white"/>
<path d="M10.3975 513.604C12.9923 509.359 74.4025 408.059 76.9719 403.814C89.8187 382.715 99.2057 360.014 108.288 337.034C117.471 313.775 112.51 286.066 95.5679 268.043C94.8047 267.23 91.6503 265.756 90.5564 265.501C88.2923 264.993 86.2063 267.408 86.1809 269.721C86.1554 272.034 87.5037 274.144 88.8774 276C91.1669 279.127 93.6854 282.203 94.9065 285.888C96.1276 289.574 95.7206 294.099 92.7951 296.641C88.5722 296.921 86.6388 291.557 85.9774 287.388C83.5606 272.314 81.5764 256.604 77.0482 242.013C75.9797 238.581 71.6551 235.073 68.348 236.471C66.262 237.361 65.6769 240.005 65.4225 242.267C63.9216 255.892 65.8549 269.416 67.0506 283.092C66.5672 271.882 63.9979 260.926 63.5145 249.715C63.3873 246.69 63.6926 242.547 62.3189 239.852C60.9452 237.158 57.9688 235.022 55.0179 235.582C52.3722 236.09 50.4897 238.581 49.8537 241.174C49.1923 243.767 49.0651 247.529 49.3449 250.198C50.6678 262.4 50.9221 274.729 50.1081 286.982C49.9555 277.144 48.8616 267.332 46.801 257.723C46.1141 254.571 45.0203 251.012 42.0947 249.664C38.5841 248.063 34.3612 250.758 32.8349 254.266C31.2831 257.774 31.6647 261.79 31.8682 265.628C33.5472 295.574 31.4866 344.076 -81.3108 491.184L10.3975 513.604Z" fill="#A694F5"/>
<path d="M53.9232 236.475C55.1189 241.101 53.5925 245.702 49.9802 248.804C48.8354 249.769 50.489 251.422 51.6337 250.456C55.8821 246.846 57.561 241.228 56.1873 235.865C55.8057 234.416 53.5417 235.026 53.9232 236.475Z" fill="#8978E3"/>
<path d="M68.703 238.354C70.5091 241.964 69.517 246.514 66.2862 249.005C65.116 249.895 66.2862 251.929 67.4564 251.013C71.7302 247.709 73.1039 242.04 70.7127 237.185C70.0512 235.837 68.0415 237.007 68.703 238.354Z" fill="#8978E3"/>
<path d="M38.2787 249.869C39.1691 253.326 38.5331 256.885 36.5234 259.859C35.5313 261.334 34.2085 262.528 32.6821 263.444C31.8681 263.927 31.0794 264.079 30.6215 264.943C30.3417 265.503 30.4689 266.189 31.0286 266.545C31.1049 266.596 31.2066 266.647 31.283 266.697C31.8426 267.053 32.5295 266.799 32.8856 266.291C32.9365 266.24 32.962 266.164 33.0128 266.113C33.8778 264.893 31.8426 263.723 31.0031 264.943C30.9523 264.994 30.9268 265.07 30.8759 265.121C31.4102 264.994 31.9444 264.842 32.4786 264.715C32.4023 264.664 32.3005 264.613 32.2242 264.562C32.3514 265.096 32.504 265.63 32.6312 266.164C33.0637 265.299 35.5568 264.41 36.4471 263.571C37.7445 262.35 38.813 260.851 39.5761 259.249C41.0771 256.097 41.3823 252.665 40.5174 249.31C40.1612 247.81 37.9226 248.42 38.2787 249.869Z" fill="#8978E3"/>
<path d="M47.9715 268.018C47.9969 275.11 47.5645 282.152 46.5978 289.168C46.3943 290.642 48.6329 291.252 48.8364 289.778C49.8031 282.559 50.3119 275.314 50.2865 267.993C50.2865 266.518 47.9461 266.518 47.9715 268.018Z" fill="#8978E3"/>
<path d="M63.9718 257.06C64.8367 268.88 65.7016 280.701 66.592 292.521C66.6938 293.996 69.0342 294.021 68.907 292.521C68.042 280.701 67.1771 268.88 66.2867 257.06C66.185 255.585 63.87 255.585 63.9718 257.06Z" fill="#8978E3"/>
<path d="M35.0983 301.291C37.4642 301.393 39.7537 301.901 41.9669 302.791C43.3661 303.35 43.9512 301.088 42.5775 300.554C40.1607 299.588 37.6931 299.08 35.0983 298.978C33.5974 298.902 33.5974 301.24 35.0983 301.291Z" fill="white"/>
<path d="M52.0657 304.062C54.8131 304.647 57.5606 304.901 60.3589 304.825C61.8598 304.774 61.8598 302.461 60.3589 302.511C57.7641 302.588 55.2202 302.384 52.6762 301.825C51.2262 301.52 50.6157 303.757 52.0657 304.062Z" fill="white"/>
<path d="M71.0688 304.345C74.096 304.624 77.1233 304.904 80.1506 305.183C81.6515 305.31 81.626 302.997 80.1506 302.87C77.1233 302.59 74.096 302.311 71.0688 302.031C69.5933 301.879 69.5933 304.192 71.0688 304.345Z" fill="white"/>
<path d="M101.623 311.564C104.039 312.759 106.583 313.42 109.28 313.547C110.781 313.623 110.781 311.285 109.28 311.234C107.016 311.132 104.828 310.573 102.793 309.582C101.47 308.895 100.274 310.903 101.623 311.564Z" fill="white"/>
<path d="M98.187 272.618C94.5746 274.22 91.1403 270.763 92.2597 267.153C92.6921 265.729 90.4535 265.094 90.021 266.543C88.2657 272.288 94.0404 276.991 99.3826 274.627C100.731 274.016 99.5353 272.034 98.187 272.618Z" fill="#8978E3"/>
<path d="M66.4902 432.589L-16.009 383.934L-31.4761 405.973C-3.7728 422.802 23.4726 440.316 51.3285 456.662L66.4902 432.589Z" fill="white"/>
<path d="M-31.4506 406.001L-119.297 528.851L-31.4506 585.481L51.3541 456.689C23.4982 440.344 -3.77271 422.829 -31.4506 406.001Z" fill="#C2B1FF"/>
<path d="M34.5141 460.654C34.5141 463.247 32.4026 465.357 29.8078 465.357C27.213 465.357 25.1016 463.247 25.1016 460.654C25.1016 458.061 27.213 455.951 29.8078 455.951C32.4026 455.951 34.5141 458.061 34.5141 460.654Z" fill="#8978E3"/>
<path d="M25.1012 478.297C25.1012 480.89 22.9898 483 20.395 483C17.8002 483 15.6887 480.89 15.6887 478.297C15.6887 475.704 17.8002 473.594 20.395 473.594C22.9898 473.594 25.1012 475.704 25.1012 478.297Z" fill="#8978E3"/>
<path d="M216.962 220.836C223.169 206.88 232.582 194.755 244.589 185.298C245.759 184.383 244.106 182.731 242.936 183.646C230.801 193.204 221.211 205.533 214.952 219.641C214.342 221.014 216.352 222.209 216.962 220.836Z" fill="white"/>
<path d="M256.853 178.029C260.999 176.173 265.324 174.928 269.801 174.241C271.277 174.013 270.641 171.776 269.191 172.004C264.484 172.716 260.007 174.089 255.682 176.046C254.309 176.631 255.479 178.639 256.853 178.029Z" fill="white"/>
<path d="M92.3114 186.368C101.978 176.733 115.258 171.903 128.868 173.022C130.368 173.149 130.343 170.81 128.868 170.709C114.698 169.539 100.732 174.674 90.6578 184.715C89.6148 185.783 91.2684 187.41 92.3114 186.368Z" fill="white"/>
</g>
<defs>
<clipPath id="clip0_977_2939">
<rect width="402" height="579" fill="white"/>
</clipPath>
<clipPath id="clip1_977_2939">
<rect width="680.504" height="493.194" fill="white" transform="translate(10.5967 -38) rotate(30)"/>
</clipPath>
</defs>
</svg>
