<svg width="402" height="404" viewBox="0 0 402 404" fill="none" xmlns="http://www.w3.org/2000/svg">
<g clip-path="url(#clip0_1303_2065)">
<rect x="-159" y="-316" width="720" height="720" rx="360" fill="#6260FF"/>
<mask id="mask0_1303_2065" style="mask-type:alpha" maskUnits="userSpaceOnUse" x="-417" y="-116" width="960" height="575">
<g opacity="0.48">
<path d="M73.1625 456.396H139.871C140.92 455.688 141.513 454.938 141.889 453.927C143.009 450.823 144.137 447.762 145.258 444.694C148.852 434.978 152.597 424.966 155.366 414.795C157.051 408.818 158.468 402.69 159.857 396.785C160.833 392.678 161.802 388.563 162.857 384.528C165.923 372.083 171.389 361.804 179.589 353.062C181.874 350.637 184.195 348.276 186.516 345.959C190.254 342.22 194.072 338.408 197.521 334.301C207.853 321.82 213.724 306.351 215.488 286.839L215.864 282.689C216.761 272.676 217.665 262.325 219.53 252.306C223.796 229.697 226.638 206.266 228.214 180.705C228.67 173.905 229.566 165.012 232.936 156.566C237.202 145.731 244.468 139.155 254.345 136.946C256.963 136.383 259.508 136.123 262.017 136.123C270.065 136.123 277.852 138.96 285.111 144.569C295.328 152.343 302.783 163.59 307.945 178.951C312.363 191.995 313 205.746 313.26 217.628C313.556 226.673 313.932 236.309 315.581 246.025C319.066 266.88 328.646 283.916 344.026 296.7C349.904 301.558 356.231 305.889 362.37 310.155L366.563 313.035C392.579 331.197 389.173 361.912 386.513 374.285C385.724 377.721 383.816 380.485 381.907 382.954C376.368 390.014 368.696 391.624 361.914 392.598C356.368 393.356 350.945 393.472 346.824 393.472C344.619 393.472 342.442 393.435 340.273 393.399C338.097 393.363 335.928 393.363 333.722 393.363C332.558 393.363 331.358 393.363 330.165 393.363C323.954 393.551 318.9 394.186 314.222 395.457C293.933 400.762 276.261 412.276 260.166 430.582C255.003 436.487 250.882 443.814 247.216 453.71C246.616 455.241 246.471 455.876 246.847 456.403H278.105C279.269 455.732 279.942 454.497 280.759 452.887C285.74 443.135 291.019 436.068 297.382 430.654C309.659 420.267 324.033 415.445 342.674 415.445C345.739 415.445 349.109 415.596 352.558 415.856C361.994 416.643 372.095 417.502 382.203 418.621C388.79 419.328 395.384 420.043 401.82 421.833C407.438 423.4 411.183 426.879 413.164 432.445C414.965 437.562 416.273 443.28 417.206 450.491L417.394 451.797C417.546 453.631 417.734 455.233 418.739 456.396H448.384C449.433 455.537 450.257 454.418 451.154 453.219C455.644 446.716 460.589 442.457 466.352 439.916C471.746 437.599 477.393 435.989 482.896 434.458L483.264 434.343C485.021 433.859 486.786 433.412 488.543 432.957C495.578 431.087 502.845 429.146 509.584 426.078C519.424 421.595 525.643 416.362 529.605 409.114C536.344 396.705 538.737 383.142 536.72 368.755C533.69 347.266 523.77 332.208 506.438 322.643C492.064 314.724 476.757 309.823 465.08 306.423C462.874 305.788 460.662 305.153 458.42 304.553C450.893 302.46 443.113 300.258 435.738 296.931C422.672 291.178 414.625 280.79 411.856 266.136C410.503 259.077 410.503 251.937 410.503 245.058V241.247C410.503 234.671 411.552 227.719 413.649 219.945C419.339 198.795 431.993 181.831 452.462 167.964C463.395 160.601 475.26 154.776 486.786 149.131C489.555 147.745 492.36 146.402 495.173 144.98C505.802 139.639 517.147 133.582 527.66 125.772C532.526 122.22 537.472 118.113 540.689 112.316V40.6289C540.162 40.7011 539.569 41.3002 538.969 41.8994C538.593 42.1953 538.296 42.5346 537.992 42.7945C529.453 50.2657 522.642 56.5097 516.655 62.4145C504.826 74.0724 494.349 86.8204 482.216 102.398C471.587 115.962 462.787 125.866 453.619 134.499C451.414 136.556 449.201 138.606 446.989 140.664C438.985 148.099 430.706 155.837 423.15 164.059C415.478 172.468 408.775 182.293 402.709 194.102C394.886 209.427 391.588 226.276 389.079 240.886L388.783 242.828C387.51 250.378 386.238 258.153 383.244 265.4C380.547 271.976 375.602 275.636 369.391 275.636C368.154 275.636 366.882 275.484 365.609 275.188C362.5 274.517 359.47 273.319 356.029 271.305C345.848 265.552 341.242 255.532 338.024 246.495C334.243 235.847 333.303 224.558 332.45 213.65L332.038 208.677C330.317 187.938 324.33 168.657 314.258 151.39C306.658 138.31 297.078 128.147 285.769 121.195C275.885 115.103 264.808 112.15 251.93 112.15C246.876 112.15 241.598 112.598 235.756 113.493C224.078 115.29 216.443 121.903 213.146 133.149C211.237 139.617 210.673 146.453 210.333 152.242C210.037 157.923 209.849 163.64 209.697 169.357C209.509 175.71 209.328 182.286 208.952 188.826C208.092 202.613 205.358 216.177 200.789 229.149C196.226 242.077 190.16 255.641 181.736 271.897C173.761 287.33 163.993 297.905 151.751 304.185C145.461 307.398 140.218 309.606 135.388 309.563C128.917 309.563 123.595 305.752 117.681 296.671C108.397 282.508 99.0405 270.099 89.0841 258.665C80.0676 248.278 69.3592 238.258 54.3486 226.153C41.3191 215.801 32.4472 205.486 26.4604 193.713C24.6672 190.197 22.9825 186.61 21.2978 183.022C19.0491 178.236 16.7281 173.306 14.1829 168.599C4.60244 151.109 -7.63888 139.978 -23.2496 134.593C-28.1881 132.911 -33.2856 131.417 -38.1879 129.958C-45.0352 127.937 -52.0778 125.851 -58.9251 123.231C-81.2313 114.749 -95.4611 100.81 -102.424 80.6269C-107.066 67.3231 -108.302 55.925 -106.357 44.7146C-104.6 34.7025 -100.103 25.2823 -93.0316 16.685C-78.8091 -0.545709 -66.8642 -17.4299 -56.4595 -34.9277C-52.7502 -41.2439 -49.4242 -46.1019 -45.9391 -50.1732C-38.7519 -58.655 -30.8561 -62.7263 -21.8324 -62.7263H-20.8274C-7.72565 -62.2065 4.06737 -56.4534 16.3448 -44.5644C25.7807 -35.5918 31.6953 -23.7894 37.4219 -12.3552L37.8702 -11.4601C46.2504 5.24357 56.778 19.4064 69.0916 30.6529C81.3691 41.7478 93.6466 52.7416 105.996 63.7644C112.887 69.9362 119.814 76.1369 126.734 82.3377C140.732 94.934 155.027 101.063 170.413 101.063C171.577 101.063 172.77 101.027 174.007 100.947C184.556 100.312 192.083 96.948 197.774 90.3719C201.591 85.8892 204.809 80.7713 207.694 74.7149C209.263 71.4593 210.796 68.2471 212.3 65.0348C217.462 54.0482 222.856 42.7223 229.559 32.4142C237.007 21.0522 244.57 13.3212 253.369 8.0877C261.193 3.4173 268.568 1.13622 275.979 1.13622C280.809 1.13622 285.675 2.14681 290.39 4.12469C295.256 6.21807 299.594 8.39087 303.564 10.8163C306.145 12.3466 308.69 13.9564 311.206 15.5589C317.49 19.4786 324.004 23.557 330.707 26.8848C340.591 31.8151 350.736 34.2838 360.844 34.2838C365.19 34.2838 369.673 33.8363 374.098 32.9051C393.562 28.906 407.336 13.9997 410.894 -7.00629C412.246 -14.8529 412.282 -23.4141 411.082 -33.982C409.137 -51.6242 398.204 -64.3288 381.777 -67.9886C372.753 -70.0098 363.396 -70.3779 354.337 -70.7172C350.215 -70.8688 346.029 -71.0565 341.907 -71.3524C339.586 -71.504 337.265 -71.5401 334.944 -71.5401C331.351 -71.5401 327.649 -71.5762 323.939 -72.1754C307.092 -74.608 294.591 -82.0792 285.762 -94.9354C282.733 -99.346 280.072 -104.312 277.194 -111.083C276.521 -112.729 275.733 -113.733 274.533 -114.447H234.259C233.738 -113.848 233.514 -113.4 233.514 -112.729C233.514 -111.119 233.29 -109.517 233.066 -107.979C232.878 -106.297 232.69 -104.731 232.69 -103.121C232.842 -91.4633 233.254 -77.7842 235.611 -64.3721C237.108 -55.9986 235.647 -47.9643 231.193 -39.7857C226.848 -31.7876 222.733 -22.8943 218.352 -11.7561C216.783 -7.79313 215.25 -3.79405 213.71 0.161716C209.444 11.2278 205.062 22.662 199.675 33.4248C194.361 44.1155 189.343 51.6228 183.464 57.7513C176.545 65.1936 168.381 68.9617 159.249 68.9617C158.721 68.9617 158.201 68.9617 157.68 68.9256C149.748 68.442 141.954 65.7495 134.47 60.8914C123.841 53.9399 113.581 46.0212 103.704 38.3623L97.2618 33.3526C87.6091 25.9897 78.701 17.3635 70.9065 7.79174C61.8466 -3.41867 55.9321 -16.7225 50.8851 -29.391C42.946 -49.1265 31.529 -67.2451 15.9616 -84.6995C9.8952 -91.5427 3.34432 -100.097 0.58225 -111.495C0.242415 -112.845 -0.278178 -113.776 -1.14584 -114.447H-47.0381L-47.1899 -114.26C-48.0142 -113.437 -48.7228 -112.693 -49.135 -111.719C-52.6924 -102.262 -58.8673 -94.228 -67.9633 -87.1683L-71.7087 -84.252C-79.7563 -78.0513 -88.028 -71.6195 -95.4394 -64.336C-106.372 -53.3855 -116.401 -40.984 -126.169 -26.482C-134.781 -13.5535 -144.246 -3.34649 -155.214 4.75995C-160.232 8.53525 -165.207 13.0974 -170.897 19.1104C-180.217 28.8266 -188.865 39.4811 -197.209 49.7892C-199.906 53.117 -202.596 56.4375 -205.329 59.7653C-213.153 69.301 -218.763 77.8549 -222.921 86.6327C-233.253 107.971 -235.538 131.178 -236.435 151.058C-237.107 164.398 -235.502 178.597 -231.345 195.64C-228.763 206.475 -226.254 218.133 -226.666 230.282C-227.23 248.783 -232.017 265.631 -241.005 280.321C-249.84 294.743 -263.087 302.034 -280.346 302.034C-281.206 302.034 -282.067 301.998 -282.927 301.998C-294.084 301.514 -305.385 298.259 -316.506 292.318C-325.602 287.532 -333.874 281.671 -343.454 274.308C-362.651 259.539 -384.365 249.967 -409.925 245.109C-410.301 245.073 -410.713 244.957 -411.125 244.849C-411.833 244.697 -412.513 244.51 -413.149 244.51C-413.634 244.51 -414.046 244.625 -414.422 244.885V284.76C-413.822 285.323 -413.41 285.432 -412.961 285.432C-410.756 285.432 -408.883 285.691 -407.083 285.915C-405.622 286.103 -404.198 286.254 -402.737 286.327C-394.205 286.774 -386.382 288.045 -378.891 290.21C-369.195 292.903 -360.063 297.313 -351.191 301.572C-348.306 302.915 -345.464 304.301 -342.579 305.607C-322.218 315.028 -303.014 319.583 -283.846 319.583C-278.459 319.583 -272.993 319.207 -267.635 318.464C-250.939 316.219 -237.917 307.181 -228.893 291.481C-221.33 278.401 -215.944 262.816 -211.822 242.452C-209.313 230.123 -208.793 219.136 -210.21 208.821C-211.186 201.718 -212.871 194.622 -214.476 187.743C-215.076 185.202 -215.676 182.733 -216.233 180.192C-219.899 163.9 -220.723 148.691 -218.814 133.777C-214.736 102.983 -199.986 79.9628 -174.983 65.3163C-168.359 61.4255 -162.481 59.5631 -157.015 59.5631C-148.591 59.5631 -141.216 64.0098 -134.52 73.1268C-129.842 79.3276 -125.837 86.0913 -121.947 92.6313C-120.486 95.0207 -119.062 97.4533 -117.565 99.8787C-107.088 116.655 -92.6339 129.626 -74.6298 138.368C-67.2908 141.992 -59.6193 145.016 -52.1718 147.969C-47.7178 149.723 -43.2637 151.484 -38.8459 153.347C-17.9207 162.464 -6.12768 177.637 -2.83778 199.762C-1.29768 210.229 -0.632467 220.688 -0.813231 231.603C-0.928919 235.566 -0.480619 239.529 0.531657 243.412C2.44052 250.963 6.89453 255.294 14.1612 256.528C17.415 257.128 20.7483 257.164 23.6332 257.164H25.3179H27.0388H28.2391C40.9287 257.236 52.606 262.773 61.1742 272.712C70.5377 283.627 74.6519 298.273 72.4466 312.92C69.8219 330.331 63.1626 346.587 57.2842 360.901C56.1996 363.558 55.0789 366.171 53.9509 368.748C50.097 377.865 46.0913 387.206 43.2425 396.965C39.2006 411.056 40.3575 422.187 46.9084 431.983C50.7261 437.736 55.7079 442.298 60.4945 446.405C61.8033 447.488 63.0758 448.722 64.3122 449.921C67.0599 452.7 69.6846 455.277 73.1625 456.396ZM72.9383 457.933C67.284 456.215 63.8423 451.206 59.4606 447.582C54.3703 443.207 49.468 438.652 45.6141 432.856C38.0148 421.458 38.0871 409.273 41.7602 396.568C45.4695 383.972 50.8924 372.278 55.8381 360.36C62.1648 344.891 68.3758 329.494 70.921 312.71C75.1509 284.457 54.9776 258.824 28.2174 258.708C27.8053 258.708 27.3931 258.708 27.0171 258.708C25.853 258.708 24.7323 258.708 23.6115 258.708C20.3506 258.708 17.133 258.636 13.8792 258.073C5.94731 256.687 1.08115 251.945 -0.979554 243.795C-1.9846 239.832 -2.47625 235.725 -2.36056 231.61C-2.17257 220.999 -2.80888 210.532 -4.37791 199.993C-7.71119 177.572 -20.1043 163.185 -39.4532 154.776C-51.3186 149.694 -63.5961 145.543 -75.3095 139.754C-93.2413 131.048 -107.912 118.264 -118.881 100.666C-124.383 91.7362 -129.437 82.4676 -135.764 74.0219C-142.351 65.0493 -149.35 61.0935 -157.022 61.0935C-162.409 61.0935 -168.099 63.0786 -174.202 66.6301C-199.017 81.1683 -213.319 103.849 -217.288 133.972C-219.313 149.557 -218.149 164.73 -214.743 179.896C-212.61 189.389 -210.029 198.881 -208.677 208.633C-207.108 220.104 -208.041 231.538 -210.325 242.748C-213.803 260.087 -218.749 276.979 -227.541 292.224C-236.674 308.069 -249.927 317.634 -267.403 319.951C-272.942 320.737 -278.408 321.106 -283.838 321.106C-304.315 321.106 -324.04 315.836 -343.208 307.015C-355.11 301.558 -366.679 295.133 -379.296 291.69C-387.047 289.445 -394.827 288.254 -402.802 287.843C-406.1 287.727 -409.353 286.984 -412.687 286.984C-412.759 286.984 -412.838 286.984 -412.911 286.984H-412.961C-414.234 286.984 -415.094 286.276 -415.955 285.338C-415.955 271.55 -415.955 257.943 -415.955 244.156C-415.058 243.261 -414.118 242.958 -413.149 242.958C-411.949 242.958 -410.756 243.405 -409.628 243.593C-385.261 248.227 -362.687 257.532 -342.514 273.081C-333.982 279.657 -325.298 285.973 -315.79 290.983C-305.458 296.476 -294.38 299.991 -282.848 300.439C-282.023 300.511 -281.163 300.511 -280.339 300.511C-264.692 300.511 -251.402 294.383 -242.306 279.512C-233.174 264.563 -228.72 248.047 -228.192 230.26C-227.78 218.487 -230.137 207.24 -232.834 196.03C-236.428 181.268 -238.749 166.282 -237.961 151.001C-236.948 128.544 -234.143 106.347 -224.295 86.0119C-219.581 76.0359 -213.326 67.1065 -206.515 58.8052C-195.17 45.0539 -184.317 30.9272 -172.004 18.0709C-167.065 12.8375 -161.823 7.82783 -156.096 3.53279C-144.679 -4.91291 -135.395 -15.3365 -127.427 -27.3337C-118.223 -41.0129 -108.078 -53.7897 -96.5095 -65.4116C-87.8979 -73.8934 -78.3536 -80.9964 -68.8816 -88.3593C-60.7978 -94.6395 -54.3193 -102.262 -50.5377 -112.274C-49.9014 -113.848 -48.7445 -114.823 -47.6527 -115.978C-32.0058 -115.978 -16.3589 -115.978 -0.639705 -115.978C0.820865 -115.003 1.64513 -113.66 2.09343 -111.87C4.60242 -101.519 10.4447 -93.2968 17.1402 -85.7101C31.811 -69.2302 43.8643 -50.9961 52.324 -29.954C57.5228 -16.9462 63.2927 -4.09721 72.1285 6.81723C79.8724 16.3457 88.5997 24.7914 98.2163 32.1543C110.458 41.5745 122.439 51.2113 135.352 59.6209C142.279 64.1036 149.763 66.9116 157.774 67.3953C158.295 67.4314 158.779 67.4314 159.271 67.4314C168.215 67.4314 175.966 63.62 182.402 56.7118C189.032 49.7604 194.007 41.4302 198.309 32.7607C205.568 18.2225 210.926 2.78929 216.949 -12.3047C220.803 -22.0209 224.924 -31.4772 229.863 -40.522C233.905 -47.885 235.626 -55.5871 234.129 -64.105C231.88 -76.9612 231.323 -90.0412 231.215 -103.078C231.135 -106.362 231.96 -109.546 231.96 -112.722C231.96 -114.144 232.704 -115.039 233.608 -115.97C247.382 -115.97 261.193 -115.97 274.967 -115.97C276.724 -115.039 277.809 -113.653 278.597 -111.675C280.99 -106.146 283.615 -100.768 287.056 -95.7944C296.261 -82.3391 309.102 -75.8785 324.185 -73.6696C330.1 -72.7312 336.094 -73.2942 342.045 -72.8828C355.407 -71.8794 368.848 -72.4352 382.131 -69.4828C398.674 -65.7797 410.576 -52.8874 412.6 -34.1697C413.649 -25.0527 413.981 -15.8563 412.448 -6.73922C408.783 14.8587 394.632 30.2558 374.416 34.4065C369.853 35.381 365.32 35.8286 360.866 35.8286C350.273 35.8286 339.977 33.2082 330.02 28.278C320.584 23.5715 311.828 17.5873 302.848 12.1301C298.618 9.58916 294.316 7.45968 289.826 5.55399C285.148 3.56888 280.542 2.67379 276.008 2.67379C268.524 2.67379 261.258 5.13529 254.186 9.39423C244.454 15.1907 237.187 23.6364 230.904 33.2371C222.292 46.4687 216.045 61.1151 209.118 75.3501C206.385 81.1394 203.095 86.5244 198.938 91.3825C192.199 99.2652 183.587 101.922 174.159 102.485C172.886 102.557 171.686 102.6 170.449 102.6C153.342 102.6 138.671 95.1289 125.721 83.4638C106.553 66.2331 87.2403 49.1179 68.1155 31.779C55.0499 19.8611 44.6813 5.43125 36.5253 -10.7816C30.6469 -22.5118 24.8046 -34.4368 15.3398 -43.4816C5.08688 -53.3855 -6.51814 -60.6329 -20.8202 -61.1959C-21.16 -61.1959 -21.4564 -61.1959 -21.7963 -61.1959C-31.1598 -61.1959 -38.6073 -56.41 -44.746 -49.1987C-48.6794 -44.5644 -52.0055 -39.4464 -55.1146 -34.1408C-66.0038 -15.7913 -78.3608 1.35999 -91.7952 17.6595C-98.3099 25.5421 -102.988 34.5509 -104.825 44.9745C-106.921 57.08 -104.897 68.7451 -100.935 80.1432C-93.451 101.821 -78.0282 114.301 -58.3394 121.809C-46.626 126.255 -34.4931 129.136 -22.7435 133.135C-5.37572 139.112 6.60529 151.52 15.5495 167.892C20.0035 176.078 23.5971 184.747 27.827 193.041C34.4863 206.121 44.262 216.17 55.3392 224.955C67.7685 234.967 79.7423 245.506 90.2988 257.691C100.704 269.652 110.212 282.429 118.968 295.805C124.731 304.626 129.64 308.062 135.403 308.062C139.864 308.062 144.803 306.041 151.086 302.792C164.376 295.956 173.436 284.666 180.355 271.139C187.542 257.387 194.129 243.412 199.335 228.65C203.869 215.794 206.559 202.454 207.419 188.703C208.135 176.518 208.207 164.34 208.807 152.155C209.176 145.615 209.812 139.003 211.692 132.687C215.322 120.278 224.042 113.738 235.532 111.984C241.034 111.125 246.536 110.598 251.93 110.598C263.911 110.598 275.589 113.103 286.594 119.867C298.792 127.381 308.227 137.957 315.566 150.582C325.899 168.332 331.813 187.649 333.534 208.54C334.655 221.136 335.183 233.913 339.485 245.946C342.963 255.814 347.605 264.779 356.817 269.941C359.702 271.659 362.695 273.008 365.949 273.68C367.142 273.94 368.27 274.055 369.391 274.055C374.965 274.055 379.347 270.807 381.82 264.823C385.001 257.084 386.194 248.862 387.583 240.648C390.352 224.355 393.801 208.215 401.357 193.409C407.047 182.307 413.714 172.108 422.022 162.991C431.674 152.451 442.231 143.075 452.564 133.358C462.896 123.606 472.137 112.771 481.008 101.445C491.861 87.4701 503.054 73.6465 515.556 61.31C522.483 54.5102 529.706 47.9702 537.009 41.5818C538.13 40.6795 539.178 39.0769 540.747 39.0769C541.203 39.0769 541.687 39.1924 542.208 39.4884C542.208 63.9232 542.208 88.3291 542.208 112.692C538.875 118.82 533.864 123.115 528.549 127.006C518.289 134.629 507.176 140.649 495.838 146.366C481.464 153.578 466.793 160.154 453.315 169.235C435.087 181.564 421.197 197.676 415.138 220.32C413.265 227.12 411.993 234.144 411.993 241.247C412.065 249.469 411.769 257.655 413.338 265.833C416.071 280.184 423.743 289.972 436.324 295.545C445.76 299.768 455.716 302.085 465.521 304.965C479.823 309.116 493.893 313.974 507.183 321.293C525.411 331.305 535.216 347.338 538.253 368.531C540.313 383.178 537.956 397.009 530.957 409.865C526.163 418.607 518.643 423.652 510.22 427.464C501.681 431.391 492.664 433.332 483.684 435.794C478.066 437.36 472.382 438.934 466.952 441.323C460.886 443.936 456.316 448.426 452.498 453.92C451.414 455.378 450.365 456.836 448.905 457.919C438.572 457.919 428.356 457.919 418.059 457.919C415.963 456.013 416.035 453.284 415.666 450.671C414.878 444.694 413.721 438.71 411.696 432.957C409.824 427.724 406.382 424.663 401.364 423.277C395.001 421.523 388.559 420.852 382.051 420.101C372.167 419.054 362.29 418.195 352.406 417.372C349.145 417.112 345.891 416.961 342.674 416.961C326.767 416.961 311.684 420.548 298.394 431.795C291.395 437.736 286.377 445.286 282.111 453.58C281.214 455.335 280.31 457.016 278.481 457.919C267.729 457.933 256.948 457.933 246.175 457.933C244.562 456.511 245.126 454.865 245.763 453.147C248.98 444.55 253.029 436.407 258.98 429.608C274.179 412.341 292.067 399.716 313.853 393.955C319.211 392.533 324.634 392.013 330.172 391.862C331.365 391.826 332.529 391.79 333.73 391.79C338.104 391.79 342.45 391.941 346.831 391.941C351.813 391.941 356.752 391.79 361.69 391.118C368.913 390.072 375.688 388.426 380.706 382.037C382.579 379.605 384.3 377.064 385.009 374.003C389.499 353.149 386.462 328.822 365.652 314.284C358.017 308.978 350.266 303.897 343.042 297.876C327.099 284.688 317.591 267.349 314.034 246.271C312.421 236.779 312.016 227.214 311.749 217.685C311.452 204.757 310.628 191.785 306.434 179.456C301.944 166.044 295.205 154.191 284.2 145.789C277.425 140.591 269.978 137.682 262.003 137.682C259.609 137.682 257.173 137.942 254.7 138.469C244.707 140.671 238.156 147.478 234.338 157.115C231.345 164.701 230.26 172.736 229.776 180.842C228.279 204.945 225.503 228.86 221.013 252.594C218.923 263.92 218.055 275.463 217.043 287.012C215.402 304.987 210.232 321.394 198.699 335.297C193.081 341.946 186.646 347.778 180.695 354.13C172.532 362.836 167.254 373.036 164.296 384.925C161.715 395.016 159.618 405.18 156.849 415.228C153.139 428.64 148.013 441.424 143.299 454.468C142.699 456.114 141.65 457.125 140.305 457.94C117.854 457.933 95.3964 457.933 72.9383 457.933Z" fill="#222159"/>
<path d="M-307.519 456.395H-277.237C-276.897 455.464 -277.165 454.453 -277.577 452.923L-277.765 452.252C-281.879 437.042 -290.006 424.446 -298.126 413.091C-300.599 409.727 -303.108 406.364 -305.653 403C-310.816 396.2 -316.137 389.133 -320.736 381.626C-323.541 377.063 -326.99 370.863 -328.408 363.536C-329.716 356.512 -328.032 351.127 -323.165 347.092C-319.984 344.479 -316.506 343.208 -313.809 342.386C-304.785 339.693 -295.465 339.022 -286.485 338.35L-281.619 337.975L-279.45 337.823C-271.626 337.152 -263.506 336.481 -255.755 334.835C-235.539 330.576 -222.032 319.589 -214.433 301.204C-206.457 282.147 -199.986 260.433 -193.956 232.967C-190.174 215.556 -190.586 199.032 -195.156 182.444C-197.737 172.952 -199.95 164.282 -200.774 155.201C-202.495 134.795 -198.569 119.585 -188.381 107.292C-181.382 98.8822 -172.734 94.284 -164.014 94.284C-157.427 94.284 -150.912 96.9765 -145.15 102.022C-140.356 106.281 -135.829 111.067 -131.224 116.597C-122.691 126.652 -115.201 134.087 -107.717 139.992C-99.0693 146.683 -89.3731 151.989 -80.0168 157.107L-77.8838 158.305L-74.6662 160.096C-66.5463 164.47 -58.195 168.989 -50.7837 175.305C-40.6754 183.902 -35.8093 194.997 -36.301 208.265C-36.7131 219.887 -39.4462 231.769 -44.9487 245.52C-50.791 260.166 -60.2196 269.139 -73.8492 273.138C-81.7811 275.419 -91.7014 278.256 -100.877 281.844C-129.85 293.09 -154.144 311.216 -173.117 335.73C-192.018 360.057 -208.337 388.346 -226.045 427.434C-229.523 435.057 -232.408 443.351 -234.577 451.985L-234.801 452.808C-235.249 454.417 -235.473 455.464 -234.953 456.395H-213.167C-212.271 455.385 -211.931 453.97 -211.598 452.36C-208.677 437.598 -203.211 422.988 -194.903 407.778C-187.079 393.5 -178.656 379.337 -170.536 365.629L-167.058 359.797C-158.338 344.926 -150.254 333.038 -139.061 323.473C-121.209 308.3 -104.702 301.276 -87.11 301.276C-86.2857 301.276 -85.4614 301.276 -84.601 301.276C-63.4517 302.171 -50.2776 311.627 -43.0904 331.096C-38.0001 344.775 -35.0429 359.198 -32.4977 372.761C-29.4681 388.945 -25.5781 407.699 -17.7112 424.778L-17.1111 426.085C-13.0258 435.093 -8.83937 444.398 -6.40268 454.41C-6.28699 455.045 -5.95439 455.385 -5.35425 456.02C-5.20241 456.135 -5.09394 456.28 -4.98549 456.395H69.1276C67.0669 454.417 65.0496 452.468 63.0612 450.527C61.4198 448.917 59.7279 447.423 58.007 445.892C54.1098 442.456 50.0317 438.869 46.8503 434.234C41.3117 426.243 38.9473 418.917 39.4028 411.178C39.8511 403.519 41.8323 395.334 45.6862 385.502C48.159 379.222 50.7403 372.985 53.3216 366.741C56.3946 359.342 59.4604 351.943 62.3815 344.428C66.944 332.655 71.6293 318.608 71.4413 303.55C71.2895 283.706 57.6238 264.981 39.6993 260.051C35.1296 258.744 30.6032 258.665 25.7732 258.593C23.6764 258.557 21.5434 258.52 19.4104 258.369C7.09674 257.474 0.806178 254.442 -1.55098 239.536C-2.44757 234.158 -2.41141 228.773 -2.37525 223.503C-2.3391 219.208 -2.33911 214.718 -2.82356 210.423C-3.79968 202.014 -5.14455 192.297 -8.84659 183.404C-14.3129 170.476 -24.0452 161.279 -39.5041 154.48C-44.2979 152.386 -49.2364 150.444 -54.0302 148.539C-64.247 144.54 -74.8036 140.353 -84.572 134.448C-96.3289 127.309 -105.606 118.943 -112.909 108.887C-116.842 103.582 -120.32 97.785 -123.653 92.2195C-127.543 85.7517 -131.549 79.0673 -136.27 73.1626C-143.045 64.4931 -148.736 60.9776 -156.032 60.9776C-159.249 60.9776 -162.843 61.649 -167.073 63.071C-178.374 66.7741 -188.41 74.4691 -198.663 87.3614C-214.722 107.653 -220.933 132.954 -217.679 164.715C-216.927 172.114 -215.134 179.477 -213.413 186.616C-212.704 189.453 -212.025 192.297 -211.389 195.134C-208.359 208.958 -207.571 219.721 -208.728 229.964C-211.533 253.958 -217.896 274.51 -228.192 292.816C-235.003 305.001 -244.7 313.223 -256.977 317.178C-264.873 319.719 -273.188 320.99 -282.429 320.99C-286.319 320.99 -290.44 320.766 -294.67 320.318C-314.359 318.261 -333.375 312.4 -351.083 302.828C-371.184 292.087 -391.733 286.853 -413.93 286.853H-414.415V390.064C-414.075 390.36 -413.706 390.512 -413.142 390.512C-412.803 390.512 -412.47 390.439 -412.094 390.36C-409.621 389.985 -407.228 389.501 -404.798 389.017C-402.065 388.49 -399.296 387.971 -396.527 387.523C-391.284 386.736 -386.91 386.368 -382.789 386.368C-375.305 386.368 -368.675 387.675 -362.536 390.367C-350.895 395.601 -340.374 403.671 -330.418 414.997C-319.789 427.139 -312.862 439.85 -309.196 453.934C-308.936 455.089 -308.379 455.876 -307.519 456.395ZM-307.887 457.933C-309.384 457.182 -310.281 455.955 -310.693 454.345C-314.511 439.619 -321.886 427.066 -331.582 416.008C-340.678 405.692 -350.895 397.326 -363.172 391.789C-369.607 388.952 -376.158 387.906 -382.789 387.906C-387.279 387.906 -391.769 388.353 -396.302 389.061C-401.508 389.884 -406.635 391.039 -411.834 391.898C-412.282 391.97 -412.73 392.013 -413.142 392.013C-414.227 392.013 -415.167 391.717 -415.948 390.67C-415.948 355.545 -415.948 320.456 -415.948 285.366C-415.275 285.366 -414.603 285.366 -413.923 285.366C-391.538 285.366 -370.468 290.744 -350.367 301.507C-332.775 310.999 -314.135 316.752 -294.518 318.81C-290.476 319.221 -286.434 319.481 -282.429 319.481C-274.005 319.481 -265.661 318.398 -257.462 315.742C-245.293 311.815 -235.936 303.593 -229.537 292.087C-218.756 272.95 -212.842 252.024 -210.261 229.827C-208.916 218.169 -210.412 206.807 -212.878 195.445C-215.127 185.317 -218.12 175.305 -219.205 164.874C-222.162 136.065 -217.86 109.154 -199.856 86.4375C-191.136 75.4508 -180.839 65.9584 -167.55 61.6273C-163.204 60.1692 -159.43 59.4617 -156.024 59.4617C-147.716 59.4617 -141.686 63.7568 -135.063 72.2025C-126.191 83.3407 -120.125 96.5651 -111.665 107.999C-103.993 118.538 -94.5213 126.609 -83.7767 133.149C-69.5542 141.746 -53.8712 146.525 -38.8967 153.101C-25.1949 159.114 -13.7055 167.899 -7.41496 182.812C-3.78522 191.518 -2.36078 200.823 -1.2762 210.243C-0.184385 219.959 -1.61606 229.675 -0.0398023 239.319C2.12936 252.998 7.25583 255.987 19.5333 256.882C26.424 257.329 33.2713 256.658 40.1187 258.6C58.8385 263.754 72.8007 282.89 73.0176 303.521C73.1695 318.211 68.9757 331.774 63.8131 344.999C58.4264 358.786 52.5407 372.35 47.1178 386.108C43.9364 394.179 41.4274 402.516 40.9429 411.294C40.4585 419.588 43.5676 426.763 48.1662 433.339C52.5841 439.807 58.759 444.174 64.153 449.408C67.0669 452.245 70.0314 455.089 72.9525 457.926C46.8213 457.926 20.6179 457.926 -5.61452 457.926C-6.4388 456.879 -7.60293 456.28 -7.86323 454.749C-10.3722 444.434 -14.754 434.978 -19.0561 425.413C-26.6916 408.818 -30.5888 391.031 -33.9582 373.021C-36.6191 359.01 -39.4968 345.035 -44.4787 331.615C-51.2537 313.302 -63.3793 303.665 -84.6444 302.842C-85.4686 302.77 -86.2568 302.77 -87.0811 302.77C-106.654 302.77 -123.017 311.887 -138.027 324.671C-149.669 334.611 -157.977 347.352 -165.728 360.547C-175.12 376.428 -184.628 392.309 -193.536 408.493C-201.099 422.36 -206.971 436.934 -210.08 452.699C-210.492 454.641 -210.976 456.583 -212.516 457.933C-220.224 457.933 -227.975 457.933 -235.683 457.933C-237.52 455.912 -236.58 453.746 -236.059 451.617C-233.89 443.055 -231.041 434.761 -227.411 426.806C-212.661 394.186 -196.045 362.756 -174.296 334.763C-154.795 309.577 -130.24 291.639 -101.419 280.429C-92.5112 276.957 -83.3429 274.3 -74.2468 271.687C-60.6607 267.724 -51.7526 258.455 -46.3586 245.007C-41.6805 233.234 -38.2749 221.092 -37.8266 208.236C-37.3421 195.156 -42.1722 184.653 -51.7888 176.474C-60.0244 169.451 -69.4169 164.701 -78.6286 159.655C-88.9249 153.974 -99.25 148.481 -108.65 141.197C-117.406 134.318 -125.121 126.176 -132.417 117.578C-136.683 112.424 -141.216 107.602 -146.155 103.192C-151.881 98.1099 -158.02 95.8288 -164.007 95.8288C-172.43 95.8288 -180.63 100.391 -187.173 108.274C-198.33 121.729 -200.687 137.87 -199.227 155.1C-198.402 164.297 -196.081 173.19 -193.688 182.083C-188.974 199.047 -188.706 216.09 -192.452 233.313C-197.578 256.745 -203.833 279.765 -213.001 301.81C-221.237 321.726 -236.023 332.229 -255.408 336.336C-263.976 338.17 -272.74 338.805 -281.496 339.513C-292.161 340.372 -302.906 340.747 -313.354 343.851C-316.499 344.782 -319.492 346.053 -322.189 348.298C-326.94 352.261 -328.032 357.263 -326.904 363.247C-325.631 369.751 -322.79 375.353 -319.42 380.81C-312.645 391.912 -304.373 401.809 -296.89 412.203C-288.17 424.388 -280.31 437.013 -276.268 451.891C-275.748 453.912 -274.959 455.926 -276.34 457.947C-286.818 457.933 -297.41 457.933 -307.887 457.933Z" fill="#222159"/>
<path d="M142.489 456.395H174.231C175.728 455.421 176.408 453.666 177.08 451.689L177.564 450.454C180.746 442.456 185.388 435.209 191.903 428.329C193.848 426.308 196.133 424.143 199.242 424.143C199.986 424.143 200.738 424.294 201.526 424.518C205.308 425.904 206.017 429.448 206.581 432.365L206.769 433.26C207.629 437.555 207.557 441.857 207.477 446.036C207.405 448.166 207.405 450.295 207.477 452.461V453.219C207.557 454.713 207.629 455.688 208.229 456.395H244.982C246.782 449.703 249.921 443.055 254.563 436.104C261.598 425.341 271.258 416.188 284.844 407.331C297.982 398.733 310.484 393.955 323.094 392.684C328.075 392.164 332.905 392.085 336.608 392.085C338.625 392.085 340.722 392.085 342.782 392.157C344.843 392.157 346.897 392.157 348.957 392.157C350.309 392.157 351.654 392.157 352.999 392.157C359.738 392.006 365.125 391.262 369.846 389.688C378.675 386.852 383.997 380.723 385.717 371.454C386.882 365.477 387.142 359.233 386.462 351.127C385.414 336.437 379.499 325.046 368.35 316.261C364.047 312.861 359.514 309.649 355.096 306.509C352.703 304.791 350.302 303.073 347.909 301.355C330.245 288.535 319.052 270.748 314.634 248.443C312.617 238.279 312.241 227.813 311.901 217.764C311.749 214.213 311.604 210.625 311.416 207.117C310.484 190.637 307.302 177.781 301.344 166.643C292.096 149.412 280.903 140.187 266.008 137.646C264.512 137.386 262.935 137.27 261.403 137.27C248.858 137.27 237.708 145.644 233.666 158.161C230.376 168.324 229.552 179.311 228.836 188.955L228.424 195.084C227.752 204.576 227.072 214.4 225.467 223.936C222.061 244.711 218.28 268.893 216.031 292.772C214.303 310.934 207.087 326.707 194.506 339.743C192.524 341.837 190.464 343.93 188.439 346.023C184.997 349.539 181.592 353.047 178.259 356.671C173.58 361.753 169.951 367.585 167.55 374.082C164.108 383.011 162.048 392.504 160.067 401.7C156.733 416.982 151.419 431.635 146.292 445.762C145.034 449.299 143.762 452.851 142.489 456.395ZM140.32 457.933C146.835 439.323 154.318 421.01 158.584 401.505C160.609 392.085 162.626 382.6 166.111 373.555C168.656 366.755 172.366 360.771 177.152 355.617C182.467 349.864 188.049 344.291 193.435 338.653C205.561 326.1 212.828 310.552 214.513 292.613C216.689 269.485 220.239 246.574 223.948 223.705C225.937 212.199 226.494 200.461 227.318 188.84C228.106 178.337 228.966 167.798 232.184 157.677C236.522 144.373 248.431 135.74 261.417 135.74C263.022 135.74 264.671 135.892 266.319 136.151C283.615 139.104 294.504 150.61 302.703 165.935C309.515 178.604 312.139 192.471 312.964 207.001C313.708 220.753 313.491 234.54 316.145 248.147C320.52 270.193 331.38 287.459 348.82 300.128C355.638 305.102 362.674 309.808 369.333 315.078C380.634 324.007 386.925 335.816 388.053 351.062C388.573 358.086 388.573 364.886 387.265 371.765C385.356 381.929 379.362 388.245 370.309 391.197C364.734 392.987 358.928 393.586 353.014 393.666C351.661 393.738 350.317 393.738 348.972 393.738C344.858 393.738 340.736 393.623 336.622 393.623C332.132 393.623 327.707 393.738 323.26 394.186C309.601 395.572 297.244 401.065 285.719 408.608C274.193 416.079 263.673 425.052 255.85 436.934C251.584 443.358 248.062 450.238 246.197 457.933C233.391 457.933 220.521 457.933 207.644 457.933C205.886 456.59 206.074 454.533 205.959 452.555C205.699 446.202 206.559 439.886 205.286 433.57C204.65 430.582 204.354 427.182 201.057 426.019C200.42 425.796 199.82 425.68 199.256 425.68C196.747 425.68 194.766 427.55 193.045 429.383C187.094 435.699 182.264 442.759 179.011 450.981C177.998 453.594 177.326 456.511 174.665 457.933C163.219 457.933 151.73 457.933 140.32 457.933Z" fill="#222159"/>
<path d="M159.553 67.6833C166.031 67.6833 171.679 65.7776 176.921 61.8579C181.895 58.1187 186.277 53.2245 190.767 46.4607C199.451 33.1931 205.366 18.0269 211.056 3.37324L212.481 -0.322635L213.008 -1.70861C218.171 -14.8608 223.485 -28.4678 230.376 -41.0569C234.418 -48.3837 235.691 -55.891 234.266 -64.0408C232.249 -76.038 231.273 -89.118 231.352 -104.024C231.425 -105.742 231.576 -107.388 231.721 -109.106C231.909 -110.824 232.097 -112.622 232.097 -114.412H187.781C186.132 -113.214 185.12 -111.423 184.036 -109.482C183.623 -108.767 183.211 -108.023 182.763 -107.352C178.309 -100.213 173.855 -93.0377 171.086 -85.155C163.747 -64.0408 161.317 -40.6888 163.559 -13.8574L163.855 -10.1976C164.491 -3.17398 165.092 4.11676 163.891 11.4003C162.243 22.1631 154.311 29.4106 144.202 29.4106C143.226 29.4106 142.257 29.3384 141.289 29.2229C130.168 27.6925 119.055 23.3975 106.365 15.6953C99.5539 11.5086 93.379 6.23903 87.9489 0.0743853C79.4096 -9.82946 72.9383 -22.1227 68.7445 -36.4371C60.9572 -63.1962 55.0427 -87.1834 50.7043 -109.792L50.5959 -110.427C50.2199 -112.484 49.9596 -113.712 48.7593 -114.426H1.25466C2.98276 -106.912 5.55681 -100.783 9.11424 -95.6652C13.308 -89.6811 18.0223 -84.0795 22.0641 -79.373C30.4877 -69.5413 37.1543 -60.0489 42.3531 -50.34C46.5106 -42.7894 49.9885 -34.7551 53.3941 -26.9808C55.5994 -21.8989 57.8843 -16.6293 60.3571 -11.5475C66.4235 0.933392 74.8833 12.0716 86.3726 22.5313C100.826 35.6474 116.878 47.2692 132.077 57.8805C138.367 62.3343 144.506 65.1713 150.753 66.5933C153.826 67.3079 156.784 67.6833 159.553 67.6833ZM159.553 69.2136C156.559 69.2136 153.487 68.8022 150.421 68.0947C143.385 66.5283 137.138 63.3521 131.224 59.1654C115.461 48.1427 99.7419 36.7446 85.3676 23.6646C74.6591 13.9484 65.5269 2.70194 58.9761 -10.8617C52.765 -23.754 47.7832 -37.1733 41.0082 -49.6109C35.3539 -60.1139 28.5427 -69.4547 20.9073 -78.3479C16.3448 -83.6536 11.8908 -89.0386 7.84165 -94.7918C3.42379 -101.144 0.922023 -108.355 -0.654236 -115.942C15.8892 -115.942 32.5123 -115.942 49.1353 -115.942C51.5286 -114.787 51.7527 -112.398 52.201 -110.073C56.9587 -85.2633 63.2059 -60.9296 70.2412 -36.8268C74.1385 -23.4509 80.1977 -11.266 89.1058 -0.91457C94.4202 5.14179 100.414 10.2597 107.146 14.4104C117.854 20.8782 129.047 25.9962 141.469 27.7142C142.409 27.8225 143.306 27.9019 144.202 27.9019C153.414 27.9019 160.825 21.3619 162.395 11.162C163.747 2.82462 162.698 -5.46947 162.026 -13.7275C159.965 -38.3139 161.577 -62.4238 169.625 -85.6675C172.467 -93.774 177 -101.029 181.49 -108.168C183.211 -110.86 184.412 -114.109 187.297 -115.942C202.676 -115.942 218.135 -115.942 233.601 -115.942C233.825 -111.907 233.001 -107.944 232.928 -104.024C232.849 -90.7566 233.565 -77.4167 235.813 -64.3006C237.31 -55.7034 235.85 -47.7846 231.728 -40.3134C224.693 -27.385 219.299 -13.5543 213.912 0.233172C207.585 16.4532 201.555 32.7816 192.054 47.3198C188.048 53.3761 183.515 58.8334 177.832 63.0923C172.134 67.3801 165.995 69.2136 159.553 69.2136Z" fill="#222159"/>
<path d="M361.01 12.6346C371.039 12.6346 378.566 8.5272 383.996 0.153685C390.135 -9.26652 390.735 -29.1825 375.985 -40.66C368.198 -46.6369 359.174 -47.7558 350.606 -48.059C338.704 -47.6836 329.305 -45.518 321.221 -41.2952C317.367 -39.2018 313.846 -36.9208 313.101 -32.5463C312.24 -27.0169 313.173 -22.1227 315.834 -17.9721C318.271 -14.2689 320.628 -11.0567 323.021 -8.10433C333.31 4.34045 343.946 10.8444 356.368 12.3386C357.937 12.5263 359.514 12.6346 361.01 12.6346ZM361.01 14.1721C359.441 14.1721 357.793 14.0566 356.144 13.8762C341.958 12.1509 331.062 4.04449 321.857 -7.12982C319.232 -10.306 316.839 -13.6698 314.518 -17.1419C311.445 -21.9278 310.736 -27.3851 311.597 -32.799C312.421 -37.9169 316.615 -40.4939 320.505 -42.6234C330.013 -47.597 340.273 -49.2428 350.678 -49.5749C360.034 -49.2428 369.022 -47.9363 376.874 -41.8438C392.225 -29.9982 391.849 -9.14378 385.298 0.976628C379.202 10.3896 370.815 14.1721 361.01 14.1721Z" fill="#222159"/>
<path d="M135.229 308.451C136.914 308.451 138.75 308.155 140.616 307.476C154.166 302.993 164.571 295.515 172.358 284.608C179.169 275.115 184.267 264.28 189.169 253.813L191.302 249.251C202.979 224.622 208.518 199.66 208.294 172.944C208.221 160.312 208.894 149.44 210.354 139.688C212.639 124.363 220.123 115.773 233.825 112.633C239.479 111.399 245.206 110.763 250.824 110.763C257.411 110.763 263.998 111.622 270.324 113.304C290.346 118.798 305.696 132.513 318.646 156.5C330.099 177.874 333.172 201.342 334.741 221.525C335.754 235.276 338.407 246.003 343.165 255.308C348.067 264.872 355.175 270.929 364.763 273.765C366.411 274.249 368.06 274.516 369.556 274.516C376.744 274.516 380.41 268.907 382.282 264.237C385.355 256.354 386.772 247.793 388.081 239.535C388.421 237.37 388.797 235.197 389.173 233.031C393.063 210.163 401.45 189.908 414.14 172.865C423.388 160.535 434.689 150.141 445.622 140.056L450.864 135.234C460.148 126.449 468.984 116.849 477.819 105.862C479.909 103.249 482.006 100.629 484.103 98.0155C490.097 90.5443 496.228 82.8421 502.591 75.4431C514.76 61.4319 528.607 49.1748 540.696 38.7801V-13.2007C540.168 -14.1319 539.836 -15.1064 539.46 -16.0809C538.975 -17.3874 538.52 -18.6218 537.732 -19.6685L533.95 -25.0463C530.769 -29.5002 527.587 -33.9468 524.558 -38.5017C513.517 -54.8373 499.106 -66.0043 480.502 -72.5804C475.86 -74.2263 471.066 -75.7205 466.424 -77.1787C462.006 -78.5213 457.668 -79.8712 453.358 -81.3582C438.724 -86.4762 430.409 -95.9325 427.979 -110.355C427.712 -111.929 427.451 -113.423 426.555 -114.434H396.722C395.529 -113.647 394.704 -112.716 394.176 -111.445C391.255 -105.086 386.621 -100.646 380.33 -98.2135C370.858 -94.6981 361.393 -92.944 352.181 -92.944C345.37 -92.944 338.523 -93.9185 331.82 -95.8531C321.524 -98.7694 314.228 -104.118 309.435 -112.109C308.907 -112.932 308.162 -113.459 307.258 -114.051C307.077 -114.203 306.889 -114.318 306.737 -114.426H277.316C277.541 -113.863 277.765 -113.344 277.989 -112.781C279.225 -109.9 280.498 -106.912 281.879 -104.075C289.362 -88.8655 301.011 -79.0338 316.47 -74.8543C325.118 -72.4649 334.098 -72.4217 342.782 -72.3495C346.491 -72.3495 350.381 -72.3134 354.126 -72.1257L358.617 -71.8297C366.737 -71.3028 375.088 -70.783 383.244 -68.8052C397.394 -65.333 406.599 -56.5481 410.64 -42.6451C413.077 -34.0479 413.858 -24.5915 413.113 -13.6482C412.361 -4.15584 410.489 3.20708 407.083 9.52331C397.466 27.1221 382.116 35.6472 360.034 35.6472C348.429 35.539 337.352 32.3917 326.947 26.2992C322.681 23.8377 318.415 21.2534 314.142 18.7125C308.155 15.1249 301.9 11.3496 295.689 7.87746C289.138 4.21766 282.508 2.34808 275.964 2.34808C268.408 2.34808 260.657 4.88901 252.978 9.81928C244.671 15.161 237.599 22.6033 230.672 33.2146C223.485 44.0496 217.91 56.1624 212.48 67.8203L209.639 73.9128C207.245 78.9946 205.185 82.7338 202.936 86.0543C196.985 94.6877 189.986 99.6541 181.635 101.264C177.889 101.971 174.223 102.311 170.594 102.311C159.885 102.311 149.372 99.2427 139.336 93.2296C129.828 87.5125 121.592 79.8536 113.66 72.4546L111.375 70.3251C101.535 61.0926 91.2384 52.0911 81.282 43.3494L78.1801 40.6569C68.4116 32.0307 57.2187 21.4917 48.1227 8.44775C43.0685 1.19311 38.8748 -6.76175 34.833 -14.4206C32.3963 -19.0549 29.8945 -23.7975 27.2336 -28.3596C17.7978 -44.3199 5.22386 -54.6713 -11.2112 -60.0491C-14.3131 -61.0958 -17.4945 -61.6155 -20.6759 -61.6155C-30.2203 -61.6155 -39.3163 -56.8296 -45.5707 -48.4994C-50.7333 -41.7356 -55.2668 -34.4882 -59.0846 -28.2441C-66.3802 -16.4707 -75.2955 -2.71935 -86.1847 10.0936C-90.0747 14.6918 -94.1165 19.7014 -97.5655 25.4185C-104.68 37.2642 -107.182 49.8605 -105.129 63.98C-102.88 80.0124 -97.0088 93.0563 -87.1608 103.855C-78.3612 113.499 -66.8719 118.769 -57.812 122.313C-51.1888 124.89 -44.262 126.947 -37.5593 128.925C-32.3171 130.456 -26.887 132.065 -21.6087 133.899C-8.73108 138.418 1.86166 147.051 10.7697 160.355C15.4117 167.27 18.9691 174.893 22.447 182.292C23.64 184.869 24.8403 187.446 26.0768 189.987C30.3066 198.584 35.1366 205.796 40.8632 211.96C46.7055 218.313 53.4082 223.77 59.8434 229.112C64.0733 232.584 68.455 236.135 72.5692 239.947C80.9927 247.721 89.0403 256.311 97.1241 266.179C103.711 274.141 109.741 282.81 115.54 291.256C117.558 294.172 119.582 297.045 121.607 299.925C125.605 305.65 130.059 308.451 135.229 308.451ZM135.229 309.945C129.539 309.945 124.636 306.92 120.327 300.828C112.315 289.466 104.752 277.772 95.96 267.16C88.3607 257.892 80.2769 249.186 71.5207 241.08C61.116 231.479 49.4386 223.553 39.7352 213.014C33.5604 206.366 28.6942 198.815 24.6885 190.666C19.8223 180.726 15.6286 170.338 9.4899 161.221C1.39892 149.152 -8.73829 140.035 -22.1365 135.364C-34.1536 131.141 -46.5034 128.377 -58.3687 123.742C-69.4459 119.404 -80.0025 113.954 -88.2743 104.909C-98.6429 93.5111 -104.442 79.832 -106.654 64.211C-108.715 49.8967 -106.17 36.7444 -98.867 24.6389C-95.4976 19.0301 -91.4919 14.0277 -87.3415 9.12629C-77.2694 -2.75544 -68.665 -15.6839 -60.3933 -29.0237C-56.1634 -35.9391 -51.7817 -42.8906 -46.8071 -49.4306C-40.2201 -58.1795 -30.7119 -63.1097 -20.6759 -63.1097C-17.386 -63.1097 -14.0527 -62.5828 -10.7195 -61.5C6.16385 -55.9633 19.1138 -45.0922 28.5496 -29.1392C35.6572 -16.9904 41.3477 -3.95373 49.3591 7.59594C57.8984 19.8169 68.3031 29.9085 79.2285 39.5092C90.3852 49.2975 101.542 59.0498 112.431 69.2135C121.231 77.3632 129.915 85.7728 140.095 91.9375C149.791 97.7267 159.936 100.795 170.601 100.795C174.122 100.795 177.68 100.455 181.345 99.784C190.181 98.066 196.544 92.6088 201.67 85.2098C204.252 81.4345 206.349 77.3632 208.294 73.292C214.808 59.3529 220.947 45.1902 229.371 32.4061C235.582 22.9137 242.769 14.6196 252.169 8.56322C260.028 3.44527 267.967 0.824961 275.979 0.824961C282.797 0.824961 289.608 2.69454 296.456 6.54203C307.012 12.4829 317.265 18.9146 327.713 25.0071C337.749 30.8325 348.675 34.0086 359.904 34.1241C359.976 34.1241 360.012 34.1241 360.056 34.1241C379.224 34.1241 395.543 27.548 405.76 8.8231C409.498 1.83554 411.002 -5.86663 411.559 -13.7493C412.274 -23.2778 411.862 -32.8857 409.165 -42.2265C405.167 -56.1222 396.064 -64.0915 382.89 -67.2965C373.454 -69.6136 363.801 -69.9168 354.069 -70.5882C341.422 -71.2595 328.617 -69.9168 316.116 -73.3528C299.941 -77.7273 288.191 -87.8188 280.556 -103.396C278.531 -107.504 276.81 -111.763 274.981 -115.95C285.718 -115.95 296.463 -115.95 307.244 -115.95C308.48 -115.018 309.861 -114.34 310.765 -112.882C315.819 -104.436 323.491 -99.8016 332.29 -97.2968C338.95 -95.3911 345.616 -94.4599 352.203 -94.4599C361.487 -94.4599 370.692 -96.2573 379.831 -99.6211C385.709 -101.895 390.091 -106.046 392.781 -112.03C393.569 -113.827 394.726 -115.018 396.338 -115.95C406.627 -115.95 416.888 -115.95 427.22 -115.95C428.832 -114.607 429.165 -112.586 429.541 -110.608C432.007 -95.7737 440.886 -87.3279 453.872 -82.8019C462.852 -79.7052 472.028 -77.1931 481.044 -74.017C499.46 -67.477 514.471 -56.151 525.852 -39.339C530.118 -32.9867 534.572 -26.8149 538.99 -20.5419C540.559 -18.3692 541.007 -15.7561 542.244 -13.5472C542.244 4.13105 542.244 21.8382 542.244 39.5164C528.802 51.0588 515.519 62.9117 503.806 76.4753C495.267 86.3792 487.262 96.6512 479.027 106.858C470.567 117.361 461.659 127.222 451.927 136.382C439.165 148.228 425.984 159.662 415.398 173.825C402.369 191.351 394.437 211.303 390.691 233.32C388.819 243.895 387.698 254.73 383.728 264.822C380.887 272.033 375.977 276.032 369.578 276.032C367.937 276.032 366.216 275.808 364.336 275.245C354.343 272.293 346.889 265.868 341.798 256.001C336.339 245.238 334.091 233.652 333.187 221.655C331.502 199.198 328.024 177.261 317.316 157.265C306.383 136.938 292.088 120.869 269.927 114.813C263.643 113.131 257.281 112.308 250.838 112.308C245.3 112.308 239.681 112.907 234.143 114.142C220.745 117.21 214.078 125.468 211.909 139.926C210.26 150.877 209.776 161.972 209.848 172.922C210.116 200.165 204.201 225.726 192.748 249.944C186.942 262.129 181.519 274.531 173.659 285.517C165.279 297.211 154.195 304.654 141.173 308.985C139.047 309.649 137.095 309.945 135.229 309.945Z" fill="#222159"/>
<path d="M105.056 421.833C108.086 421.833 110.819 420.973 113.14 419.219C116.662 416.678 119.163 413.242 121.072 408.384C124.593 399.267 125.49 389.479 123.769 378.413L123.697 377.893C122.612 371.057 121.52 363.99 118.151 357.941C116.43 354.729 114.333 353.155 111.752 353.155C110.364 353.155 108.831 353.567 107.11 354.426C99.7348 357.941 93.5961 364.026 88.2816 373.035C83.4878 381.105 81.0945 388.281 80.7185 395.528C80.5667 398.069 81.2029 400.538 81.8826 403.079L82.0634 403.938C84.4639 413.163 95.6206 421.833 105.056 421.833ZM105.056 423.399C94.4999 423.399 83.0467 413.683 80.61 404.306C79.8581 401.353 78.9976 398.517 79.2218 395.449C79.6339 386.931 82.7431 379.344 86.9368 372.205C91.8029 363.983 97.9416 357.111 106.438 352.996C108.346 352.101 110.147 351.574 111.752 351.574C114.854 351.574 117.479 353.365 119.496 357.183C123.053 363.608 124.138 370.935 125.259 378.182C126.907 388.721 126.379 399 122.489 408.94C120.696 413.574 118.144 417.501 114.03 420.49C111.34 422.504 108.238 423.399 105.056 423.399Z" fill="#222159"/>
<path d="M135.598 251.056H136.198C146.827 250.868 156.372 246.198 164.607 237.153C183.211 216.674 189.798 193.358 184.18 167.797C181.411 155.389 175.8 146.611 166.885 140.966C162.243 138.014 158.317 135.66 154.456 133.567C140.19 125.757 127.695 116.156 117.247 104.982C110.884 98.0662 105.122 91.8655 99.4311 85.3976C87.4501 71.6463 73.1553 58.4941 55.7876 45.1181C37.2195 30.8398 24.0455 17.1246 14.3493 1.99449L13.9011 1.32318C10.4232 -3.94636 6.82957 -9.43967 1.88388 -13.3232C-3.65472 -17.7338 -8.52085 -19.7838 -13.387 -19.7838C-15.5923 -19.7838 -17.8772 -19.3363 -20.1259 -18.4773C-26.3803 -16.0519 -31.9189 -11.6052 -36.597 -5.2457C-47.1898 9.14087 -56.5823 25.7724 -66.2423 47.0671C-70.4721 56.3718 -71.7086 63.7709 -70.248 71.0616C-67.8909 82.8711 -60.9278 90.6816 -47.6381 96.3265C-41.9477 98.7953 -35.9969 100.665 -30.198 102.491C-25.8525 103.877 -21.3985 105.292 -17.0168 106.974C-3.99454 111.76 6.82958 118.819 16.0702 128.572C24.0455 137.054 30.6687 147.593 36.9159 161.755C45.5274 181.563 56.7203 197.328 71.1669 209.853L75.7728 213.888C85.8811 222.817 96.4015 232.014 107.587 239.788C116.394 245.707 125.194 251.056 135.598 251.056ZM135.598 252.586C124.673 252.586 115.534 246.978 106.741 241.001C93.7913 232.071 82.0706 221.381 70.1691 210.993C54.8982 197.725 43.7415 181.282 35.5493 162.376C30.2348 150.379 23.9081 139.133 14.9639 129.604C5.60037 119.736 -5.25267 112.9 -17.5301 108.381C-27.7107 104.534 -38.195 102.029 -48.2238 97.7341C-59.865 92.7605 -68.961 85.2893 -71.7303 71.3503C-73.5307 62.4932 -71.1663 54.199 -67.6161 46.4247C-59.2286 27.8946 -49.7277 10.0287 -37.819 -6.15524C-33.2132 -12.3993 -27.6023 -17.2141 -20.6754 -19.9066C-18.1664 -20.8739 -15.737 -21.3286 -13.3798 -21.3286C-7.50137 -21.3286 -2.15076 -18.5206 2.86724 -14.5215C8.18168 -10.2987 11.891 -4.50941 15.6291 1.17158C26.6702 18.3589 41.0445 31.8504 56.6914 43.9198C72.4901 56.0687 87.3851 69.2569 100.595 84.3942C106.438 91.0425 112.424 97.5103 118.375 103.935C129.192 115.521 141.585 124.789 155.171 132.224C159.474 134.541 163.595 137.046 167.709 139.659C177.738 146.048 183.132 155.916 185.677 167.501C191.743 195.004 183.652 218.472 165.764 238.164C157.905 246.797 148.1 252.399 136.271 252.586C136.047 252.586 135.822 252.586 135.598 252.586Z" fill="#222159"/>
<path d="M364.9 189.244C366.325 189.244 367.973 188.797 369.918 187.822C375.305 185.057 379.123 180.163 382.796 175.413L384.705 173.024C393.504 161.965 402.933 150.228 413.229 139.054C416.331 135.762 419.404 132.514 422.55 129.265C434.531 116.597 446.989 103.553 457.545 89.0218C463.236 81.1391 469.266 73.3287 475.101 65.7781C483.264 55.2029 491.724 44.2884 499.36 33.0058C507.443 21.0447 510.437 11.0326 509.092 0.493512C506.171 -22.4543 492.136 -39.6777 472.52 -44.4636C469.859 -45.1349 467.162 -45.467 464.544 -45.467C457.654 -45.467 445.412 -43.0415 440.554 -26.8576C438.753 -20.8012 437.293 -14.5644 435.875 -8.54413C435.167 -5.40406 434.415 -2.26399 433.627 0.876081C428.088 22.8132 417.083 37.4236 400.012 45.4939C386.831 51.6658 372.608 54.6543 356.592 54.6543C350.49 54.6543 344.011 54.2067 337.273 53.3477C325.523 51.8174 314.663 46.9593 304.186 42.2817C297.15 39.1055 289.435 36.117 281.2 35.8572C268.206 35.8572 254.88 46.8077 251.482 60.292C249.682 67.3589 252.118 74.1227 257.997 78.3817C262.342 81.5217 267.281 84.0627 272.711 85.9323C292.436 92.9198 308.567 106 321.937 125.916C329.608 137.422 337.056 149.831 345.407 164.968L347.019 167.921C350.533 174.461 353.903 180.661 358.769 185.895C360.938 188.234 362.811 189.244 364.9 189.244ZM364.9 190.811C362.355 190.811 360.107 189.576 357.641 186.927C351.878 180.762 348.133 173.14 344.055 165.704C336.716 152.401 329.044 139.357 320.664 126.768C308.307 108.382 292.624 94.5945 272.227 87.3832C266.912 85.5497 261.822 83.0087 257.1 79.6088C250.773 75.0106 248.04 67.691 250.029 59.9166C253.586 45.7899 267.621 34.3196 281.243 34.3196C289.594 34.5867 297.302 37.4958 304.829 40.8957C315.422 45.6095 326.051 50.3159 337.504 51.8102C343.903 52.6692 350.266 53.1167 356.592 53.1167C371.191 53.1167 385.565 50.5758 399.339 44.1152C417.156 35.6695 427.184 20.1208 432.13 0.500737C434.451 -8.76066 436.316 -18.0726 439.093 -27.2979C443.287 -41.273 453.576 -46.9901 464.544 -46.9901C467.314 -46.9901 470.119 -46.6147 472.889 -45.9434C494.898 -40.5656 507.812 -21.2776 510.581 0.320273C512.266 13.0971 507.328 23.9755 500.625 33.8793C487.523 53.2755 472.476 70.9826 458.775 89.9313C445.485 108.245 429.578 123.866 414.343 140.122C404.343 150.957 395.066 162.434 385.898 174.013C381.408 179.622 377.25 185.823 370.627 189.186C368.501 190.219 366.665 190.811 364.9 190.811Z" fill="#222159"/>
<path d="M145.33 28.1838C149.452 28.1838 153.154 26.7256 156.263 23.7733C163.298 17.0528 163.522 8.3761 163.074 -1.44834C162.886 -5.6351 162.553 -9.82186 162.25 -13.9725C161.881 -18.9028 161.462 -23.9486 161.274 -28.9582C160.905 -39.2735 162.098 -49.4373 163.371 -58.9297C165.619 -75.5612 170.218 -89.3125 177.369 -100.97C178.041 -102.089 178.75 -103.143 179.466 -104.226C181.555 -107.438 183.732 -110.766 185.156 -114.426H51.1525C54.2255 -96.1846 58.9398 -77.9866 63.5095 -60.3517L66.0546 -50.484C71.3329 -29.8894 78.5924 -8.77517 95.9963 6.16723C110.855 19.0235 126.314 26.1987 143.233 28.0611C143.906 28.1477 144.622 28.1838 145.33 28.1838ZM145.33 29.7141C144.586 29.7141 143.834 29.678 143.082 29.6058C124.926 27.5919 109.098 19.5143 94.984 7.33661C77.7247 -7.49751 70.1688 -28.2364 64.5507 -50.1014C59.0844 -71.4394 53.2494 -92.7052 49.5762 -114.491C49.4967 -114.974 49.2798 -115.465 49.1279 -115.949C95.1648 -115.949 141.209 -115.949 187.289 -115.949C185.532 -110.008 181.823 -105.229 178.678 -100.176C170.934 -87.5079 166.885 -73.4606 164.903 -58.6987C163.515 -48.8309 162.467 -38.9271 162.77 -29.0304C163.146 -19.8773 164.151 -10.7603 164.643 -1.52775C165.019 8.08014 165.019 17.5292 157.304 24.8921C153.682 28.3354 149.56 29.7141 145.33 29.7141Z" fill="#222159"/>
<path d="M7.43681 368.242C9.64212 368.242 11.7824 367.492 13.6912 365.997C21.2182 360.244 25.5204 351.871 26.4531 341.144C27.0099 334.532 25.5927 329.226 22.4112 325.711C19.6781 322.794 15.6362 321.228 10.6906 321.228C10.17 321.156 9.75781 321.156 9.34567 321.156C0.0978009 321.156 -5.4408 327.919 -6.67722 334.236C-8.88254 345.821 -6.93753 355.538 -0.683112 363.868C1.37036 366.676 4.32768 368.242 7.43681 368.242ZM7.43681 369.816C3.91553 369.816 0.509949 368.098 -1.92674 364.806C-8.81745 355.617 -10.3069 345.114 -8.18116 333.94C-6.72059 326.389 -0.242042 319.661 9.33843 319.661C9.78672 319.661 10.235 319.661 10.6833 319.661C22.404 319.661 29.0995 327.811 27.9788 341.259C27.046 351.871 22.9246 360.843 14.6167 367.232C12.3753 368.957 9.90242 369.816 7.43681 369.816Z" fill="#222159"/>
<path d="M243.514 385.509V383.943C255.307 383.943 265.893 380.131 278.51 375.05C292.66 369.333 309.5 362.944 326.911 359.053C329.724 358.534 332.905 357.783 335.407 356.253C342.442 351.842 343.57 348.514 340.534 341.267C339.225 338.199 337.952 335.889 336.376 333.904L334.952 332.07C330.31 326.238 325.668 320.485 321.026 314.58C308.784 298.995 300.397 283.786 295.35 268.02C291.308 255.279 289.587 240.741 290.26 224.86C290.26 222.132 290.26 219.663 290.296 217.346C290.332 212.935 290.368 209.427 290.18 205.876C289.811 198.217 288.871 189.28 284.642 180.95C282.248 176.316 279.103 172.62 275.285 170.036C272.588 168.166 269.667 167.155 266.934 167.155C261.207 167.155 256.269 171.378 253.42 178.777C250.803 185.801 250.39 193.424 249.978 200.866L249.899 202.512C249.602 208.265 249.602 214.134 249.638 219.815C249.638 226.015 249.675 232.447 249.262 238.8C248.33 253.338 248.33 268.172 248.402 282.558V290.852C248.366 299.226 247.542 308.155 245.821 318.918C244.584 326.613 242.639 334.128 240.694 341.411C239.718 345.15 238.749 348.882 237.889 352.694C237.477 354.484 236.956 356.317 236.501 358.151C234.932 364.056 233.435 369.585 233.659 375.642C233.811 379.301 235.307 383.676 241.446 383.936C242.119 383.936 242.798 383.936 243.507 383.936V385.509M243.514 385.509C242.798 385.509 242.09 385.509 241.381 385.437C235.691 385.213 232.394 381.698 232.133 375.721C231.793 367.499 234.57 360.028 236.399 352.326C239.053 341.079 242.502 330.129 244.302 318.694C245.799 309.462 246.847 300.237 246.884 290.852C246.884 273.477 246.623 256.059 247.744 238.684C248.489 226.542 247.744 214.509 248.416 202.432C248.829 194.326 249.089 185.989 252.01 178.258C255.228 169.812 260.846 165.625 266.948 165.625C269.978 165.625 273.123 166.672 276.196 168.765C280.31 171.566 283.608 175.565 286.008 180.272C290.086 188.27 291.323 196.939 291.771 205.796C291.995 211.29 291.771 216.747 291.771 224.889C291.286 237.594 292.183 252.84 296.825 267.565C302.327 284.796 311.387 299.775 322.24 313.605C327.367 320.109 332.493 326.534 337.62 332.965C339.456 335.283 340.801 337.896 341.965 340.66C345.147 348.247 344.142 352.578 336.239 357.552C333.542 359.198 330.324 359.941 327.251 360.54C310.708 364.243 294.837 370.105 279.081 376.457C267.585 381.099 256.052 385.509 243.514 385.509Z" fill="#222159"/>
<path d="M129.611 215.852C131.036 215.852 132.453 215.476 133.957 215.101L134.557 214.949C140.732 213.527 146.27 209.268 149.756 203.212C153.385 196.823 154.282 189.388 152.149 182.848C150.276 177.24 147.21 172.049 143.017 167.487C138.931 163.077 134.557 158.89 130.363 154.783C127.97 152.538 125.649 150.3 123.328 147.983C110.826 135.43 97.8764 120.892 82.5332 102.203C74.406 92.3711 64.3411 81.2761 51.2394 73.5018C43.1122 68.6437 36.0046 66.175 28.7379 65.7274C28.3258 65.6913 27.9209 65.6913 27.4654 65.6913C23.1993 65.6913 20.2782 67.0773 18.2609 70.1018C16.0122 73.4657 16.7642 76.714 18.8249 81.1967C20.7699 85.4557 22.9029 89.9023 25.8602 93.6415C39.6777 111.24 50.3428 130.564 57.6023 151C63.0613 165.986 70.0316 177.644 78.9396 186.616C88.3031 196.037 99.0767 204.028 110.978 210.344C117.609 213.744 123.256 215.462 128.758 215.801C129.083 215.852 129.315 215.852 129.611 215.852ZM129.611 217.418C129.315 217.418 128.975 217.382 128.635 217.346C122.12 216.97 116.061 214.689 110.291 211.701C98.3825 205.385 87.5295 197.466 77.8767 187.706C67.8407 177.615 61.1091 165.098 56.1634 151.534C48.7087 130.572 38.0798 111.738 24.6455 94.5799C21.6159 90.7685 19.4756 86.358 17.4221 81.8392C15.5132 77.6885 14.0889 73.5451 16.9738 69.2428C19.5985 65.3232 23.3729 64.161 27.4509 64.161C27.9064 64.161 28.3909 64.161 28.8392 64.1971C37.1471 64.724 44.7825 67.8569 51.9697 72.1952C64.399 79.5148 74.3554 89.9095 83.6756 101.228C96.6689 117.001 110.067 132.47 124.398 146.893C130.949 153.433 137.84 159.561 144.123 166.433C148.317 171.032 151.534 176.301 153.595 182.35C158.201 196.549 149.105 213.217 134.911 216.429C133.161 216.898 131.412 217.418 129.611 217.418Z" fill="#222159"/>
<path d="M369.058 137.04V135.509C373.064 135.509 377.597 133.791 382.832 130.167C395.037 121.837 405.326 111.298 413.454 98.8173C417.683 92.4289 420.041 87.08 421.125 81.5506C421.581 79.2695 421.161 77.0678 420.004 75.3498C418.92 73.8195 417.307 72.8089 415.442 72.4696C412.817 71.986 410.54 71.5745 408.183 71.5745C407.807 71.5745 407.431 71.5745 407.062 71.6106C395.305 72.3975 383.779 73.8195 372.847 75.7252C364.387 77.2195 355.4 79.0529 347.316 83.7955C341.105 87.3832 338.48 93.7716 340.281 100.911C342.602 110.215 346.347 117.99 351.358 124.039C358.024 132.073 363.339 135.509 369.065 135.509V137.04M369.058 137.04C362.355 137.04 356.6 132.781 350.157 125.006C344.539 118.242 340.946 109.984 338.777 101.279C336.788 93.3601 339.789 86.3653 346.564 82.4817C354.727 77.6958 363.599 75.7902 372.543 74.2237C383.996 72.2098 395.45 70.8599 406.939 70.0731C407.351 70.037 407.799 70.037 408.175 70.037C410.72 70.037 413.186 70.4845 415.659 70.9682C420.67 71.8272 423.67 76.5409 422.622 81.8465C421.349 88.4587 418.32 94.2191 414.762 99.633C406.454 112.41 396.042 122.992 383.693 131.431C378.154 135.242 373.404 137.04 369.058 137.04Z" fill="#222159"/>
</g>
</mask>
<g mask="url(#mask0_1303_2065)">
<path d="M0 0V342.5C0 342.5 82 403.5 198 405C314 406.5 402 342.5 402 342.5V0H0Z" fill="#222159"/>
</g>
</g>
<defs>
<clipPath id="clip0_1303_2065">
<rect x="-159" y="-316" width="720" height="720" rx="360" fill="white"/>
</clipPath>
</defs>
</svg>
