<svg width="345" height="155" viewBox="0 0 345 155" fill="none" xmlns="http://www.w3.org/2000/svg">
<g clip-path="url(#clip0_1090_2894)">
<path d="M315.126 -27.8889C292.228 -30.4883 267.885 -35.0121 244.462 -33.7968C221.401 -32.5983 194.693 -17.0522 180.896 2.41004C174.611 11.255 171.379 21.8216 165.672 30.9872C161.049 38.4312 154.783 44.5922 148.101 50.1287C135.171 60.8473 121.193 69.4728 111.098 83.2972C89.1029 113.427 84.0645 166.564 113.5 194.348C126.394 206.518 144.291 211.785 161.826 213.287C186.584 215.397 211.433 210.873 236.174 213.507C247.117 214.671 257.609 217.406 267.65 222.031C282.205 228.732 296.49 232.344 312.761 232.159C330.115 231.956 347.127 230.201 363.416 224.58C380.012 218.857 397.799 220.596 415.353 218.857C433.845 217.034 456.978 218.773 473.953 210.806C499.886 198.653 513.719 171.173 516.554 145.212C519.678 116.668 506.802 88.9856 483.073 70.6712C471.588 61.8263 462.053 53.1671 460.59 38.0429C459.235 24.0835 455.443 15.6943 450.856 2.00493C438.883 -33.8305 395.759 -35.9067 363.018 -30.2352C343.334 -26.8255 333.944 -27.3825 317.438 -27.6357C315.072 -27.6694 317.438 -27.6357 315.126 -27.8889Z" fill="#3633E8"/>
<path d="M127.261 54.8045C133.221 52.6608 139.108 48.3903 142.738 45.6389C153.194 37.7055 162.765 27.7803 163.92 14.631C163.993 13.8377 164.029 13.0106 163.722 12.2679C163.343 11.3226 162.476 10.6137 161.537 10.1242C157.311 7.92982 151.857 9.66842 148.173 12.6055C144.489 15.5425 141.943 19.5092 138.566 22.7501C131.559 29.4851 121.338 32.7766 114.674 39.7986C111.297 43.3602 109.094 49.0823 112.435 52.7115C116.336 56.982 121.826 56.7626 127.261 54.8045Z" fill="#3633E8"/>
<path d="M331.669 248.455C346.501 218.151 352.1 186.268 350.571 151.818C349.579 129.379 341.358 108.873 325.871 96.4912C276.192 56.8177 232.31 99.6702 232.31 99.6702C217.498 83.6819 192.976 72.7317 155.727 87.6418C143.813 92.4197 132.476 103.37 126.082 115.659C119.133 128.988 118.934 145.181 118.914 160.575C118.894 176.693 124.355 210.287 130.351 224.993C134.203 234.419 141.49 250.574 144.747 252.303L331.669 248.455Z" fill="#4D4BCC"/>
<path d="M255.303 132.316C221.985 142.932 182.631 134.863 159.499 107.702C154.893 102.422 151.418 96.6956 148.936 90.6721C151.16 89.3707 153.424 88.2738 155.727 87.3814C192.976 72.9733 217.498 83.5517 232.31 98.9823C232.31 98.9823 269.044 64.3656 313.342 87.7904C309.013 94.5204 304.685 101.25 298.827 107.274C287.231 119.6 271.506 126.813 255.303 132.316Z" fill="#EBEBFF"/>
<path d="M226.513 39.4905C222.601 25.3241 229.69 19.4121 236.083 17.4787C242.497 15.5452 249.744 18.4268 254.112 23.2605C256.574 25.9934 258.481 29.4513 261.955 30.9386C264.179 31.8868 266.701 31.8682 269.143 31.7752C277.264 31.4592 285.425 30.511 293.486 31.4592C301.548 32.4073 309.768 35.5678 314.454 41.833C318.485 47.2058 319.597 54.3634 324.58 58.974C333.377 67.0983 349.142 63.0826 359.09 69.9242C362.664 72.3782 365.185 76.1708 365.98 80.2608C367.687 89.1102 361.631 98.4801 364.888 106.958C367.509 113.762 375.669 118.317 376.325 125.53C376.722 129.992 373.882 134.342 369.931 136.796C365.96 139.25 361.055 140.05 356.31 139.938C344.873 139.697 333.674 134.342 326.705 125.809C323.409 121.775 321.046 117.127 317.79 113.093C314.533 109.04 310.006 105.47 304.625 104.968C302.541 104.782 300.436 105.061 298.331 105.099C289.654 105.247 281.037 100.841 276.43 93.9067C271.724 86.8235 270.692 84.072 264.219 78.3831C252.742 68.3067 244.76 81.7109 231.179 70.4819C225.877 66.0944 232.192 51.7421 228.578 46.0346C226.811 43.2273 233.284 41.5727 229.928 40.8291L226.513 39.4905Z" fill="#161513"/>
<path d="M228.637 25.8263C226.711 19.0034 232.589 12.4221 239.796 11.6413C244.184 11.1579 248.652 12.5523 252.226 14.8947C256.237 17.4975 258.719 21.8664 262.948 24.1345C268.091 26.886 274.166 25.659 279.627 24.5993C284.214 23.7255 288.78 22.8703 293.486 23.4467C301.548 24.4134 309.152 28.6708 313.739 34.9917C319.477 42.9301 318.266 54.0662 327.837 59.532C337.268 64.9234 348.943 63.3989 358.951 67.1543C366.178 69.8686 372.73 75.9851 371.758 83.7934C370.705 92.3825 362.227 99.8561 368.223 108.445C370.785 112.126 374.557 115.026 376.483 119.098C378.171 122.686 377.814 126.627 375.649 129.974C370.109 138.526 358.454 138.135 349.936 134.157C348.884 133.673 349.817 132.205 350.849 132.688C359.348 136.666 373.128 136.481 375.57 125.679C377.337 117.834 368.045 113.149 365.146 106.735C362.108 100.005 366.694 93.7954 368.938 87.5674C370.368 83.5889 370.467 79.536 367.985 75.8922C365.483 72.1739 361.254 69.7013 356.886 68.307C348.189 65.5369 338.678 66.0761 330.18 62.6367C322.495 59.5134 319.04 53.8989 316.777 46.6298C315.526 42.6141 314.295 38.6542 311.614 35.2334C309.053 31.9614 305.558 29.34 301.687 27.5553C297.795 25.7705 293.446 24.841 289.098 24.9897C284.531 25.1384 280.103 26.4026 275.616 27.0719C271.486 27.6854 267.157 27.9085 263.266 26.2539C259.056 24.4506 256.634 20.7324 253.298 17.9251C249.208 14.4857 243.231 12.1619 237.751 13.7979C232.628 15.3223 228.915 20.4163 230.325 25.4173C230.682 26.4398 228.935 26.886 228.637 25.8263Z" fill="#161513"/>
<path d="M230.047 26.7931C222.005 25.1013 213.785 29.0426 210.906 36.3861C208.245 43.1719 211.521 49.214 214.738 55.1817C217.18 59.7365 219.523 64.6818 218.272 69.8687C217.041 74.9998 212.792 78.6251 207.53 80.0938C201.196 81.86 190.137 81.7484 190.137 90.3561C190.137 96.7328 195.835 102.031 194.664 108.594C193.85 113.093 189.938 115.101 185.431 115.473C182.85 115.696 180.249 115.491 177.667 115.77C173.2 116.253 170.996 118.652 169.745 122.612C168.514 126.497 165.794 134.082 159.678 131.442C156.263 129.974 156.938 124.657 160.869 124.489C162.041 124.434 162.041 126.144 160.869 126.2C158.348 126.311 159.4 128.431 160.075 129.174C161.207 130.439 162.458 130.401 163.987 129.546C165.555 128.672 166.389 127.018 166.985 125.456C167.918 122.983 168.276 120.306 169.824 118.057C172.247 114.506 176.635 114.023 180.785 113.93C183.207 113.874 185.769 114.023 188.111 113.335C191.964 112.219 193.353 108.966 192.897 105.433C192.202 99.9119 187.893 95.1526 188.37 89.4451C188.747 84.9089 192.519 82.083 196.828 80.6701C203.023 78.6437 210.37 79.313 214.539 73.6427C221.966 63.5663 209.258 53.5271 208.146 43.5251C206.855 31.7941 218.431 22.6287 230.523 25.1571C231.675 25.3802 231.198 27.0348 230.047 26.7931Z" fill="#161513"/>
<path d="M292.93 102.162C303.315 101.678 311.872 109.524 311.892 119.247C311.892 125.308 308.715 131.294 312.269 137.038C313.957 139.771 316.995 142.318 320.49 142.523C322.594 142.653 325.295 141.742 325.871 139.567C326.685 136.499 321.741 133.878 320.788 137.671C320.51 138.73 318.762 138.284 319.04 137.224C320.39 131.907 328.273 133.971 327.797 139.139C327.221 145.46 318.643 144.903 314.672 142.095C311.932 140.18 309.966 137.355 309.132 134.25C308.139 130.532 309.132 126.776 309.728 123.077C311.356 113.037 304.585 103.333 292.97 103.872C291.758 103.909 291.758 102.217 292.93 102.162Z" fill="#161513"/>
<path d="M243.688 47.2805C242.496 48.0985 241.285 47.801 241.285 47.801C241.206 47.0574 239.637 46.3881 239.637 46.3881C239.836 46.1278 240.769 45.347 240.491 45.1797L243.688 47.2805Z" fill="#161513"/>
<path d="M244.144 48.0057C243.251 48.5634 242.119 48.8423 241.047 48.6192C240.749 48.5634 240.471 48.3032 240.411 48.0243C240.312 47.5967 239.577 47.2992 239.18 47.1319C238.584 46.8716 238.684 46.1838 239.001 45.7934C239.121 45.6632 239.24 45.5331 239.359 45.4029C239.518 45.2356 239.617 44.9568 239.617 45.2356C239.696 45.4401 239.796 45.6446 239.875 45.8305C239.855 45.8119 239.835 45.7933 239.835 45.7748C239.101 44.9382 240.371 43.7297 241.126 44.5663C241.96 45.5145 240.868 46.2581 240.272 46.9646C240.213 46.5184 240.153 46.0722 240.093 45.626C240.947 45.9979 241.96 46.6299 242.158 47.5409C241.94 47.3364 241.741 47.1505 241.523 46.946C242 47.039 242.714 46.8159 243.231 46.4998C244.204 45.9235 245.117 47.4108 244.144 48.0057Z" fill="#161513"/>
<path d="M254.31 88.6456L237.194 26.5327C237.194 26.5327 207.51 44.3616 211.044 69.032L224.943 65.3881C224.943 65.3881 222.342 77.6211 219.82 89.6495C217.457 100.916 227.902 110.881 239.974 108.891C240.133 108.873 240.292 108.836 240.45 108.817C250.458 107.125 256.851 97.8668 254.31 88.6456Z" fill="#EBEBFF"/>
<path d="M253.774 52.4117C251.153 55.3863 246.467 55.7953 243.29 53.3413C240.113 50.8872 239.676 46.4997 242.297 43.5252C244.918 40.5506 249.604 40.1416 252.781 42.5956C255.938 45.0496 256.395 49.4557 253.774 52.4117Z" fill="#EBEBFF"/>
<path d="M244.521 48.8236C246.845 47.485 249.188 46.1651 251.55 44.8823C252.563 44.3246 253.476 45.7933 252.464 46.351C250.101 47.6338 247.778 48.9723 245.435 50.2923C244.442 50.8686 243.529 49.3999 244.521 48.8236Z" fill="#161513"/>
<path d="M224.963 65.3883L219.86 90.1888L235.01 62.0419L224.963 65.3883Z" fill="#161513"/>
<path d="M219.027 51.9282C219.027 51.9282 223.753 52.9507 230.266 51.3332C231.516 51.0172 232.688 52.0397 232.43 53.2109C231.854 55.6464 229.173 59.1787 218.809 60.4987L219.027 51.9282Z" fill="white"/>
<path d="M219.305 50.98C222.422 51.6121 225.897 51.2402 228.955 50.6267C231.635 50.0876 234.217 51.1287 233.244 54.1033C231.556 59.3274 223.931 60.7961 219.067 61.4653C217.736 61.6513 217.16 59.7364 218.511 59.5505C222.045 59.0671 229.967 58.0074 231.099 53.8244C231.596 52.0211 228.836 52.6903 227.605 52.8762C226.155 53.0993 224.686 53.2295 223.216 53.2481C221.727 53.2667 220.198 53.1923 218.749 52.8948C217.399 52.616 217.975 50.7011 219.305 50.98Z" fill="#4D4BCC"/>
<path d="M224.626 38.5427C220.972 41.4244 217.378 44.6964 214.4 48.1729C214.182 47.6896 213.963 47.2062 213.765 46.7228C215.651 46.8716 217.557 47.0203 219.463 47.169C220.615 47.262 220.635 48.9538 219.463 48.8794C217.557 48.7307 215.671 48.5819 213.765 48.4332C212.931 48.3589 212.613 47.5594 213.129 46.9831C216.108 43.488 219.702 40.2345 223.355 37.3529C224.229 36.6279 225.519 37.8363 224.626 38.5427Z" fill="#161513"/>
<path d="M305.658 151.8C306.015 164.981 305.281 178.162 303.355 191.232C301.647 202.851 298.768 214.47 291.997 224.491C291.382 225.421 289.793 224.565 290.429 223.636C297.12 213.745 299.92 202.256 301.607 190.785C303.494 177.883 304.208 164.832 303.851 151.8C303.811 150.703 305.638 150.703 305.658 151.8Z" fill="#161513"/>
<path d="M311.575 152.841C310.721 156.392 309.113 159.645 306.73 162.527C306.035 163.382 304.447 162.545 305.162 161.672C307.445 158.902 308.994 155.797 309.808 152.395C310.066 151.316 311.833 151.763 311.575 152.841Z" fill="#161513"/>
<path d="M171.015 150.592C172.584 173.421 174.311 196.605 183.207 218.152C183.624 219.174 181.876 219.62 181.46 218.598C172.505 196.921 170.777 173.552 169.209 150.592C169.129 149.513 170.936 149.513 171.015 150.592Z" fill="#161513"/>
<path d="M169.606 161.207C165.873 158.399 163.47 154.477 162.736 150.033C162.557 148.955 164.304 148.509 164.483 149.587C165.178 153.77 167.362 157.358 170.877 159.998C171.81 160.686 170.519 161.876 169.606 161.207Z" fill="#161513"/>
<path d="M235.507 52.8951C233.998 54.4753 231.893 55.3491 229.63 55.3677C228.458 55.3863 228.458 53.6759 229.63 53.6759C231.437 53.6573 233.025 52.9694 234.217 51.7052C235.011 50.8872 236.282 52.0771 235.507 52.8951Z" fill="#161513"/>
<path d="M236.143 41.7776C233.78 40.4018 230.961 40.1973 228.419 41.3128C227.367 41.7776 226.453 40.3089 227.506 39.8441C230.623 38.4684 234.118 38.5985 237.056 40.3089C238.049 40.8852 237.136 42.3539 236.143 41.7776Z" fill="#161513"/>
<path d="M234.555 40.941C234.614 41.5545 234.555 42.168 234.336 42.7443C234.158 43.2277 233.522 43.5809 233.006 43.2463C232.708 43.0604 232.43 42.9116 232.073 42.8744C231.755 42.8373 231.437 42.9302 231.12 42.9302C230.167 42.9488 229.988 42.2052 229.908 41.4987C229.829 40.7922 229.829 40.03 230.722 39.7697C231.477 39.5652 232.47 39.9742 233.185 40.1602C233.82 40.3275 234.098 41.1455 233.582 41.5731C232.887 42.1494 231.874 42.1866 231.199 41.5359C230.385 40.7365 231.676 39.5466 232.49 40.3275C232.45 40.2903 232.331 40.3461 232.291 40.3646C232.43 40.8294 232.549 41.3128 232.688 41.7776C232.39 41.7032 232.093 41.6288 231.815 41.5545C231.676 41.5173 231.517 41.4801 231.378 41.4429C231.1 41.4243 231.08 41.3872 231.318 41.35C231.417 41.257 231.537 41.1455 231.636 41.0525C231.676 40.8852 231.676 40.8852 231.676 41.0153C231.676 41.1083 231.695 41.2012 231.695 41.2942C231.695 41.3686 231.815 41.8148 231.676 41.5731C231.576 41.4801 231.457 41.3686 231.358 41.2756C231.398 41.2942 231.417 41.3128 231.457 41.3314C231.298 41.2942 231.159 41.257 231 41.2198C231.437 41.2384 231.954 41.1455 232.45 41.2198C232.966 41.2942 233.463 41.4987 233.899 41.7776C233.463 41.9449 233.006 42.1122 232.569 42.2795C232.728 41.8148 232.788 41.4058 232.728 40.9224C232.668 40.4576 233.185 40.0672 233.641 40.0672C234.177 40.0858 234.495 40.4762 234.555 40.941Z" fill="#161513"/>
<path d="M234.158 44.0829C232.648 43.8598 231.139 43.9156 229.67 44.2502C228.538 44.4919 228.042 42.8559 229.194 42.6142C231.02 42.2238 232.807 42.168 234.654 42.4469C235.786 42.6328 235.309 44.2688 234.158 44.0829Z" fill="#161513"/>
<path d="M235.924 32.7981C234.554 32.2962 233.164 32.166 231.735 32.4821C230.603 32.7238 230.107 31.0877 231.258 30.8461C232.986 30.4742 234.753 30.5486 236.401 31.1621C237.493 31.5525 237.016 33.1885 235.924 32.7981Z" fill="#161513"/>
<path d="M256.177 96.4539C254.946 93.1633 253.735 89.8727 252.504 86.6006C252.127 85.5595 253.874 85.1133 254.251 86.1544C255.483 89.4451 256.694 92.7357 257.925 96.0077C258.322 97.0302 256.555 97.4764 256.177 96.4539Z" fill="#161513"/>
<path d="M203.761 32.3838L199.543 34.5424C196.975 36.3265 197.328 36.9212 196.739 39.8727L195.255 48.6391C195.207 48.9254 194.736 48.9254 194.689 48.6391L193.228 39.9388C192.639 37.0093 192.71 36.3706 190.165 34.5644L186.159 32.4059C186.017 32.2957 186.017 32.0755 186.159 31.9874L190.683 29.961C193.204 28.1548 193.063 26.9654 193.629 24.058L194.689 15.7542C194.736 15.4678 195.207 15.4678 195.255 15.7542L196.48 24.3223C197.046 27.2297 197.352 28.4412 199.873 30.2253L203.785 31.9433C203.926 32.0755 203.926 32.2737 203.761 32.3838Z" fill="#EBEBFF"/>
<path d="M179.732 51.1058L175.514 53.2643C172.946 55.0484 173.299 55.6431 172.71 58.5946L171.202 67.339C171.155 67.6253 170.683 67.6253 170.636 67.339L169.175 58.6387C168.586 55.7092 168.657 55.0705 166.112 53.2643L162.106 51.1058C161.965 50.9956 161.965 50.7754 162.106 50.6873L166.63 48.6609C169.152 46.8547 169.01 45.6653 169.576 42.7579L170.613 34.4761C170.66 34.1898 171.131 34.1898 171.178 34.4761L172.404 43.0442C172.969 45.9517 173.299 47.1631 175.797 48.9472L179.709 50.6652C179.874 50.7974 179.874 51.0177 179.732 51.1058Z" fill="#EBEBFF"/>
</g>
<defs>
<clipPath id="clip0_1090_2894">
<rect width="345" height="155" rx="32" fill="white"/>
</clipPath>
</defs>
</svg>
