<svg width="350" height="150" viewBox="0 0 350 150" fill="none" xmlns="http://www.w3.org/2000/svg">
<g clip-path="url(#clip0_1303_2237)">
<rect width="350" height="150" rx="25" fill="#7C7AFF"/>
<g opacity="0.48">
<path d="M302.965 166.975C264.721 188.666 157.526 230.761 113.686 227.319C107.899 226.858 100.919 225.223 99.3038 219.646C97.977 215.05 101.227 210.473 104.591 207.089C117.32 194.32 134.414 186.801 151.7 181.647C168.986 176.494 186.848 173.436 204.038 167.975C177.196 165.936 150.738 158.975 126.357 147.514C119.512 144.302 112.725 140.649 107.379 135.303C102.688 130.61 99.2268 122.976 102.996 117.495C105.418 113.995 109.937 112.707 114.09 111.822C157.391 102.63 203.884 109.361 242.821 130.437C214.844 116.361 189.309 97.419 167.697 74.7465C160.314 66.9967 153.123 58.2855 151.104 47.7858C150.469 44.4782 150.392 40.9398 151.777 37.8822C154.853 31.0747 163.698 29.1324 171.12 29.9209C181.676 31.0555 191.482 35.8822 200.539 41.4205C228.938 58.7854 252.069 83.5732 272.259 109.996C260.76 93.9191 249.262 77.8426 237.764 61.7469C231.38 52.8241 224.881 43.6512 222.093 33.0362C219.305 22.4211 220.978 9.92143 229.073 2.53703C230.438 1.28706 232.072 0.171707 233.918 0.017865C235.341 -0.0975164 236.764 0.364009 238.091 0.883225C261.568 9.80605 277.662 32.4785 285.007 56.5163C292.352 80.5541 300.293 128.014 300.12 153.148L302.965 166.975Z" fill="#EFEFFF"/>
<path d="M282.904 100.718C306.641 80.246 338.278 69.1423 369.625 70.2995C373.072 70.4235 376.601 70.7128 379.73 72.1731C382.859 73.6334 385.533 76.4851 385.878 79.9154C386.181 82.9048 384.706 85.7703 382.997 88.2363C378.365 94.8764 371.721 99.8359 364.87 104.134C340.856 119.164 312.638 127.416 284.296 127.664C316.401 116.161 352.201 115.265 384.844 125.143C393.556 127.774 402.599 131.59 407.562 139.209C408.568 140.738 409.395 142.474 409.354 144.306C409.258 149.279 403.399 151.828 398.505 152.764C372.782 157.696 346.315 152.255 320.688 146.827C312.473 145.091 304.091 143.286 296.895 138.961C313.079 140.09 329.18 142.267 345.088 145.463C365.159 149.513 386.043 155.892 399.677 171.156C404.336 176.377 407.976 184.409 403.868 190.071C401.938 192.73 398.726 194.135 395.583 195.085C382.597 198.956 368.536 196.918 355.592 192.895C342.648 188.872 330.379 182.948 317.449 178.857C304.064 174.627 289.548 172.148 278.616 163.358C301.858 164.474 322.136 179.132 339.284 194.851C345.763 200.802 352.105 207.071 356.599 214.634C358.239 217.389 359.645 220.503 359.218 223.671C358.349 229.994 350.864 233.039 344.481 233.301C336.155 233.645 327.733 231.331 320.744 226.785C315.354 223.272 310.887 218.546 306.476 213.876C288.142 194.438 269.808 174.999 251.487 155.547L282.904 100.718Z" fill="#EFEFFF"/>
<path d="M353.07 56.2544C356.454 50.7418 354.725 43.5315 349.209 40.1499C343.693 36.7682 336.478 38.4956 333.094 44.0083C329.711 49.5209 331.439 56.7311 336.955 60.1128C342.471 63.4945 349.686 61.7671 353.07 56.2544Z" fill="#EFEFFF"/>
<path d="M312.173 32.2264C314.751 30.2479 315.237 26.5552 313.257 23.9786C311.277 21.4019 307.582 20.9171 305.004 22.8956C302.425 24.8741 301.94 28.5668 303.92 31.1434C305.9 33.7201 309.595 34.2049 312.173 32.2264Z" fill="#EFEFFF"/>
<path d="M169.78 38.0646C170.876 35.6039 169.769 32.7211 167.306 31.6257C164.844 30.5303 161.959 31.6371 160.863 34.0978C159.767 36.5584 160.875 39.4412 163.337 40.5366C165.799 41.632 168.684 40.5252 169.78 38.0646Z" fill="#EFEFFF"/>
</g>
<path d="M160.604 144.472V144.141C160.604 141.978 158.316 140.174 155.379 139.912C158.316 139.65 160.604 137.859 160.604 135.683V135.352C160.604 133.23 158.398 131.453 155.559 131.15C158.398 130.833 160.604 129.07 160.604 126.948V126.618C160.604 124.276 157.93 122.361 154.663 122.361H131.862C128.595 122.361 125.921 124.276 125.921 126.618V126.948C125.921 129.07 128.126 130.847 130.966 131.15C128.126 131.467 125.921 133.23 125.921 135.352V135.683C125.921 137.845 128.209 139.65 131.145 139.912C128.209 140.174 125.921 141.965 125.921 144.141V144.472C125.921 146.814 128.595 148.729 131.862 148.729H154.663C157.93 148.729 160.604 146.814 160.604 144.472Z" fill="#CECDFF"/>
<path d="M157.117 130.006C148.322 130.006 139.513 130.006 130.719 130.006C129.905 130.006 129.905 131.26 130.719 131.26C139.513 131.26 148.322 131.26 157.117 131.26C157.93 131.26 157.93 130.006 157.117 130.006Z" fill="#222159"/>
<path d="M157.116 139.802C148.335 139.802 139.54 139.802 130.759 139.802C129.945 139.802 129.945 141.055 130.759 141.055C139.54 141.055 148.335 141.055 157.116 141.055C157.929 141.055 157.929 139.802 157.116 139.802Z" fill="#222159"/>
<path d="M130.042 122.733C130.042 131.274 130.042 139.815 130.042 148.357C130.042 149.169 131.297 149.169 131.297 148.357C131.297 139.815 131.297 131.274 131.297 122.733C131.297 121.92 130.042 121.92 130.042 122.733Z" fill="#222159"/>
<path d="M221.726 39.193C223.601 39.2068 225.365 37.5674 226.427 35.3769C227.488 33.1865 227.929 30.4864 228.067 27.8413C228.177 30.3073 228.288 32.8283 229.004 35.0739C229.707 37.3332 231.127 39.3032 232.864 39.5236C231.251 39.8818 229.942 41.7141 229.239 43.808C228.536 45.902 228.315 48.244 228.108 50.5447C227.667 48.0236 227.226 45.4474 226.22 43.257C225.227 41.0803 223.573 39.317 221.74 39.317L221.726 39.193Z" fill="#5655E6"/>
<path d="M330.408 85.7838C332.283 85.7976 334.048 84.1582 335.109 81.9678C336.17 79.7773 336.612 77.0772 336.749 74.4321C336.86 76.8981 336.97 79.4192 337.687 81.6647C338.39 83.924 339.81 85.894 341.547 86.1144C339.934 86.4726 338.624 88.3049 337.921 90.3989C337.218 92.4929 336.998 94.8348 336.791 97.1355C336.35 94.6144 335.909 92.0382 334.902 89.8478C333.91 87.6712 332.256 85.9078 330.422 85.9078L330.408 85.7838Z" fill="#5655E6"/>
<path d="M202 59.8024C203.875 59.8161 205.639 58.1768 206.701 55.9863C207.762 53.7959 208.203 51.0957 208.341 48.4507C208.451 50.9166 208.562 53.4377 209.278 55.6832C209.981 57.9426 211.401 59.9126 213.138 60.133C211.525 60.4912 210.216 62.3234 209.513 64.4174C208.81 66.5114 208.589 68.8534 208.382 71.154C207.941 68.633 207.5 66.0568 206.494 63.8664C205.501 61.6897 203.847 59.9264 202.014 59.9264L202 59.8024Z" fill="#5655E6"/>
<path d="M252.88 45.1439C252.977 40.9697 255.086 38.0078 258.904 37.3327C262.723 36.6439 266.597 38.3246 269.795 40.515C272.993 42.7055 275.805 45.4607 279.182 47.3894C287.012 51.8529 298.095 52.2387 302.355 60.1876C303.003 61.3999 303.43 63.1495 302.782 64.4445C301.804 66.4145 300.273 65.6017 298.592 66.4007C297.13 67.1033 296.924 69.2662 297.765 70.6576C298.605 72.049 300.108 72.8894 301.514 73.6884C307.262 76.9671 312.611 80.9347 317.408 85.4809C320.165 88.0984 322.95 91.6251 321.999 95.3034C321.516 97.1494 318.359 96.9015 318.222 98.8026C317.877 103.528 326.934 108.308 325.996 112.951C325.555 115.128 323.267 116.56 321.048 116.643C318.828 116.726 316.705 115.761 314.817 114.604C309.964 111.642 303.265 99.8771 298.564 96.6535C291.23 91.6251 293.546 101.351 287.867 101.627C282.491 101.888 279.692 93.5814 277.928 89.6965C275.074 83.3869 272.138 76.5814 266.528 72.2143C265.507 71.4291 264.281 70.6989 263.012 70.9194C261.992 71.0984 261.179 71.8561 260.173 72.1317C257.016 72.972 254.989 68.8667 254.452 65.643C253.335 58.8789 252.798 52.0183 252.88 45.1439Z" fill="#222159"/>
<path d="M283.483 80.0947H236.531V140.421H283.483V80.0947Z" fill="#5655E6"/>
<path d="M325.624 125.639C319.035 122.567 312.004 121.12 304.712 121.286C298.343 121.437 291.919 122.415 285.647 123.517C276.894 125.06 268.498 127.581 260.255 130.681C253.114 127.981 245.85 125.722 238.295 124.179C226.992 121.892 215.261 120.142 203.833 122.429C191.991 124.799 181.335 133.643 177.931 145.367C174.333 157.71 180.012 171.679 189.813 179.546C198.539 186.558 209.746 190.388 220.085 194.383C220.209 194.424 220.32 194.479 220.444 194.521C225.117 185.139 229.652 175.688 234.105 166.169C230.176 164.833 226.275 163.427 222.456 161.802C219.658 160.617 203.943 154.459 211.993 152.833C225.117 150.175 243.258 157.324 255.113 162.201C254.865 162.091 254.617 161.981 254.369 161.871C255.375 162.243 256.423 162.477 257.498 162.615C260.903 163.179 264.446 162.794 267.492 161.361C268.237 161.127 268.995 160.851 269.739 160.562C281.76 155.933 295.641 151.924 308.668 152.861C309.854 152.944 310.846 153.288 311.398 154.197C309.426 157.228 305.181 158.991 301.941 160.3C295.421 162.945 288.818 165.397 282.159 167.712C286.336 177.424 289.59 187.44 292.953 197.372C315.602 190.277 341.794 180.055 343.558 154.679C344.399 142.584 336.445 130.695 325.624 125.639Z" fill="#222159"/>
<path d="M200.179 128.16C199.504 129.028 198.787 129.855 200.179 128.16Z" fill="#CECDFF"/>
<path d="M231.279 73.9775C228.108 76.8843 225.393 80.1218 222.994 83.5934C218.941 89.4759 215.798 96.0196 212.903 102.729C208.52 112.909 203.971 127.402 194.266 133.877C184.837 140.173 171.148 134.456 164.394 126.699C160.065 121.726 150.926 122.029 146.597 126.796C141.731 132.155 142.062 139.263 146.694 144.581C155.847 155.106 170.542 161.14 184.354 161.361C195.7 161.54 206.383 157.255 214.64 149.554C226.509 138.478 231.21 122.319 237.937 108.074C239.509 104.74 241.204 101.448 243.203 98.3341C241.893 88.9111 238.654 80.0253 231.279 73.9775Z" fill="#CECDFF"/>
<path d="M369.75 124.261C363.271 120.886 357.192 123.338 352.808 128.49C347.97 134.194 342.566 138.382 334.502 137.583C317.174 135.875 310.598 111.256 304.326 98.2653C299.998 89.3107 294.663 80.1908 287.095 73.5781C281.36 80.6867 277.583 89.6275 276.122 98.4857C283.91 108.873 288.639 124.688 293.174 133.009C296.855 139.76 301.376 146.524 307.221 151.58C314.734 158.096 323.349 161.705 333.206 162.738C349.582 164.447 365.959 155.244 374.354 141.426C377.773 135.806 375.691 127.361 369.75 124.261ZM351.995 129.909C351.857 130.061 351.733 130.213 351.595 130.378C352.105 129.744 352.794 128.986 351.995 129.909Z" fill="#CECDFF"/>
<path d="M279.802 68.4816C266.513 61.2628 248.137 61.4143 235.648 70.4103C234.09 71.5261 232.643 72.7247 231.265 73.9783C238.653 80.0261 241.893 88.8981 243.189 98.3348C243.437 97.9491 243.685 97.5634 243.947 97.1776C244.167 96.847 244.402 96.5164 244.622 96.1995C248 91.4191 253.61 88.3608 259.496 88.4297C266.348 88.5123 271.724 92.6314 276.107 98.4864C277.569 89.642 281.36 80.6874 287.08 73.5788C284.875 71.6501 282.449 69.9281 279.802 68.4816Z" fill="#5655E6"/>
<path d="M168.681 130.805C168.295 130.447 168.005 130.185 167.812 130.006C168.088 130.268 168.378 130.53 168.681 130.805C168.667 130.805 168.667 130.805 168.681 130.805Z" fill="#CECDFF"/>
<path d="M148.776 102.578C143.234 106.242 139.319 112.4 140.188 118.737C141.125 125.557 146.997 130.337 154.4 130.557C158.232 130.668 162.299 130.502 165.607 128.422C168.654 126.521 170.735 123.394 171.7 120.184C173.768 113.282 170.611 106.366 164.587 102.261C160.038 99.1612 154.662 105.815 159.225 108.929C162.326 111.05 164.339 114.577 163.181 118.228C162.781 119.509 161.871 121.024 160.617 121.754C159.156 122.622 156.619 122.457 154.965 122.36C151.312 122.14 149.134 120.211 148.955 116.988C148.776 113.681 151.409 110.802 154.248 108.915C156.22 107.606 156.426 104.782 155.006 103.143C153.476 101.338 150.761 101.269 148.776 102.578Z" fill="#CECDFF"/>
<path d="M358.144 102.578C352.603 106.243 348.688 112.401 349.556 118.738C350.494 125.557 356.366 130.337 363.769 130.558C367.601 130.668 371.667 130.503 374.976 128.423C378.022 126.521 380.104 123.394 381.069 120.184C383.137 113.282 379.98 106.367 373.956 102.261C369.407 99.1617 364.031 105.816 368.593 108.929C371.695 111.051 373.708 114.577 372.55 118.228C372.15 119.509 371.24 121.025 369.986 121.755C368.524 122.623 365.988 122.457 364.334 122.361C360.681 122.141 358.503 120.212 358.324 116.988C358.144 113.682 360.777 110.803 363.617 108.915C365.588 107.607 365.795 104.782 364.375 103.143C362.845 101.338 360.129 101.269 358.144 102.578Z" fill="#CECDFF"/>
<path d="M147.948 103.239C149.657 104.947 151.381 106.669 153.09 108.377C153.669 108.956 154.551 108.06 153.986 107.482C152.277 105.773 150.553 104.051 148.844 102.343C148.265 101.778 147.383 102.66 147.948 103.239Z" fill="#222159"/>
<path d="M159.983 108.378C161.554 106.807 163.126 105.237 164.697 103.666C165.276 103.088 164.38 102.206 163.801 102.771C162.23 104.341 160.658 105.912 159.087 107.482C158.521 108.061 159.404 108.956 159.983 108.378Z" fill="#222159"/>
<path d="M155.212 136.426C157.569 135.269 160.478 136.068 161.925 138.258C162.367 138.933 163.456 138.3 163.015 137.625C161.167 134.842 157.569 133.877 154.578 135.352C153.847 135.71 154.482 136.784 155.212 136.426Z" fill="#222159"/>
<path d="M269.492 70.2722L267.342 56.3719C268.582 56.8679 270.03 56.7714 271.215 55.9586C273.118 54.6774 273.614 52.1013 272.332 50.2001C271.05 48.299 268.472 47.8031 266.57 49.0843C266.459 49.1669 266.349 49.2358 266.253 49.3322L265.329 43.3395C265.219 42.5956 264.585 42.0446 263.826 42.0446C260.091 42.0308 249.518 43.0227 247.009 54.4432C246.816 55.3112 247.395 56.1653 248.263 56.2893L252.757 56.9781L249.435 69.1977C248.18 73.8127 250.221 78.7584 254.466 80.9626C254.659 81.0591 254.866 81.1693 255.073 81.2657C262.503 84.7098 270.733 78.3451 269.492 70.2722Z" fill="#CECDFF"/>
<path d="M262.861 50.6688C262.765 48.4922 260.766 46.9079 258.629 47.1972C257.83 47.3074 258.174 48.5197 258.96 48.4095C260.269 48.2304 261.538 49.3739 261.593 50.6688C261.634 51.4816 262.889 51.4816 262.861 50.6688Z" fill="#222159"/>
<path d="M256.493 44.4416C254.094 45.2406 251.695 46.0534 249.297 46.8524C248.952 46.9764 248.663 47.431 248.925 47.7754C249.476 48.5469 250.041 49.3184 250.593 50.0761C251.061 50.7236 252.15 50.1036 251.682 49.4424C251.13 48.6709 250.565 47.8994 250.014 47.1417C249.89 47.4448 249.765 47.7617 249.641 48.0647C252.04 47.2657 254.439 46.4529 256.837 45.6539C257.595 45.3921 257.265 44.1798 256.493 44.4416Z" fill="#222159"/>
<path d="M254.535 52.3215C254.521 52.6521 253.942 52.9828 253.667 52.7348C253.046 52.2251 252.15 53.1068 252.771 53.6303C253.887 54.5671 255.734 53.8094 255.79 52.3215C255.817 51.5087 254.563 51.5087 254.535 52.3215Z" fill="#222159"/>
<path d="M269.713 51.5778C268.803 51.7431 267.893 51.8946 266.997 52.06C266.197 52.1977 266.542 53.41 267.328 53.2723C268.238 53.107 269.147 52.9554 270.043 52.7901C270.843 52.6523 270.498 51.44 269.713 51.5778Z" fill="#222159"/>
<path d="M208.354 150.161C210.505 148.866 212.062 146.883 212.807 144.486C213.055 143.714 211.842 143.383 211.594 144.155C210.946 146.235 209.581 147.957 207.72 149.073C207.031 149.486 207.665 150.575 208.354 150.161Z" fill="#222159"/>
<path d="M302.933 142.088C304.381 144.375 306.131 146.441 308.158 148.246C308.764 148.783 309.66 147.902 309.054 147.351C307.11 145.615 305.428 143.645 304.036 141.441C303.581 140.779 302.492 141.399 302.933 142.088Z" fill="#222159"/>
</g>
<defs>
<clipPath id="clip0_1303_2237">
<rect width="350" height="150" rx="25" fill="white"/>
</clipPath>
</defs>
</svg>
