<svg width="16" height="23" viewBox="0 0 16 23" fill="none" xmlns="http://www.w3.org/2000/svg">
<path d="M13.5947 7.75289C13.5947 7.75289 17.3987 12.9089 15.439 17.9521C13.4794 22.9952 7.73744 22.9952 7.73744 22.9952C7.73744 22.9952 4.48684 22.8144 2.43486 20.6995C1.26887 19.4977 0.58553 18.4009 0.261585 17.1617C-0.0941821 15.8008 -0.0252251 14.3225 0.107897 13.624C0.409218 12.0429 0.930252 11.0382 1.76013 9.89811C2.4118 9.00282 3.17602 8.03844 4.25769 6.54856C6.71683 3.16137 6.14046 0 6.14046 0C6.14046 0 9.71385 2.15985 11.0587 4.93024C12.0083 6.88629 12.1725 8.68842 12.0965 10.1176C12.1033 10.1168 12.1122 10.1165 12.12 10.1167C12.2665 10.0676 12.7662 9.8337 13.0952 9.29595C13.4618 8.69689 13.5947 7.75289 13.5947 7.75289Z" fill="#FF6815"/>
<path d="M3.60447 20.3984C2.50559 17.5665 4.64192 14.4144 4.64192 14.4144C4.64192 14.4144 4.52665 15.3929 4.94931 16.2585C5.37197 17.1241 6.25572 17.4628 6.25572 17.4628C6.25572 17.4628 6.15981 16.1661 6.17888 16.0327C6.2173 15.0542 6.25572 14.2538 6.67839 12.9842C7.25475 11.253 8.94541 9.86048 8.94541 9.86048C8.94541 9.86048 8.79599 11.8349 10.175 13.7369C10.7815 14.5735 11.2697 15.1536 11.6351 15.6563C12.1004 16.2966 12.3883 16.9137 12.5573 17.8015C12.6999 18.551 12.8322 20.3749 11.4603 21.7909C10.3096 22.9785 8.25377 22.9952 8.25377 22.9952C8.25377 22.9952 4.70335 23.2303 3.60447 20.3984Z" fill="#FFBA1E"/>
</svg>
