<svg width="64" height="64" viewBox="0 0 64 64" fill="none" xmlns="http://www.w3.org/2000/svg">
<rect width="64" height="64" rx="32" fill="#FFCE5C"/>
<path fill-rule="evenodd" clip-rule="evenodd" d="M48.0002 18.6667C49.4729 18.6667 50.6668 19.8607 50.6668 21.3334L50.6668 29.3334C50.6668 30.8062 49.4729 32.0001 48.0002 32.0001C46.5274 32.0001 45.3335 30.8062 45.3335 29.3334L45.3335 21.3334C45.3335 19.8607 46.5274 18.6667 48.0002 18.6667Z" fill="#705600"/>
<path fill-rule="evenodd" clip-rule="evenodd" d="M16.0002 18.6667C17.4729 18.6667 18.6668 19.8607 18.6668 21.3334L18.6668 29.3334C18.6668 30.8062 17.4729 32.0001 16.0002 32.0001C14.5274 32.0001 13.3335 30.8062 13.3335 29.3334L13.3335 21.3334C13.3335 19.8607 14.5274 18.6667 16.0002 18.6667Z" fill="#705600"/>
<path fill-rule="evenodd" clip-rule="evenodd" d="M45.5691 38.2085C46.9917 38.5896 47.8359 40.0519 47.4548 41.4745C46.5432 44.8766 44.5344 47.8829 41.7401 50.027C38.9458 52.1712 35.5221 53.3334 32 53.3334C28.4778 53.3334 25.0541 52.1712 22.2598 50.027C19.4655 47.8829 17.4567 44.8766 16.5451 41.4745C16.164 40.0519 17.0082 38.5896 18.4308 38.2085C19.8533 37.8273 21.3156 38.6715 21.6967 40.0941C22.3045 42.3622 23.6436 44.3664 25.5065 45.7958C27.3694 47.2252 29.6519 48 32 48C34.3481 48 36.6305 47.2252 38.4934 45.7958C40.3563 44.3664 41.6954 42.3622 42.3032 40.0941C42.6843 38.6715 44.1466 37.8273 45.5691 38.2085Z" fill="#705600"/>
</svg>
