<svg width="402" height="477" viewBox="0 0 402 477" fill="none" xmlns="http://www.w3.org/2000/svg">
<path d="M8.22493 63.5665C2.29454 61.1283 -1.23164 53.9221 0.397883 47.664C2.05412 41.4059 8.67906 36.9629 15.0101 37.857C18.2692 38.3175 21.2077 39.9701 24.066 41.5955C27.699 43.6545 31.3321 45.7405 34.9651 47.7994C25.9092 44.5756 21.5282 33.2514 23.505 23.7153C24.9476 16.8612 29.569 10.3052 36.2474 8.51714C41.6969 7.05421 47.4937 8.89642 52.4891 11.5243C68.0097 19.5975 78.882 34.4705 88.1249 49.4791C85.2398 45.4425 88.4455 39.2386 93.1203 37.6131C97.7952 36.0147 102.924 37.6944 107.332 39.9159C117.162 44.9007 125.337 54.4368 131 64L8.22493 63.5665Z" fill="#C2C1FF"/>
<path d="M452.452 70.4504C460.057 67.3591 464.58 58.2226 462.49 50.2883C460.366 42.3539 451.87 36.7209 443.75 37.8544C439.571 38.4383 435.802 40.5335 432.137 42.5944C427.478 45.2048 422.818 47.8496 418.159 50.46C429.773 46.3726 435.391 32.0152 432.856 19.9248C431.006 11.2348 425.079 2.92261 416.515 0.655659C409.526 -1.19912 402.092 1.13653 395.686 4.46827C375.781 14.7039 361.838 33.5609 349.985 52.5896C353.685 47.4717 349.574 39.6061 343.579 37.5452C337.583 35.5187 331.006 37.6483 325.353 40.4648C312.746 46.7848 302.263 58.8752 295 71L452.452 70.4504Z" fill="#C2C1FF"/>
<path d="M-17.0657 275.211C-24.2164 272.326 -28.5027 263.713 -26.5119 256.258C-24.5211 248.802 -16.4969 243.5 -8.85873 244.557C-4.93806 245.105 -1.36274 247.076 2.0907 249.026C6.4786 251.484 10.8665 253.942 15.2544 256.4C4.32528 252.54 -0.976765 239.072 1.42033 227.716C3.14705 219.55 8.7538 211.749 16.8186 209.616C23.4004 207.869 30.3886 210.083 36.4626 213.191C55.2127 222.82 68.3561 240.514 79.5086 258.391C76.0146 253.576 79.8946 246.182 85.542 244.272C91.1691 242.363 97.3853 244.353 102.708 247.015C114.571 252.967 124.464 264.302 131.29 275.698L-17.0657 275.211Z" fill="#C2C1FF"/>
<path d="M507.436 242.232C518.639 237.691 525.354 224.132 522.235 212.395C519.116 200.659 506.544 192.312 494.577 193.975C488.435 194.838 482.833 197.94 477.422 201.01C470.548 204.88 463.673 208.75 456.798 212.619C473.921 206.543 482.228 185.34 478.473 167.464C475.767 154.608 466.983 142.327 454.347 138.97C444.035 136.219 433.087 139.705 423.57 144.598C394.194 159.756 373.601 187.611 356.128 215.753C361.602 208.174 355.523 196.533 346.675 193.527C337.859 190.521 328.12 193.655 319.781 197.844C301.194 207.215 285.694 225.059 275 243L507.436 242.232Z" fill="#C2C1FF"/>
<path d="M233.01 76.9697C235.438 85.5943 245.302 89.681 253.112 85.2935C263.126 79.6524 275.218 87.9761 273.59 99.3586C272.314 108.234 279.649 115.981 288.561 115.129C300.002 114.051 307.662 126.586 301.554 136.314C296.772 143.911 300.352 153.965 308.839 156.823C319.704 160.508 321.656 175.075 312.093 181.468C304.658 186.457 303.832 197.088 310.416 203.18C318.852 210.977 314.697 225.068 303.381 227.023C294.569 228.553 289.487 237.929 293.017 246.178C297.573 256.733 288.035 267.915 276.92 265.107C268.233 262.901 259.796 269.419 259.671 278.37C259.546 289.878 246.303 296.221 237.266 289.1C230.231 283.56 219.867 286.067 216.137 294.215C211.355 304.67 196.66 305.071 191.303 294.892C187.122 286.969 176.633 285.014 169.923 290.956C161.312 298.552 147.743 292.936 146.967 281.454C146.366 272.503 137.579 266.461 129.042 269.143C118.077 272.578 107.963 261.898 111.944 251.117C115.048 242.693 109.466 233.592 100.553 232.564C89.1627 231.235 84.231 217.371 92.2419 209.122C98.4755 202.704 97.0735 192.098 89.388 187.535C79.5245 181.669 80.6511 167.002 91.3157 162.74C99.627 159.405 102.656 149.176 97.4741 141.855C90.84 132.478 97.8246 119.541 109.29 119.993C118.228 120.344 125.162 112.22 123.385 103.42C121.131 92.138 132.772 83.1875 143.062 88.2519C151.098 92.2132 160.711 87.6001 162.688 78.8501C165.217 67.6431 179.486 64.1832 186.821 73.0084C192.554 79.9031 203.219 79.6022 208.551 72.4067C215.436 63.2305 229.88 65.9131 233.01 76.9697Z" fill="#191E10"/>
<path d="M374.203 347.542C364.815 314.648 335.901 291.181 301.829 288.775C223.847 283.234 90.6898 281.228 62.4261 311.464C72.0393 303.391 53.1884 321.343 62.4261 311.464C19.1919 347.743 12.4576 435.744 12.4576 435.744L113.446 435.042L394.706 435.844C396.258 427.822 384.617 384.097 374.203 347.542Z" fill="#A5A3FF"/>
<path d="M242.673 252.245L235.714 230.082C241.546 231.461 247.955 230.007 252.687 225.619C260.272 218.599 260.748 206.765 253.738 199.169C246.729 191.572 234.912 191.096 227.327 198.116C226.876 198.542 226.451 198.968 226.05 199.419L217.839 173.295C216.813 170.061 213.608 168.055 210.254 168.556C193.631 171.038 147.217 182.697 143.838 235.347C143.587 239.333 146.717 242.743 150.722 242.743L171.2 242.718L169.573 256.959C194.257 261.697 218.84 259.115 242.673 252.245Z" fill="#EFEFFF"/>
<path d="M242.673 252.245C218.865 259.14 194.257 261.697 169.598 256.959L164.741 299.505C162.288 320.941 174.755 341.651 195.158 348.595C196.109 348.921 197.086 349.222 198.062 349.523C233.41 359.802 265.78 325.78 254.714 290.605L242.673 252.245Z" fill="#A5A3FF"/>
<path d="M179.261 184.803C169.147 190.043 159.008 195.258 148.895 200.497C147.568 201.174 147.443 203.105 148.419 204.108C151.423 207.167 154.402 210.2 157.406 213.259C159.484 215.365 162.713 212.131 160.636 210.025C157.632 206.966 154.652 203.932 151.648 200.874C151.498 202.077 151.348 203.28 151.173 204.484C161.287 199.244 171.425 194.029 181.539 188.789C184.193 187.41 181.865 183.449 179.261 184.803Z" fill="#191E10"/>
<path d="M176.382 220.304C176.658 222.661 173.904 224.817 171.751 223.488C169.222 221.959 166.919 225.92 169.448 227.449C174.329 230.433 181.639 226.171 180.989 220.304C180.838 219.076 180.037 218.023 178.685 218.023C177.559 217.997 176.257 219.05 176.382 220.304Z" fill="#191E10"/>
<path d="M243.524 207.442C239.594 208.771 235.663 210.1 231.733 211.429C228.954 212.381 230.156 216.794 232.96 215.841C236.89 214.512 240.82 213.184 244.751 211.855C247.53 210.927 246.328 206.49 243.524 207.442Z" fill="#191E10"/>
<path d="M188.198 198.517C192.579 208.42 206.248 210.952 214.284 204.083C216.537 202.152 213.283 198.918 211.055 200.848C205.046 205.988 195.283 203.23 192.179 196.21C190.977 193.502 187.022 195.834 188.198 198.517Z" fill="#191E10"/>
<path d="M191.954 200.347C190.276 202.052 188.574 203.732 186.897 205.437C184.819 207.518 188.048 210.777 190.126 208.671C191.803 206.966 193.506 205.286 195.183 203.581C197.286 201.5 194.056 198.266 191.954 200.347Z" fill="#191E10"/>
<path d="M199.188 206.966C199.213 208.671 199.239 210.351 199.264 212.055C199.289 215.014 203.895 215.014 203.845 212.055C203.82 210.351 203.795 208.671 203.77 206.966C203.72 204.033 199.138 204.007 199.188 206.966Z" fill="#191E10"/>
<path d="M208.201 206.916C208.752 208.42 209.277 209.949 209.828 211.454C210.254 212.607 211.38 213.409 212.657 213.058C213.783 212.757 214.685 211.404 214.259 210.225C213.708 208.721 213.183 207.192 212.632 205.687C212.206 204.509 211.08 203.732 209.803 204.083C208.676 204.409 207.8 205.762 208.201 206.916Z" fill="#191E10"/>
<path d="M223.972 375.347C223.972 379.734 220.418 383.319 216.012 383.319C211.63 383.319 208.051 379.759 208.051 375.347C208.051 370.959 211.605 367.374 216.012 367.374C220.418 367.374 223.972 370.934 223.972 375.347Z" fill="#191E10"/>
<path d="M108.765 350.175C83.2546 363.287 57.7447 376.4 32.2097 389.512C26.3517 392.521 20.4936 395.529 14.6356 398.538C5.02245 403.502 -2.78825 410.046 -7.01904 420.325C-10.7742 429.426 -11.2248 441.987 -6.96898 451.063C-2.56294 460.465 4.72204 469.089 14.7608 472.75C24.2989 476.21 36.065 477.513 45.4528 472.7C61.4498 464.476 77.4717 456.253 93.4686 448.004C116.475 436.17 139.482 424.362 162.488 412.528C149.32 389.362 136.252 366.12 123.91 342.403C118.853 345.01 113.796 347.592 108.765 350.175Z" fill="#A5A3FF"/>
<path d="M187.573 399.641C197.186 394.702 204.996 388.158 209.227 377.879C212.982 368.778 213.433 356.217 209.177 347.141C204.771 337.739 197.486 329.115 187.447 325.454C177.909 321.994 186.246 308.23 176.858 313.069C165.893 318.71 134.85 336.787 123.885 342.403C136.227 366.145 149.27 389.387 162.463 412.528C164.967 411.249 167.495 409.946 169.998 408.667C175.856 405.658 181.714 402.65 187.573 399.641Z" fill="#EFEFFF"/>
<path d="M191.878 343.581C194.908 323.248 197.937 302.89 200.966 282.557C201.842 276.64 197.586 270.121 191.428 269.444C185.294 268.767 179.286 272.653 178.335 278.997C175.306 299.33 172.277 319.688 169.247 340.021C168.371 345.938 172.627 352.456 178.785 353.133C184.919 353.835 190.927 349.924 191.878 343.581Z" fill="#EFEFFF"/>
<path d="M192.98 343.882C195.258 328.513 197.561 313.119 199.839 297.75C201.191 288.624 206.048 274.233 194.757 269.194C190.777 267.414 185.87 268.141 182.34 270.598C177.959 273.631 177.283 278.194 176.557 283.158C174.279 298.552 171.976 313.921 169.698 329.315C169.473 330.769 171.701 331.371 171.901 329.917C173.754 317.507 175.581 305.096 177.434 292.686C177.884 289.702 178.31 286.719 178.76 283.76C179.161 281.078 179.261 278.144 180.638 275.712C183.467 270.748 190.577 268.868 195.333 272.127C201.016 276.038 199.864 282.281 198.988 288.173C198.112 294.115 197.211 300.082 196.335 306.024C194.482 318.434 192.654 330.82 190.802 343.23C190.552 344.734 192.755 345.336 192.98 343.882Z" fill="#191E10"/>
<path d="M197.361 382.166C202.543 348.996 207.725 315.802 212.907 282.632C213.834 276.715 209.628 270.171 203.444 269.444C197.311 268.717 191.278 272.578 190.276 278.921C185.094 312.091 179.912 345.286 174.73 378.456C173.804 384.372 178.009 390.916 184.193 391.643C190.326 392.37 196.36 388.509 197.361 382.166Z" fill="#EFEFFF"/>
<path d="M204.27 349.398C206.173 336.561 208.101 323.724 210.003 310.913C210.955 304.494 211.906 298.076 212.857 291.658C213.533 287.045 215.16 281.855 213.783 277.217C211.63 269.946 203.995 266.335 197.035 269.118C193.531 270.522 190.752 273.431 189.675 277.066C187.948 282.908 187.698 289.577 186.796 295.619C184.618 310.186 182.466 324.727 180.288 339.294C180.062 340.748 182.29 341.35 182.491 339.895C184.543 326.081 186.596 312.267 188.649 298.452C189.6 292.059 190.226 285.54 191.503 279.197C192.73 273.105 198.963 268.767 205.172 270.873C212.607 273.406 212.106 281.078 211.155 287.32C210.153 293.989 209.177 300.658 208.176 307.302C206.123 321.117 204.07 334.931 202.017 348.771C201.842 350.225 204.045 350.852 204.27 349.398Z" fill="#191E10"/>
<path d="M198.638 290.931C194.958 315.651 191.278 340.372 187.598 365.092C186.721 371.009 190.977 377.528 197.136 378.205C203.269 378.882 209.277 374.996 210.229 368.653C213.909 343.932 217.589 319.211 221.269 294.491C222.145 288.574 217.889 282.055 211.731 281.378C205.597 280.701 199.589 284.588 198.638 290.931Z" fill="#EFEFFF"/>
<path d="M209.402 381.966C213.483 354.613 217.539 327.259 221.619 299.906C222.395 294.767 223.322 289.953 220.142 285.39C217.238 281.228 212.356 279.398 207.4 280.476C195.834 282.983 196.56 297.148 195.183 306.425C193.13 320.29 191.052 334.154 189 348.044C188.774 349.498 191.002 350.1 191.203 348.645C192.73 338.316 194.282 327.987 195.809 317.657C196.635 312.016 197.486 306.375 198.312 300.759C198.988 296.196 198.863 289.853 201.992 286.217C206.699 280.777 215.436 281.403 218.915 287.822C221.644 292.886 219.291 299.881 218.49 305.247C216.662 317.532 214.835 329.842 213.007 342.127C211.055 355.189 209.127 368.277 207.174 381.339C206.974 382.793 209.177 383.42 209.402 381.966Z" fill="#191E10"/>
<path d="M309.239 351.353C334.749 364.466 360.259 377.578 385.794 390.691C391.652 393.699 397.51 396.708 403.368 399.716C412.981 404.655 420.792 411.199 425.023 421.478C428.778 430.579 429.229 443.14 424.973 452.216C420.567 461.618 413.282 470.268 403.243 473.903C393.705 477.363 381.939 478.667 372.551 473.853C356.554 465.63 340.532 457.406 324.535 449.157C301.529 437.324 278.522 425.515 255.516 413.681C268.684 390.515 281.752 367.274 294.093 343.556C299.15 346.163 304.207 348.771 309.239 351.353Z" fill="#A5A3FF"/>
<path d="M230.431 400.794C220.818 395.855 213.007 389.312 208.777 379.032C205.021 369.931 204.571 357.37 208.827 348.294C213.233 338.893 220.518 330.243 230.556 326.608C240.094 323.148 231.758 309.383 241.146 314.222C252.111 319.863 283.153 337.94 294.118 343.581C281.777 367.324 268.734 390.565 255.541 413.706C253.037 412.428 250.509 411.124 248.005 409.845C242.147 406.837 236.289 403.828 230.431 400.794Z" fill="#EFEFFF"/>
<path d="M226.125 344.759C223.096 324.426 220.067 304.068 217.038 283.735C216.162 277.818 220.417 271.3 226.576 270.623C232.709 269.946 238.718 273.832 239.669 280.175C242.698 300.508 245.727 320.866 248.756 341.199C249.633 347.116 245.377 353.635 239.218 354.312C233.085 354.989 227.077 351.102 226.125 344.759Z" fill="#EFEFFF"/>
<path d="M227.227 344.459C225.374 332.048 223.547 319.663 221.694 307.252C220.818 301.31 219.917 295.343 219.041 289.401C218.164 283.509 216.988 277.267 222.696 273.355C227.452 270.071 234.537 271.977 237.391 276.941C238.768 279.323 238.868 282.306 239.268 284.989C239.719 287.972 240.145 290.956 240.595 293.914C242.448 306.325 244.275 318.735 246.128 331.146C246.353 332.6 248.556 331.973 248.331 330.544C246.053 315.15 243.75 299.781 241.471 284.387C240.72 279.423 240.069 274.86 235.688 271.826C232.159 269.369 227.252 268.642 223.271 270.422C211.956 275.462 216.838 289.828 218.189 298.979C220.468 314.348 222.771 329.742 225.049 345.11C225.224 346.514 227.452 345.888 227.227 344.459Z" fill="#191E10"/>
<path d="M220.643 383.345C215.461 350.175 210.279 316.98 205.097 283.81C204.17 277.893 208.376 271.35 214.56 270.623C220.693 269.896 226.726 273.757 227.728 280.1C232.91 313.269 238.092 346.464 243.274 379.634C244.2 385.551 239.994 392.095 233.811 392.822C227.677 393.549 221.644 389.688 220.643 383.345Z" fill="#EFEFFF"/>
<path d="M215.936 349.949C213.884 336.135 211.831 322.32 209.778 308.481C208.827 302.062 207.875 295.644 206.924 289.226C205.973 282.807 205.046 274.684 212.807 272.052C218.64 270.071 225.074 273.957 226.376 279.849C227.778 286.317 228.378 293.062 229.33 299.605C231.383 313.42 233.435 327.234 235.488 341.049C235.714 342.503 237.917 341.876 237.691 340.447C235.789 327.61 233.861 314.774 231.958 301.962C231.007 295.544 230.056 289.126 229.104 282.707C228.479 278.57 227.678 274.985 224.298 272.227C218.39 267.388 209.427 268.692 205.497 275.336C203.144 279.323 203.695 283.234 204.346 287.596C205.297 294.014 206.248 300.433 207.199 306.851C209.377 321.418 211.53 335.959 213.708 350.526C213.934 352.03 216.162 351.403 215.936 349.949Z" fill="#191E10"/>
<path d="M219.366 292.109C223.046 316.83 226.726 341.55 230.406 366.271C231.282 372.188 227.027 378.706 220.868 379.383C214.735 380.06 208.727 376.174 207.775 369.831C204.095 345.11 200.415 320.39 196.735 295.669C195.859 289.752 200.115 283.234 206.273 282.557C212.407 281.88 218.415 285.766 219.366 292.109Z" fill="#EFEFFF"/>
<path d="M210.804 382.517C207.249 358.674 203.695 334.806 200.165 310.963C199.364 305.522 197.787 299.656 197.787 294.165C197.762 286.819 204.871 281.754 211.756 284.387C217.814 286.719 218.29 292.435 219.116 298.026C219.917 303.441 220.718 308.857 221.544 314.272C223.296 326.106 225.074 337.94 226.826 349.799C227.052 351.253 229.255 350.626 229.029 349.197C227.202 336.987 225.399 324.777 223.572 312.542C222.696 306.6 221.794 300.658 220.918 294.716C220.142 289.577 218.64 285.139 213.683 282.707C203.544 277.743 194.357 286.694 195.784 296.948C197.661 310.336 199.764 323.674 201.742 337.037C204.02 352.406 206.323 367.75 208.601 383.119C208.802 384.598 211.03 383.971 210.804 382.517Z" fill="#191E10"/>
<path d="M21.6452 396.256C51.0355 380.562 80.4508 364.867 109.841 349.172C113.997 346.941 118.152 344.734 122.308 342.503C123.61 341.801 122.458 339.82 121.157 340.522C91.7663 356.217 62.351 371.912 32.9607 387.607C28.805 389.838 24.6493 392.044 20.4936 394.276C19.1668 394.978 20.3434 396.958 21.6452 396.256Z" fill="#191E10"/>
<path d="M381.288 387.105C355.978 373.943 330.694 360.755 305.384 347.593C301.854 345.762 298.324 343.907 294.769 342.077C293.468 341.4 292.291 343.38 293.618 344.057C318.928 357.22 344.212 370.408 369.522 383.57C373.052 385.4 376.581 387.256 380.136 389.086C381.438 389.763 382.59 387.782 381.288 387.105Z" fill="#191E10"/>
<path d="M38.8187 373.742C44.2261 375.221 49.6335 376.676 55.066 378.155C56.4929 378.531 57.0938 376.325 55.6668 375.948C50.2594 374.469 44.852 373.015 39.4196 371.536C37.9926 371.135 37.3918 373.341 38.8187 373.742Z" fill="#191E10"/>
<path d="M358.281 376.149C362.612 374.795 366.843 373.166 370.974 371.26C372.301 370.658 371.149 368.678 369.822 369.279C365.867 371.085 361.811 372.639 357.68 373.943C356.279 374.369 356.879 376.6 358.281 376.149Z" fill="#191E10"/>
<path d="M308.964 162.89C313.17 172.041 324.735 171.54 331.77 166.225C339.305 160.508 346.891 148.248 343.586 138.495C341.133 131.25 330.068 126.862 325.887 135.236C324.085 138.821 325.512 143.109 328.29 145.791C331.845 149.201 337.278 149.778 341.959 149.928C353.049 150.304 366.017 145.315 367.719 132.904C368.12 130.021 363.714 128.768 363.313 131.676C362.062 140.677 353.55 144.939 345.214 145.315C341.258 145.49 336.351 145.515 332.822 143.435C330.894 142.306 329.292 140.225 329.842 137.944C330.393 135.587 333.122 134.81 335.225 135.487C339.531 136.891 340.157 142.306 339.431 146.067C338.554 150.58 336.026 155.043 333.122 158.553C328.39 164.244 317.25 169.96 312.944 160.533C311.668 157.901 307.737 160.232 308.964 162.89Z" fill="#191E10"/>
<path d="M62.0506 101.766C61.2244 112.596 70.2368 121.973 81.1517 120.895C91.8163 119.817 99.0763 109.312 96.3475 98.9074C95.3462 95.1216 92.1668 90.6588 87.8108 93.1158C83.4549 95.5728 82.5286 102.117 83.1294 106.554C84.8067 118.839 96.2224 125.132 107.037 128.341C109.866 129.194 111.068 124.756 108.264 123.929C101.505 121.923 94.2697 118.965 90.2642 112.822C88.2615 109.738 87.0598 105.802 87.6606 102.091C87.7858 101.364 87.9611 100.612 88.2364 99.9353C88.5368 99.1079 89.8136 97.1273 91.0152 97.7039C92.1167 98.2304 92.3421 102.493 92.3421 103.295C92.3921 110.716 86.3839 116.608 78.9737 116.407C71.2381 116.207 66.0811 109.187 66.6318 101.766C66.8571 98.8322 62.2759 98.8322 62.0506 101.766Z" fill="#191E10"/>
<path d="M66.031 276.314C71.864 281.83 81.1267 282.858 87.961 278.495C91.6911 276.113 93.9442 272.353 95.4964 268.316C97.0485 264.179 98.9511 258.613 96.4727 254.426C94.7453 251.493 90.6898 249.588 87.5355 251.393C84.3311 253.223 83.8805 257.36 84.8818 260.569C87.3352 268.517 96.5478 272.478 104.283 272.077C115.273 271.5 123.585 263.176 129.518 254.652C131.195 252.22 127.24 249.939 125.563 252.346C121.232 258.563 115.624 264.681 108.114 266.837C102.005 268.592 93.9943 267.063 90.3393 261.421C89.6634 260.368 88.5869 258.463 88.9624 257.134C90.0639 253.198 92.3671 256.507 92.7927 257.886C93.1932 259.19 92.9929 260.394 92.7176 261.697C91.9665 265.458 90.4645 269.795 87.8108 272.654C82.9792 277.843 74.2923 277.818 69.2604 273.03C67.1325 271.024 63.878 274.283 66.031 276.314Z" fill="#191E10"/>
<path d="M257.168 96.6008C253.012 89.9819 253.588 80.7806 259.571 75.3902C264.728 70.752 277.07 68.5958 281.226 75.8415C282.628 78.2985 281.601 81.633 278.247 80.906C275.643 80.3293 274.467 77.6467 274.266 75.2147C273.941 71.4038 275.393 67.4425 277.32 64.2334C281.226 57.7649 288.11 53.3272 295.621 52.6001C298.525 52.3243 298.55 47.7362 295.621 48.012C286.433 48.8645 278.147 53.954 273.365 61.9017C269.36 68.5457 266.631 81.608 276.169 85.0428C279.523 86.2462 283.554 85.469 285.507 82.2849C287.96 78.3236 286.107 73.4848 282.803 70.6768C275.768 64.7599 264.578 65.7126 257.593 71.103C249.157 77.6216 247.655 90.0571 253.212 98.9074C254.79 101.415 258.745 99.1079 257.168 96.6008Z" fill="#191E10"/>
</svg>
