<svg width="64" height="64" viewBox="0 0 64 64" fill="none" xmlns="http://www.w3.org/2000/svg">
<rect width="64" height="64" rx="32" fill="#BDA193"/>
<path fill-rule="evenodd" clip-rule="evenodd" d="M48.0002 18.6667C49.4729 18.6667 50.6668 19.8607 50.6668 21.3334L50.6668 29.3334C50.6668 30.8062 49.4729 32.0001 48.0002 32.0001C46.5274 32.0001 45.3335 30.8062 45.3335 29.3334L45.3335 21.3334C45.3335 19.8607 46.5274 18.6667 48.0002 18.6667Z" fill="#4B3425"/>
<path fill-rule="evenodd" clip-rule="evenodd" d="M16.0002 18.6667C17.4729 18.6667 18.6668 19.8607 18.6668 21.3334L18.6668 29.3334C18.6668 30.8062 17.4729 32.0001 16.0002 32.0001C14.5274 32.0001 13.3335 30.8062 13.3335 29.3334L13.3335 21.3334C13.3335 19.8607 14.5274 18.6667 16.0002 18.6667Z" fill="#4B3425"/>
<path fill-rule="evenodd" clip-rule="evenodd" d="M13.3335 42.6667C13.3335 41.1939 14.5274 40 16.0002 40H48.0002C49.4729 40 50.6668 41.1939 50.6668 42.6667C50.6668 44.1394 49.4729 45.3333 48.0002 45.3333H16.0002C14.5274 45.3333 13.3335 44.1394 13.3335 42.6667Z" fill="#4B3425"/>
</svg>
