<svg width="64" height="64" viewBox="0 0 64 64" fill="none" xmlns="http://www.w3.org/2000/svg">
<rect width="64" height="64" rx="32" fill="#FE814B"/>
<path fill-rule="evenodd" clip-rule="evenodd" d="M22.2598 37.9731C25.0541 35.8289 28.4778 34.6667 32 34.6667C35.5221 34.6667 38.9458 35.8289 41.7401 37.9731C44.5344 40.1172 46.5432 43.1235 47.4548 46.5256C47.8359 47.9482 46.9917 49.4105 45.5691 49.7916C44.1466 50.1728 42.6843 49.3286 42.3032 47.906C41.6954 45.6379 40.3563 43.6337 38.4934 42.2043C36.6305 40.7749 34.3481 40.0001 32 40.0001C29.6519 40.0001 27.3694 40.7749 25.5065 42.2043C23.6436 43.6337 22.3045 45.6379 21.6967 47.906C21.3156 49.3286 19.8533 50.1728 18.4308 49.7916C17.0082 49.4104 16.164 47.9482 16.5451 46.5256C17.4567 43.1235 19.4655 40.1172 22.2598 37.9731Z" fill="#702901"/>
<path fill-rule="evenodd" clip-rule="evenodd" d="M16.0002 18.6667C17.4729 18.6667 18.6668 19.8607 18.6668 21.3334V29.3334C18.6668 30.8062 17.4729 32.0001 16.0002 32.0001C14.5274 32.0001 13.3335 30.8062 13.3335 29.3334V21.3334C13.3335 19.8607 14.5274 18.6667 16.0002 18.6667Z" fill="#702901"/>
<path fill-rule="evenodd" clip-rule="evenodd" d="M48.0002 18.6667C49.4729 18.6667 50.6668 19.8607 50.6668 21.3334V29.3334C50.6668 30.8062 49.4729 32.0001 48.0002 32.0001C46.5274 32.0001 45.3335 30.8062 45.3335 29.3334V21.3334C45.3335 19.8607 46.5274 18.6667 48.0002 18.6667Z" fill="#702901"/>
</svg>
