<svg width="402" height="503" viewBox="0 0 402 503" fill="none" xmlns="http://www.w3.org/2000/svg">
<path opacity="0.48" d="M128.806 392.935C66.8496 389.523 5.39873 378.433 -53.6303 360.067C-70.0243 354.949 -86.4715 349.164 -100.364 339.354C-114.256 329.544 -125.487 315.096 -127.669 298.542C-128.601 291.398 -127.696 283.668 -123.252 277.857C-114.496 266.367 -96.7976 266.981 -82.3464 269.62C-46.8971 276.071 -12.459 287.746 19.3709 304.14C-31.6208 282.442 -81.202 246.961 -96.5581 195.06C-98.5275 188.422 -99.8848 181.438 -98.9533 174.587C-96.3718 155.874 -76.518 142.759 -57.0635 141.533C-37.6355 140.307 -18.8995 148.33 -2.02649 157.714C27.0356 173.894 53.3565 194.713 75.499 219.078C26.4501 194.9 -2.53214 143.425 -15.2268 91.4976C-16.7704 85.2332 -18.1011 78.6222 -16.4777 72.3578C-13.0445 59.2426 2.79058 52.0719 16.6297 53.5647C30.4688 55.0575 42.5779 63.0279 53.596 71.2383C92.9309 100.534 127.875 137.534 144.854 182.771C108.952 145.265 97.6948 87.2591 117.043 39.4365C122.312 26.4012 130.11 13.6858 142.246 6.08857C154.408 -1.50868 171.627 -2.62827 182.645 6.35513C191.322 13.4459 194.489 24.9084 196.804 35.7045C207.157 84.3002 209.073 134.629 202.473 183.917C201.541 141.319 216.658 98.4817 244.336 65.2404C258.627 48.0733 276.246 33.5453 295.86 22.376C324.603 6.03525 357.87 35.2247 343.685 64.4407C343.578 64.654 343.498 64.8406 343.392 65.0538C322.394 107.945 291.069 146.064 252.639 175.494C276.246 139.107 309.885 108.878 349.087 88.8319C364.204 81.1013 382.328 74.8103 397.95 81.4212C418.229 90.0048 423.632 117.248 415.062 137.108C406.493 156.967 388.183 171.069 370.618 184.237C341.422 206.149 312.254 228.061 283.059 249.973C325.933 217.345 371.336 183.571 425.096 175.201C435.794 173.521 447.957 173.308 456.074 180.212C465.708 188.422 465.309 203.857 458.709 214.6C452.108 225.342 440.878 232.486 430.019 239.257C394.277 261.569 358.535 283.881 322.819 306.193C362.5 280.496 408.143 253.572 454.663 263.355C469.461 266.474 484.79 275.004 488.276 289.292C492.322 305.9 478.722 321.707 464.484 331.837C432.042 354.949 392.175 365.398 353.319 375.395C280.69 394.081 203.511 412.741 131.76 391.682L128.806 392.935Z" fill="#3B38FF"/>
<path d="M134.196 287.932C127.541 286.43 121.865 285.27 120.612 285.179C106.959 284.132 93.0775 285.588 80.0399 289.912C8.4469 313.76 15.3532 408.401 28.1857 467.133C28.6643 469.295 32.3796 488.66 34.0207 488.728C34.0207 488.728 64.1987 490.048 105.773 491.868C106.571 422.919 110.172 353.764 134.196 287.932Z" fill="#A5A3FF"/>
<path d="M248.253 320.382C241.62 326.753 234.349 332.533 226.44 337.244C211.009 346.437 189.72 351.102 172.283 349.145C146.527 346.278 148.1 313.214 159.246 294.85C159.77 294.008 145.57 290.458 134.173 287.909C110.172 353.764 106.571 422.919 105.773 491.868C138.96 493.325 179.395 495.077 217.573 496.761C232.252 436.435 246.68 376.133 253.814 314.26C251.17 317.241 248.982 319.699 248.253 320.382Z" fill="#6260FF"/>
<path d="M381.524 371.195C381.569 355.516 378.88 338.746 373.045 324.159C356.018 281.606 299.036 263.971 266.122 300.061C265.575 300.675 258.897 308.435 253.814 314.238C246.68 376.133 232.252 436.435 217.573 496.738C285.314 499.696 345.875 502.336 345.898 502.336C346.263 502.336 354.24 480.126 355.243 477.828C359.642 467.702 363.563 457.371 366.982 446.857C373.364 427.219 378.606 406.443 380.749 385.872C381.227 381.116 381.501 376.201 381.524 371.195Z" fill="#A5A3FF"/>
<path d="M130.709 208.265C131.666 210.859 132.623 213.43 133.604 216.024C134.059 217.276 136.088 216.73 135.609 215.478C134.652 212.884 133.695 210.313 132.715 207.719C132.259 206.467 130.253 206.991 130.709 208.265Z" fill="#211300"/>
<path d="M151.382 331.213C153.707 346.551 168.637 350.692 182.267 350.26C199.498 349.691 216.206 344.116 230.543 334.672C237.403 330.144 243.74 324.842 249.575 319.085C251.489 317.196 264.914 299.811 266.1 300.061C247.364 296.215 227.83 295.419 209.254 295.168C191.111 294.941 174.654 294.44 159.246 294.873C152.681 305.75 149.399 318.061 151.382 331.213Z" fill="#EBEBFF"/>
<path d="M272.869 403.03C269.587 428.494 263.023 453.411 253.336 477.214C252.834 478.465 254.84 478.989 255.341 477.76C265.097 453.798 271.638 428.699 274.943 403.03C275.126 401.711 273.029 401.711 272.869 403.03Z" fill="#211300"/>
<path d="M144.476 311.097C139.849 324.136 139.803 338.29 144.362 351.375C144.795 352.626 146.824 352.103 146.368 350.829C141.923 338.063 141.969 324.409 146.482 311.666C146.915 310.369 144.909 309.846 144.476 311.097Z" fill="#211300"/>
<path d="M156.533 360.636C169.617 365.779 185.184 363.913 198.495 360.75C212.923 357.314 227.716 351.443 238.885 341.476C239.888 340.589 238.406 339.11 237.403 339.997C226.508 349.736 211.989 355.403 197.926 358.748C184.956 361.82 169.822 363.663 157.08 358.634C155.85 358.133 155.303 360.136 156.533 360.636Z" fill="#211300"/>
<path d="M116.965 229.382C116.554 225.149 113.409 221.645 109.762 219.779C106.115 217.89 101.99 217.367 97.9552 216.866C88.7696 215.706 79.6068 214.545 70.4212 213.408C64.3583 212.634 57.999 211.746 53.1441 207.878C48.2892 204.009 45.8275 196.113 49.634 191.13C54.6712 184.553 66.2729 187.398 70.9911 180.571C74.5696 175.406 71.6065 167.828 66.8883 163.778C62.1701 159.727 56.1072 157.861 50.9332 154.47C43.3431 149.487 37.8727 141.067 36.2544 131.851C35.9581 130.213 35.7986 128.484 36.3 126.891C37.4625 123.25 41.8615 121.725 45.44 122.522C49.0413 123.318 52.05 125.753 55.0587 127.96C60.0504 131.601 66.2501 134.832 72.0395 132.853C77.6694 130.941 80.8605 124.774 82.5699 118.881C84.2794 112.964 85.1227 106.593 88.4733 101.518C92.0974 95.9885 98.5934 92.6434 104.998 93.0303C111.403 93.3944 117.512 97.4676 120.566 103.384C123.256 108.641 123.529 114.807 124.714 120.656C125.877 126.481 128.521 132.671 133.763 134.992C137.615 136.698 142.014 135.947 146.208 135.879C150.402 135.811 155.189 136.858 157.263 140.681C158.471 142.933 158.448 145.664 158.288 148.235C157.514 160.114 154.459 171.697 153.32 183.552C152.157 195.385 153.16 208.106 159.656 217.89L116.965 229.382Z" fill="#211300"/>
<path d="M236.104 295.669L147.234 201.711C134.698 205.602 121.295 201.552 112.224 192.495C104.109 215.569 95.8128 255.005 118.332 285.338L140.396 263.675C140.396 263.675 149.057 290.822 157.605 317.492C165.605 342.455 196.239 351.602 216.662 335.15C216.935 334.922 217.209 334.718 217.459 334.49C234.372 320.791 251.056 311.484 236.104 295.669Z" fill="#EBEBFF"/>
<path d="M147.234 201.711L120.384 173.335C120.384 173.335 116.327 180.821 112.224 192.495C121.318 201.575 134.698 205.602 147.234 201.711Z" fill="#EBEBFF"/>
<path d="M180.079 207.969C178.438 216.616 170.118 222.305 161.457 220.666C152.795 219.028 147.097 210.722 148.738 202.075C150.379 193.428 158.699 187.739 167.36 189.377C176.022 190.993 181.72 199.322 180.079 207.969Z" fill="#EBEBFF"/>
<path d="M161.343 211.837C164.238 206.763 167.155 201.711 170.141 196.682C170.825 195.522 169.024 194.475 168.34 195.635C165.354 200.642 162.437 205.716 159.542 210.791C158.881 211.974 160.682 213.021 161.343 211.837Z" fill="#211300"/>
<path d="M140.396 263.674L158.22 318.538L155.531 246.608L140.396 263.674Z" fill="#211300"/>
<path d="M107.187 209.516C103.517 219.028 100.371 229.313 98.6619 239.349C98.5024 240.282 99.3457 240.896 100.189 240.532C103.904 238.871 107.642 237.21 111.358 235.548C112.588 235.002 111.517 233.205 110.309 233.751C106.594 235.412 102.856 237.073 99.1406 238.734C99.642 239.121 100.166 239.508 100.668 239.918C102.377 229.86 105.523 219.574 109.192 210.085C109.694 208.833 107.665 208.287 107.187 209.516Z" fill="#211300"/>
<path d="M128.954 207.149C130.116 210.449 131.302 213.749 132.464 217.048C132.92 218.3 134.926 217.754 134.47 216.502C133.307 213.202 132.122 209.903 130.96 206.603C130.527 205.352 128.498 205.898 128.954 207.149Z" fill="#211300"/>
<path d="M131.21 219.187C133.262 218.027 135.313 216.844 137.387 215.683C138.55 215.023 137.501 213.225 136.339 213.885C134.288 215.046 132.236 216.229 130.162 217.39C128.977 218.05 130.025 219.847 131.21 219.187Z" fill="#211300"/>
<path d="M121.729 197.911C126.242 202.758 132.35 205.352 138.983 205.238C140.328 205.215 140.328 203.122 138.983 203.167C132.874 203.281 127.381 200.937 123.21 196.454C122.276 195.453 120.794 196.932 121.729 197.911Z" fill="#211300"/>
<path d="M114.161 259.806C114.161 259.806 115.027 248.246 118.355 243.468C124.008 235.344 126.264 234.843 131.302 231.908C133.398 230.679 136.316 230.201 138.755 230.269C141.171 230.315 143.747 232.158 143.678 234.57C143.633 236.937 141.33 238.552 139.256 239.69C130.093 244.787 119.723 249.452 114.868 258.759L114.161 259.806Z" fill="#211300"/>
<path d="M145.342 229.564C146.733 232.59 146.687 235.981 145.274 239.008C144.704 240.214 146.505 241.26 147.074 240.054C148.852 236.3 148.852 232.295 147.143 228.517C146.573 227.311 144.795 228.358 145.342 229.564Z" fill="#211300"/>
<path d="M58.3865 380.639C56.1984 409.857 57.9079 440.031 63.4922 468.817C63.7429 470.136 65.7487 469.568 65.498 468.27C59.9365 439.689 58.2954 409.675 60.4607 380.639C60.5747 379.296 58.4777 379.296 58.3865 380.639Z" fill="#211300"/>
<path d="M174.244 245.106C173.856 245.197 177.344 252.433 179.782 257.735C180.466 259.192 181.104 260.739 182.358 261.763C183.589 262.787 185.549 263.22 187.19 262.309C189.31 261.149 189.925 258.282 189.082 256.37C188.216 254.459 186.347 253.275 184.546 252.183C181.173 250.112 174.244 245.106 174.244 245.106Z" fill="#C2B1FF"/>
<path d="M235.534 253.366C235.147 253.457 238.634 260.694 241.073 265.996C241.757 267.452 242.395 268.999 243.648 270.023C244.879 271.047 246.839 271.48 248.481 270.57C250.6 269.409 251.216 266.542 250.372 264.63C249.506 262.719 247.637 261.536 245.837 260.443C242.486 258.373 235.534 253.366 235.534 253.366Z" fill="#C2B1FF"/>
<path d="M77.9658 247.063C77.7151 246.767 72.7006 253.025 68.9853 257.508C67.9596 258.76 66.8656 260.011 66.4553 261.558C66.0678 263.129 66.5465 265.063 68.0508 266.155C70.0338 267.566 72.8829 266.861 74.2277 265.268C75.5725 263.675 75.846 261.467 76.0512 259.374C76.4615 255.46 77.9658 247.063 77.9658 247.063Z" fill="#C2B1FF"/>
<path d="M139.826 213.339C139.439 213.317 140.669 221.258 141.467 227.016C141.695 228.608 141.878 230.27 142.766 231.612C143.655 232.955 145.41 233.91 147.234 233.524C149.604 233.023 151.018 230.452 150.767 228.381C150.493 226.31 149.057 224.626 147.644 223.056C145.023 220.143 139.826 213.339 139.826 213.339Z" fill="#C2B1FF"/>
<path d="M153.73 190.424C150.516 179.729 154.482 170.058 162.118 162.481C167.907 156.723 175.68 151.74 179.509 144.299C182.837 137.859 179.121 131.533 172.899 128.734C169.047 127.005 164.739 126.845 160.614 126.504C157.309 126.231 153.092 126.686 154.117 121.976C154.687 119.359 156.032 116.4 159.086 116.127C160.408 116.014 160.431 113.92 159.086 114.057C155.895 114.33 153.912 116.4 152.773 119.29C151.793 121.748 150.676 125.958 153.616 127.505C155.257 128.37 157.582 128.347 159.383 128.506C162.642 128.802 165.947 128.871 169.115 129.667C174.859 131.101 180.671 135.879 178.119 142.365C176.25 147.075 171.737 150.921 168.067 154.243C164.443 157.52 160.636 160.683 157.491 164.46C151.2 171.992 148.898 181.527 151.747 190.993C152.089 192.245 154.117 191.699 153.73 190.424Z" fill="#211300"/>
<path d="M60.0504 192.814C63.4921 192.518 65.817 190.493 67.9596 187.921C70.3984 185.031 73.0196 181.686 73.4527 177.818C74.2277 170.718 67.1162 166.326 60.8253 166.053C53.919 165.78 43.5938 168.283 39.1947 174.131C37.5536 176.316 36.3228 179.707 38.0323 182.232C39.3771 184.235 42.0439 184.804 43.9813 183.347C45.0298 182.551 44.0041 180.731 42.9328 181.55C39.3999 184.212 39.491 177.545 40.38 176.088C41.1321 174.882 42.2034 173.836 43.3431 173.016C44.893 171.901 46.6936 171.128 48.4943 170.491C53.3036 168.761 59.207 167.168 64.2443 168.67C69.4411 170.195 72.8601 175.019 70.6036 180.321C68.9397 184.258 64.7002 190.356 60.0504 190.743C58.7284 190.857 58.7284 192.928 60.0504 192.814Z" fill="#211300"/>
<rect x="252" y="187" width="116" height="116" rx="58" fill="white"/>
<g filter="url(#filter0_ddddd_937_2868)">
<rect x="262" y="197" width="96" height="96" rx="48" fill="#C0A091"/>
<path fill-rule="evenodd" clip-rule="evenodd" d="M334 225C336.209 225 338 226.791 338 229L338 241C338 243.209 336.209 245 334 245C331.791 245 330 243.209 330 241L330 229C330 226.791 331.791 225 334 225Z" fill="#4F3422"/>
<path fill-rule="evenodd" clip-rule="evenodd" d="M286 225C288.209 225 290 226.791 290 229L290 241C290 243.209 288.209 245 286 245C283.791 245 282 243.209 282 241L282 229C282 226.791 283.791 225 286 225Z" fill="#4F3422"/>
<path fill-rule="evenodd" clip-rule="evenodd" d="M282 261C282 258.791 283.791 257 286 257H334C336.209 257 338 258.791 338 261C338 263.209 336.209 265 334 265H286C283.791 265 282 263.209 282 261Z" fill="#4F3422"/>
</g>
<rect x="189" y="72" width="80" height="80" rx="40" fill="white"/>
<g filter="url(#filter1_ddddd_937_2868)">
<rect x="197" y="80" width="64" height="64" rx="32" fill="#C2B1FF"/>
<path fill-rule="evenodd" clip-rule="evenodd" d="M237.781 96.781C238.822 95.7397 240.511 95.7397 241.552 96.781L249.552 104.781C250.594 105.822 250.594 107.511 249.552 108.552C248.511 109.594 246.822 109.594 245.781 108.552L237.781 100.552C236.74 99.5109 236.74 97.8224 237.781 96.781Z" fill="#3C357C"/>
<path fill-rule="evenodd" clip-rule="evenodd" d="M249.552 96.781C250.594 97.8224 250.594 99.5109 249.552 100.552L241.552 108.552C240.511 109.594 238.822 109.594 237.781 108.552C236.74 107.511 236.74 105.822 237.781 104.781L245.781 96.781C246.822 95.7397 248.511 95.7397 249.552 96.781Z" fill="#3C357C"/>
<path fill-rule="evenodd" clip-rule="evenodd" d="M208.448 96.781C209.489 95.7397 211.178 95.7397 212.219 96.781L220.219 104.781C221.26 105.822 221.26 107.511 220.219 108.552C219.178 109.594 217.489 109.594 216.448 108.552L208.448 100.552C207.406 99.5109 207.406 97.8224 208.448 96.781Z" fill="#3C357C"/>
<path fill-rule="evenodd" clip-rule="evenodd" d="M220.219 96.781C221.26 97.8224 221.26 99.5109 220.219 100.552L212.219 108.552C211.178 109.594 209.489 109.594 208.448 108.552C207.406 107.511 207.406 105.822 208.448 104.781L216.448 96.781C217.489 95.7397 219.178 95.7397 220.219 96.781Z" fill="#3C357C"/>
<path fill-rule="evenodd" clip-rule="evenodd" d="M219.26 117.973C222.054 115.829 225.478 114.667 229 114.667C232.522 114.667 235.946 115.829 238.74 117.973C241.535 120.117 243.543 123.123 244.455 126.526C244.836 127.948 243.992 129.41 242.569 129.792C241.147 130.173 239.684 129.329 239.303 127.906C238.696 125.638 237.356 123.634 235.494 122.204C233.631 120.775 231.348 120 229 120C226.652 120 224.369 120.775 222.507 122.204C220.644 123.634 219.305 125.638 218.697 127.906C218.316 129.329 216.853 130.173 215.431 129.792C214.008 129.41 213.164 127.948 213.545 126.526C214.457 123.123 216.466 120.117 219.26 117.973Z" fill="#3C357C"/>
</g>
<rect x="20" y="267" width="60" height="60" rx="30" fill="white"/>
<g filter="url(#filter2_ddddd_937_2868)">
<rect x="26" y="273" width="48" height="48" rx="24" fill="#ED7E1C"/>
<path fill-rule="evenodd" clip-rule="evenodd" d="M42.695 301.48C44.7907 299.872 47.3585 299 50.0001 299C52.6417 299 55.2095 299.872 57.3052 301.48C59.401 303.088 60.9075 305.343 61.5912 307.894C61.8771 308.961 61.2439 310.058 60.177 310.344C59.1101 310.63 58.0134 309.996 57.7275 308.929C57.2717 307.228 56.2673 305.725 54.8702 304.653C53.473 303.581 51.7612 303 50.0001 303C48.239 303 46.5272 303.581 45.13 304.653C43.7328 305.725 42.7285 307.228 42.2727 308.929C41.9868 309.996 40.8901 310.63 39.8232 310.344C38.7563 310.058 38.1231 308.961 38.409 307.894C39.0927 305.343 40.5992 303.088 42.695 301.48Z" fill="#663600"/>
<path fill-rule="evenodd" clip-rule="evenodd" d="M38 287C39.1046 287 40 287.895 40 289V295C40 296.105 39.1046 297 38 297C36.8954 297 36 296.105 36 295V289C36 287.895 36.8954 287 38 287Z" fill="#663600"/>
<path fill-rule="evenodd" clip-rule="evenodd" d="M62 287C63.1046 287 64 287.895 64 289V295C64 296.105 63.1046 297 62 297C60.8954 297 60 296.105 60 295V289C60 287.895 60.8954 287 62 287Z" fill="#663600"/>
</g>
<defs>
<filter id="filter0_ddddd_937_2868" x="245.2" y="193.8" width="129.6" height="158.4" filterUnits="userSpaceOnUse" color-interpolation-filters="sRGB">
<feFlood flood-opacity="0" result="BackgroundImageFix"/>
<feColorMatrix in="SourceAlpha" type="matrix" values="0 0 0 0 0 0 0 0 0 0 0 0 0 0 0 0 0 0 127 0" result="hardAlpha"/>
<feOffset/>
<feColorMatrix type="matrix" values="0 0 0 0 1 0 0 0 0 0.807843 0 0 0 0 0.360784 0 0 0 0.1 0"/>
<feBlend mode="normal" in2="BackgroundImageFix" result="effect1_dropShadow_937_2868"/>
<feColorMatrix in="SourceAlpha" type="matrix" values="0 0 0 0 0 0 0 0 0 0 0 0 0 0 0 0 0 0 127 0" result="hardAlpha"/>
<feOffset dy="2.4"/>
<feGaussianBlur stdDeviation="2.8"/>
<feColorMatrix type="matrix" values="0 0 0 0 1 0 0 0 0 0.807843 0 0 0 0 0.360784 0 0 0 0.1 0"/>
<feBlend mode="normal" in2="effect1_dropShadow_937_2868" result="effect2_dropShadow_937_2868"/>
<feColorMatrix in="SourceAlpha" type="matrix" values="0 0 0 0 0 0 0 0 0 0 0 0 0 0 0 0 0 0 127 0" result="hardAlpha"/>
<feOffset dy="10.4"/>
<feGaussianBlur stdDeviation="5.2"/>
<feColorMatrix type="matrix" values="0 0 0 0 1 0 0 0 0 0.807843 0 0 0 0 0.360784 0 0 0 0.09 0"/>
<feBlend mode="normal" in2="effect2_dropShadow_937_2868" result="effect3_dropShadow_937_2868"/>
<feColorMatrix in="SourceAlpha" type="matrix" values="0 0 0 0 0 0 0 0 0 0 0 0 0 0 0 0 0 0 127 0" result="hardAlpha"/>
<feOffset dy="24"/>
<feGaussianBlur stdDeviation="7.2"/>
<feColorMatrix type="matrix" values="0 0 0 0 1 0 0 0 0 0.807843 0 0 0 0 0.360784 0 0 0 0.05 0"/>
<feBlend mode="normal" in2="effect3_dropShadow_937_2868" result="effect4_dropShadow_937_2868"/>
<feColorMatrix in="SourceAlpha" type="matrix" values="0 0 0 0 0 0 0 0 0 0 0 0 0 0 0 0 0 0 127 0" result="hardAlpha"/>
<feOffset dy="42.4"/>
<feGaussianBlur stdDeviation="8.4"/>
<feColorMatrix type="matrix" values="0 0 0 0 1 0 0 0 0 0.807843 0 0 0 0 0.360784 0 0 0 0.01 0"/>
<feBlend mode="normal" in2="effect4_dropShadow_937_2868" result="effect5_dropShadow_937_2868"/>
<feBlend mode="normal" in="SourceGraphic" in2="effect5_dropShadow_937_2868" result="shape"/>
</filter>
<filter id="filter1_ddddd_937_2868" x="185.8" y="77.8667" width="86.4" height="105.6" filterUnits="userSpaceOnUse" color-interpolation-filters="sRGB">
<feFlood flood-opacity="0" result="BackgroundImageFix"/>
<feColorMatrix in="SourceAlpha" type="matrix" values="0 0 0 0 0 0 0 0 0 0 0 0 0 0 0 0 0 0 127 0" result="hardAlpha"/>
<feOffset/>
<feColorMatrix type="matrix" values="0 0 0 0 1 0 0 0 0 0.807843 0 0 0 0 0.360784 0 0 0 0.1 0"/>
<feBlend mode="normal" in2="BackgroundImageFix" result="effect1_dropShadow_937_2868"/>
<feColorMatrix in="SourceAlpha" type="matrix" values="0 0 0 0 0 0 0 0 0 0 0 0 0 0 0 0 0 0 127 0" result="hardAlpha"/>
<feOffset dy="1.6"/>
<feGaussianBlur stdDeviation="1.86667"/>
<feColorMatrix type="matrix" values="0 0 0 0 1 0 0 0 0 0.807843 0 0 0 0 0.360784 0 0 0 0.1 0"/>
<feBlend mode="normal" in2="effect1_dropShadow_937_2868" result="effect2_dropShadow_937_2868"/>
<feColorMatrix in="SourceAlpha" type="matrix" values="0 0 0 0 0 0 0 0 0 0 0 0 0 0 0 0 0 0 127 0" result="hardAlpha"/>
<feOffset dy="6.93333"/>
<feGaussianBlur stdDeviation="3.46667"/>
<feColorMatrix type="matrix" values="0 0 0 0 1 0 0 0 0 0.807843 0 0 0 0 0.360784 0 0 0 0.09 0"/>
<feBlend mode="normal" in2="effect2_dropShadow_937_2868" result="effect3_dropShadow_937_2868"/>
<feColorMatrix in="SourceAlpha" type="matrix" values="0 0 0 0 0 0 0 0 0 0 0 0 0 0 0 0 0 0 127 0" result="hardAlpha"/>
<feOffset dy="16"/>
<feGaussianBlur stdDeviation="4.8"/>
<feColorMatrix type="matrix" values="0 0 0 0 1 0 0 0 0 0.807843 0 0 0 0 0.360784 0 0 0 0.05 0"/>
<feBlend mode="normal" in2="effect3_dropShadow_937_2868" result="effect4_dropShadow_937_2868"/>
<feColorMatrix in="SourceAlpha" type="matrix" values="0 0 0 0 0 0 0 0 0 0 0 0 0 0 0 0 0 0 127 0" result="hardAlpha"/>
<feOffset dy="28.2667"/>
<feGaussianBlur stdDeviation="5.6"/>
<feColorMatrix type="matrix" values="0 0 0 0 1 0 0 0 0 0.807843 0 0 0 0 0.360784 0 0 0 0.01 0"/>
<feBlend mode="normal" in2="effect4_dropShadow_937_2868" result="effect5_dropShadow_937_2868"/>
<feBlend mode="normal" in="SourceGraphic" in2="effect5_dropShadow_937_2868" result="shape"/>
</filter>
<filter id="filter2_ddddd_937_2868" x="17.6" y="271.4" width="64.8" height="79.2" filterUnits="userSpaceOnUse" color-interpolation-filters="sRGB">
<feFlood flood-opacity="0" result="BackgroundImageFix"/>
<feColorMatrix in="SourceAlpha" type="matrix" values="0 0 0 0 0 0 0 0 0 0 0 0 0 0 0 0 0 0 127 0" result="hardAlpha"/>
<feOffset/>
<feColorMatrix type="matrix" values="0 0 0 0 1 0 0 0 0 0.807843 0 0 0 0 0.360784 0 0 0 0.1 0"/>
<feBlend mode="normal" in2="BackgroundImageFix" result="effect1_dropShadow_937_2868"/>
<feColorMatrix in="SourceAlpha" type="matrix" values="0 0 0 0 0 0 0 0 0 0 0 0 0 0 0 0 0 0 127 0" result="hardAlpha"/>
<feOffset dy="1.2"/>
<feGaussianBlur stdDeviation="1.4"/>
<feColorMatrix type="matrix" values="0 0 0 0 1 0 0 0 0 0.807843 0 0 0 0 0.360784 0 0 0 0.1 0"/>
<feBlend mode="normal" in2="effect1_dropShadow_937_2868" result="effect2_dropShadow_937_2868"/>
<feColorMatrix in="SourceAlpha" type="matrix" values="0 0 0 0 0 0 0 0 0 0 0 0 0 0 0 0 0 0 127 0" result="hardAlpha"/>
<feOffset dy="5.2"/>
<feGaussianBlur stdDeviation="2.6"/>
<feColorMatrix type="matrix" values="0 0 0 0 1 0 0 0 0 0.807843 0 0 0 0 0.360784 0 0 0 0.09 0"/>
<feBlend mode="normal" in2="effect2_dropShadow_937_2868" result="effect3_dropShadow_937_2868"/>
<feColorMatrix in="SourceAlpha" type="matrix" values="0 0 0 0 0 0 0 0 0 0 0 0 0 0 0 0 0 0 127 0" result="hardAlpha"/>
<feOffset dy="12"/>
<feGaussianBlur stdDeviation="3.6"/>
<feColorMatrix type="matrix" values="0 0 0 0 1 0 0 0 0 0.807843 0 0 0 0 0.360784 0 0 0 0.05 0"/>
<feBlend mode="normal" in2="effect3_dropShadow_937_2868" result="effect4_dropShadow_937_2868"/>
<feColorMatrix in="SourceAlpha" type="matrix" values="0 0 0 0 0 0 0 0 0 0 0 0 0 0 0 0 0 0 127 0" result="hardAlpha"/>
<feOffset dy="21.2"/>
<feGaussianBlur stdDeviation="4.2"/>
<feColorMatrix type="matrix" values="0 0 0 0 1 0 0 0 0 0.807843 0 0 0 0 0.360784 0 0 0 0.01 0"/>
<feBlend mode="normal" in2="effect4_dropShadow_937_2868" result="effect5_dropShadow_937_2868"/>
<feBlend mode="normal" in="SourceGraphic" in2="effect5_dropShadow_937_2868" result="shape"/>
</filter>
</defs>
</svg>
