<svg width="345" height="155" viewBox="0 0 345 155" fill="none" xmlns="http://www.w3.org/2000/svg">
<g clip-path="url(#clip0_1090_2776)">
<path d="M255.168 42.1929C322.496 64.0781 345.703 43.3639 396.141 56.1817C413.68 60.6442 455.955 71.7846 445.565 144.15C444.052 154.72 453.578 169.864 459.712 178.663C465.514 186.97 493.725 260.491 396.125 278.61C319.736 292.788 244.379 304.783 168.307 278.151C141.775 268.862 111.286 259.272 96.2411 235.71C82.576 214.315 88.8932 173.868 109.79 155.86C172.197 102.072 127.91 81.4058 175.987 48.6493C194.789 35.8473 220.39 30.8943 255.168 42.1929Z" fill="#C2C1FF"/>
<path d="M112.949 128.594C114.628 121.631 117.121 114.542 119.282 107.532C119.715 106.108 120.18 104.636 121.128 103.275C123.056 100.506 126.431 99.5247 128.924 100.063C136.688 101.74 138.783 109.795 135.724 117.739C133.413 123.768 128.276 131.142 121.759 134.971C119.499 136.301 116.822 137.313 114.927 136.712C111.868 135.763 112.217 131.632 112.949 128.594Z" fill="#C2C1FF"/>
<path d="M338.197 148.258C340.514 151.248 341.012 152.323 344.018 153.818C348.193 155.896 352.158 153.344 354.973 149.716C369.355 131.141 380.941 91.8013 383.009 91.9289C438.26 95.7571 443.756 110.96 399.211 195.782C376.575 238.622 324.753 220.009 315.886 210.585C314.928 209.564 300.91 210.475 318.165 202.163C319.122 201.707 311.73 198.827 311.06 198.006C306.789 192.683 313.549 186.248 309.834 180.579C321.382 171.482 331.628 160.782 338.197 148.258Z" fill="#EBEBFF"/>
<path d="M290.53 158.284C290.703 157.792 291.181 157.482 291.641 157.208C301.063 151.393 311.615 147.273 322.608 145.122L334.807 144.156C336.722 146.289 338.599 148.44 340.437 150.646C333.371 165.539 321.957 178.464 308.896 189.584C302.193 180.178 296.161 170.315 290.875 160.125C290.607 159.524 290.3 158.867 290.53 158.284Z" fill="#161513"/>
<path d="M285.321 96.9968C306.406 110.414 325.002 127.878 342.773 144.594C333.447 156.097 321.899 167.144 308.398 173.943C329.674 204.15 358.132 274.005 356.198 300.839C355.796 306.581 356.505 312.633 353.709 317.738C350.893 322.878 345.857 326.233 340.226 328.694C336.3 309.443 330.823 290.448 324.37 271.836C302.652 207.231 285.474 141.659 254.067 81.3923C265.136 85.3846 275.497 90.7441 285.321 96.9968Z" fill="#4D4BCC"/>
<path d="M246.866 79.004C249.298 79.7331 251.711 80.517 254.067 81.3738C285.474 141.659 302.653 207.212 324.37 271.817C330.824 290.43 336.301 309.425 340.227 328.675C337.45 329.897 334.52 330.881 331.647 331.756C308.168 338.865 283.732 342.056 259.065 342.912C257.744 254.171 236.084 165.284 215.612 74.2096C226.03 74.319 236.621 75.9596 246.866 79.004Z" fill="white"/>
<path d="M141.174 116.065C150.328 97.4891 165.476 85.4759 183.191 79.2778C193.379 75.7231 204.41 74.0824 215.651 74.21C236.124 165.303 257.764 254.172 259.104 342.913C240.088 343.569 220.937 342.822 201.997 341.418C199.545 341.236 196.807 340.908 195.237 339.103C193.187 336.751 194.183 333.251 195.083 330.316C200.58 312.378 198.53 293.219 195.907 274.698C191.636 244.51 186.025 214.486 179.073 184.735C178.537 182.457 178.001 180.142 177.656 177.808C174.554 179.267 171.47 180.743 168.387 182.202C157.433 187.433 131.426 174.436 128.036 185.647C125.968 160.745 129.549 139.654 141.174 116.065Z" fill="#4D4BCC"/>
<path d="M128.533 191.845C133.685 200.449 156.015 197.569 178.421 185.41C200.828 173.251 214.808 156.425 209.656 147.821C204.505 139.216 182.175 142.096 159.768 154.256C137.362 166.415 123.382 183.259 128.533 191.845Z" fill="#161513"/>
<path d="M193.762 145.104C198.549 150.063 206.401 159.597 211.189 164.537C219.998 154.474 232.599 147.492 246.139 145.177C268.22 141.404 282.219 164.938 282.794 166.178C282.794 166.178 278.638 179.686 273.601 172.759C272.51 171.264 270.116 172.631 270.978 174.253C275.899 183.532 267.703 188.928 264.294 183.459C265.271 192.41 261.306 203.913 256.193 211.46C246.56 225.679 234.821 237.182 216.819 241.028C175.128 249.96 147.302 215.835 135.045 184.152C139.297 174.764 171.815 146.38 193.762 145.104Z" fill="#EBEBFF"/>
<path d="M208.507 149.17C203.642 140.966 199.563 132.344 194.699 124.14C194.144 123.211 195.657 122.372 196.212 123.302C201.076 131.505 205.155 140.128 210.02 148.331C210.575 149.261 209.062 150.099 208.507 149.17Z" fill="#161513"/>
<path d="M222.544 154.383C222.544 154.383 234.781 141.914 241.561 137.466C253.185 129.864 254.258 125.307 259.926 118.617C261.42 116.867 264.427 117.96 264.503 120.294C264.656 125.325 262.129 131.706 259.505 135.26C257.054 138.578 260.252 143.281 264.35 142.37C279.556 138.979 297.941 134.568 309.852 134.312C313.089 134.239 317.896 136.208 316.862 139.271C316.498 140.328 315.483 140.93 314.506 141.422C305.352 146.107 291.199 149.589 280.226 151.503C285.224 152.469 297.117 149.443 299.281 155.604C301.12 160.854 296.657 165.448 291.468 165.448C294.781 164.464 311.27 176.787 262.186 189.602L222.544 154.383Z" fill="#EBEBFF"/>
<path d="M221.913 153.782C228.137 147.456 234.61 141.149 242.04 136.117C247.575 132.362 251.788 128.023 255.637 122.755C257.361 120.403 260.999 114.169 264.542 118.143C266.228 120.021 265.308 123.375 264.791 125.544C264.006 128.953 262.531 132.089 260.693 135.078C259.735 136.628 259.065 137.94 260.08 139.69C261.421 141.969 263.738 141.623 266.017 141.112C270.249 140.164 274.482 139.198 278.714 138.287C286.087 136.682 293.479 135.151 300.967 134.185C305.659 133.583 313.492 131.888 316.977 136.154C321.344 141.477 309.355 144.685 305.985 145.87C297.731 148.769 289.094 150.756 280.457 152.287C280.457 151.758 280.457 151.211 280.457 150.683C286.049 151.594 294.341 148.732 298.803 153.235C304.127 158.594 297.75 165.995 291.468 166.269C290.473 166.305 290.3 164.865 291.239 164.628C293.958 163.935 296.85 166.87 297.463 169.113C299.09 174.891 291.564 179.358 287.236 181.6C279.499 185.629 270.881 188.162 262.417 190.386C261.325 190.678 260.865 189.056 261.957 188.782C270.364 186.558 278.963 184.079 286.623 180.032C289.879 178.3 293.939 176.003 295.471 172.558C296.448 170.371 294.743 165.467 291.717 166.251C291.641 165.704 291.564 165.157 291.488 164.61C299.186 164.264 301.886 154.055 293.479 152.67C289.017 151.94 284.459 153.034 280.016 152.305C279.174 152.159 279.193 150.847 280.016 150.701C286.815 149.498 293.556 147.985 300.163 146.016C303.476 145.031 306.77 143.919 309.949 142.607C311.289 142.042 312.898 141.513 314.105 140.693C317.437 138.414 315.292 136.208 312.439 135.461C309.872 134.787 307.019 135.224 304.414 135.479C300.737 135.844 297.08 136.409 293.422 137.065C286.336 138.323 279.288 139.873 272.279 141.44C268.047 142.388 261.421 145.36 258.586 140.547C257.686 139.034 257.591 137.229 258.318 135.625C259.64 132.745 261.516 130.357 262.512 127.258C263.068 125.526 263.527 123.721 263.623 121.916C263.642 121.443 263.815 120.312 263.585 119.857C262.053 116.721 260.061 119.802 259.41 120.622C258.031 122.372 256.767 124.213 255.427 125.982C252.401 130.01 248.82 133.419 244.664 136.372C236.869 141.951 229.86 148.167 223.196 154.967C222.391 155.75 221.147 154.566 221.913 153.782Z" fill="#161513"/>
<path d="M283.694 151.886C279.347 152.359 275.249 153.763 271.189 155.185C270.135 155.55 269.676 153.945 270.729 153.581C274.98 152.104 279.194 150.719 283.713 150.227C284.824 150.081 284.805 151.758 283.694 151.886Z" fill="#161513"/>
<path d="M260.693 119.82C261.478 123.685 258.472 127.732 254.163 127.641C253.033 127.622 253.033 125.945 254.163 125.982C257.265 126.055 259.582 123.101 259.008 120.258C258.797 119.219 260.482 118.763 260.693 119.82Z" fill="#161513"/>
<path d="M313.357 136.081C312.074 136.044 310.791 136.081 309.546 136.445C308.933 136.627 308.34 136.755 307.995 137.32C307.478 137.63 307.459 137.958 307.957 138.323C308.11 138.851 308.474 139.088 309.068 138.997C311.289 139.234 313.625 139.125 315.866 139.18C316.996 139.216 316.996 140.875 315.866 140.838C313.472 140.784 310.944 140.93 308.57 140.601C307.344 140.437 306.157 139.818 305.869 138.578C305.046 134.823 310.791 134.312 313.338 134.403C314.487 134.44 314.487 136.117 313.357 136.081Z" fill="#161513"/>
<path d="M263.03 146.49C263.413 147.893 263.777 149.297 264.16 150.701C264.447 151.74 262.742 152.177 262.474 151.138C262.091 149.734 261.727 148.331 261.344 146.927C261.057 145.888 262.762 145.45 263.03 146.49Z" fill="white"/>
<path d="M308.934 -0.0935184L312.113 1.54714C314.047 2.91435 313.779 3.37009 314.22 5.61231L315.33 12.3208C315.369 12.5395 315.713 12.5395 315.752 12.3208L316.843 5.64877C317.284 3.40654 317.226 2.91435 319.141 1.52891L322.148 -0.111746C322.263 -0.184664 322.263 -0.34873 322.148 -0.439878L318.758 -1.98938C316.862 -3.3566 316.977 -4.26807 316.537 -6.5103L315.752 -12.8359C315.713 -13.0547 315.369 -13.0547 315.33 -12.8359L314.411 -6.27332C313.99 -4.04932 313.741 -3.11961 311.864 -1.7524L308.915 -0.439878C308.819 -0.330501 308.819 -0.166436 308.934 -0.0935184Z" fill="white"/>
<path d="M333.313 11.0084L335.745 12.2662C337.22 13.3053 337.028 13.6517 337.354 15.3835L338.197 20.506C338.235 20.67 338.484 20.67 338.522 20.506L339.365 15.4199C339.69 13.7064 339.671 13.3235 341.127 12.2845L343.425 11.0266C343.521 10.9719 343.521 10.8443 343.425 10.7714L340.82 9.5865C339.365 8.52919 339.461 7.83646 339.116 6.14112L338.522 1.3103C338.484 1.14624 338.235 1.14624 338.197 1.3103L337.488 6.32342C337.162 8.01876 336.99 8.72971 335.554 9.78702L333.294 10.7896C333.217 10.8079 333.217 10.9355 333.313 11.0084Z" fill="white"/>
<path d="M247.02 35.4356C249.643 33.2663 249.892 29.5657 249.394 26.3026C248.916 23.0395 247.881 19.7035 248.647 16.5134C249.413 13.3414 252.861 10.4247 256.365 11.4456C257.189 11.6826 257.955 12.1201 258.817 12.2477C262.11 12.7399 263.585 8.92991 265.711 6.70591C268.162 4.15378 272.777 3.57044 276.071 5.39338C279.385 7.21633 280.993 11.2451 279.71 14.4352C278.906 16.4222 277.412 19.102 279.461 20.2322C280.074 20.5786 280.802 20.5968 281.51 20.6332C283.674 20.7426 285.915 21.0708 287.773 22.1281C289.649 23.1854 291.066 25.0812 290.875 27.0318C290.607 29.6933 287.658 31.261 285.091 32.5553C282.525 33.8496 279.729 35.8002 280.036 38.4799C280.246 40.1935 281.721 41.6519 282.046 43.3472C282.621 46.3186 279.614 48.7249 276.665 49.9827C273.275 51.4229 269.541 52.2432 265.749 52.3526C263.623 52.4255 261.421 52.2614 259.41 52.8265C257.399 53.3916 255.542 54.9229 255.561 56.8553L247.02 35.4356Z" fill="#161513"/>
<path d="M235.204 60.9567L219.826 59.9723C223.694 42.4173 241.16 32.9197 252.459 28.5082C258.166 26.2842 262.321 25.3545 262.321 25.3545L260.617 43.8392L255.906 94.8453C254.948 105.127 245.009 112.309 234.304 110.632C234.131 110.614 233.959 110.577 233.787 110.559C220.879 108.499 214.157 94.7542 220.841 84.0352C227.926 72.5871 235.204 60.9567 235.204 60.9567Z" fill="#EBEBFF"/>
<path d="M269.119 57.4569C265.347 59.608 260.482 58.4413 258.223 54.8501C255.963 51.2589 257.189 46.6286 260.961 44.4775C264.734 42.3265 269.598 43.4931 271.858 47.0844C274.099 50.6756 272.892 55.3241 269.119 57.4569Z" fill="#EBEBFF"/>
<path d="M261.134 50.7486C263.987 50.1835 266.841 49.6183 269.694 49.0897C270.805 48.8892 271.265 50.4934 270.154 50.6939C267.3 51.2225 264.447 51.7877 261.594 52.3528C260.502 52.5898 260.023 50.9673 261.134 50.7486Z" fill="#161513"/>
<path d="M235.185 60.9568L220.631 84.6005L246.58 60.9386L235.185 60.9568Z" fill="#161513"/>
<path d="M244.875 33.3572C240.183 35.0526 235.395 37.149 231.125 39.6646C231.125 39.1907 231.125 38.6985 231.125 38.2245C232.982 39.0266 234.821 39.8105 236.679 40.6126C237.713 41.0501 236.813 42.4902 235.798 42.0527C233.94 41.2506 232.102 40.4667 230.244 39.6646C229.612 39.3912 229.727 38.5162 230.244 38.2245C234.649 35.6359 239.57 33.4848 244.416 31.753C245.469 31.3702 245.928 32.9744 244.875 33.3572Z" fill="#161513"/>
<path d="M233.977 43.329L232.828 45.8447C237.291 48.5426 242.327 50.2926 247.536 51.113C248.455 50.5843 249.336 50.001 250.16 49.3447C244.376 48.5973 238.765 46.5191 233.977 43.329Z" fill="white"/>
<path d="M233.557 53.8292C236.506 54.1938 239.532 53.975 242.385 53.1911C241.543 52.7536 240.662 52.389 239.704 52.152C237.483 51.6963 235.089 52.2979 233.557 53.8292Z" fill="#EFEFFF"/>
<path d="M232.848 45.8267L229.611 52.9544C230.894 53.3737 232.235 53.6471 233.576 53.8112C235.088 52.2799 237.501 51.6966 239.723 52.1341C240.681 52.3893 241.561 52.7356 242.404 53.1731C244.204 52.6809 245.947 51.9882 247.556 51.0768C242.327 50.2929 237.291 48.5429 232.848 45.8267Z" fill="#161513"/>
<path d="M247.383 37.8416C251.194 37.0213 254.948 38.3703 257.322 41.3052C258.012 42.162 256.48 42.9823 255.81 42.1438C253.933 39.8286 250.83 38.8078 247.862 39.4458C246.751 39.701 246.292 38.0786 247.383 37.8416Z" fill="#161513"/>
<path d="M251.463 39.6284C251.329 40.3393 251.884 41.105 252.631 41.2326C253.378 41.3602 254.182 40.8498 254.336 40.157C253.742 40.6857 252.574 40.2847 252.497 39.519C253.053 39.4643 253.627 39.7013 253.972 40.1206L251.463 39.6284Z" fill="#161513"/>
<path d="M252.324 39.6286C252.228 40.3942 253.243 40.7406 253.473 39.9202C253.952 40.1937 254.45 40.4671 254.929 40.7406C253.818 41.5973 251.903 41.1963 251.635 39.7379C251.539 39.1911 251.864 38.6989 252.477 38.6806C253.282 38.6442 254.048 38.9541 254.565 39.5192C255.312 40.3213 254.086 41.5062 253.32 40.7041C253.071 40.4307 252.841 40.3395 252.458 40.3395C252.745 39.9932 253.013 39.6286 253.301 39.2822C253.32 39.3916 253.511 39.6833 253.684 39.5556C254.335 39.0452 255.388 39.501 255.139 40.376C254.833 41.4697 253.684 42.2536 252.477 42.0531C251.309 41.8708 250.428 40.7588 250.562 39.6286C250.62 39.1728 250.926 38.79 251.443 38.79C251.884 38.79 252.381 39.1728 252.324 39.6286Z" fill="#161513"/>
<path d="M250.754 40.5948C252.42 40.5583 253.952 41.1416 255.158 42.2172C255.982 42.9464 254.737 44.1313 253.913 43.4021C253.032 42.6182 251.941 42.2536 250.734 42.2719C249.624 42.2901 249.624 40.613 250.754 40.5948Z" fill="#161513"/>
<path d="M285.418 31.0605C282.468 31.9173 281.051 35.308 283.349 37.6049C284.211 38.4617 285.552 38.7533 286.337 39.7013C287.505 41.1232 287.294 43.092 286.567 44.6415C284.307 49.5087 278.14 50.2197 273.257 50.5478C272.127 50.6207 272.127 48.9619 273.257 48.8889C276.953 48.652 281.128 48.3603 283.809 45.6259C285.513 43.8758 285.896 41.6518 283.847 39.9747C283.005 39.282 282.22 39.045 281.511 38.1153C278.964 34.7611 281.051 30.5865 284.939 29.4563C286.031 29.1282 286.509 30.7506 285.418 31.0605Z" fill="#161513"/>
<path d="M280.744 25.5913C277.182 24.771 277.469 21.0157 279.02 18.6277C280.629 16.1302 283.272 13.7239 282.621 10.4791C281.816 6.43212 276.684 5.57533 273.83 8.16392C273.007 8.91133 271.781 7.72641 272.586 6.979C275.726 4.1352 280.801 4.22635 283.31 7.81756C284.574 9.62228 284.727 11.7916 284.038 13.8333C283.368 15.8568 276.875 23.0027 281.223 23.9871C282.295 24.2241 281.835 25.8283 280.744 25.5913Z" fill="#161513"/>
<path d="M248.532 28.0528C247.939 24.9902 246.062 22.2193 245.832 19.0839C245.64 16.5682 246.502 13.9978 248.092 11.9926C249.413 10.3337 251.577 8.4743 253.894 8.4743C255.235 8.4743 256.039 9.11233 257.131 9.75036C259.506 11.1176 262.244 11.1358 264.064 8.80243C264.734 7.94564 266.247 8.7842 265.576 9.64099C264.447 11.0811 263.01 12.0473 261.095 12.3389C258.223 12.7765 256.48 10.6983 253.856 10.6618C249.988 10.6071 247.575 14.8911 247.536 18.3C247.498 21.5448 249.586 24.4616 250.198 27.6153C250.428 28.6544 248.743 29.1101 248.532 28.0528Z" fill="#161513"/>
<path d="M223.043 110.833C230.512 116.594 241.619 117.487 249.835 112.583C257.802 107.825 261.842 98.3458 260.061 89.6504C259.851 88.5931 261.536 88.1555 261.747 89.2129C263.662 98.674 259.372 108.864 250.716 114.041C241.791 119.364 229.88 118.252 221.798 112.036C220.917 111.343 222.162 110.159 223.043 110.833Z" fill="#161513"/>
<path d="M228.558 46.5007C232.407 42.5814 237.961 40.8131 243.265 43.2194C248.494 45.5892 251.232 50.7482 251.673 56.053C251.883 58.5504 247.785 58.5322 247.574 56.053C246.904 47.8315 238.056 42.5267 231.43 49.2534C229.649 51.0945 226.757 48.3419 228.558 46.5007Z" fill="#161513"/>
<path d="M256.939 28.5265C259.888 28.8364 262.167 31.0421 262.436 33.8677C262.531 34.9432 260.789 34.925 260.674 33.8677C260.501 32.0265 258.873 30.4041 256.939 30.2036C255.829 30.076 255.829 28.3988 256.939 28.5265Z" fill="#161513"/>
<path d="M339.595 36.985L396.836 5.52091C400.896 3.29691 405.971 6.08602 405.971 10.534V73.4622C405.971 77.9285 400.896 80.7176 396.836 78.4754L339.595 47.0112C335.535 44.7872 335.535 39.2272 339.595 36.985Z" fill="#EFEFFF"/>
<path d="M262.838 42.1988C257.303 39.2821 251.769 36.3654 246.234 33.4487C246.636 33.3575 247.039 33.2481 247.441 33.157C245.717 36.4748 245.813 40.8134 248.858 43.402C253.052 46.9567 259.544 45.2614 262.512 41.0686C263.144 40.1753 264.657 41.0139 264.025 41.9072C260.597 46.7197 253.512 48.7432 248.398 45.1885C244.089 42.1806 243.668 36.6571 245.909 32.3184C246.119 31.8992 246.713 31.808 247.115 32.0268C252.65 34.9435 258.184 37.8602 263.719 40.7769C264.715 41.2873 263.815 42.7275 262.838 42.1988Z" fill="#161513"/>
<path d="M240.144 29.9122C234.61 26.9955 229.075 24.0788 223.541 21.162C223.943 21.0709 224.345 20.9615 224.747 20.8704C223.023 24.1881 223.119 28.5268 226.164 31.1153C230.358 34.6701 236.85 32.9748 239.819 28.782C240.451 27.8887 241.964 28.7273 241.332 29.6205C237.904 34.4331 230.818 36.4566 225.705 32.9018C221.396 29.894 220.974 24.3704 223.215 20.0318C223.426 19.6125 224.019 19.5214 224.421 19.7401C229.956 22.6569 235.491 25.5736 241.025 28.4903C242.021 28.9825 241.14 30.4226 240.144 29.9122Z" fill="#161513"/>
<path d="M245.142 35.8002C242.844 34.6335 240.527 33.4486 238.229 32.2819C237.233 31.7715 238.114 30.3314 239.11 30.8418C241.408 32.0085 243.725 33.1934 246.023 34.3601C247.019 34.8705 246.138 36.3107 245.142 35.8002Z" fill="#161513"/>
<path d="M231.871 44.1858C223.712 49.0531 216.78 56.3631 215.899 65.4961C215.746 67.1914 215.88 69.0691 217.086 70.3269C218.771 72.0769 224 72.1863 226.47 71.7488C235.586 70.1081 241.542 67.9571 249.719 63.819C252.668 62.3241 256.211 59.4986 258.203 56.9282C260.195 54.3578 261.037 50.7666 259.486 47.9411C255.924 52.1521 251.328 55.6704 245.985 57.5116C242.174 58.8241 228.806 61.5403 229.017 54.5584C229.094 52.1703 230.894 49.8916 232.847 48.3786L231.871 44.1858Z" fill="#161513"/>
<path d="M356.332 58.0402C352.004 55.0141 347.427 52.3891 342.582 50.1469C341.567 49.6729 342.448 48.2328 343.463 48.7067C348.289 50.949 352.866 53.574 357.213 56.6001C358.113 57.2381 357.251 58.6783 356.332 58.0402Z" fill="#161513"/>
<path d="M289.127 80.3055L293.345 82.5037C295.914 84.3206 295.56 84.9263 296.149 87.932L297.634 96.8596C297.681 97.1512 298.152 97.1512 298.199 96.8596L299.66 87.9993C300.25 85.016 300.179 84.3655 302.724 82.5262L306.73 80.3279C306.871 80.2158 306.871 79.9915 306.73 79.9017L302.205 77.8381C299.684 75.9987 299.825 74.7875 299.26 71.8266L298.199 63.3701C298.152 63.0785 297.681 63.0785 297.634 63.3701L296.409 72.0957C295.843 75.0566 295.537 76.2903 293.015 78.1072L289.104 79.8569C288.962 79.9915 288.962 80.1933 289.127 80.3055Z" fill="#EBEBFF"/>
<path d="M183.156 42.2576L187.374 44.4559C189.943 46.2728 189.589 46.8784 190.179 49.8842L191.687 58.7893C191.734 59.0809 192.205 59.0809 192.252 58.7893L193.713 49.929C194.302 46.9457 194.232 46.2952 196.777 44.4559L200.783 42.2576C200.924 42.1455 200.924 41.9212 200.783 41.8314L196.258 39.7678C193.737 37.9284 193.878 36.7172 193.313 33.7563L192.276 25.3222C192.229 25.0306 191.757 25.0306 191.71 25.3222L190.485 34.0479C189.919 37.0088 189.589 38.2425 187.092 40.0594L183.18 41.809C183.015 41.9436 183.015 42.1679 183.156 42.2576Z" fill="#EBEBFF"/>
</g>
<defs>
<clipPath id="clip0_1090_2776">
<rect width="345" height="155" rx="32" fill="white"/>
</clipPath>
</defs>
</svg>
