<?xml version="1.0" encoding="UTF-8"?>
<!--Generator: Apple Native CoreSVG 341-->
<!DOCTYPE svg
PUBLIC "-//W3C//DTD SVG 1.1//EN"
       "http://www.w3.org/Graphics/SVG/1.1/DTD/svg11.dtd">
<svg version="1.1" xmlns="http://www.w3.org/2000/svg" xmlns:xlink="http://www.w3.org/1999/xlink" viewBox="0 0 16.4854 26.4396">
 <g>
  <rect height="26.4396" opacity="0" width="16.4854" x="0" y="0"/>
  <path d="M8.07094 16.0845C10.3521 16.0845 11.857 14.3565 11.857 11.9621L11.857 4.12231C11.857 1.71984 10.3521 0 8.07094 0C5.78168 0 4.27676 1.71984 4.27676 4.12231L4.27676 11.9621C4.27676 14.3565 5.78168 16.0845 8.07094 16.0845ZM8.07094 20.132C12.8988 20.132 16.1338 16.9011 16.1338 12.2695L16.1338 9.97055C16.1338 9.59098 15.8343 9.28781 15.4511 9.28781C15.0715 9.28781 14.7639 9.59098 14.7639 9.97055L14.7639 12.221C14.7639 16.1626 12.1332 18.8438 8.07094 18.8438C4.00055 18.8438 1.37356 16.1626 1.37356 12.221L1.37356 9.97055C1.37356 9.59098 1.07039 9.28781 0.682736 9.28781C0.299532 9.28781 0 9.59098 0 9.97055L0 12.2695C0 16.9011 3.23496 20.132 8.07094 20.132ZM2.83266 24.6848L13.3011 24.6848C13.6807 24.6848 13.992 24.3817 13.992 24.0021C13.992 23.6189 13.6807 23.3113 13.3011 23.3113L2.83266 23.3113C2.45309 23.3113 2.14547 23.6189 2.14547 24.0021C2.14547 24.3817 2.45309 24.6848 2.83266 24.6848ZM8.07094 24.3817C8.45051 24.3817 8.75368 24.0741 8.75368 23.6909L8.75368 19.8026C8.75368 19.423 8.45051 19.1118 8.07094 19.1118C7.69137 19.1118 7.38012 19.423 7.38012 19.8026L7.38012 23.6909C7.38012 24.0741 7.69137 24.3817 8.07094 24.3817Z" fill="#6260ff"/>
 </g>
</svg>
