<svg width="345" height="155" viewBox="0 0 345 155" fill="none" xmlns="http://www.w3.org/2000/svg">
<g clip-path="url(#clip0_1090_3011)">
<path d="M255.168 41.7281C322.496 63.4289 345.703 42.8892 396.141 55.599C413.68 60.0239 455.955 71.0705 445.565 142.826C444.052 153.308 453.578 168.324 459.712 177.048C465.514 185.286 493.725 258.187 396.125 276.153C319.736 290.213 244.379 302.106 168.307 275.698C141.775 266.488 111.286 256.979 96.2411 233.615C82.576 212.4 88.8932 172.294 109.79 154.437C172.197 101.103 127.91 80.6107 175.987 48.1301C194.789 35.4359 220.39 30.5246 255.168 41.7281Z" fill="#3633E8"/>
<path d="M112.949 127.402C114.628 120.497 117.121 113.468 119.282 106.517C119.715 105.104 120.18 103.645 121.128 102.296C123.056 99.5498 126.431 98.577 128.924 99.1105C136.688 100.774 138.783 108.761 135.724 116.637C133.413 122.616 128.276 129.928 121.759 133.725C119.499 135.043 116.822 136.047 114.927 135.451C111.868 134.51 112.217 130.414 112.949 127.402Z" fill="#C2C1FF"/>
<path d="M338.197 146.9C340.514 149.864 341.012 150.931 344.018 152.413C348.193 154.474 352.158 151.943 354.973 148.346C369.355 129.926 380.941 90.9186 383.009 91.0451C438.26 94.8411 443.756 109.916 399.211 194.024C376.575 236.502 324.753 218.047 315.886 208.701C314.928 207.689 300.91 208.593 318.165 200.35C319.122 199.898 311.73 197.042 311.06 196.229C306.789 190.951 313.549 184.57 309.834 178.948C321.382 169.929 331.628 159.318 338.197 146.9Z" fill="#EBEBFF"/>
<path d="M290.53 156.841C290.703 156.353 291.181 156.046 291.641 155.775C301.063 150.009 311.615 145.923 322.608 143.79L334.807 142.832C336.722 144.947 338.599 147.08 340.437 149.267C333.371 164.035 321.957 176.851 308.896 187.878C302.193 178.55 296.161 168.771 290.875 158.667C290.607 158.07 290.3 157.42 290.53 156.841Z" fill="#161513"/>
<path d="M285.321 96.0702C306.406 109.374 325.002 126.691 342.773 143.266C333.447 154.672 321.899 165.626 308.398 172.369C329.674 202.321 358.132 271.588 356.198 298.195C355.796 303.889 356.505 309.891 353.709 314.952C350.893 320.049 345.857 323.375 340.226 325.815C336.3 306.727 330.823 287.892 324.37 269.437C302.652 205.375 285.474 140.356 254.067 80.5972C265.136 84.5558 275.497 89.8701 285.321 96.0702Z" fill="#4D4BCC"/>
<path d="M246.866 78.2289C249.298 78.952 251.711 79.7292 254.067 80.5788C285.474 140.356 302.653 205.357 324.37 269.418C330.824 287.874 336.301 306.709 340.227 325.797C337.45 327.008 334.52 327.984 331.647 328.852C308.168 335.902 283.732 339.065 259.065 339.914C257.744 251.921 236.084 163.782 215.612 73.475C226.03 73.5834 236.621 75.2103 246.866 78.2289Z" fill="white"/>
<path d="M141.174 114.978C150.328 96.5585 165.476 84.6464 183.191 78.5006C193.379 74.9758 204.41 73.3489 215.651 73.4755C236.124 163.801 257.764 251.921 259.104 339.915C240.088 340.566 220.937 339.825 201.997 338.433C199.545 338.252 196.807 337.927 195.237 336.137C193.187 333.805 194.183 330.335 195.083 327.424C200.58 309.638 198.53 290.64 195.907 272.275C191.636 242.341 186.025 212.57 179.073 183.07C178.537 180.81 178.001 178.515 177.656 176.201C174.554 177.647 171.47 179.111 168.387 180.557C157.433 185.745 131.426 172.857 128.036 183.974C125.968 159.282 129.549 138.368 141.174 114.978Z" fill="#4D4BCC"/>
<path d="M128.533 190.119C133.685 198.651 156.015 195.795 178.421 183.739C200.828 171.682 214.808 154.998 209.656 146.466C204.505 137.934 182.175 140.79 159.768 152.847C137.362 164.903 123.382 181.606 128.533 190.119Z" fill="#161513"/>
<path d="M193.762 143.773C198.549 148.689 206.401 158.143 211.189 163.042C219.998 153.064 232.599 146.141 246.139 143.845C268.22 140.103 282.219 163.439 282.794 164.668C282.794 164.668 278.638 178.063 273.601 171.194C272.51 169.712 270.116 171.067 270.978 172.676C275.899 181.877 267.703 187.227 264.294 181.804C265.271 190.68 261.306 202.086 256.193 209.569C246.56 223.668 234.821 235.074 216.819 238.888C175.128 247.745 147.302 213.907 135.045 182.491C139.297 173.182 171.815 145.038 193.762 143.773Z" fill="#EBEBFF"/>
<path d="M208.507 147.804C203.642 139.67 199.563 131.12 194.699 122.985C194.144 122.064 195.657 121.232 196.212 122.154C201.076 130.288 205.155 138.838 210.02 146.972C210.575 147.894 209.062 148.726 208.507 147.804Z" fill="#161513"/>
<path d="M222.544 152.973C222.544 152.973 234.781 140.609 241.561 136.199C253.185 128.661 254.258 124.142 259.926 117.508C261.42 115.773 264.427 116.857 264.503 119.171C264.657 124.16 262.129 130.487 259.505 134.011C257.054 137.301 260.252 141.965 264.35 141.061C279.556 137.699 297.941 133.325 309.852 133.072C313.089 132.999 317.896 134.951 316.862 137.988C316.498 139.037 315.483 139.633 314.506 140.121C305.352 144.767 291.2 148.219 280.226 150.117C285.225 151.075 297.117 148.075 299.281 154.184C301.12 159.39 296.658 163.945 291.468 163.945C294.781 162.969 311.27 175.188 262.186 187.896L222.544 152.973Z" fill="#EBEBFF"/>
<path d="M221.913 152.377C228.137 146.104 234.61 139.85 242.04 134.861C247.575 131.137 251.788 126.835 255.637 121.611C257.361 119.28 261 113.098 264.542 117.038C266.228 118.9 265.308 122.226 264.791 124.377C264.006 127.757 262.532 130.866 260.693 133.831C259.736 135.367 259.065 136.669 260.08 138.404C261.421 140.663 263.738 140.32 266.017 139.814C270.249 138.874 274.482 137.916 278.714 137.012C286.087 135.421 293.479 133.903 300.967 132.945C305.659 132.349 313.492 130.667 316.977 134.897C321.344 140.175 309.355 143.357 305.985 144.532C297.731 147.406 289.094 149.376 280.457 150.894C280.457 150.37 280.457 149.828 280.457 149.304C286.049 150.208 294.341 147.37 298.803 151.834C304.127 157.149 297.75 164.488 291.468 164.759C290.473 164.795 290.3 163.367 291.239 163.132C293.958 162.445 296.85 165.355 297.463 167.579C299.091 173.309 291.564 177.737 287.236 179.961C279.499 183.955 270.881 186.468 262.417 188.673C261.325 188.962 260.865 187.354 261.957 187.083C270.364 184.877 278.963 182.419 286.623 178.406C289.879 176.689 293.939 174.411 295.471 170.995C296.448 168.826 294.743 163.963 291.717 164.741C291.641 164.198 291.564 163.656 291.488 163.114C299.186 162.77 301.887 152.648 293.479 151.274C289.017 150.551 284.459 151.636 280.016 150.913C279.174 150.768 279.193 149.466 280.016 149.322C286.815 148.129 293.556 146.629 300.163 144.676C303.476 143.7 306.77 142.598 309.949 141.296C311.29 140.736 312.898 140.212 314.105 139.398C317.437 137.139 315.292 134.951 312.439 134.21C309.872 133.542 307.019 133.975 304.414 134.228C300.737 134.59 297.08 135.15 293.422 135.801C286.336 137.048 279.289 138.585 272.279 140.139C268.047 141.079 261.421 144.026 258.587 139.254C257.686 137.753 257.591 135.964 258.318 134.373C259.64 131.517 261.517 129.149 262.512 126.076C263.068 124.359 263.527 122.569 263.623 120.78C263.642 120.31 263.815 119.189 263.585 118.737C262.053 115.628 260.061 118.683 259.41 119.497C258.031 121.232 256.767 123.058 255.427 124.811C252.401 128.806 248.82 132.186 244.664 135.114C236.87 140.645 229.86 146.809 223.196 153.552C222.392 154.329 221.147 153.154 221.913 152.377Z" fill="#161513"/>
<path d="M283.694 150.497C279.347 150.967 275.249 152.358 271.189 153.768C270.135 154.13 269.676 152.539 270.729 152.178C274.981 150.714 279.194 149.34 283.713 148.852C284.824 148.707 284.805 150.37 283.694 150.497Z" fill="#161513"/>
<path d="M260.693 118.701C261.478 122.533 258.472 126.546 254.163 126.456C253.033 126.438 253.033 124.775 254.163 124.811C257.265 124.883 259.583 121.955 259.008 119.135C258.797 118.105 260.483 117.653 260.693 118.701Z" fill="#161513"/>
<path d="M313.357 134.825C312.074 134.789 310.791 134.825 309.546 135.186C308.934 135.367 308.34 135.494 307.995 136.054C307.478 136.361 307.459 136.687 307.957 137.048C308.11 137.572 308.474 137.807 309.068 137.717C311.289 137.952 313.626 137.844 315.866 137.898C316.996 137.934 316.996 139.579 315.866 139.543C313.472 139.489 310.944 139.633 308.57 139.308C307.344 139.145 306.157 138.53 305.869 137.301C305.046 133.578 310.791 133.072 313.338 133.162C314.487 133.198 314.487 134.861 313.357 134.825Z" fill="#161513"/>
<path d="M263.03 145.146C263.413 146.538 263.777 147.93 264.16 149.322C264.447 150.352 262.742 150.786 262.474 149.756C262.091 148.364 261.727 146.972 261.344 145.58C261.057 144.55 262.762 144.116 263.03 145.146Z" fill="white"/>
<path d="M308.934 -0.202233L312.113 1.4246C314.047 2.7803 313.779 3.2322 314.22 5.45554L315.33 12.1075C315.369 12.3244 315.713 12.3244 315.752 12.1075L316.843 5.49169C317.284 3.26835 317.226 2.7803 319.141 1.40653L322.148 -0.220307C322.263 -0.292611 322.263 -0.455295 322.148 -0.545675L318.758 -2.08213C316.862 -3.43783 316.977 -4.34162 316.537 -6.56496L315.752 -12.8373C315.713 -13.0542 315.369 -13.0542 315.33 -12.8373L314.411 -6.32998C313.99 -4.12471 313.741 -3.20284 311.864 -1.84714L308.915 -0.545675C308.819 -0.437219 308.819 -0.274537 308.934 -0.202233Z" fill="white"/>
<path d="M333.313 10.8063L335.745 12.0535C337.22 13.0839 337.028 13.4273 337.354 15.1445L338.197 20.2239C338.235 20.3865 338.484 20.3865 338.522 20.2239L339.365 15.1807C339.69 13.4815 339.671 13.1019 341.127 12.0716L343.425 10.8244C343.521 10.7701 343.521 10.6436 343.425 10.5713L340.82 9.39636C339.365 8.34796 339.461 7.66107 339.116 5.98001L338.522 1.18988C338.484 1.0272 338.235 1.0272 338.197 1.18988L337.488 6.16077C337.162 7.84183 336.99 8.54679 335.554 9.5952L333.294 10.5894C333.217 10.6074 333.217 10.734 333.313 10.8063Z" fill="white"/>
<path d="M247.02 35.0275C249.643 32.8764 249.892 29.207 249.394 25.9714C248.916 22.7358 247.881 19.4279 248.647 16.2647C249.413 13.1194 252.861 10.2273 256.365 11.2395C257.189 11.4745 257.955 11.9084 258.817 12.0349C262.11 12.5229 263.585 8.74506 265.711 6.5398C268.162 4.00917 272.777 3.43074 276.071 5.23833C279.385 7.04592 280.993 11.0407 279.71 14.204C278.906 16.1743 277.412 18.8314 279.461 19.9521C280.074 20.2956 280.802 20.3137 281.51 20.3498C283.674 20.4583 285.915 20.7836 287.773 21.832C289.649 22.8805 291.066 24.7603 290.875 26.6945C290.607 29.3336 287.658 30.8881 285.091 32.1715C282.525 33.4549 279.729 35.389 280.036 38.0462C280.246 39.7453 281.721 41.1914 282.046 42.8724C282.621 45.8188 279.614 48.2048 276.665 49.4521C273.275 50.8801 269.541 51.6935 265.749 51.802C263.623 51.8743 261.421 51.7116 259.41 52.2719C257.399 52.8323 255.542 54.3507 255.561 56.2667L247.02 35.0275Z" fill="#161513"/>
<path d="M235.204 60.3337L219.826 59.3576C223.694 41.9505 241.16 32.5329 252.459 28.1585C258.166 25.9532 262.321 25.0314 262.321 25.0314L260.617 43.3604L255.906 93.9369C254.948 104.132 245.009 111.254 234.304 109.591C234.131 109.573 233.959 109.536 233.787 109.518C220.879 107.476 214.157 93.8465 220.841 83.2178C227.926 71.8661 235.204 60.3337 235.204 60.3337Z" fill="#EBEBFF"/>
<path d="M269.119 56.8635C265.347 58.9965 260.482 57.8396 258.223 54.2787C255.963 50.7177 257.189 46.1264 260.961 43.9935C264.734 41.8605 269.598 43.0174 271.858 46.5783C274.099 50.1393 272.892 54.7487 269.119 56.8635Z" fill="#EBEBFF"/>
<path d="M261.134 50.2115C263.987 49.6512 266.841 49.0908 269.694 48.5666C270.805 48.3678 271.265 49.9584 270.154 50.1573C267.301 50.6815 264.447 51.2418 261.594 51.8022C260.502 52.0372 260.023 50.4284 261.134 50.2115Z" fill="#161513"/>
<path d="M235.185 60.3338L220.63 83.7782L246.58 60.3157L235.185 60.3338Z" fill="#161513"/>
<path d="M244.875 32.9668C240.183 34.6478 235.395 36.7266 231.125 39.221C231.125 38.7511 231.125 38.263 231.125 37.793C232.982 38.5884 234.821 39.3656 236.678 40.161C237.713 40.5948 236.813 42.0228 235.798 41.589C233.94 40.7936 232.101 40.0164 230.244 39.221C229.612 38.9499 229.727 38.0823 230.244 37.793C234.648 35.2263 239.57 33.0933 244.415 31.3761C245.469 30.9965 245.928 32.5872 244.875 32.9668Z" fill="#161513"/>
<path d="M233.977 42.8545L232.828 45.349C237.291 48.0242 242.327 49.7595 247.536 50.5729C248.455 50.0487 249.336 49.4703 250.16 48.8196C244.376 48.0784 238.765 46.0178 233.977 42.8545Z" fill="white"/>
<path d="M233.557 53.2662C236.506 53.6277 239.532 53.4108 242.385 52.6335C241.543 52.1997 240.662 51.8382 239.704 51.6032C237.483 51.1513 235.089 51.7478 233.557 53.2662Z" fill="#4D4BCC"/>
<path d="M232.848 45.3312L229.611 52.3989C230.894 52.8146 232.235 53.0858 233.576 53.2484C235.088 51.7301 237.501 51.1516 239.723 51.5855C240.681 51.8385 241.561 52.182 242.404 52.6158C244.204 52.1277 245.947 51.4408 247.556 50.537C242.327 49.7598 237.291 48.0245 232.848 45.3312Z" fill="#161513"/>
<path d="M247.383 37.4134C251.194 36.5999 254.948 37.9376 257.322 40.8478C258.012 41.6974 256.48 42.5108 255.81 41.6793C253.933 39.3836 250.83 38.3714 247.862 39.004C246.751 39.2571 246.292 37.6483 247.383 37.4134Z" fill="#161513"/>
<path d="M251.463 39.1851C251.329 39.8901 251.884 40.6493 252.631 40.7758C253.378 40.9024 254.182 40.3962 254.336 39.7093C253.742 40.2335 252.574 39.8359 252.497 39.0767C253.053 39.0225 253.627 39.2574 253.972 39.6732L251.463 39.1851Z" fill="#161513"/>
<path d="M252.324 39.1853C252.228 39.9444 253.243 40.2879 253.473 39.4745C253.952 39.7456 254.45 40.0167 254.929 40.2879C253.818 41.1375 251.903 40.7398 251.635 39.2937C251.539 38.7514 251.864 38.2634 252.477 38.2453C253.282 38.2091 254.048 38.5164 254.565 39.0768C255.312 39.8721 254.086 41.0471 253.32 40.2517C253.071 39.9806 252.841 39.8902 252.458 39.8902C252.745 39.5468 253.013 39.1853 253.301 38.8418C253.32 38.9503 253.511 39.2395 253.684 39.1129C254.335 38.6068 255.388 39.0587 255.139 39.9264C254.833 41.0109 253.684 41.7882 252.477 41.5893C251.309 41.4086 250.428 40.306 250.562 39.1853C250.62 38.7334 250.926 38.3538 251.443 38.3538C251.884 38.3538 252.381 38.7334 252.324 39.1853Z" fill="#161513"/>
<path d="M250.754 40.1432C252.42 40.107 253.952 40.6855 255.158 41.752C255.982 42.475 254.737 43.6499 253.913 42.9269C253.032 42.1496 251.941 41.7881 250.734 41.8062C249.624 41.8243 249.624 40.1613 250.754 40.1432Z" fill="#161513"/>
<path d="M285.418 30.6894C282.468 31.539 281.051 34.9011 283.349 37.1787C284.211 38.0283 285.552 38.3175 286.337 39.2574C287.505 40.6674 287.294 42.6196 286.567 44.156C284.307 48.9823 278.14 49.6873 273.257 50.0126C272.127 50.0849 272.127 48.44 273.257 48.3677C276.953 48.1327 281.128 47.8435 283.809 45.1321C285.513 43.3968 285.896 41.1916 283.847 39.5286C283.005 38.8417 282.22 38.6067 281.511 37.6848C278.964 34.3589 281.051 30.2195 284.939 29.0988C286.031 28.7734 286.509 30.3822 285.418 30.6894Z" fill="#161513"/>
<path d="M280.744 25.2663C277.182 24.4529 277.469 20.7292 279.02 18.3613C280.629 15.8849 283.272 13.4988 282.621 10.2813C281.816 6.26846 276.684 5.41889 273.83 7.98567C273.007 8.72678 271.781 7.55185 272.586 6.81074C275.726 3.99089 280.801 4.08127 283.31 7.64223C284.574 9.43175 284.727 11.5828 284.038 13.6073C283.368 15.6137 276.875 22.6995 281.223 23.6756C282.295 23.9106 281.835 25.5013 280.744 25.2663Z" fill="#161513"/>
<path d="M248.532 27.7069C247.939 24.6702 246.062 21.9226 245.832 18.8136C245.641 16.3191 246.502 13.7704 248.092 11.782C249.413 10.1371 251.577 8.29338 253.895 8.29338C255.235 8.29338 256.04 8.92603 257.131 9.55869C259.506 10.9144 262.244 10.9325 264.064 8.61874C264.734 7.76917 266.247 8.60067 265.577 9.45024C264.447 10.8782 263.01 11.8363 261.095 12.1255C258.223 12.5593 256.48 10.4986 253.856 10.4625C249.988 10.4083 247.575 14.6561 247.537 18.0363C247.498 21.2538 249.586 24.146 250.199 27.2731C250.428 28.3034 248.743 28.7553 248.532 27.7069Z" fill="#161513"/>
<path d="M223.043 109.79C230.512 115.502 241.619 116.388 249.835 111.525C257.802 106.807 261.842 97.408 260.061 88.7857C259.851 87.7373 261.536 87.3035 261.747 88.3519C263.662 97.7333 259.372 107.838 250.716 112.971C241.792 118.25 229.88 117.147 221.798 110.983C220.917 110.296 222.162 109.121 223.043 109.79Z" fill="#161513"/>
<path d="M228.558 45.9995C232.407 42.1132 237.961 40.3598 243.266 42.7458C248.494 45.0957 251.232 50.2112 251.673 55.4713C251.883 57.9477 247.785 57.9296 247.575 55.4713C246.904 47.319 238.057 42.0589 231.43 48.729C229.649 50.5546 226.758 47.8252 228.558 45.9995Z" fill="#161513"/>
<path d="M256.939 28.1767C259.889 28.484 262.168 30.6711 262.436 33.4729C262.531 34.5394 260.789 34.5213 260.674 33.4729C260.501 31.6472 258.874 30.0385 256.939 29.8396C255.829 29.7131 255.829 28.0501 256.939 28.1767Z" fill="#161513"/>
<path d="M339.595 36.564L396.836 5.36491C400.896 3.15964 405.971 5.92526 405.971 10.3358V72.7339C405.971 77.1626 400.896 79.9282 396.836 77.7048L339.595 46.5058C335.535 44.3005 335.535 38.7873 339.595 36.564Z" fill="#4D4BCC"/>
<path d="M262.838 41.7339C257.303 38.8417 251.769 35.9496 246.234 33.0574C246.636 32.967 247.038 32.8586 247.441 32.7682C245.717 36.058 245.813 40.3601 248.858 42.9269C253.052 46.4517 259.544 44.7706 262.512 40.6132C263.144 39.7274 264.657 40.5589 264.025 41.4447C260.597 46.2167 253.511 48.2231 248.398 44.6983C244.089 41.7158 243.668 36.2388 245.909 31.9367C246.119 31.521 246.713 31.4306 247.115 31.6475C252.65 34.5397 258.184 37.4318 263.719 40.324C264.715 40.8301 263.815 42.2581 262.838 41.7339Z" fill="#161513"/>
<path d="M240.144 29.5506C234.61 26.6585 229.075 23.7663 223.541 20.8742C223.943 20.7838 224.345 20.6754 224.747 20.585C223.023 23.8748 223.119 28.1769 226.164 30.7437C230.358 34.2685 236.85 32.5874 239.819 28.4299C240.451 27.5442 241.964 28.3757 241.332 29.2614C237.904 34.0335 230.818 36.0399 225.705 32.5151C221.396 29.5326 220.974 24.0556 223.215 19.7535C223.426 19.3377 224.019 19.2474 224.421 19.4643C229.956 22.3564 235.491 25.2486 241.025 28.1407C242.021 28.6288 241.14 30.0568 240.144 29.5506Z" fill="#161513"/>
<path d="M245.142 35.3891C242.844 34.2323 240.527 33.0573 238.229 31.9005C237.233 31.3944 238.114 29.9664 239.11 30.4725C241.408 31.6294 243.725 32.8043 246.023 33.9612C247.019 34.4673 246.138 35.8953 245.142 35.3891Z" fill="#161513"/>
<path d="M231.871 43.7041C223.712 48.5304 216.78 55.7788 215.899 64.8349C215.746 66.5159 215.88 68.3778 217.086 69.625C218.771 71.3603 224 71.4687 226.47 71.0349C235.586 69.4081 241.542 67.2751 249.719 63.1719C252.668 61.6897 256.211 58.8879 258.203 56.3392C260.195 53.7905 261.037 50.2295 259.486 47.4277C255.924 51.6033 251.328 55.0919 245.985 56.9176C242.174 58.2191 228.806 60.9124 229.017 53.9893C229.094 51.6214 230.894 49.3619 232.847 47.8616L231.871 43.7041Z" fill="#161513"/>
<path d="M356.332 57.4418C352.004 54.4412 347.427 51.8382 342.582 49.6149C341.567 49.1449 342.448 47.7169 343.463 48.1869C348.289 50.4102 352.866 53.0132 357.213 56.0138C358.113 56.6464 357.251 58.0744 356.332 57.4418Z" fill="#161513"/>
<path d="M289.127 79.5195L293.345 81.6992C295.914 83.5008 295.56 84.1014 296.149 87.0818L297.634 95.9342C297.681 96.2233 298.152 96.2233 298.199 95.9342L299.66 87.1485C300.25 84.1903 300.179 83.5453 302.724 81.7215L306.73 79.5418C306.871 79.4305 306.871 79.2081 306.73 79.1192L302.205 77.0729C299.684 75.249 299.825 74.048 299.26 71.112L298.199 62.7267C298.152 62.4376 297.681 62.4376 297.634 62.7267L296.409 71.3789C295.843 74.3149 295.537 75.5382 293.015 77.3398L289.104 79.0747C288.962 79.2081 288.962 79.4083 289.127 79.5195Z" fill="#EBEBFF"/>
<path d="M183.156 41.7922L187.374 43.9719C189.943 45.7736 189.589 46.3741 190.179 49.3545L191.687 58.1846C191.734 58.4738 192.205 58.4738 192.252 58.1846L193.713 49.399C194.302 46.4408 194.232 45.7958 196.777 43.9719L200.783 41.7922C200.924 41.681 200.924 41.4586 200.783 41.3696L196.258 39.3233C193.737 37.4995 193.878 36.2984 193.313 33.3625L192.276 24.9995C192.229 24.7103 191.757 24.7103 191.71 24.9995L190.485 33.6516C189.919 36.5876 189.589 37.8109 187.092 39.6125L183.18 41.3474C183.015 41.4808 183.015 41.7033 183.156 41.7922Z" fill="#EBEBFF"/>
</g>
<defs>
<clipPath id="clip0_1090_3011">
<rect width="345" height="155" rx="32" fill="white"/>
</clipPath>
</defs>
</svg>
