<svg width="402" height="524" viewBox="0 0 402 524" fill="none" xmlns="http://www.w3.org/2000/svg">
<path d="M100.882 101C81.9259 103.335 62.8544 105.461 43.4656 106.917C-11.0656 111.147 -62.1344 123.121 -112.28 142.144C-184.555 169.489 -251.81 203.144 -327 223.416V349.946C-248.002 318.279 -189.662 264.791 -121.974 218.238C0.360016 133.684 161.386 143.554 310.986 113.967C328.095 110.454 344.483 106.016 360.41 101H100.882Z" fill="#4847BF"/>
<path d="M288.134 184.421C208.934 212.598 129.734 234.442 47.88 256.285C-24.28 276.002 -82.36 311.945 -144.826 350.686C-200.77 384.78 -256.744 422.064 -327 426.964V524H-289.203C-267.189 495.754 -229.998 476.915 -191.48 464.826C-156.28 454.263 -121.974 444.393 -88.5344 428.906C-79.7344 425.393 -72.6944 419.753 -63.8944 414.806C-19.8944 392.269 18.8256 373.246 62.8256 350.686C88.36 337.996 111.24 326.739 138.506 321.099C222.12 302.792 288.971 266.848 362.92 233.032C395.177 218.331 429.713 210.61 465 207.79V160.914C404.439 159.342 344.31 164.103 288.134 184.421Z" fill="#4847BF"/>
<path d="M302.214 417.626C249.414 441.573 189.574 440.879 134.149 456.366C107.749 464.11 74.1357 469.241 40.638 489.813C24.8269 499.521 15.7961 512.419 2.66821 524H465V362.012C458.306 362.428 451.555 363.098 444.746 364.069C390.214 371.119 348.84 397.192 302.214 417.626Z" fill="#4847BF"/>
<path d="M261.296 337.525C267.324 345.213 276.648 338.662 279.545 330.919C281.835 324.828 282.256 317.817 283.05 311.32C283.961 304.011 284.779 296.701 285.527 289.392C288.261 262.456 291.439 234.303 285.994 207.529C284.803 201.736 279.779 176.668 270.736 183.084C269.567 183.923 270.642 186.062 271.811 185.223C280.083 179.375 285.597 217.762 286.064 222.987C287.28 236.712 286.742 250.572 285.714 264.297C284.569 279.268 283.05 294.211 281.228 309.073C280.433 315.597 280.036 322.581 278.026 328.781C275.923 335.305 268.329 342.803 262.838 335.792C261.88 334.601 260.384 336.333 261.296 337.525Z" fill="#A5A3FF"/>
<path d="M27.7435 269.441C22.4392 257.042 23.4673 243.02 26.505 230.025C29.4493 217.437 33.9357 205.066 39.4036 193.669C50.0822 171.444 67.3737 151.871 90.0163 148.541C91.3715 148.352 91.3715 145.861 90.0163 146.078C66.5793 149.543 48.6568 169.359 37.5576 192.451C31.6224 204.795 26.7153 218.412 23.8412 232.137C21.1306 245.023 20.71 258.585 25.9209 270.713C26.505 272.121 28.351 270.849 27.7435 269.441Z" fill="#A5A3FF"/>
<path d="M452.577 290.746C443.651 290.042 434.281 289.149 427.458 290.069C412.713 292.045 398.927 299.436 384.603 303.902C369.882 308.477 354.6 309.993 339.411 311.455C328.335 312.538 317.259 313.621 306.16 313.621C295.995 313.648 285.831 312.809 275.713 311.753C259.66 310.102 243.303 308.342 226.9 305.987C189.816 300.681 152.616 292.397 118.758 275.83C110.532 271.796 102.401 267.492 94.3859 262.917C56.625 241.368 21.3409 213.864 -10.2044 181.352C-22.0748 169.115 -33.4077 156.203 -44.1565 142.613L-44.2032 142.559C-46.353 139.825 -43.7826 135.601 -40.8851 137.09L-25.1124 145.185C-22.6122 146.457 -19.6212 146.051 -17.6117 143.885C-15.1815 141.259 -16.0227 137.984 -16.9808 135.114C-20.1119 125.693 -24.4582 116.841 -27.379 107.339C-29.0147 101.979 -30.2532 93.5601 -30.4635 85.52C-30.5803 80.9991 -25.2994 79.6726 -23.8506 83.8416C-21.1167 91.6922 -13.7328 106.229 -6.95637 116.354C-5.83476 118.032 -3.63827 116.3 -4.52621 114.432C-10.2978 102.466 -16.7471 86.9277 -17.2144 78.2649C-17.3546 75.5849 -15.719 73.1214 -13.429 72.8778C-10.5081 72.5529 -9.24633 76.2887 -8.40512 79.2936C-5.29732 90.2574 -0.320171 100.734 7.57784 107.583C3.9326 101.059 -0.0164032 91.9087 -2.00259 84.4101C-3.1242 80.187 1.64265 77.3174 3.8625 80.8637C6.19919 84.5996 8.41904 90.1762 10.008 93.3977C19.0743 111.698 31.0616 127.994 45.1752 141.151C53.8677 149.272 63.3313 156.175 72.7481 163.079C90.3668 175.937 110.766 187.876 131.516 196.945C143.34 202.061 155.257 206.284 166.823 209.235C182.9 213.323 199.303 215.921 215.847 217.6C241.107 220.172 266.647 220.632 291.743 221.038C326.816 221.606 362.895 221.687 395.632 206.853C402.455 203.766 415.984 198.271 428.159 194.887C431.781 193.885 433.51 199.949 430.098 201.709C420.588 206.663 409.652 211.996 400.632 215.732C399.324 216.273 398.296 217.546 398.062 219.143C397.525 222.852 402.525 222.094 405.726 221.146L444.959 209.56C449.095 208.341 451.829 214.432 448.651 217.762C446.829 219.657 444.562 221.254 442.436 222.364C434.328 226.587 421.569 231.487 410.517 236.143C406.941 237.659 408.344 243.967 412.082 243.182C422.995 240.935 438.907 235.521 452.25 231.298C456.409 229.971 458.863 236.577 455.241 239.311C445.941 246.268 436.173 251.899 425.962 256.717C413.741 262.511 416.171 274.287 424.77 275.992C429.654 276.967 434.234 277.481 437.248 277.508C441.618 277.562 448.348 279.051 454.236 281.731C458.489 283.707 457.064 291.098 452.577 290.746Z" fill="#EBEBFF"/>
<path d="M137.778 231.65C142.639 248.975 157.78 253.929 169.3 248.163C181.287 242.478 190.634 229.403 197.411 215.326C185.891 213.674 173.436 212.619 162.197 209.235C154.065 206.798 145.746 203.469 137.428 199.489C134.904 209.912 135.395 221.281 137.778 231.65Z" fill="#EBEBFF"/>
<path d="M228.348 311.266C227.857 309.533 227.367 307.774 226.876 305.987C222.623 290.529 218.604 274.016 217.623 258.044C216.571 240.935 216.034 227.724 215.823 217.6C212.856 217.302 200.331 215.678 197.387 215.299C189.442 229.376 185.026 240.61 170.936 246.268C157.406 252.034 143.807 248.948 138.105 231.623C135.301 221.254 134.717 209.885 137.708 199.489C135.628 198.65 133.572 197.784 131.492 196.89C119.388 208.558 109.948 223.934 102.938 240.123C99.7133 247.54 96.8626 255.147 94.3623 262.917C83.707 295.808 79.0336 331.325 77.8185 366.193C76.1361 414.623 78.0055 464.244 85.3894 511.971L344.248 500.438C294.64 446.134 249.846 387.85 228.348 311.266Z" fill="#A5A3FF"/>
<path d="M172.174 172.256C167.244 166.787 167.571 156.5 172.828 151.357C175.702 148.541 179.628 147.242 182.222 144.129C188.227 136.928 184.115 125.45 184.231 115.623C184.325 106.094 189.723 97.729 196.499 91.9088C208.813 81.2698 216.922 87.1442 226.783 83.1106C250.313 73.5004 246.364 58.3135 255.781 46.8895C265.198 35.4926 279.638 31.2154 293.425 31.1883C303.66 31.1883 313.263 37.4688 323.498 37.1169C335.439 36.7108 336.397 21.1449 359.203 19.629C375.069 18.6003 390.444 28.5083 397.828 44.2907C405.236 60.0732 401.403 86.1967 388.481 96.7274C379.065 104.389 359.974 107.61 348.501 105.986C336.49 104.28 329.48 93.7496 319.526 101.546C308.099 110.48 307.819 130.62 296.86 140.231C288.284 147.756 276.227 146.322 265.455 144.86C254.706 143.398 242.368 142.829 234.564 151.357C229.259 157.177 226.712 166.652 219.772 169.522C210.052 173.528 198.649 161.508 189.676 167.356C187.269 168.926 185.563 171.579 183.32 173.447C181.077 175.315 177.689 176.235 175.656 174.124L172.174 172.256Z" fill="#2E2500"/>
<path d="M174.16 155.58C180.446 149.949 181.708 140.61 181.123 131.893C180.306 119.494 177.081 106.446 185.586 96.4567C198.882 80.8637 220.66 85.1951 235.311 72.3093C243.349 65.2437 245.896 53.522 252.626 45.157C259.543 36.5484 269.24 31.08 279.381 30.2408C296.229 28.8602 319.736 40.0406 332.401 21.172C336.326 15.2976 338.499 1.81621 329.667 0.110732C326.933 -0.403618 323.615 0.868722 322.493 4.03604C321.348 7.28457 324.409 9.39611 326.886 8.47569C328.195 7.98842 327.634 5.60616 326.325 6.09344C325.765 5.57909 325.227 5.03767 324.666 4.52332C325.25 3.57583 326.022 2.98027 326.98 2.68248C328.008 2.30349 329.246 2.35763 330.251 2.79077C332.775 3.87361 333.803 7.14921 333.826 10.0187C333.873 14.8645 331.443 19.3853 328.382 22.4985C322.306 28.6436 313.66 30.1867 305.879 29.8348C296.252 29.4016 286.672 26.6404 277.021 28.021C269.941 29.0497 263.118 32.217 257.346 37.0628C251.201 42.2333 247.088 48.8657 243.396 56.4727C241.176 61.0207 238.91 65.5415 235.475 68.9796C232.087 72.3634 228.044 74.6915 223.861 76.4241C210.355 82.0549 193.765 82.3797 183.437 95.4821C177.548 102.981 177.011 112.374 177.992 122.039C179.02 132.353 181.38 146.051 173.109 153.414C172.01 154.389 173.062 156.527 174.16 155.58Z" fill="#2E2500"/>
<path d="M206.22 164.378C213.253 168.385 221.595 167.843 227.974 162.402C231.433 159.451 234.12 155.255 237.905 152.792C243.21 149.354 249.285 150.491 254.916 152.169C263.819 154.795 272.278 157.664 281.578 156.284C289.453 155.12 296.416 151.113 301.744 144.237C307.352 136.982 311.184 127.697 318.124 121.931C326.536 114.946 337.589 115.623 347.239 117.924C364.133 121.904 384.86 132.082 399.09 115.109C402.922 110.534 409.021 97.6208 401.777 93.6142C399.417 92.3148 396.286 92.4502 394.697 95.1302C393.202 97.6749 393.716 101.167 396.029 102.683C397.221 103.468 398.296 101.33 397.104 100.544C393.879 98.4329 397.595 94.7242 400.048 95.4822C401.52 95.9424 402.432 97.0523 402.736 98.9473C403.039 100.951 402.549 103.36 401.988 105.228C400.703 109.694 397.922 113.484 394.697 116.273C388.084 121.985 379.976 122.932 371.985 121.795C356.539 119.575 341.164 110.236 325.368 115.271C311.464 119.711 307.258 135.683 297.351 145.834C291.345 151.979 283.401 154.308 275.526 154.199C267.488 154.064 260.267 150.788 252.486 148.948C244.705 147.107 238.256 148.433 232.321 154.632C229.026 158.043 226.082 161.725 221.782 163.431C216.992 165.326 211.828 164.811 207.318 162.239C206.056 161.536 204.981 163.674 206.22 164.378Z" fill="#2E2500"/>
<path d="M94.0352 274.72C85.8334 264.974 72.1638 266.247 60.6673 269.116C49.1707 271.986 36.4358 275.559 26.2945 268.683C25.5935 265.461 28.0938 262.402 30.7343 261.103C33.3981 259.804 36.389 259.479 38.8426 257.719C46.8574 251.926 43.3757 236.333 49.8717 228.374C55.1059 221.985 65.2705 222.581 69.0793 214.947C73.5892 205.905 65.4341 192.099 71.9067 184.844C73.5658 182.976 75.8557 182.11 77.912 180.946C88.7776 174.855 94.3857 158.558 90.1563 145.455C95.1101 145.266 99.5965 149.164 102.424 153.874C105.251 158.585 106.817 164.134 108.85 169.359C113.103 180.215 123.454 189.473 131.492 196.917C132.544 197.892 129.81 199.327 130.277 200.789C130.721 202.196 130.488 203.739 130.231 205.201C127.684 220.415 125.09 235.737 120.043 250.085C114.995 264.433 107.214 277.887 96.1382 286.604L94.0352 274.72Z" fill="#A5A3FF"/>
<path d="M210.496 223.068C226.292 202.602 248.537 188.228 272.582 182.949C264.356 190.691 255.383 200.464 256.645 212.24C257.019 215.678 258.281 219.062 257.93 222.527C256.879 232.949 242.205 237.984 243.163 248.407C243.793 255.337 251.481 260.047 251.061 267.005C250.64 273.826 242.438 278.537 243.583 285.25C244.308 289.501 248.514 291.883 250.547 295.592C253.538 301.033 251.388 307.963 251.808 314.271C252.369 322.987 259.403 336.117 267.16 338.174C244.051 338.986 220.146 319.549 208.93 297.514C197.691 275.478 198.765 246.62 211.594 225.64L210.496 223.068Z" fill="#A5A3FF"/>
<path d="M232.321 323.15C216.174 310.968 200.378 297.541 196.172 274.395C192.2 252.576 200.098 229.998 215.637 217.004C216.454 216.3 215.66 214.703 214.819 215.407C199.35 228.347 191.101 250.302 194.186 272.229C197.691 297.189 214.305 311.807 231.503 324.747C232.391 325.397 233.185 323.8 232.321 323.15Z" fill="#2E2500"/>
<path d="M91.8857 275.207C100.531 246.891 113.523 219.495 131.399 197.567C132.1 196.701 130.978 195.374 130.254 196.268C112.191 218.466 99.0827 246.106 90.3434 274.72C89.9929 275.83 91.5352 276.317 91.8857 275.207Z" fill="#2E2500"/>
<path d="M79.8051 257.557C81.5342 257.448 83.0764 257.99 84.5018 259.127C85.343 259.804 86.1609 258.206 85.3197 257.53C83.7074 256.23 81.7913 255.58 79.8284 255.716C78.7769 255.743 78.7769 257.611 79.8051 257.557Z" fill="#2E2500"/>
<path d="M84.4082 243.723C86.2074 245.754 88.1235 247.594 90.1564 249.273C90.9976 249.977 91.7921 248.352 90.9743 247.676C89.0348 246.079 87.2356 244.319 85.5531 242.397C84.782 241.585 83.6604 242.884 84.4082 243.723Z" fill="#2E2500"/>
<path d="M108.149 205.553C110.532 206.771 112.939 207.962 115.323 209.181C116.257 209.641 117.075 208.044 116.141 207.583C113.757 206.365 111.35 205.174 108.967 203.956C108.032 203.496 107.214 205.093 108.149 205.553Z" fill="#2E2500"/>
<path d="M115.019 200.112C115.697 202.521 117.075 204.524 118.991 205.743C119.903 206.311 120.697 204.714 119.809 204.145C118.267 203.144 117.122 201.574 116.561 199.625C116.257 198.488 114.715 198.975 115.019 200.112Z" fill="#2E2500"/>
<path d="M118.594 190.881C119.599 193.831 121.211 196.241 123.407 198.109C124.249 198.812 125.043 197.215 124.225 196.511C122.403 194.941 120.977 192.83 120.159 190.393C119.762 189.283 118.197 189.771 118.594 190.881Z" fill="#2E2500"/>
<path d="M208.884 230.756C211.057 230.134 213.23 229.511 215.403 228.888C216.408 228.591 215.987 226.804 214.982 227.102C212.809 227.724 210.636 228.347 208.463 228.97C207.458 229.24 207.879 231.027 208.884 230.756Z" fill="#2E2500"/>
<path d="M205.729 240.746C208.136 240.394 210.473 240.61 212.809 241.449C213.791 241.801 214.211 240.015 213.23 239.663C210.776 238.769 208.276 238.526 205.729 238.878C204.724 239.04 204.701 240.908 205.729 240.746Z" fill="#2E2500"/>
<path d="M200.705 280.973C202.364 282.976 204.023 284.98 205.682 287.01C206.407 287.876 207.528 286.55 206.827 285.711C205.168 283.707 203.509 281.704 201.85 279.674C201.126 278.78 200.004 280.107 200.705 280.973Z" fill="#2E2500"/>
<path d="M201.126 276.263C203.323 276.723 205.519 277.183 207.715 277.67C208.72 277.887 209.164 276.1 208.136 275.884C205.94 275.424 203.743 274.963 201.547 274.476C200.542 274.259 200.098 276.046 201.126 276.263Z" fill="#2E2500"/>
<path d="M200.261 268.331C202.201 269.549 204.28 270.199 206.453 270.253C207.482 270.28 207.482 268.439 206.453 268.385C204.537 268.331 202.738 267.762 201.056 266.707C200.144 266.165 199.35 267.762 200.261 268.331Z" fill="#2E2500"/>
<path d="M-0.904449 80.7284C-0.0866076 83.9499 1.82948 86.6028 4.4232 88.1188C5.33451 88.6602 6.15236 87.063 5.24105 86.5216C2.99782 85.2222 1.36214 83.0294 0.661133 80.2411C0.333996 79.0771 -1.20822 79.5643 -0.904449 80.7284Z" fill="#2E2500"/>
<path d="M-3.66161 136.278C-1.72215 135.412 0.2173 134.573 2.15675 133.706C3.1148 133.273 2.69419 131.487 1.73615 131.92C-0.203304 132.786 -2.14276 133.625 -4.08221 134.492C-5.04025 134.898 -4.61965 136.711 -3.66161 136.278Z" fill="#A5A3FF"/>
<path d="M10.9424 129.619C12.8585 128.725 14.7979 127.832 16.714 126.939C17.6487 126.506 17.2515 124.692 16.2934 125.152C14.3773 126.045 12.4379 126.939 10.5218 127.832C9.56375 128.265 9.98435 130.052 10.9424 129.619Z" fill="#A5A3FF"/>
<path d="M23.9815 125.287C25.1965 124.746 26.4116 124.177 27.6267 123.636C28.5847 123.203 28.1641 121.416 27.2061 121.849C25.991 122.391 24.7759 122.959 23.5609 123.501C22.6028 123.907 23.0234 125.721 23.9815 125.287Z" fill="#A5A3FF"/>
<path d="M391.403 257.692C392.104 260.507 392.828 263.323 393.529 266.138C393.809 267.275 395.375 266.788 395.071 265.651C394.37 262.836 393.646 260.02 392.945 257.205C392.641 256.041 391.099 256.528 391.403 257.692Z" fill="#A5A3FF"/>
<path d="M385.491 236.658C385.982 238.634 386.472 240.583 386.94 242.559C387.22 243.696 388.762 243.209 388.482 242.072C387.991 240.096 387.5 238.147 387.033 236.171C386.753 235.007 385.211 235.494 385.491 236.658Z" fill="#A5A3FF"/>
<path d="M379.088 215.759C380.023 218.304 380.958 220.848 381.892 223.393C382.289 224.476 383.668 223.555 383.271 222.446C382.336 219.901 381.402 217.356 380.467 214.811C380.07 213.729 378.691 214.676 379.088 215.759Z" fill="#A5A3FF"/>
<path d="M180.47 144.562C181.404 130.566 171.777 120.388 169.557 107.312C167.104 92.8833 177.198 87.442 185.307 79.7268C192.994 72.4176 194.864 61.3455 195.027 50.1922C195.097 44.8592 194.209 38.6058 190.424 35.0054C187.83 32.5419 183.764 31.7839 181.077 34.491C178.717 36.8733 178.18 41.9897 181.077 44.1825C183.671 46.1316 187.223 44.5073 188.017 41.1234C188.391 39.5804 186.311 38.9307 185.961 40.4737C185.003 44.5344 180.703 41.8273 181.334 38.5517C182.082 34.6805 185.891 34.87 188.181 36.386C191.452 38.5246 192.527 43.1267 192.831 47.2144C193.251 53.2242 192.387 59.8837 191.055 65.731C188.742 75.9098 180.68 80.0516 174.254 86.3321C167.922 92.5585 165.702 100.761 167.922 110.101C170.749 121.931 179.184 131.757 178.32 144.616C178.226 146.159 180.353 146.159 180.47 144.562Z" fill="#2E2500"/>
<path d="M193.041 116.246C194.724 106.148 201.103 98.0539 209.678 95.3197C211.01 94.8866 210.449 92.5043 209.118 92.9374C199.864 95.8882 192.807 104.659 190.985 115.596C190.728 117.166 192.784 117.816 193.041 116.246Z" fill="#251404"/>
<path d="M240.406 88.9851C245.336 85.4117 250.43 81.6218 253.351 75.5849C254.987 72.2281 256.085 68.5735 257.931 65.352C259.987 61.7787 262.534 58.7467 265.408 56.0667C266.483 55.065 264.965 53.3325 263.89 54.307C259.123 58.7196 255.618 64.1338 253.071 70.5497C250.056 78.1837 245.336 82.488 239.308 86.8465C238.163 87.6857 239.238 89.8243 240.406 88.9851Z" fill="#251404"/>
<path d="M278.658 48.1077C287.42 40.2571 298.753 44.2636 308.193 47.9182C309.502 48.4326 310.063 46.0233 308.754 45.536C298.379 41.5565 286.602 37.8749 277.139 46.3752C276.04 47.3227 277.583 49.0552 278.658 48.1077Z" fill="#251404"/>
<path d="M347.52 39.066C352.73 33.2457 360.091 31.2966 366.984 33.8954C368.293 34.3827 368.853 32.0005 367.545 31.5132C359.927 28.6707 351.749 30.9176 346.001 37.3335C344.996 38.4163 346.515 40.1759 347.52 39.066Z" fill="#A5A3FF"/>
<path d="M175.516 218.601L185.33 144.075C185.33 144.075 153.504 151.763 147.896 179.375L161.145 180.783L147.242 206.69C142.148 216.192 146.003 228.753 155.14 232.381C155.303 232.435 155.444 232.516 155.607 232.57C164.557 236.062 174.09 229.403 175.516 218.601Z" fill="#EBEBFF"/>
<path d="M190.494 177.941C187.199 180.106 183.017 178.753 181.147 174.936C179.278 171.119 180.446 166.273 183.741 164.107C187.036 161.942 191.218 163.295 193.088 167.112C194.934 170.929 193.789 175.775 190.494 177.941Z" fill="#EBEBFF"/>
<path d="M184.138 172.445C186.615 171.904 189.092 171.389 191.569 170.902C192.574 170.713 192.153 168.926 191.148 169.115C188.671 169.603 186.194 170.117 183.717 170.659C182.713 170.875 183.133 172.662 184.138 172.445Z" fill="#2E2500"/>
<path d="M161.122 180.783L148.036 205.228L170.959 181.027L161.122 180.783Z" fill="#2E2500"/>
<path d="M157.103 165.136C157.103 165.136 165.678 167.735 172.899 168.385C172.899 168.385 159.439 176.912 152.172 173.799L157.103 165.136Z" fill="white"/>
<path d="M169.697 150.274C165.468 151.979 161.168 154.118 157.313 156.744C156.822 157.069 156.752 158.043 157.313 158.341C158.902 159.235 160.467 160.101 162.056 160.994C162.991 161.508 163.785 159.911 162.874 159.397C161.285 158.504 159.72 157.637 158.131 156.744C158.131 157.285 158.131 157.8 158.131 158.341C161.869 155.796 166.029 153.739 170.118 152.061C171.099 151.682 170.679 149.895 169.697 150.274Z" fill="#2E2500"/>
<path d="M172.502 160.859C174.348 159.424 177.689 161.319 178.601 163.376C179.068 164.432 180.446 163.512 179.979 162.429C178.671 159.505 174.231 157.231 171.684 159.235C170.843 159.911 171.661 161.536 172.502 160.859Z" fill="#2E2500"/>
</svg>
