<svg width="402" height="505" viewBox="0 0 402 505" fill="none" xmlns="http://www.w3.org/2000/svg">
<rect x="-292" width="960" height="960" rx="480" fill="#A5A3FF"/>
<path d="M201.799 84.0218C198.725 72.438 187.878 64.5122 176.927 59.1946C171.124 56.3833 164.94 53.9785 158.48 53.9446C152.021 53.8769 145.215 56.5865 141.865 62.0058C139.896 56.5865 132.779 54.5204 127.045 55.7397C118.962 57.4333 112.087 63.1913 104.487 66.2397C95.8514 69.6945 86.8353 71.9638 78.2682 75.6218C16.6755 102.007 -23.2579 178.893 23.308 230.241C41.4439 250.259 75.0211 261.165 100.757 265.806C122.969 269.802 117.891 275.086 139.446 273.325C161.037 271.53 181.694 262.148 192.403 248.193C197.239 241.893 199.899 234.509 201.212 226.854C201.972 222.35 202.283 217.642 200.728 212.967C196.652 200.435 182.213 188.276 166.598 183.635C157.306 180.892 147.599 177.776 137.754 177.945C128.807 178.081 99.0985 183.94 94.7459 172.763C90.5315 161.924 112.122 147.732 118.582 141.5C135.992 124.802 175.2 110.678 166.011 105.665L201.799 84.0218Z" fill="#CECDFF"/>
<path d="M166.045 172.661C153.333 172.39 140.379 171.95 128.461 167.547C116.543 163.177 105.627 154.134 102.207 141.873C97.4402 124.7 108.391 106.986 121.621 95.0634C139.515 78.8732 161.9 68.6781 183.905 58.754C213.855 45.2058 243.805 31.6575 273.755 18.1431C284.015 13.5028 295.483 8.76092 306.227 12.148C318.732 16.1109 325.744 30.4381 324.984 43.5461C324.259 56.654 317.419 68.6443 309.785 79.3135C282.011 118.333 240.765 147.495 194.752 160.705L166.045 172.661Z" fill="#5655E6"/>
<path d="M175.546 140.788C165.769 136.995 159.482 128.663 159.31 119.89C159.241 116.74 159.897 113.59 161.106 110.542C165.217 99.9403 176.029 90.7613 189.225 86.8323C202.456 82.9033 217.724 84.3598 228.433 90.7613C234.375 94.3178 238.969 99.229 245.498 102.108C255.55 106.579 268.332 105.495 280.043 103.497C299.111 100.245 318.007 94.8258 337.248 94.7919C356.489 94.7919 377.009 101.973 382.363 116.232C383.261 118.637 383.71 121.245 383.089 123.819C382.363 126.664 380.325 129.306 379.807 132.185C378.771 137.672 383.503 142.719 389.479 145.225C395.456 147.766 402.537 148.341 409.411 149.087C422.815 150.577 436.287 152.948 447.652 158.401C459.017 163.854 468.137 172.762 469.692 183.364C471.281 193.965 463.923 206.023 451.072 210.359C439.845 214.152 427.202 211.612 416.735 207.581C408.617 204.431 400.948 200.333 391.967 198.91C382.985 197.488 371.931 199.622 367.129 206.091C361.36 213.915 366.922 224.517 360.22 231.9C357.215 235.186 352.344 237.116 347.508 238.37C318.318 246.058 287.297 234.678 266.881 218.081C259.419 212.018 252.545 205.075 242.527 201.823C232.82 198.673 221.593 199.52 210.954 198.673C199.554 197.759 188.569 194.778 179.104 190.07C169.742 185.396 185.218 182.517 185.253 173.541C185.287 167.004 183.249 162.398 187.567 156.606L175.546 140.788Z" fill="#222159"/>
<path d="M229.919 192.713C216.032 189.63 199.485 186.921 187.014 185.092C182.973 184.516 178.862 183.974 174.751 183.805C145.147 212.256 99.7896 249.378 127.736 287.246C138.479 301.675 159.759 289.888 169.328 275.323C187.533 246.127 202.214 214.796 229.919 192.713Z" fill="#7C7AFF"/>
<path d="M198.863 285.891C198.621 299.405 211.334 312.208 227.224 309.905C237.968 308.72 246.984 302.521 253.927 294.663C256.863 279.117 259.972 263.604 262.011 248.057C264.256 230.749 269.576 210.495 254.722 200.808C251.854 198.945 248.642 197.624 245.36 196.574C233.546 206.938 223.424 219.233 214.512 232.951C203.941 248.362 198.656 266.889 198.863 285.891Z" fill="#C2C1FF"/>
<path d="M259.005 449.181C256.379 440.307 221.835 401.932 217.033 394.006C188.88 347.231 245.809 337.747 253.927 294.663C246.983 302.521 238.002 308.686 227.224 309.905C211.368 312.208 198.621 299.405 198.863 285.891C198.656 266.889 203.941 248.362 214.477 232.985C223.424 219.301 233.546 206.972 245.325 196.608C243.425 195.998 241.491 195.49 239.591 194.982C236.585 194.203 233.338 193.424 229.918 192.713C202.214 214.796 187.532 246.127 169.327 275.323C159.793 289.888 138.479 301.675 127.736 287.246C99.7548 249.378 145.112 212.256 174.751 183.805C170.191 183.601 168.913 183.838 164.491 184.888C151.261 188.038 138.03 203.212 118.996 223.061C106.18 236.44 103.209 243.281 91.6024 257.677C58.1979 299.202 99.893 325.215 99.893 325.215C93.9514 377.68 68.2848 407.995 66.6958 419.24C75.3319 464.118 85.6262 503.34 125.94 527.931C124.869 501.579 146.77 477.429 166.115 458.462C188.707 435.26 227.431 432.11 254.341 447.928C256.103 449.046 257.865 450.13 259.627 451.214C259.419 450.57 259.177 449.893 259.005 449.181Z" fill="#7C7AFF"/>
<path d="M151.261 449.757C138.307 461.612 115.162 471.536 123.936 507.913C83.2773 473.738 75.3321 464.118 66.7305 419.24C64.2433 436.819 19.1628 502.663 58.958 605.901L270.37 640.381C293.031 594.622 295.311 498.192 259.627 451.248C257.865 450.164 256.103 449.046 254.341 447.962C227.466 432.144 187.982 416.158 151.261 449.757Z" fill="#7C7AFF"/>
<path d="M201.558 282.91C207.948 244.569 226.084 200.232 266.329 190.647C277.21 188.038 288.61 188.648 299.595 190.68C349.373 199.792 392.519 238.98 409.619 288.702C413.315 299.473 415.906 310.786 416.113 322.268C416.321 335.037 413.592 347.739 409.17 359.661C404.403 372.498 397.736 384.556 389.41 395.259C379.22 408.367 366.68 419.307 353.933 429.672C339.597 441.289 324.432 452.467 307.057 457.683C289.681 462.899 269.472 461.205 255.758 449.012C247.571 441.73 248.02 428.588 241.595 419.578C235.135 410.569 230.817 399.899 210.47 401.356C202.56 401.932 194.303 407.656 186.496 408.977C182.8 409.62 180.106 405.454 182.04 402.101C185.944 395.293 193.405 390.517 200.901 388.113C208.259 385.775 216.308 386.283 224.012 385.403C227.466 384.996 227.604 379.746 224.15 379.306C218.726 378.629 212.232 380.017 209.261 380.187C197.171 380.864 186.807 386.08 174.924 389.569C172.195 390.382 169.155 389.162 167.877 386.521C165.701 382.117 170.122 378.561 173.922 376.732C187.049 370.364 205.669 363.997 222.906 363.827C224.944 363.793 225.912 361.253 225.393 359.424C224.668 356.951 219.659 357.561 217.828 357.29C211.23 356.308 203.872 356.85 197.343 358.306C190.469 359.83 183.456 362.201 176.548 362.811C171.78 363.251 169.535 356.816 173.404 353.835C181.28 347.739 191.989 345.131 201.903 343.369C213.027 341.405 224.461 339.779 235.446 342.319C246.431 344.86 256.967 352.277 260.525 363.455C275.863 352.379 292.444 340.66 304.293 325.621C305.537 324.029 306.849 322.268 306.953 320.202C307.091 317.763 303.291 312.005 301.771 310.176C280.077 283.621 240.973 276.17 210.056 289.82L201.558 282.91Z" fill="#CECDFF"/>
<path d="M266.743 192.137C297.798 185.261 332.308 199.52 356.593 217.98C380.429 236.135 398.323 261.165 408.099 289.075C408.755 290.937 411.795 290.158 411.139 288.262C401.017 259.37 382.536 233.594 357.767 214.966C332.792 196.201 297.695 182.145 265.914 189.156C263.91 189.562 264.774 192.577 266.743 192.137Z" fill="#2E2500"/>
<path d="M164.319 196.608L180.555 106.105C180.555 106.105 223.113 128.46 221.11 164.058L201.73 160.332C201.73 160.332 206.67 177.539 211.506 194.44C216.032 210.258 202.905 225.601 186.22 224.043C186.013 224.009 185.771 224.009 185.563 223.975C171.677 222.621 161.901 210.055 164.319 196.608Z" fill="#CECDFF"/>
<path d="M160.899 144.82C164.802 148.783 171.262 148.884 175.304 145.057C179.345 141.23 179.449 134.896 175.545 130.933C171.642 126.97 165.182 126.868 161.14 130.696C157.099 134.523 156.995 140.857 160.899 144.82Z" fill="#CECDFF"/>
<path d="M173.369 138.486C170.053 136.826 166.702 135.167 163.351 133.575C161.52 132.694 159.931 135.37 161.762 136.251C165.113 137.843 168.464 139.502 171.78 141.162C173.576 142.043 175.2 139.367 173.369 138.486Z" fill="#2E2500"/>
<path d="M201.73 160.332L211.506 195.185L187.636 156.573L201.73 160.332Z" fill="#2E2500"/>
<path d="M213.13 143.092C213.13 143.092 199.969 142.72 189.433 140.484C189.433 140.484 205.496 156.302 216.999 155.523L213.13 143.092Z" fill="white"/>
<path d="M213.13 141.534C205.323 141.297 197.516 140.518 189.847 138.994C188.362 138.689 187.118 140.45 188.293 141.568C195.582 148.681 206.118 157.318 216.965 157.081C219.003 157.047 219.003 153.931 216.965 153.999C207.05 154.236 197.171 145.904 190.538 139.4C190.02 140.247 189.502 141.128 188.984 141.975C196.894 143.566 205.012 144.379 213.096 144.616C215.168 144.718 215.168 141.602 213.13 141.534Z" fill="#3A3899"/>
<path d="M199.105 122.364C204.286 126.022 209.468 130.255 213.855 134.794C214.097 133.947 214.304 133.067 214.546 132.22C211.99 132.626 209.399 133.033 206.842 133.473C204.839 133.812 205.703 136.792 207.672 136.454C210.228 136.047 212.819 135.641 215.375 135.201C216.619 134.997 216.826 133.372 216.066 132.626C211.506 127.851 206.117 123.515 200.694 119.688C199.07 118.502 197.481 121.212 199.105 122.364Z" fill="#2E2500"/>
<path d="M151.744 84.055C139.17 39.4474 189.087 31.4539 209.779 56.5521L151.744 84.055Z" fill="#5655E6"/>
<path d="M155.717 73.7591C169.742 66.8494 184.354 61.2947 199.485 57.0608C201.454 56.5189 200.59 53.5383 198.656 54.0802C183.283 58.3479 168.429 64.0382 154.128 71.0833C152.297 71.9639 153.886 74.6397 155.717 73.7591Z" fill="#2E2500"/>
<path d="M111.5 327.992C120.033 330.838 128.738 331.921 137.719 331.21C139.723 331.041 139.758 327.959 137.719 328.128C129.014 328.805 120.585 327.789 112.329 325.012C110.395 324.368 109.6 327.349 111.5 327.992Z" fill="#2E2500"/>
<path d="M154.75 197.556C153.126 206.904 156.132 216.083 163.144 222.62C164.63 223.975 166.875 221.807 165.39 220.419C159.206 214.661 156.339 206.633 157.79 198.369C158.135 196.438 155.095 195.592 154.75 197.556Z" fill="#2E2500"/>
<path d="M172.851 229.293C185.011 237.93 202.663 235.999 212.646 225.025C213.994 223.535 211.783 221.333 210.401 222.823C201.281 232.883 185.529 234.509 174.44 226.617C172.817 225.431 171.228 228.141 172.851 229.293Z" fill="#2E2500"/>
<path d="M140.345 399.73C131.121 397.224 121.311 395.225 111.811 397.563C106.526 398.884 95.2986 403.592 95.4368 410.298C95.575 416.97 109.116 416.801 113.434 416.225C123.245 414.87 131.501 409.214 139.377 403.727C141.035 402.575 139.446 399.9 137.788 401.051C132.054 405.048 126.216 409.214 119.514 411.551C116.509 412.601 113.331 413.312 110.118 413.414C108.046 413.482 105.973 413.346 103.969 412.872C103.451 412.737 102.898 412.601 102.38 412.432C99.824 412.398 99.0294 411.382 100.031 409.383C100.653 402.88 112.433 400.137 117.822 399.73C125.18 399.154 132.468 400.814 139.516 402.745C141.485 403.219 142.314 400.238 140.345 399.73Z" fill="#B4C48D"/>
<path d="M193.681 112.541C201.316 95.6396 213.372 79.0768 232.095 73.1156C250.887 67.1205 269.265 74.9446 285.673 83.751C304.396 93.7767 322.601 103.769 344.675 102.651C354.969 102.109 365.16 99.6363 374.383 95.1654C380.705 92.0831 392.416 86.1558 391.552 77.6881C390.619 68.4753 376.421 69.4575 370.169 71.7269C367.371 72.743 364.711 74.7752 365.056 77.9929C365.402 81.109 368.165 82.9042 371.171 82.2606C373.14 81.8203 372.311 78.8397 370.342 79.28C370.238 77.9252 370.134 76.5365 370.031 75.1817C370.86 74.9107 371.689 74.6059 372.483 74.3349C373.796 73.9962 375.212 73.8268 376.56 73.6914C378.736 73.4543 381.223 73.251 383.399 73.7591C393.936 76.1978 384.505 85.6138 379.91 88.5606C372.173 93.5734 363.329 96.8928 354.244 98.5186C334.519 102.075 316.59 96.7573 299.318 87.6461C284.844 80.0252 270.474 70.7785 253.858 68.4414C243.045 66.9172 232.233 68.7124 222.595 73.8268C207.603 81.7526 197.654 96.1137 190.918 111.051C190.123 112.778 192.852 114.37 193.681 112.541Z" fill="#2E2500"/>
<path d="M197.205 121.651C198.621 127.206 192.576 133.506 183.698 135.674C174.82 137.842 166.46 135.098 165.044 129.543C163.628 123.989 169.673 117.689 178.551 115.521C187.429 113.319 195.789 116.063 197.205 121.651Z" fill="#2E2500"/>
<path d="M195.443 122.126C197.447 133.743 169.777 140.45 166.84 129.069C163.87 117.723 191.609 110.982 195.443 122.126C196.203 124.327 199.761 123.379 199.001 121.177C193.647 105.563 159.033 113.997 163.282 130.051C167.566 146.106 201.799 137.435 199.001 121.177C198.587 118.874 195.029 119.856 195.443 122.126Z" fill="white"/>
<path d="M238.071 111.592C239.488 117.147 233.442 123.446 224.564 125.614C215.686 127.782 207.327 125.038 205.91 119.484C204.494 113.929 210.539 107.629 219.417 105.461C228.295 103.293 236.655 106.037 238.071 111.592Z" fill="#2E2500"/>
<path d="M236.309 112.066C238.313 123.684 210.643 130.39 207.707 119.01C204.736 107.663 232.475 100.923 236.309 112.066C237.069 114.268 240.627 113.319 239.867 111.118C234.513 95.5034 199.9 103.937 204.149 119.992C208.432 136.047 242.666 127.376 239.867 111.118C239.453 108.815 235.895 109.797 236.309 112.066Z" fill="white"/>
<path d="M199.14 124.294C201.351 123.718 203.562 123.142 205.738 122.566C208.018 121.957 207.051 118.468 204.771 119.078C202.56 119.653 200.349 120.229 198.173 120.805C195.858 121.415 196.825 124.903 199.14 124.294Z" fill="white"/>
<path d="M99.8932 344.318C85.0391 382.422 60.5126 419.579 42.7222 439.901C24.9318 460.223 5.44871 482.984 6.41596 509.81C13.6012 499.513 29.3535 500.326 41.2713 504.628C53.1546 508.929 65.2106 515.67 77.6812 513.434C84.4519 512.215 90.6008 508.421 97.4406 507.541C112.157 505.678 126.596 517.702 140.932 513.874C149.395 511.605 156.132 504.086 164.906 503.747C174.026 503.408 181.556 510.995 190.538 512.418C206.394 514.924 221.835 497.989 236.827 503.612C242.078 505.576 246.258 510.183 251.82 511.063C261.838 512.621 269.092 501.952 278.523 498.26C292.444 492.739 310.442 502.9 322.429 493.958C310.234 494.094 299.837 484.847 293.688 474.483C287.539 464.085 280.906 451.857 274.412 441.628C253.996 409.35 209.296 377.681 182.834 412.974L99.8932 344.318Z" fill="#7C7AFF"/>
<path d="M76.3687 130.763C88.9083 129.171 99.2025 119.925 101.413 107.63C101.759 105.665 98.7189 104.852 98.3735 106.817C96.4044 117.622 87.5611 126.259 76.3687 127.681C74.3996 127.918 74.3651 131.034 76.3687 130.763Z" fill="#2E2500"/>
<path d="M141.381 63.0215C144.87 65.0876 147.53 68.136 149.015 71.8618C149.741 73.6908 152.815 72.9118 152.055 71.0489C150.293 66.5441 147.184 62.8522 142.97 60.3457C141.243 59.2957 139.654 61.9715 141.381 63.0215Z" fill="#2E2500"/>
<path d="M122.692 74.5376C125.525 77.3827 128.392 80.194 131.225 83.0391C132.641 84.4617 134.887 82.2601 133.47 80.8375C130.638 77.9924 127.77 75.1811 124.938 72.336C123.487 70.9134 121.241 73.115 122.692 74.5376Z" fill="#2E2500"/>
<path d="M67.145 144.142C67.2141 142.076 67.9396 140.281 69.1832 138.621C70.3922 137.03 67.6632 135.472 66.4542 137.063C64.8997 139.13 64.0706 141.568 64.0015 144.142C63.8979 146.141 67.076 146.141 67.145 144.142Z" fill="#2E2500"/>
<path d="M72.2577 146.987C73.7431 144.548 75.2631 142.143 76.7485 139.705C77.8194 138.011 75.0558 136.453 74.0195 138.147C72.5341 140.585 71.0141 142.99 69.5287 145.429C68.4924 147.122 71.2214 148.68 72.2577 146.987Z" fill="#2E2500"/>
<path d="M247.329 46.8662C258.59 50.8629 269.437 55.7065 279.939 61.329C281.735 62.2774 283.324 59.6016 281.528 58.6532C270.784 52.8952 259.661 47.9839 248.158 43.8856C246.258 43.2082 245.429 46.1888 247.329 46.8662Z" fill="#FFEBC2"/>
<path d="M256.517 36.6032C269.298 42.8015 282.114 48.9999 294.896 55.2321C296.727 56.1127 298.316 53.4369 296.485 52.5563C283.703 46.358 270.887 40.1596 258.106 33.9274C256.31 33.0468 254.686 35.7226 256.517 36.6032Z" fill="#FFEBC2"/>
<path d="M272.995 31.5566C283.427 35.8243 293.342 41.1081 302.738 47.3403C304.43 48.458 306.019 45.7822 304.327 44.6645C294.689 38.2968 284.533 32.9453 273.824 28.5759C271.959 27.7969 271.129 30.7775 272.995 31.5566Z" fill="#FFEBC2"/>
<path d="M238.382 58.6188C256.863 49.6769 275.828 41.785 295.242 34.977C297.142 34.2996 296.313 31.319 294.413 31.9964C274.757 38.906 255.516 46.8995 236.792 55.943C234.962 56.8236 236.551 59.4994 238.382 58.6188Z" fill="#FFEBC2"/>
<path d="M264.463 66.4772C280.18 54.7918 297.003 44.8339 314.863 36.6372C316.694 35.7904 315.105 33.1146 313.274 33.9614C295.414 42.1581 278.591 52.1161 262.874 63.8014C261.284 64.9869 262.839 67.6627 264.463 66.4772Z" fill="#FFEBC2"/>
<path d="M119.411 136.758C125.802 131.068 132.193 125.378 138.583 119.654C140.103 118.299 137.858 116.131 136.338 117.452C129.947 123.142 123.556 128.833 117.166 134.557C115.68 135.912 117.926 138.113 119.411 136.758Z" fill="#FFEBC2"/>
<path d="M123.487 146.005C130.707 138.655 138.341 131.712 146.39 125.209C147.944 123.955 145.699 121.754 144.145 123.007C136.096 129.51 128.461 136.454 121.242 143.804C119.825 145.26 122.071 147.462 123.487 146.005Z" fill="#FFEBC2"/>
<path d="M110.948 127.884C123.453 133.981 136.096 139.773 148.843 145.294C150.674 146.107 152.297 143.431 150.432 142.618C137.65 137.097 125.042 131.305 112.537 125.208C110.74 124.328 109.117 126.97 110.948 127.884Z" fill="#FFEBC2"/>
<path d="M125.422 120.569C133.16 122.635 140.207 125.988 146.701 130.628C148.359 131.814 149.914 129.104 148.29 127.952C141.589 123.177 134.231 119.722 126.251 117.588C124.282 117.046 123.453 120.027 125.422 120.569Z" fill="#FFEBC2"/>
<path d="M151.71 418.291C149.396 410.738 143.627 404.235 136.303 400.916C128.98 397.596 120.206 397.495 112.813 400.679C122.278 411.653 137.201 417.919 151.814 417.038L151.71 418.291Z" fill="#6260FF"/>
<path d="M141.692 432.687C133.747 426.15 121.656 428.283 112.157 432.348C107.148 434.482 101.621 438.241 101.966 443.593C107.942 446.065 114.851 445.422 120.931 443.22C127.011 441.019 132.4 437.361 137.72 433.737C132.089 442.137 133.022 454.194 139.861 461.68C146.045 453.788 146.77 442.17 141.623 433.601L141.692 432.687Z" fill="#B4C48D"/>
<path d="M242.216 274.713C236.758 271.563 234.306 264.857 234.547 258.659C234.789 252.46 237.311 246.601 239.764 240.876C247.916 249.141 249.229 263.028 242.804 272.647L242.216 274.713Z" fill="#4D4BCC"/>
<path d="M287.746 393.363C294.033 395.463 298.282 389.739 300.769 385.031C301.702 383.269 298.973 381.711 298.04 383.473C296.21 386.927 293.377 392.008 288.575 390.382C286.675 389.739 285.846 392.719 287.746 393.363Z" fill="#2E2500"/>
<path d="M294.448 365.284C300.389 368.976 307.54 365.284 308.369 358.612C308.611 356.647 305.467 356.647 305.191 358.612C304.638 363.082 299.699 364.911 296.002 362.608C294.344 361.558 292.755 364.234 294.448 365.284Z" fill="#2E2500"/>
<path d="M303.567 414.262C309.44 414.601 314.034 409.046 313.067 403.525C312.722 401.56 309.682 402.407 310.027 404.338C310.683 407.996 307.229 411.349 303.602 411.146C301.529 411.044 301.529 414.126 303.567 414.262Z" fill="#2E2500"/>
<path d="M368.442 368.231C369.202 370.229 369.478 372.295 369.133 374.395C368.822 376.36 371.862 377.173 372.173 375.208C372.622 372.532 372.449 369.924 371.482 367.384C370.757 365.555 367.717 366.368 368.442 368.231Z" fill="white"/>
<path d="M369.098 386.996C369.928 389.908 370.1 392.855 369.547 395.836C369.202 397.8 372.242 398.613 372.587 396.649C373.244 393.126 373.14 389.604 372.138 386.149C371.62 384.252 368.546 385.065 369.098 386.996Z" fill="white"/>
<path d="M371.171 412.33C371.344 415.65 371.516 418.969 371.689 422.288C371.793 424.287 374.971 424.287 374.867 422.288C374.694 418.969 374.522 415.65 374.349 412.33C374.211 410.366 371.067 410.332 371.171 412.33Z" fill="white"/>
<path d="M361.015 437.293C365.333 452.196 371.033 468.725 387.372 474.348C389.307 475.025 390.136 472.011 388.201 471.367C373.036 466.151 367.993 450.164 364.02 436.48C363.502 434.55 360.427 435.363 361.015 437.293Z" fill="#2E2500"/>
<path d="M207.154 331.447C199.139 319.66 196.48 304.52 200.038 290.803C200.452 289.244 201.074 287.517 202.525 286.772C203.976 286.061 205.703 286.535 207.223 287.144C214.788 290.057 221.593 294.867 226.775 301.031C225.981 295.002 229.746 288.669 235.515 286.399C241.284 284.13 248.469 286.162 252.131 291.073C252.994 285.925 257.623 281.624 262.909 281.048C268.194 280.472 273.686 283.69 275.655 288.533C282.806 272.953 300.113 262.419 317.523 263.029C318.629 269.193 317.661 275.696 314.794 281.285C319.665 279.185 323.983 275.798 327.092 271.564C329.199 279.761 330.616 288.127 331.272 296.561C336.661 292.225 342.395 287.72 349.27 286.501C356.144 285.282 364.4 288.635 365.989 295.307C367.751 302.623 361.153 309.093 355.211 313.868C357.18 312.243 359.598 311.125 362.12 310.651C367.716 313.835 368.787 322.573 364.124 326.976C367.82 324.605 372.518 322.844 376.629 324.436C380.74 326.062 382.536 332.463 378.771 334.767C386.37 324.267 405.992 329.551 409.481 341.981C412.935 354.412 402.537 367.723 389.721 370.67C396.837 366.673 407.339 372.024 408.064 380.052C408.79 388.045 399.394 395.158 391.656 392.415C405.024 402 414.87 416.259 418.946 431.975C409.515 427.505 399.325 424.592 388.927 423.338C392.243 433.161 399.255 441.764 408.341 447.116C399.048 446.675 389.79 446.235 380.498 445.795C385.921 460.799 385.092 477.87 378.218 492.299C370.1 484.983 363.606 475.973 359.357 466.016C363.018 478.683 357.906 493.349 347.093 501.139C343.017 492.435 338.941 483.764 334.83 475.059C332.792 482.714 322.498 486.88 315.52 482.883C317.972 488.099 311.478 493.925 305.64 493.315C299.802 492.672 295.277 488.167 291.442 483.798C290.51 490.03 284.188 494.975 277.797 494.535C271.406 494.06 265.879 488.235 265.914 481.935C253.927 491.317 237.829 495.449 222.664 493.044C223.01 482.477 227.086 472.078 233.995 463.983C229.331 471.333 217.724 474.111 211.126 468.319C204.528 462.561 207.672 449.351 216.481 448.369C210.159 450.266 202.801 451.35 197.343 447.691C191.885 444.033 191.574 433.94 197.93 432.179C192.576 435.464 184.562 433.229 181.764 427.674C178.966 422.119 182.04 414.532 187.947 412.364C171.469 411.856 156.408 398.477 154.301 382.457C164.008 380.153 173.749 377.85 183.456 375.547C178.206 377.342 172.678 370.703 174.855 365.724C177.066 360.712 184.7 359.492 188.983 362.981C177.238 351.499 173.162 333.141 178.966 317.933C190.192 319.559 200.832 324.707 208.985 332.463L207.154 331.447Z" fill="#6260FF"/>
<path d="M195.927 427.302C208.087 421.645 220.039 415.616 231.819 409.249C233.615 408.3 231.991 405.624 230.23 406.573C218.45 412.941 206.498 418.969 194.338 424.626C192.507 425.507 194.096 428.148 195.927 427.302Z" fill="#2E2500"/>
<path d="M224.461 346.248C218.83 358.645 221.628 373.175 231.715 382.524C232.233 382.998 233.028 383.133 233.615 382.761C246.258 375.072 255.378 363.251 259.351 349.195C259.903 347.264 256.864 346.452 256.311 348.382C252.545 361.659 243.978 372.837 232.026 380.085C232.648 380.153 233.304 380.254 233.926 380.322C224.944 372.024 222.077 358.916 227.155 347.806C228.019 346.011 225.29 344.453 224.461 346.248Z" fill="#2E2500"/>
<path d="M278.454 354.208C229.919 337.916 188.742 345.029 162.488 358.137C184.838 368.027 208.501 375.241 232.717 379.611C204.701 386.182 179.138 400.746 160.381 420.865C154.577 427.097 149.223 434.21 147.91 442.407C182.731 441.221 217.068 433.33 248.124 419.341C232.613 438.478 228.122 464.897 236.413 487.997C259.04 474.211 277.452 454.634 289.093 431.941C287.712 439.833 292.617 447.623 298.317 453.754C311.893 468.284 331.514 477.903 351.999 480.037C355.522 459.918 347.888 438.139 332.136 423.439C345.85 435.633 361.119 448.504 379.876 450.231C377.147 433.194 361.775 418.291 343.466 414.972C374.453 421.373 407.166 426.826 437.082 418.088C433.282 408.977 423.091 403.625 413.35 399.865C388.27 390.178 360.911 385.877 334.07 387.435C345.574 382.083 358.459 379.746 370.446 375.343C382.432 370.94 394.143 363.725 398.634 352.548C398.945 351.803 399.187 350.99 398.979 350.211C398.668 349.059 397.39 348.348 396.216 347.806C370.964 336.087 339.01 338.458 316.763 353.733C313.378 331.616 294.862 311.835 271.648 305.468C270.301 317.119 270.301 317.119 268.988 328.771C268.367 334.326 273.445 350.888 278.454 354.208Z" fill="#7C7AFF"/>
<path d="M229.263 317.187C213.407 313.631 195.72 319.965 185.944 332.666C200.66 339.102 218.45 338.323 232.475 330.6C222.906 344.216 223.943 364.098 234.859 376.698C242.804 371.143 250.646 365.08 256.138 357.155C261.631 349.229 264.498 339.068 261.631 329.889C275.656 325.384 285.57 310.853 284.43 296.425C269.645 294.46 254.1 303.876 249.333 317.729L229.263 317.187Z" fill="#7C7AFF"/>
<path d="M321.289 306.349C317.834 304.147 315.002 301.065 313.067 297.509C306.918 286.196 311.133 271.53 320.011 262.114C329.683 269.599 334.796 282.402 332.896 294.325C334.312 288.804 338.25 284.096 342.983 280.777C347.715 277.457 353.277 275.425 358.873 273.833C358.182 290.667 343.57 305.909 326.436 307.568L321.289 306.349Z" fill="#7C7AFF"/>
<path d="M395.939 346.587C396.388 338.932 400.05 331.481 405.819 326.299C411.622 321.116 419.499 318.271 427.34 318.542C426.96 324.537 423.229 329.957 418.497 333.784C413.764 337.611 408.064 340.084 402.434 342.523C412.624 341.371 423.126 343.031 432.384 347.298C429.482 350.719 424.957 352.481 420.466 352.955C415.975 353.463 411.45 352.819 406.959 352.21C403.228 351.702 399.497 351.16 395.767 350.652L395.939 346.587Z" fill="#B4C48D"/>
<path d="M188.603 389.637C182.178 385.302 174.751 381.948 166.944 381.779C159.137 381.576 150.95 384.997 147.012 391.602C153.022 396.547 160.899 399.731 168.706 398.918C176.098 398.139 182.696 393.905 188.154 388.926L188.603 389.637Z" fill="#6260FF"/>
<path d="M280.561 360.271C273.065 354.513 262.01 356.748 253.72 361.321C250.749 362.947 247.951 364.843 245.567 367.214C238.935 373.853 236.413 384.15 239.28 392.99C242.147 401.83 250.231 408.875 259.523 410.569C269.956 412.465 280.595 408.028 289.197 401.932C293.273 399.053 297.108 395.733 299.837 391.601C304.224 385.03 305.536 376.359 302.497 369.111C299.457 361.863 291.788 356.443 283.773 356.714C280.699 356.816 277.106 358.272 276.657 361.253L280.561 360.271Z" fill="#EBEBFF"/>
<path d="M315.174 295.917C305.778 295.138 295.553 298.322 290.233 305.909C284.257 314.41 285.984 326.739 292.859 334.563C299.733 342.387 310.753 345.91 321.289 345.503C327.576 345.266 334.001 343.607 338.734 339.576C341.601 337.103 343.674 333.92 345.539 330.668C349.408 323.962 352.724 316.341 351.308 308.788C349.822 300.862 342.914 294.393 334.899 292.597C326.885 290.802 318.145 293.444 312.065 298.863C312.445 298.626 312.825 298.389 313.205 298.152L315.174 295.917Z" fill="#EBEBFF"/>
<path d="M229.089 297.305C225.704 296.018 221.732 296.797 218.657 298.694C215.583 300.591 213.268 303.504 211.368 306.552C209.434 309.668 207.845 313.089 207.672 316.747C207.43 322.031 210.297 327.145 214.408 330.566C223.355 337.984 236.966 337.578 247.571 332.666C250.127 331.481 252.614 330.024 254.721 328.162C259.247 324.131 261.803 318.068 261.527 312.107C261.25 306.146 258.107 300.354 253.236 296.73C250.542 294.731 247.363 293.41 244.047 292.699C237.622 291.344 229.539 293.275 227.259 299.338L229.089 297.305Z" fill="white"/>
<path d="M395.352 340.457C385.576 335.613 372.035 340.863 368.304 350.956C365.989 357.222 367.302 364.606 371.378 369.924C375.489 375.242 382.156 378.493 388.962 378.798C399.498 379.238 410.034 372.159 412.866 362.201C415.664 352.244 409.999 340.524 400.119 336.866L395.352 340.457Z" fill="#EBEBFF"/>
<path d="M333.483 370.432C329.061 369.382 324.916 372.803 321.876 376.122C320.183 377.985 318.525 379.916 317.385 382.117C313.309 390.009 317.074 400.611 324.881 405.082C332.689 409.553 343.294 407.961 350.03 402.067C356.697 396.241 359.53 386.216 355.971 378.188C352.448 370.161 342.292 365.25 333.898 368.197L333.483 370.432Z" fill="#EBEBFF"/>
<path d="M278.419 402.44C271.786 406.606 267.468 414.159 267.365 421.916C267.33 424.93 267.917 428.046 269.61 430.587C271.061 432.72 273.203 434.346 275.448 435.633C283.635 440.274 294.413 440.849 302.531 436.04C310.649 431.23 315.174 420.798 311.996 412.059C308.818 403.321 297.522 398.003 288.955 402L278.419 402.44Z" fill="#EBEBFF"/>
<path d="M199.001 377.409C194.994 375.411 190.365 378.391 187.015 381.304C184.907 383.133 182.8 385.098 181.695 387.604C179 393.87 183.491 400.882 188.534 405.522C190.054 406.911 191.678 408.265 193.613 409.044C198.552 411.043 204.425 408.841 208.294 405.217C213.579 400.272 216.101 392.278 213.441 385.606C210.816 378.933 202.49 374.632 195.685 377.172L199.001 377.409Z" fill="#EBEBFF"/>
<path d="M385.127 410.603C381.12 408.604 376.491 411.585 373.14 414.498C371.033 416.327 368.926 418.291 367.82 420.798C365.126 427.064 369.616 434.075 374.66 438.715C376.18 440.104 377.804 441.459 379.738 442.238C384.678 444.236 390.55 442.035 394.419 438.41C399.705 433.465 402.226 425.472 399.567 418.799C396.941 412.127 388.616 407.825 381.811 410.365L385.127 410.603Z" fill="white"/>
<path d="M274.412 358.679C263.289 363.218 252.822 375.648 256.449 388.214C259.869 400.001 275.345 399.73 282.634 391.635C286.33 387.503 287.435 381.169 283.981 376.529C280.941 372.431 274.896 370.873 270.37 373.515C266.812 375.615 263.911 381.373 267.538 384.76C270.301 387.334 274.965 386.013 275.759 382.389C276.174 380.458 273.134 379.611 272.719 381.576C268.954 380.898 268.263 379.645 270.612 377.85C271.165 376.461 272.201 375.75 273.652 375.716C276.036 374.937 278.73 375.581 280.561 377.342C284.257 380.864 283.186 386.589 279.939 389.908C275.759 394.209 267.641 396.445 262.632 392.177C257.244 387.605 258.66 379.408 261.527 373.887C264.429 368.265 269.334 363.997 275.241 361.626C277.107 360.915 276.278 357.934 274.412 358.679Z" fill="#2E2500"/>
<path d="M339.252 408.842C347.197 403.185 353.415 393.6 348.89 383.879C344.779 375.141 332.378 372.702 326.16 380.865C321.082 387.503 323.534 399.527 333.794 398.24C337.421 397.766 341.428 395.023 341.532 391.127C341.601 387.266 337.87 384.794 334.278 385.776C332.516 386.25 332.93 388.723 334.692 388.824C335.314 388.858 335.97 388.892 336.592 388.926C338.63 389.027 338.63 385.911 336.592 385.844C335.97 385.81 335.314 385.776 334.692 385.742C334.83 386.758 334.969 387.774 335.107 388.79C338.388 392.008 338.147 394.074 334.416 395.023C330.927 395.971 328.44 394.65 326.885 391.094C325.918 388.045 327.161 384.286 329.303 382.016C333.103 377.986 339.908 377.986 343.777 381.915C351.619 389.806 345.09 400.916 337.663 406.234C336.039 407.318 337.628 409.993 339.252 408.842Z" fill="#2E2500"/>
<path d="M393.59 337.408C384.678 340.423 374.349 349.5 380.084 359.661C385.611 369.416 399.912 367.282 405.992 359.323C411.692 351.871 404.023 343.607 395.525 346.926C392.312 348.179 388.651 351.769 390.516 355.427C391.932 358.171 395.456 358.645 397.563 356.545C398.979 355.123 396.769 352.921 395.318 354.344C394.316 350.753 395.663 349.026 399.359 349.229C400.741 349.703 402.088 350.177 403.47 350.618C407.546 353.395 403.505 357.697 401.467 359.458C397.183 363.15 390.827 364.606 385.887 361.321C381.569 358.442 380.809 353.497 382.951 349.06C385.162 344.487 389.687 342.015 394.385 340.423C396.354 339.745 395.525 336.765 393.59 337.408Z" fill="#2E2500"/>
<path d="M313.274 295.07C307.16 299.744 302.704 306.18 300.873 313.563C299.146 320.541 299.664 325.655 305.537 330.228C315.693 338.187 331.445 341.947 337.386 327.349C339.39 322.404 341.774 314.986 338.354 310.176C335.037 305.502 328.405 303.707 322.947 305.468C318.111 307.026 313.447 312.412 315.623 317.594C317.454 321.929 323.638 323.792 325.918 319.084C326.781 317.289 324.052 315.731 323.189 317.526C318.422 315.054 317.593 312.615 320.702 310.176C321.738 309.601 322.74 309.025 323.776 308.449C325.918 307.704 328.336 307.738 330.512 308.347C336.316 310.075 337.283 315.02 336.177 320.168C334.312 328.704 329.51 336.426 319.216 334.089C314.933 333.107 311.167 330.634 307.747 327.992C303.498 324.707 302.566 321.015 303.567 315.867C305.018 308.313 309.371 301.878 315.485 297.204C317.109 296.018 314.864 293.851 313.274 295.07Z" fill="#2E2500"/>
<path d="M227.225 295.205C217.932 302.691 214.063 317.018 224.53 325.418C234.099 333.073 247.606 325.892 249.126 314.579C250.577 304.012 237.139 295.883 229.988 305.739C227.674 308.957 227.328 314.749 232.061 316.104C235.066 316.95 238.555 314.681 236.759 311.599C236.413 310.989 235.653 310.718 234.963 310.888C234.79 310.921 234.617 310.989 234.479 311.023C232.51 311.531 233.339 314.512 235.308 314.004C235.481 313.97 235.653 313.902 235.792 313.868C235.204 313.631 234.617 313.394 233.995 313.157C232.406 310.447 230.575 309.296 233.374 306.552C235.481 304.486 237.933 304.181 240.524 304.926C245.084 306.213 246.777 310.786 245.775 315.155C244.497 320.676 239.35 325.858 233.304 325.689C226.914 325.52 222.008 319.694 221.352 313.767C220.627 307.23 224.427 301.438 229.401 297.407C231.059 296.12 228.814 293.952 227.225 295.205Z" fill="#2E2500"/>
<path d="M207.534 379.781C200.936 378.256 193.578 381.339 191.022 387.774C188.604 393.803 191.505 401.83 197.654 404.574C204.529 407.622 209.33 398.579 207.914 392.787C206.532 387.198 197.931 385.098 196.584 391.771C196.204 393.701 199.243 394.548 199.623 392.584C203.423 391.297 205.22 392.042 204.978 394.921C204.84 395.666 204.667 396.445 204.529 397.19C203.976 398.917 202.249 402.271 199.865 402.135C196.273 401.932 193.785 396.445 193.44 393.634C192.542 386.351 199.762 381.203 206.67 382.795C208.674 383.235 209.538 380.255 207.534 379.781Z" fill="#2E2500"/>
<path d="M383.78 410.027C377.493 411.856 372.622 417.581 373.796 424.253C374.763 429.842 380.947 433.601 386.44 431.434C391.241 429.537 392.381 423.339 389.134 419.579C387.821 418.055 385.369 416.768 383.331 417.581C381.431 418.36 381.12 420.866 383.089 421.78C384.92 422.627 386.509 419.951 384.678 419.105C384.781 420.222 385.369 420.934 386.405 421.239C386.923 421.747 387.303 422.322 387.545 423C387.994 424.185 388.029 425.743 387.372 426.861C385.852 429.401 382.156 429.401 379.842 428.013C376.974 426.319 376.318 422.864 377.147 419.884C378.183 416.327 381.12 414.024 384.609 413.008C386.543 412.466 385.714 409.452 383.78 410.027Z" fill="#2E2500"/>
<path d="M273.307 413.685C267.849 432.246 304.708 436.548 305.986 416.632C306.504 408.706 295.864 404.913 290.683 411.009C286.434 415.988 292.686 423.27 297.626 418.427C299.077 417.004 296.832 414.837 295.381 416.225C295.001 412.432 296.072 410.84 298.524 411.45C300.321 411.348 301.702 412.229 302.635 414.092C303.326 415.616 302.531 418.596 301.771 420.019C299.802 423.846 296.106 426.082 291.857 426.725C284.845 427.741 273.79 423.135 276.347 414.532C276.934 412.601 273.894 411.754 273.307 413.685Z" fill="#2E2500"/>
<path d="M183.733 428.656C187.982 427.03 192.231 425.37 196.48 423.745C198.345 423.033 197.55 420.019 195.65 420.764C191.402 422.39 187.153 424.049 182.904 425.675C181.038 426.387 181.833 429.401 183.733 428.656Z" fill="#2B2A73"/>
<path d="M202.214 422.085C212.405 417.479 223.01 413.99 233.961 411.619C235.93 411.179 235.101 408.198 233.131 408.638C221.905 411.077 211.092 414.701 200.625 419.443C198.76 420.256 200.383 422.932 202.214 422.085Z" fill="#2B2A73"/>
<path d="M257.865 447.793C259.627 444.27 261.389 440.782 263.15 437.259C264.048 435.464 261.319 433.906 260.421 435.701C258.66 439.223 256.898 442.712 255.136 446.235C254.238 448.03 256.967 449.588 257.865 447.793Z" fill="#FFBD1A"/>
<path d="M311.064 441.595C315.451 445.761 320.149 449.52 325.158 452.907C326.85 454.059 328.405 451.349 326.747 450.232C321.945 446.98 317.454 443.356 313.274 439.393C311.824 438.038 309.578 440.206 311.064 441.595Z" fill="#FFBD1A"/>
<path d="M193.613 364.776C202.076 363.963 210.228 364.946 218.243 367.723C220.177 368.4 221.006 365.386 219.072 364.742C210.781 361.863 202.352 360.847 193.613 361.694C191.609 361.863 191.609 364.946 193.613 364.776Z" fill="#2B2A73"/>
<path d="M326.782 362.981C333.483 361.355 340.15 359.729 346.852 358.103C348.821 357.629 347.992 354.649 346.023 355.123C339.321 356.749 332.654 358.374 325.953 360C323.984 360.474 324.813 363.455 326.782 362.981Z" fill="#2B2A73"/>
<path d="M290.786 349.975C290.958 353.497 292.375 356.681 294.896 359.154C296.347 360.576 298.558 358.375 297.142 356.952C295.207 355.055 294.102 352.65 293.929 349.941C293.86 348.01 290.682 348.01 290.786 349.975Z" fill="#2B2A73"/>
<path d="M174.717 338.661C165.735 333.513 153.679 334.055 145.216 339.982C153.783 344.86 165.217 344.453 173.404 339L174.717 338.661Z" fill="#6260FF"/>
<path d="M370.135 319.524C371.724 311.362 377.458 304.113 385.127 300.523C384.54 308.245 378.874 315.324 371.413 317.797L370.135 319.524Z" fill="#6260FF"/>
<path d="M190.607 450.333C184.493 453.991 178.758 462.425 175.373 468.623C174.509 470.215 174.164 472.789 175.96 473.23C176.927 473.467 177.826 472.789 178.551 472.146C184.873 466.455 189.191 458.631 190.607 450.333Z" fill="#B4C48D"/>
<path d="M326.021 298.931C334.83 298.288 342.879 305.096 343.259 313.834C343.328 315.833 346.506 315.833 346.437 313.834C346.023 303.538 336.627 295.07 326.056 295.815C323.983 295.985 323.983 299.067 326.021 298.931Z" fill="#3A3899"/>
<path d="M287.297 362.744C292.479 366.198 294.241 373.04 291.339 378.493C290.406 380.255 293.135 381.813 294.068 380.052C297.799 373.074 295.554 364.471 288.886 360.068C287.194 358.95 285.605 361.626 287.297 362.744Z" fill="#2B2A73"/>
<path d="M374.763 357.324C373.347 352.718 375.42 347.84 379.772 345.537C381.569 344.589 379.98 341.913 378.183 342.861C372.656 345.808 369.927 352.244 371.723 358.137C372.276 360.068 375.351 359.255 374.763 357.324Z" fill="#3A3899"/>
<path d="M242.666 299.405C251.82 299.033 258.211 307.128 255.585 315.731C254.998 317.628 258.038 318.474 258.625 316.544C261.838 306.044 253.893 295.849 242.666 296.289C240.628 296.391 240.628 299.473 242.666 299.405Z" fill="#3A3899"/>
<path d="M385.818 283.351C380.153 271.429 386.509 253.071 398.358 246.872C398.841 246.635 399.359 246.398 399.878 246.5C400.672 246.669 401.052 247.55 401.259 248.329C404.265 258.964 400.707 271.158 392.381 278.609C397.079 275.967 401.985 273.359 407.374 272.614C412.763 271.869 418.739 273.291 422.124 277.491C410.897 282.741 398.15 284.807 385.818 283.351Z" fill="#7C7AFF"/>
<path d="M287.884 288.262C282.495 269.566 276.484 250.056 261.492 236.474C260.007 235.119 257.761 237.321 259.247 238.676C273.825 251.919 279.593 270.92 284.81 289.109C285.362 291.006 288.437 290.193 287.884 288.262Z" fill="#6260FF"/>
<path d="M287.366 289.38C287.125 273.833 284.741 258.49 280.147 243.587C279.559 241.69 276.519 242.503 277.107 244.4C281.597 259.032 283.981 274.07 284.188 289.38C284.257 291.378 287.401 291.378 287.366 289.38Z" fill="#4D4BCC"/>
<path d="M219.175 453.077C204.218 465.135 188.051 479.259 188.051 499.818C188.051 501.817 191.194 501.817 191.194 499.818C191.194 480.14 207.119 466.761 221.386 455.279C223.01 453.991 220.764 451.824 219.175 453.077Z" fill="#4D4BCC"/>
<path d="M186.324 325.892C186.013 314.918 179.277 305.807 172.264 297.712C164.492 288.702 155.303 281.014 145.216 274.578C143.523 273.494 141.934 276.17 143.627 277.254C152.505 282.91 160.588 289.583 167.67 297.272C174.993 305.231 182.835 314.715 183.146 325.892C183.215 327.891 186.358 327.891 186.324 325.892Z" fill="#6260FF"/>
<path d="M187.256 324.877C188.465 310.651 186.254 296.595 180.762 283.385C180.002 281.556 176.962 282.369 177.722 284.198C183.111 297.17 185.287 310.922 184.078 324.877C183.94 326.875 187.084 326.841 187.256 324.877Z" fill="#4D4BCC"/>
<path d="M174.544 402.508C158.515 407.927 145.112 418.529 136.372 432.754C135.336 434.482 138.065 436.04 139.101 434.312C147.427 420.764 160.139 410.637 175.373 405.488C177.308 404.845 176.479 401.864 174.544 402.508Z" fill="#4D4BCC"/>
<path d="M395.042 389.501C404.3 383.574 414.283 379.205 424.992 376.427C426.961 375.919 426.132 372.939 424.163 373.447C413.212 376.292 402.952 380.763 393.453 386.826C391.76 387.909 393.349 390.585 395.042 389.501Z" fill="#9BB068"/>
<path d="M356.939 322.81C377.562 287.483 412.97 264.587 446.996 242.943C448.689 241.86 447.1 239.184 445.407 240.268C410.932 262.182 375.074 285.451 354.21 321.252C353.208 322.98 355.937 324.538 356.939 322.81Z" fill="#6260FF"/>
</svg>
