<svg width="350" height="150" viewBox="0 0 350 150" fill="none" xmlns="http://www.w3.org/2000/svg">
<g clip-path="url(#clip0_1303_2142)">
<rect width="350" height="150" rx="25" fill="#7C7AFF"/>
<path d="M246.216 0C261.105 0 273.162 12.1025 273.162 27.0191C273.162 30.5054 272.492 33.8423 271.287 36.9053C277.533 31.7007 285.568 28.563 294.322 28.563C314.24 28.563 330.383 44.7495 330.383 64.7212C330.383 84.6929 314.24 100.879 294.322 100.879C274.404 100.879 258.261 84.6929 258.261 64.7212C258.261 59.0933 259.54 53.7766 261.825 49.0327C257.417 52.1829 252.027 54.0381 246.203 54.0381C231.314 54.0381 219.257 41.9356 219.257 27.0191C219.257 12.1025 231.327 0 246.216 0Z" fill="#4847BF"/>
<path d="M195.911 216.048H367.649L367.649 173.669C367.649 139.914 340.355 112.546 306.69 112.546H256.87C223.206 112.546 195.911 139.914 195.911 173.669L195.911 216.048Z" fill="#E7E7FF"/>
<path d="M259.453 111.687L281.023 80.0364C277.409 79.8123 273.969 77.845 271.995 74.4707C268.841 69.0918 270.641 62.1565 276.018 58.9939C281.383 55.8313 288.3 57.6367 291.454 63.0281C291.64 63.3518 291.801 63.6755 291.963 63.9993L301.264 50.3403C302.419 48.647 304.617 48.0493 306.467 48.9333C315.631 53.2913 340.392 68.1704 333.128 99.2112C332.581 101.564 330.172 102.984 327.863 102.274L316.041 98.6633L309.844 132.63C307.51 145.455 296.694 155.229 283.693 155.665C283.084 155.69 282.476 155.69 281.855 155.69C259.652 155.416 246.924 130.078 259.453 111.687Z" fill="#E7E7FF"/>
<path d="M319.717 65.5306C324.646 70.3243 329.576 75.1305 334.506 79.9366C334.581 79.339 334.655 78.7413 334.742 78.1437C332.482 79.3763 330.222 80.6214 327.95 81.8541C326.67 82.5514 327.813 84.5311 329.092 83.8214C331.352 82.5887 333.612 81.3436 335.884 80.1109C336.518 79.7623 336.63 78.816 336.12 78.318C331.191 73.5243 326.261 68.7181 321.331 63.9244C320.275 62.9034 318.661 64.5096 319.717 65.5306Z" fill="#CECDFF"/>
<path d="M279.148 67.7472C281.184 69.204 283.221 70.6608 285.257 72.13C286.449 72.9892 287.579 71.0094 286.4 70.1627C284.363 68.706 282.327 67.2492 280.29 65.7799C279.11 64.9208 277.968 66.9005 279.148 67.7472Z" fill="#222159"/>
<path d="M256.982 113.43C258.137 116.145 259.292 118.859 260.446 121.586C260.943 122.769 262.657 121.748 262.16 120.577C261.005 117.863 259.85 115.149 258.696 112.422C258.199 111.251 256.485 112.272 256.982 113.43Z" fill="#222159"/>
<path d="M177.819 69.926C181.917 74.7446 190.149 73.9851 193.465 68.6934C194.247 67.4483 192.285 66.3027 191.503 67.5479C188.908 71.6817 182.537 71.9805 179.421 68.3198C178.477 67.1992 176.875 68.8179 177.819 69.926Z" fill="#222159"/>
<path d="M180.414 70.6232C179.731 71.8932 179.06 73.1756 178.377 74.4457C177.694 75.7406 179.644 76.8861 180.339 75.5912C181.022 74.3211 181.693 73.0387 182.376 71.7687C183.071 70.4737 181.109 69.3282 180.414 70.6232Z" fill="#222159"/>
<path d="M185.729 73.0015C186.039 73.9727 186.35 74.9564 186.66 75.9276C187.095 77.3221 189.293 76.7244 188.846 75.3175C188.535 74.3463 188.225 73.3626 187.914 72.3914C187.48 71.0093 185.282 71.607 185.729 73.0015Z" fill="#222159"/>
<path d="M190.895 71.3203C191.466 72.1047 192.049 72.8767 192.621 73.6611C192.981 74.1591 193.602 74.4082 194.173 74.072C194.657 73.7856 194.943 73.0136 194.583 72.5156C194.011 71.7312 193.428 70.9592 192.857 70.1748C192.496 69.6767 191.876 69.4277 191.304 69.7639C190.82 70.0502 190.522 70.8222 190.895 71.3203Z" fill="#222159"/>
<path d="M295.738 180.666L295.75 217H124V180.666V173.669C124 139.914 151.294 112.546 184.959 112.546H234.791C268.456 112.546 295.75 139.914 295.75 173.669V180.666H295.738Z" fill="#E7E7FF"/>
<path d="M245.446 0C230.557 0 218.499 12.1025 218.499 27.0191C218.499 30.5054 219.17 33.8423 220.374 36.9053C214.128 31.7007 206.094 28.563 197.339 28.563C177.421 28.563 161.278 44.7495 161.278 64.7212C161.278 84.6929 177.421 100.879 197.339 100.879C217.257 100.879 233.401 84.6929 233.401 64.7212C233.401 59.0933 232.122 53.7766 229.837 49.0327C234.245 52.1829 239.634 54.0381 245.458 54.0381C260.347 54.0381 272.405 41.9356 272.405 27.0191C272.392 12.1025 260.322 0 245.446 0Z" fill="#4847BF"/>
<path d="M232.196 111.687L210.626 80.0364C214.24 79.8123 217.68 77.845 219.654 74.4707C222.808 69.0918 221.008 62.1565 215.631 58.9939C210.266 55.8313 203.35 57.6367 200.195 63.0281C200.009 63.3518 199.848 63.6755 199.686 63.9993L190.385 50.3403C189.231 48.647 187.033 48.0493 185.182 48.9333C176.018 53.2913 151.257 68.1704 158.521 99.2112C159.068 101.564 161.477 102.984 163.787 102.274L175.608 98.6633L181.805 132.63C184.139 145.455 194.955 155.229 207.957 155.665C208.565 155.69 209.174 155.69 209.794 155.69C231.997 155.416 244.726 130.078 232.196 111.687Z" fill="#E7E7FF"/>
<path d="M170.331 63.9244C165.401 68.7181 160.471 73.5243 155.541 78.318C155.032 78.816 155.131 79.7623 155.777 80.1109C158.037 81.3436 160.297 82.5887 162.57 83.8214C163.849 84.5187 165.003 82.5514 163.712 81.8541C161.452 80.6214 159.192 79.3763 156.92 78.1437C156.994 78.7413 157.069 79.339 157.155 79.9366C162.085 75.1305 167.015 70.3368 171.945 65.5306C172.988 64.5096 171.386 62.9034 170.331 63.9244Z" fill="#CECDFF"/>
<path d="M175.012 84.9791C175.621 86.3736 173.895 88.067 172.529 87.7183C171.113 87.3448 170.505 89.5487 171.92 89.9097C175.372 90.8062 178.34 86.9962 176.962 83.8336C176.403 82.4764 174.441 83.6468 175.012 84.9791Z" fill="#CECDFF"/>
<path d="M211.359 65.7799C209.323 67.2367 207.286 68.6935 205.249 70.1627C204.07 71.0094 205.2 72.9892 206.392 72.13C208.428 70.6732 210.465 69.204 212.501 67.7472C213.681 66.9005 212.551 64.9208 211.359 65.7799Z" fill="#CECDFF"/>
<path d="M326.099 145.342C323.765 137.224 312.042 140.536 309.757 125.458C309.012 120.565 312.34 113.455 310.118 109.022C305.213 99.1984 298.147 101.328 295.738 95.2887C293.503 89.7106 296.172 77.5832 292.236 73.0509C289.777 70.2121 285.307 69.7763 282.972 66.8253C279.719 62.704 282.438 56.2294 279.955 51.5976C277.322 46.6918 270.393 46.2186 266.308 42.4459C264.259 40.5534 263.054 37.9386 261.353 35.7223C259.652 33.506 257.044 31.5761 254.3 32.0492C251.295 32.5722 248.786 35.8344 245.856 34.9877C244.875 34.7013 244.08 33.9791 243.235 33.4064C238.517 30.1691 231.19 31.8375 228.322 36.8056C226.943 39.1962 226.546 42.0724 225.006 44.3634C221.989 48.8458 215.395 49.9415 212.663 54.6107C209.459 60.0644 213.085 67.5849 210.068 73.1256C206.802 79.1396 197.6 79.5878 194.073 85.4648C190.385 91.6032 194.707 100.767 189.951 106.121C187.318 109.097 182.736 109.682 180.054 112.621C175.248 117.9 179.247 127.014 175.583 133.153C172.889 137.673 166.903 139.104 163.501 143.114C158.956 148.455 160.272 156.648 163.228 163.011L277.459 178.226C290.87 174.179 283.221 180.355 295.725 173.656C300.481 171.067 335.847 179.172 326.099 145.342Z" fill="#222159"/>
<path d="M232.954 112.434C231.799 115.149 230.644 117.863 229.489 120.59C228.992 121.76 230.706 122.769 231.203 121.598C232.357 118.884 233.512 116.17 234.667 113.443C235.176 112.272 233.463 111.251 232.954 112.434Z" fill="#222159"/>
<path d="M307.373 64.0738C307.609 66.4021 307.833 68.7305 308.069 71.0589C308.205 72.5032 310.49 72.5157 310.341 71.0589C310.105 68.7305 309.882 66.4021 309.646 64.0738C309.497 62.6294 307.224 62.617 307.373 64.0738Z" fill="#CECDFF"/>
<path d="M302.704 57.8109C306.094 60.1642 309.546 62.4054 313.061 64.5594C314.315 65.3189 315.457 63.3517 314.203 62.5921C310.689 60.4505 307.224 58.1969 303.847 55.8436C302.655 55.0094 301.512 56.9891 302.704 57.8109Z" fill="#CECDFF"/>
<path d="M329.75 89.188C326.459 86.3616 323.032 83.5227 318.922 81.9912C315.991 80.8955 311.186 80.0613 308.814 82.7756C303.325 89.0635 322.511 93.7825 325.838 94.2432C327.267 94.4424 327.887 92.251 326.447 92.0518C323.131 91.5911 319.853 90.7817 316.774 89.4619C315.283 88.8145 307.82 85.4277 311.335 83.7219C314.029 82.427 317.817 83.7966 320.263 85.0791C323.144 86.5857 325.677 88.6899 328.136 90.7942C329.241 91.7529 330.855 90.1467 329.75 89.188Z" fill="#CECDFF"/>
<path d="M329.525 164.671V216.947H157.787V164.671C157.787 135.224 181.592 111.355 210.96 111.355H276.352C305.72 111.355 329.525 135.224 329.525 164.671Z" fill="#7C7AFF"/>
<path d="M228.222 88.9137L219.008 133.987C214.637 153.672 233.848 170.693 252.611 163.422C253.132 163.222 253.642 163.011 254.151 162.787C264.929 158.03 270.741 146.177 268.406 134.597L258.82 87.4942C252.785 84.9418 250.773 99.5843 244.142 98.2894C237.362 96.4217 233.773 85.5394 228.222 88.9137Z" fill="#7C7AFF"/>
<path d="M245.831 38.0386C245.806 38.6362 245.806 39.2214 245.843 39.8066C245.868 39.2339 245.868 38.6362 245.831 38.0386Z" fill="#4847BF"/>
<path d="M245.843 39.8062C245.346 50.4768 234.642 57.3125 224.472 57.6736C222.622 62.9404 221.492 68.8548 221.492 75.1426C221.492 97.4925 237.337 115.845 245.21 115.609C253.257 115.372 268.928 97.4925 268.928 75.1426C268.928 68.5933 267.574 62.3677 265.476 56.8643C263.75 56.7522 262.011 56.553 260.235 56.2791C252.089 54.8472 246.253 48.1235 245.843 39.8062Z" fill="#A5A3FF"/>
<path d="M245.197 34.6764C238.529 34.9503 229.191 44.1891 224.46 57.6737C234.63 57.3126 245.334 50.4769 245.831 39.8062C245.806 39.221 245.794 38.6358 245.818 38.0382C245.856 38.6358 245.856 39.221 245.831 39.8062C246.253 48.1236 252.077 54.8473 260.211 56.2667C261.974 56.5406 263.725 56.7398 265.451 56.8519C260.384 43.5914 250.885 34.4398 245.197 34.6764Z" fill="#222159"/>
<path d="M227.378 64.7334C227.378 69.7139 223.355 73.7481 218.387 73.7481C213.42 73.7481 209.397 69.7139 209.397 64.7334C209.397 59.7529 213.42 55.7188 218.387 55.7188C223.355 55.7188 227.378 59.7529 227.378 64.7334Z" fill="#A5A3FF"/>
<path d="M282.463 64.7334C282.463 69.7139 278.44 73.7481 273.473 73.7481C268.506 73.7481 264.482 69.7139 264.482 64.7334C264.482 59.7529 268.506 55.7188 273.473 55.7188C278.44 55.7188 282.463 59.7529 282.463 64.7334Z" fill="#A5A3FF"/>
<path d="M251.766 68.8799C255.566 72.8269 263.489 72.7895 267.251 68.8052C268.419 67.56 266.556 65.6799 265.376 66.925C262.595 69.8635 256.46 69.9258 253.642 66.9997C252.462 65.7671 250.587 67.6472 251.766 68.8799Z" fill="#222159"/>
<path d="M224.336 68.8799C228.135 72.8269 236.058 72.7895 239.821 68.8052C240.988 67.56 239.125 65.6799 237.945 66.925C235.164 69.8635 229.03 69.9258 226.211 66.9997C225.031 65.7671 223.156 67.6472 224.336 68.8799Z" fill="#222159"/>
<path d="M253.952 58.9189C258.112 58.9189 262.272 58.9189 266.432 58.9189C268.133 58.9189 268.146 56.2544 266.432 56.2544C262.272 56.2544 258.112 56.2544 253.952 56.2544C252.238 56.2544 252.238 58.9189 253.952 58.9189Z" fill="#222159"/>
<path d="M225.851 58.9189C230.011 58.9189 234.17 58.9189 238.33 58.9189C240.032 58.9189 240.044 56.2544 238.33 56.2544C234.17 56.2544 230.011 56.2544 225.851 56.2544C224.137 56.2544 224.137 58.9189 225.851 58.9189Z" fill="#222159"/>
<path d="M241.472 99.647C244.08 99.647 246.7 99.647 249.308 99.647C251.009 99.647 251.021 96.9824 249.308 96.9824C246.7 96.9824 244.08 96.9824 241.472 96.9824C239.771 96.9824 239.771 99.647 241.472 99.647Z" fill="#222159"/>
<path d="M242.466 61.6583C242.466 69.515 242.466 77.3717 242.466 85.2159C242.466 86.9217 245.123 86.9342 245.123 85.2159C245.123 77.3592 245.123 69.5025 245.123 61.6583C245.123 59.9525 242.466 59.9525 242.466 61.6583Z" fill="#222159"/>
<path d="M212.725 62.6292C214.662 63.7996 216.587 64.9576 218.524 66.128C219.629 66.7879 220.623 65.0696 219.53 64.4097C217.593 63.2393 215.668 62.0814 213.731 60.911C212.626 60.251 211.632 61.9693 212.725 62.6292Z" fill="#222159"/>
<path d="M271.772 65.742C274.131 64.6587 276.428 63.4634 278.688 62.1561C279.793 61.5086 278.8 59.7903 277.682 60.4378C275.435 61.7452 273.137 62.9405 270.766 64.0237C269.598 64.5591 270.617 66.2774 271.772 65.742Z" fill="#222159"/>
<path d="M188.92 124.412C185.282 119.021 193.304 114.974 196.756 112.633C200.382 110.18 201.996 106.893 202.468 102.598C202.94 98.1774 202.157 92.6491 205.312 89.0382C207.87 86.0997 212.489 85.3651 213.756 81.306C213.979 80.6088 212.874 80.3099 212.663 81.0072C211.868 83.5597 209.347 84.6679 207.261 86.0126C205.523 87.1332 204.02 88.453 203.101 90.358C201.139 94.4047 201.847 99.1486 201.214 103.482C200.841 106.047 199.96 108.412 198.035 110.218C196.073 112.06 193.564 113.144 191.391 114.7C188.299 116.929 185.456 121.337 187.927 125.01C188.349 125.595 189.33 125.022 188.92 124.412Z" fill="#4847BF"/>
<path d="M203.213 120.739C207.758 117.216 210.304 111.725 210.117 105.985C210.092 105.25 208.962 105.25 208.987 105.985C209.173 111.463 206.74 116.593 202.418 119.942C201.822 120.391 202.642 121.187 203.213 120.739Z" fill="#4847BF"/>
<path d="M212.253 98.6011C212.427 96.3724 213.78 94.4798 215.78 93.5086C216.438 93.1849 215.867 92.2012 215.209 92.525C212.837 93.6829 211.334 95.9739 211.123 98.6011C211.061 99.3358 212.191 99.3358 212.253 98.6011Z" fill="#4847BF"/>
<path d="M280.638 77.4339C282.625 78.3926 282.997 80.6338 283.084 82.6385C283.183 85.0042 283.034 87.4073 282.997 89.773C282.935 93.5084 282.749 97.3309 285.506 100.207C287.89 102.685 291.578 103.868 293.366 106.918C295.502 110.566 293.614 115.248 295.353 119.096C295.651 119.768 296.632 119.183 296.334 118.523C294.533 114.526 296.632 109.732 294.099 105.935C292.162 103.034 288.66 101.876 286.313 99.4102C284.5 97.4927 284.115 95.1021 284.102 92.5372C284.09 89.8851 284.189 87.233 284.227 84.5809C284.276 81.6673 284.239 77.907 281.209 76.4502C280.563 76.1265 279.98 77.1102 280.638 77.4339Z" fill="#4847BF"/>
<path d="M296.396 123.902C297.216 125.894 298.693 127.5 300.668 128.384C301.326 128.683 301.909 127.699 301.239 127.401C299.55 126.641 298.197 125.321 297.489 123.591C297.216 122.931 296.123 123.229 296.396 123.902Z" fill="#4847BF"/>
<path d="M288.535 118.797C288.213 116.369 287.902 113.903 286.934 111.625C286.015 109.483 284.525 107.864 282.873 106.258C280.948 104.391 279.123 102.56 278.403 99.8832C277.658 97.1439 277.993 94.2054 278.291 91.4288C278.365 90.7067 277.235 90.7067 277.161 91.4288C276.664 96.0856 276.465 100.792 279.657 104.577C281.234 106.457 283.283 107.927 284.711 109.944C286.549 112.521 286.996 115.734 287.405 118.797C287.492 119.519 288.622 119.531 288.535 118.797Z" fill="#4847BF"/>
<path d="M277.67 84.4813C277.359 82.6759 276.614 81.0573 275.484 79.6129C275.037 79.0402 274.243 79.8495 274.677 80.4223C275.671 81.7047 276.292 83.1864 276.565 84.7802C276.701 85.5023 277.794 85.2035 277.67 84.4813Z" fill="#4847BF"/>
<path d="M270.505 100.718C271.113 105.213 273.162 109.272 276.403 112.434C276.925 112.945 277.732 112.148 277.21 111.625C274.106 108.587 272.181 104.715 271.61 100.406C271.511 99.6968 270.406 99.9956 270.505 100.718Z" fill="#4847BF"/>
<path d="M217.816 116.257C219.642 112.534 220.523 108.562 220.424 104.416C220.412 103.681 219.269 103.681 219.294 104.416C219.393 108.363 218.586 112.135 216.848 115.684C216.525 116.344 217.493 116.917 217.816 116.257Z" fill="#4847BF"/>
<path d="M228.992 51.6227C237.263 52.3573 233.463 38.6983 240.367 37.9513C241.087 37.8766 241.1 36.731 240.367 36.8182C237.821 37.0921 236.145 39.0096 235.276 41.3131C234.059 44.5255 233.848 50.9254 228.992 50.4896C228.26 50.4273 228.272 51.5604 228.992 51.6227Z" fill="#4847BF"/>
<path d="M253.12 38.86C257.106 37.1168 258.298 43.4793 259.652 45.7953C260.906 47.9369 262.992 49.1322 265.451 49.2816C266.184 49.3314 266.184 48.1859 265.451 48.1485C263.042 47.9991 261.254 46.6295 260.235 44.463C259.552 42.9937 259.143 41.3626 258.224 40.0055C256.932 38.1129 254.734 36.9176 252.536 37.8888C251.878 38.1751 252.462 39.1463 253.12 38.86Z" fill="#4847BF"/>
</g>
<defs>
<clipPath id="clip0_1303_2142">
<rect width="350" height="150" rx="25" fill="white"/>
</clipPath>
</defs>
</svg>
