<svg width="402" height="730" viewBox="0 0 402 730" fill="none" xmlns="http://www.w3.org/2000/svg">
<g clip-path="url(#clip0_938_2916)">
<path d="M112.073 70.6433C16.1487 94.4022 -74.3786 166.877 -126.215 261.495C-139.71 286.14 -150.93 313.106 -151.622 340.105C-152.3 367.08 -140.433 376.499 -117.811 384.847C-87.7405 395.968 -0.945362 378.964 30.44 380.021C47.452 380.58 103.386 374.944 105.497 392.966C106.885 405.013 97.5111 411.887 89.0448 421.462C67.4161 445.896 44.6819 456.724 34.9188 487.782C28.5894 507.853 33.7833 529.085 44.7877 544.019C55.7779 558.977 71.8897 568.474 88.6107 575.593C131.127 593.705 179.063 598.207 226.902 597.583C286.139 596.812 348.386 587.671 402.99 553.804C417.541 544.784 432.941 531.444 434.848 514.247C436.949 495.341 421.942 482.354 408.339 472.583C386.266 456.719 364.179 440.879 342.084 425.003C328.754 415.421 314.152 403.156 315.055 384.696C315.833 369.252 327.512 355.487 339.506 345.348C358.523 329.254 381.165 321.233 401.982 309.298C419.831 299.095 449.899 276.835 448.691 252.314C448.442 247.198 446.366 242.651 443.685 238.796C430.93 220.381 405.491 213.299 384.819 208.19C358.008 201.551 330.131 198.131 301.836 197.981C270.082 197.816 236.907 201.641 208.105 190.765C198.629 187.179 189.023 180.918 187.321 170.023C184.159 149.801 208.617 133.24 214.969 112.467C222.636 87.3817 200.685 66.4208 177.873 63.0331C155.069 59.6826 140.307 64.8433 112.073 70.6433Z" fill="#5349A5"/>
</g>
<path d="M215.5 228.082C222.3 214.405 232.628 202.966 245.545 194.857C246.813 194.069 245.646 192.061 244.377 192.849C231.131 201.161 220.473 212.88 213.495 226.912C212.81 228.26 214.814 229.429 215.5 228.082Z" fill="white"/>
<path d="M293.454 406.152C295.89 372.496 273.255 339.271 244.631 325.163C241.611 323.688 238.414 326.815 239.505 330.171C240.342 332.713 241.915 335.178 243.59 337.212C245.823 339.932 250.112 343.974 252.573 347.914C253.842 349.948 252.066 352.566 249.858 351.905C231.613 346.363 214.966 336.5 214.966 336.5C206.719 330.577 196.594 325.341 189.134 323.841C185.429 323.104 182.815 327.527 185.023 330.806C188.296 335.687 192.534 341.279 195.376 342.423C190.834 341.711 186.418 336.78 181.521 338.432C179.491 339.119 177.968 341.076 177.943 343.389C177.867 350.202 189.666 350.99 192.204 357.192C189.108 356.379 182.536 355.184 179.465 354.32C179.389 354.295 179.313 354.269 179.212 354.244C172.715 352.49 169.746 362.505 175.938 365.276L206.389 378.927C209.967 380.528 208.495 386.273 204.664 385.638L186.063 382.562C183.779 382.232 181.495 383.503 180.683 385.816C179.11 390.214 184.287 392.756 188.118 394.255C198.497 398.323 206.719 408.338 209.13 419.905C209.587 422.091 220.904 591.037 221.031 593.198C223.721 634.887 282.289 659.164 305 614.5L293.454 406.152Z" fill="#A694F5"/>
<path d="M237.323 382.537C243.236 386.808 250.975 390.85 254.731 397.307C258.309 403.458 258.918 410.906 259.502 417.821C259.628 419.295 261.938 419.321 261.811 417.821C261.202 410.474 260.491 402.645 256.71 396.137C252.726 389.274 244.707 385.054 238.465 380.529C237.298 379.639 236.13 381.648 237.323 382.537Z" fill="#8978E3"/>
<path d="M251.94 330.222C248.946 329.841 246.485 327.883 245.038 325.265C244.302 323.968 242.298 325.138 243.033 326.434C244.911 329.815 248.109 332.052 251.94 332.535C253.438 332.738 253.412 330.4 251.94 330.222Z" fill="#8978E3"/>
<path d="M220.118 355.184C210.83 349.591 201.543 343.999 192.255 338.406C190.961 337.644 189.794 339.652 191.088 340.415C200.376 346.007 209.663 351.6 218.951 357.192C220.219 357.955 221.412 355.946 220.118 355.184Z" fill="#8978E3"/>
<path d="M216.007 367.081C206.923 363.573 198.117 359.48 189.565 354.828C188.246 354.116 187.079 356.125 188.398 356.836C197.127 361.59 206.136 365.759 215.398 369.318C216.794 369.852 217.377 367.615 216.007 367.081Z" fill="#8978E3"/>
<path d="M240.165 355.138C238.11 357.247 236.587 359.688 235.496 362.408C234.938 363.806 237.196 364.391 237.729 363.018C238.668 360.679 240.038 358.569 241.815 356.764C242.855 355.722 241.206 354.07 240.165 355.138Z" fill="white"/>
<path d="M229.584 367.437C227.858 369.42 226.158 371.403 224.433 373.36C223.468 374.479 225.093 376.131 226.082 375.012C227.808 373.03 229.508 371.047 231.233 369.09C232.198 367.946 230.548 366.293 229.584 367.437Z" fill="white"/>
<path d="M212.912 391.078C212.303 393.137 211.364 395.018 210.095 396.772C209.207 397.992 211.237 399.136 212.1 397.941C213.47 396.035 214.485 393.925 215.145 391.688C215.576 390.264 213.343 389.654 212.912 391.078Z" fill="white"/>
<path d="M181.927 415.913C196.898 388.077 190.275 350.989 171.218 327.933C169.213 325.492 165.255 326.967 164.925 330.246C164.671 332.737 165.077 335.457 165.711 337.847C166.574 341.024 168.68 346.134 169.289 350.455C169.594 352.692 167.082 354.243 165.458 352.819C151.983 341.075 141.528 326.229 141.528 326.229C136.732 317.993 130.084 309.63 124.298 305.486C121.43 303.427 117.472 306.198 118.106 309.859C119.045 315.299 120.517 321.705 122.522 323.764C118.918 321.425 117.04 315.502 112.219 315.019C110.214 314.816 108.159 315.934 107.271 317.866C104.581 323.662 114.376 328.873 114.173 335.152C111.838 333.271 106.687 329.737 104.378 327.806C104.327 327.755 104.251 327.704 104.2 327.653C99.3279 323.662 92.9332 331.085 97.171 335.838L117.954 359.225C120.39 361.971 116.939 366.317 113.919 364.309L99.2011 354.548C97.374 353.378 94.9379 353.607 93.3646 355.26C90.3449 358.412 93.796 362.581 96.4858 365.326C103.819 372.8 106.991 384.518 104.606 395.322C104.149 397.381 1.77072 621.42 1.06019 623.301C-12.6174 659.957 41.484 684.462 77.9999 655L181.927 415.913Z" fill="#8978E3"/>
<path d="M142.874 374.096C146.325 380.096 151.502 386.654 152.162 393.696C152.796 400.279 150.436 406.863 148.305 412.964C147.797 414.388 150.056 414.998 150.538 413.574C152.898 406.838 155.334 399.644 154.344 392.424C153.355 385.358 148.355 378.977 144.879 372.927C144.143 371.631 142.138 372.8 142.874 374.096Z" fill="#8978E3"/>
<path d="M175.685 335.05C173.3 333.576 171.854 331.084 171.6 328.288C171.473 326.814 169.138 326.788 169.291 328.288C169.595 331.898 171.397 335.126 174.518 337.058C175.787 337.846 176.954 335.838 175.685 335.05Z" fill="#8978E3"/>
<path d="M138.891 344.199C133.08 335.861 127.295 327.497 121.484 319.159C120.646 317.939 118.616 319.109 119.479 320.329C125.29 328.667 131.076 337.03 136.887 345.368C137.724 346.588 139.729 345.444 138.891 344.199Z" fill="#8978E3"/>
<path d="M130.821 352.744C124.4 346.261 118.437 339.398 112.905 332.128C112.017 330.958 109.987 332.102 110.901 333.297C116.534 340.72 122.624 347.761 129.171 354.371C130.237 355.464 131.886 353.811 130.821 352.744Z" fill="#8978E3"/>
<path d="M155.993 351.73C153.43 352.747 151.146 354.196 149.141 356.128C148.076 357.17 149.7 358.823 150.791 357.78C152.466 356.153 154.42 354.832 156.602 353.993C157.998 353.433 157.389 351.171 155.993 351.73Z" fill="white"/>
<path d="M141.96 358.286C139.727 359.328 137.519 360.345 135.286 361.387C133.941 362.022 135.109 364.031 136.454 363.395C138.687 362.353 140.894 361.336 143.127 360.294C144.472 359.658 143.305 357.65 141.96 358.286Z" fill="white"/>
<path d="M118.868 371.938C117.548 373.463 116.051 374.734 114.3 375.751C113.006 376.488 114.173 378.496 115.467 377.759C117.371 376.666 119.071 375.268 120.492 373.59C121.481 372.446 119.832 370.794 118.868 371.938Z" fill="white"/>
<path d="M97.857 406.431C93.3401 405.287 89.1785 407.931 87.2499 412.074C85.1437 416.65 86.7424 421.759 89.1024 425.903C95.0657 436.401 104.582 445.68 114.098 452.925C123.867 460.398 135.007 466.118 146.934 469.168C151.806 470.414 157.846 471.609 162.134 468.177C166.067 465.05 166.474 459.687 166.677 455.035C166.753 453.535 164.418 453.535 164.367 455.035C164.114 460.729 163.124 467.287 156.222 468.024C151.629 468.507 146.604 466.779 142.29 465.381C133.688 462.559 125.593 458.314 118.234 453.077C110.799 447.815 104.125 441.511 98.2884 434.52C95.0403 430.631 91.4116 426.36 89.5845 421.556C87.5798 416.268 89.6606 406.71 97.248 408.642C98.6944 409.049 99.3035 406.812 97.857 406.431Z" fill="#A694F5"/>
<path d="M96.2081 415.126C88.773 415.1 77.1762 418.837 80.0944 428.7C81.2617 432.589 84.6875 435.36 87.9102 437.521C92.554 440.622 97.5784 443.291 102.679 445.579C122.32 454.4 145.031 457.933 166.347 454.273C170.433 453.587 175.127 452.112 176.98 447.994C178.477 444.689 177.665 440.724 174.442 438.868C173.148 438.131 171.981 440.139 173.275 440.876C176.447 442.707 175.685 447.028 173.249 449.138C171.346 450.816 168.707 451.451 166.271 451.909C161.17 452.849 155.867 453.18 150.69 453.256C140.591 453.383 130.491 452.112 120.747 449.519C110.977 446.926 101.588 443.012 92.8839 437.851C88.9252 435.487 83.2918 432.462 82.1753 427.556C80.3482 419.472 90.5239 417.413 96.2081 417.439C97.7053 417.464 97.7053 415.126 96.2081 415.126Z" fill="#A694F5"/>
<path d="M311.573 188.122C309.289 184.716 306.929 181.716 304.544 179.098C264.932 127.647 208.978 181.665 192.738 220.457C190.149 216.364 187.13 212.221 186.419 211.077C180.253 201.061 173.579 191.63 165.027 183.852C156.983 176.531 147.619 170.43 137.621 166.82C123.538 159.931 107.83 157.542 92.6805 163.414C72.4812 171.243 60.7576 191.707 63.9549 214.737C68.3703 246.64 87.5038 275.848 104.709 301.37C125.618 332.434 183.831 379.741 183.831 379.741C184.719 379.284 185.582 378.826 186.47 378.343C187.459 379.182 187.992 379.639 187.992 379.639C219.839 363.726 250.848 336.959 274.727 306.378C296.068 279.051 334.158 221.753 311.573 188.122Z" fill="#C2C1FF"/>
<path d="M372.805 513.604C370.217 509.359 308.96 408.059 306.397 403.814C293.582 382.715 284.218 360.014 275.159 337.034C265.998 313.775 270.947 286.066 287.847 268.043C288.608 267.23 291.755 265.756 292.846 265.501C295.104 264.993 297.185 267.408 297.211 269.721C297.236 272.034 295.891 274.144 294.521 276C292.237 279.127 289.725 282.203 288.507 285.888C287.289 289.574 287.695 294.099 290.613 296.641C294.825 296.921 296.754 291.557 297.414 287.388C299.824 272.314 301.804 256.604 306.321 242.013C307.386 238.581 311.7 235.073 314.999 236.471C317.08 237.361 317.664 240.005 317.917 242.267C319.415 255.892 317.486 269.416 316.293 283.092C316.775 271.882 319.338 260.926 319.821 249.715C319.947 246.69 319.643 242.547 321.013 239.852C322.384 237.158 325.352 235.022 328.296 235.582C330.935 236.09 332.813 238.581 333.447 241.174C334.107 243.767 334.234 247.529 333.955 250.198C332.635 262.4 332.382 274.729 333.194 286.982C333.346 277.144 334.437 267.332 336.493 257.723C337.178 254.571 338.269 251.012 341.187 249.664C344.689 248.063 348.901 250.758 350.424 254.266C351.972 257.774 351.591 261.79 351.388 265.628C349.713 295.574 351.769 344.076 464.286 491.184L372.805 513.604Z" fill="#8978E3"/>
<path d="M327.154 235.865C325.784 241.228 327.458 246.846 331.696 250.456C332.838 251.422 334.488 249.795 333.346 248.804C329.742 245.702 328.22 241.101 329.412 236.475C329.768 235.026 327.535 234.416 327.154 235.865Z" fill="#C2B1FF"/>
<path d="M312.638 237.185C310.227 242.04 311.598 247.709 315.886 251.013C317.079 251.929 318.221 249.895 317.053 249.005C313.831 246.514 312.866 241.989 314.643 238.354C315.302 237.007 313.298 235.837 312.638 237.185Z" fill="#8978E3"/>
<path d="M342.734 249.257C341.871 252.613 342.176 256.044 343.673 259.196C344.434 260.798 345.5 262.298 346.794 263.518C347.657 264.357 350.169 265.246 350.601 266.111C350.728 265.577 350.88 265.043 351.007 264.509C350.931 264.56 350.829 264.611 350.753 264.662C351.286 264.789 351.819 264.941 352.352 265.069C352.301 265.018 352.275 264.941 352.225 264.891C351.387 263.67 349.357 264.84 350.22 266.06C350.271 266.111 350.296 266.187 350.347 266.238C350.702 266.746 351.362 267 351.946 266.645C352.022 266.594 352.123 266.543 352.199 266.492C352.758 266.162 352.91 265.475 352.605 264.891C352.225 264.128 351.641 264.001 350.931 263.594C349.256 262.603 347.835 261.433 346.743 259.807C344.739 256.858 344.13 253.273 344.993 249.816C345.348 248.418 343.115 247.808 342.734 249.257Z" fill="#C2B1FF"/>
<path d="M333.016 268.021C332.991 275.316 333.473 282.561 334.463 289.806C334.666 291.28 336.899 290.645 336.696 289.196C335.757 282.18 335.3 275.138 335.326 268.046C335.351 266.521 333.016 266.521 333.016 268.021Z" fill="#C2B1FF"/>
<path d="M317.054 257.06C316.191 268.88 315.328 280.701 314.44 292.521C314.339 294.021 316.648 293.996 316.775 292.521C317.638 280.701 318.5 268.88 319.389 257.06C319.49 255.585 317.155 255.585 317.054 257.06Z" fill="#C2B1FF"/>
<path d="M348.165 298.978C345.576 299.08 343.115 299.588 340.704 300.554C339.334 301.088 339.943 303.35 341.313 302.791C343.521 301.901 345.779 301.393 348.139 301.291C349.662 301.24 349.662 298.902 348.165 298.978Z" fill="white"/>
<path d="M330.631 301.825C328.094 302.359 325.556 302.588 322.968 302.511C321.47 302.461 321.47 304.799 322.968 304.825C325.759 304.901 328.525 304.647 331.24 304.062C332.687 303.757 332.078 301.52 330.631 301.825Z" fill="white"/>
<path d="M312.283 302.007C309.264 302.287 306.244 302.567 303.224 302.846C301.752 302.973 301.727 305.312 303.224 305.16C306.244 304.88 309.264 304.6 312.283 304.321C313.755 304.194 313.755 301.88 312.283 302.007Z" fill="white"/>
<path d="M280.614 309.555C278.584 310.546 276.402 311.106 274.144 311.207C272.646 311.284 272.646 313.597 274.144 313.521C276.833 313.393 279.371 312.733 281.782 311.538C283.127 310.902 281.959 308.894 280.614 309.555Z" fill="white"/>
<path d="M284.066 274.628C289.395 276.992 295.155 272.29 293.404 266.545C292.973 265.121 290.715 265.731 291.171 267.155C292.262 270.764 288.837 274.222 285.259 272.62C283.888 272.036 282.696 274.018 284.066 274.628Z" fill="#C2B1FF"/>
<path d="M417.232 594L316.851 432.589L399.145 383.934L511.448 550.4L417.232 594Z" fill="#C2B1FF"/>
<path d="M300.078 375.927C300.687 379.588 298.2 383.07 294.546 383.68C290.892 384.291 287.416 381.799 286.807 378.139C286.198 374.478 288.684 370.996 292.339 370.386C295.993 369.775 299.469 372.267 300.078 375.927Z" fill="white"/>
<path d="M313.781 373.082C314.39 376.742 311.903 380.225 308.249 380.835C304.595 381.445 301.118 378.954 300.509 375.293C299.9 371.633 302.387 368.15 306.041 367.54C309.721 366.93 313.172 369.396 313.781 373.082Z" fill="white"/>
<path d="M336.162 363.931C336.771 367.592 334.284 371.074 330.63 371.685C326.976 372.295 323.499 369.803 322.89 366.143C322.281 362.482 324.768 359 328.422 358.39C332.102 357.78 335.553 360.271 336.162 363.931Z" fill="white"/>
<path d="M355.398 355.819C356.007 359.479 353.52 362.962 349.866 363.572C346.212 364.182 342.735 361.691 342.126 358.03C341.517 354.37 344.004 350.887 347.658 350.277C351.338 349.667 354.789 352.133 355.398 355.819Z" fill="white"/>
<path d="M371.917 344.584C372.526 348.244 370.04 351.727 366.385 352.337C362.731 352.947 359.255 350.456 358.646 346.795C358.037 343.135 360.524 339.652 364.178 339.042C367.832 338.432 371.308 340.923 371.917 344.584Z" fill="white"/>
<path d="M9.37152 513.604C11.9599 509.359 73.2173 408.059 75.7803 403.814C88.5951 382.715 97.9588 360.014 107.018 337.034C116.179 313.775 111.23 286.066 94.3301 268.043C93.5688 267.23 90.4222 265.756 89.331 265.501C87.0726 264.993 84.9917 267.408 84.9664 269.721C84.941 272.034 86.2859 274.144 87.6562 276C89.94 279.127 92.4523 282.203 93.6703 285.888C94.8884 289.574 94.4823 294.099 91.5641 296.641C87.3517 296.921 85.4231 291.557 84.7634 287.388C82.3526 272.314 80.3733 256.604 75.8564 242.013C74.7906 238.581 70.4767 235.073 67.1778 236.471C65.097 237.361 64.5134 240.005 64.2596 242.267C62.7624 255.892 64.691 269.416 65.8837 283.092C65.4015 271.882 62.8386 260.926 62.3564 249.715C62.2295 246.69 62.5341 242.547 61.1638 239.852C59.7935 237.158 56.8245 235.022 53.8809 235.582C51.2418 236.09 49.364 238.581 48.7296 241.174C48.0698 243.767 47.9429 247.529 48.222 250.198C49.5416 262.4 49.7953 274.729 48.9833 286.982C48.8311 277.144 47.7399 267.332 45.6845 257.723C44.9993 254.571 43.9081 251.012 40.9899 249.664C37.488 248.063 33.2756 250.758 31.7531 254.266C30.2051 257.774 30.5858 261.79 30.7888 265.628C32.4636 295.574 30.4081 344.076 -82.1086 491.184L9.37152 513.604Z" fill="#A694F5"/>
<path d="M52.7892 236.475C53.9819 241.101 52.4593 245.702 48.8559 248.804C47.714 249.769 49.3634 251.422 50.5054 250.456C54.7431 246.846 56.4179 241.228 55.0476 235.865C54.667 234.416 52.4085 235.026 52.7892 236.475Z" fill="#8978E3"/>
<path d="M67.5322 238.354C69.3338 241.964 68.3442 246.514 65.1214 249.005C63.9542 249.895 65.1214 251.929 66.2887 251.013C70.5519 247.709 71.9222 242.04 69.5369 237.185C68.8771 235.837 66.8724 237.007 67.5322 238.354Z" fill="#8978E3"/>
<path d="M37.1837 249.869C38.0718 253.326 37.4374 256.885 35.4327 259.859C34.4431 261.334 33.1235 262.528 31.601 263.444C30.7889 263.927 30.0023 264.079 29.5455 264.943C29.2664 265.503 29.3932 266.189 29.9515 266.545C30.0276 266.596 30.1291 266.647 30.2053 266.697C30.7635 267.053 31.4487 266.799 31.804 266.291C31.8547 266.24 31.8801 266.164 31.9308 266.113C32.7936 264.893 30.7635 263.723 29.9261 264.943C29.8754 264.994 29.85 265.07 29.7993 265.121C30.3322 264.994 30.8651 264.842 31.3979 264.715C31.3218 264.664 31.2203 264.613 31.1442 264.562C31.2711 265.096 31.4233 265.63 31.5502 266.164C31.9816 265.299 34.4684 264.41 35.3566 263.571C36.6508 262.35 37.7165 260.851 38.4778 259.249C39.975 256.097 40.2795 252.665 39.4167 249.31C39.0615 247.81 36.8284 248.42 37.1837 249.869Z" fill="#8978E3"/>
<path d="M46.8521 268.018C46.8775 275.11 46.4461 282.152 45.4818 289.168C45.2788 290.642 47.5119 291.252 47.7149 289.778C48.6792 282.559 49.1867 275.314 49.1613 267.993C49.1613 266.518 46.8267 266.518 46.8521 268.018Z" fill="#8978E3"/>
<path d="M62.8126 257.06C63.6754 268.88 64.5381 280.701 65.4263 292.521C65.5278 293.996 67.8624 294.021 67.7355 292.521C66.8727 280.701 66.0099 268.88 65.1218 257.06C65.0203 255.585 62.7111 255.585 62.8126 257.06Z" fill="#8978E3"/>
<path d="M34.0111 301.291C36.371 301.393 38.6549 301.901 40.8626 302.791C42.2582 303.35 42.8419 301.088 41.4716 300.554C39.0609 299.588 36.5994 299.08 34.0111 298.978C32.5139 298.902 32.5139 301.24 34.0111 301.291Z" fill="white"/>
<path d="M50.9362 304.062C53.6768 304.647 56.4174 304.901 59.2087 304.825C60.7059 304.774 60.7059 302.461 59.2087 302.511C56.6204 302.588 54.0828 302.384 51.5452 301.825C50.0988 301.52 49.4898 303.757 50.9362 304.062Z" fill="white"/>
<path d="M69.8919 304.345C72.9117 304.624 75.9314 304.904 78.9511 305.183C80.4483 305.31 80.4229 302.997 78.9511 302.87C75.9314 302.59 72.9117 302.311 69.8919 302.031C68.4201 301.879 68.4201 304.192 69.8919 304.345Z" fill="white"/>
<path d="M100.37 311.564C102.781 312.759 105.318 313.42 108.008 313.547C109.505 313.623 109.505 311.285 108.008 311.234C105.75 311.132 103.567 310.573 101.537 309.582C100.218 308.895 99.0251 310.903 100.37 311.564Z" fill="white"/>
<path d="M96.9428 272.618C93.3394 274.22 89.9136 270.763 91.0302 267.153C91.4615 265.729 89.2285 265.094 88.7971 266.543C87.0461 272.288 92.8065 276.991 98.1354 274.627C99.4803 274.016 98.2877 272.034 96.9428 272.618Z" fill="#8978E3"/>
<path d="M65.3249 432.589L-16.9692 383.934L-32.3977 405.973C-4.76335 422.802 22.4142 440.316 50.2009 456.662L65.3249 432.589Z" fill="white"/>
<path d="M-32.3722 406.001L-120 528.851L-32.3722 585.48L50.2265 456.689C22.4398 440.344 -4.76321 422.829 -32.3722 406.001Z" fill="#C2B1FF"/>
<path d="M33.4284 460.654C33.4284 463.247 31.3222 465.357 28.7338 465.357C26.1455 465.357 24.0393 463.247 24.0393 460.654C24.0393 458.061 26.1455 455.951 28.7338 455.951C31.3222 455.951 33.4284 458.061 33.4284 460.654Z" fill="#8978E3"/>
<path d="M24.0387 478.297C24.0387 480.89 21.9325 483 19.3442 483C16.7559 483 14.6497 480.89 14.6497 478.297C14.6497 475.704 16.7559 473.594 19.3442 473.594C21.9325 473.594 24.0387 475.704 24.0387 478.297Z" fill="#8978E3"/>
<path d="M215.422 220.836C221.614 206.88 231.003 194.755 242.981 185.298C244.148 184.383 242.499 182.731 241.331 183.646C229.227 193.204 219.66 205.533 213.418 219.641C212.809 221.014 214.813 222.209 215.422 220.836Z" fill="white"/>
<path d="M255.214 178.029C259.35 176.173 263.664 174.928 268.13 174.241C269.602 174.013 268.967 171.776 267.521 172.004C262.826 172.716 258.36 174.089 254.046 176.046C252.676 176.631 253.843 178.639 255.214 178.029Z" fill="white"/>
<path d="M91.0818 186.368C100.725 176.733 113.971 171.903 127.547 173.022C129.044 173.149 129.019 170.81 127.547 170.709C113.413 169.539 99.4813 174.674 89.4324 184.715C88.392 185.783 90.0414 187.41 91.0818 186.368Z" fill="white"/>
<defs>
<clipPath id="clip0_938_2916">
<rect width="680.504" height="493.194" fill="white" transform="translate(9.59668 -38) rotate(30)"/>
</clipPath>
</defs>
</svg>
