<svg width="402" height="579" viewBox="0 0 402 579" fill="none" xmlns="http://www.w3.org/2000/svg">
<g clip-path="url(#clip0_977_2940)">
<path d="M100.882 160C81.9259 162.335 62.8544 164.461 43.4656 165.917C-11.0656 170.147 -62.1344 182.121 -112.28 201.144C-184.555 228.489 -251.81 262.144 -327 282.416V408.946C-248.002 377.279 -189.662 323.791 -121.974 277.238C0.360016 192.684 161.386 202.554 310.986 172.967C328.095 169.454 344.483 165.016 360.41 160H100.882Z" fill="#4847BF"/>
<path d="M288.134 243.421C208.934 271.598 129.734 293.442 47.88 315.285C-24.28 335.002 -82.36 370.945 -144.826 409.686C-200.77 443.78 -256.744 481.064 -327 485.964V583H-289.203C-267.189 554.754 -229.998 535.915 -191.48 523.826C-156.28 513.263 -121.974 503.393 -88.5344 487.906C-79.7344 484.393 -72.6944 478.753 -63.8944 473.806C-19.8944 451.269 18.8256 432.246 62.8256 409.686C88.36 396.996 111.24 385.739 138.506 380.099C222.12 361.792 288.971 325.848 362.92 292.032C395.177 277.331 429.713 269.61 465 266.79V219.914C404.439 218.342 344.31 223.103 288.134 243.421Z" fill="#4847BF"/>
<path d="M302.214 476.626C249.414 500.573 189.574 499.879 134.149 515.366C107.749 523.11 74.1357 528.241 40.638 548.813C24.8269 558.521 15.7961 571.419 2.66821 583H465V421.012C458.306 421.428 451.555 422.098 444.746 423.069C390.214 430.119 348.84 456.192 302.214 476.626Z" fill="#4847BF"/>
<path d="M261.296 396.525C267.324 404.213 276.648 397.662 279.545 389.919C281.835 383.828 282.256 376.817 283.05 370.32C283.961 363.011 284.779 355.701 285.527 348.392C288.261 321.456 291.439 293.303 285.994 266.529C284.803 260.736 279.779 235.668 270.736 242.084C269.567 242.923 270.642 245.062 271.811 244.223C280.083 238.375 285.597 276.762 286.064 281.987C287.28 295.712 286.742 309.572 285.714 323.297C284.569 338.268 283.05 353.211 281.228 368.073C280.433 374.597 280.036 381.581 278.026 387.781C275.923 394.305 268.329 401.803 262.838 394.792C261.88 393.601 260.384 395.333 261.296 396.525Z" fill="#A5A3FF"/>
<path d="M27.7435 328.441C22.4392 316.042 23.4673 302.02 26.505 289.025C29.4493 276.437 33.9357 264.066 39.4036 252.669C50.0822 230.444 67.3737 210.871 90.0163 207.541C91.3715 207.352 91.3715 204.861 90.0163 205.078C66.5793 208.543 48.6568 228.359 37.5576 251.451C31.6224 263.795 26.7153 277.412 23.8412 291.137C21.1306 304.023 20.71 317.585 25.9209 329.713C26.505 331.121 28.351 329.849 27.7435 328.441Z" fill="#A5A3FF"/>
<path d="M452.577 349.746C443.651 349.042 434.281 348.149 427.458 349.069C412.713 351.045 398.927 358.436 384.603 362.902C369.882 367.477 354.6 368.993 339.411 370.455C328.335 371.538 317.259 372.621 306.16 372.621C295.995 372.648 285.831 371.809 275.713 370.753C259.66 369.102 243.303 367.342 226.9 364.987C189.816 359.681 152.616 351.397 118.758 334.83C110.532 330.796 102.401 326.492 94.3859 321.917C56.625 300.368 21.3409 272.864 -10.2044 240.352C-22.0748 228.115 -33.4077 215.203 -44.1565 201.613L-44.2032 201.559C-46.353 198.825 -43.7826 194.601 -40.8851 196.09L-25.1124 204.185C-22.6122 205.457 -19.6212 205.051 -17.6117 202.885C-15.1815 200.259 -16.0227 196.984 -16.9808 194.114C-20.1119 184.693 -24.4582 175.841 -27.379 166.339C-29.0147 160.979 -30.2532 152.56 -30.4635 144.52C-30.5803 139.999 -25.2994 138.673 -23.8506 142.842C-21.1167 150.692 -13.7328 165.229 -6.95637 175.354C-5.83476 177.032 -3.63827 175.3 -4.52621 173.432C-10.2978 161.466 -16.7471 145.928 -17.2144 137.265C-17.3546 134.585 -15.719 132.121 -13.429 131.878C-10.5081 131.553 -9.24633 135.289 -8.40512 138.294C-5.29732 149.257 -0.320171 159.734 7.57784 166.583C3.9326 160.059 -0.0164032 150.909 -2.00259 143.41C-3.1242 139.187 1.64265 136.317 3.8625 139.864C6.19919 143.6 8.41904 149.176 10.008 152.398C19.0743 170.698 31.0616 186.994 45.1752 200.151C53.8677 208.272 63.3313 215.175 72.7481 222.079C90.3668 234.937 110.766 246.876 131.516 255.945C143.34 261.061 155.257 265.284 166.823 268.235C182.9 272.323 199.303 274.921 215.847 276.6C241.107 279.172 266.647 279.632 291.743 280.038C326.816 280.606 362.895 280.687 395.632 265.853C402.455 262.766 415.984 257.271 428.159 253.887C431.781 252.885 433.51 258.949 430.098 260.709C420.588 265.663 409.652 270.996 400.632 274.732C399.324 275.273 398.296 276.546 398.062 278.143C397.525 281.852 402.525 281.094 405.726 280.146L444.959 268.56C449.095 267.341 451.829 273.432 448.651 276.762C446.829 278.657 444.562 280.254 442.436 281.364C434.328 285.587 421.569 290.487 410.517 295.143C406.941 296.659 408.344 302.967 412.082 302.182C422.995 299.935 438.907 294.521 452.25 290.298C456.409 288.971 458.863 295.577 455.241 298.311C445.941 305.268 436.173 310.899 425.962 315.717C413.741 321.511 416.171 333.287 424.77 334.992C429.654 335.967 434.234 336.481 437.248 336.508C441.618 336.562 448.348 338.051 454.236 340.731C458.489 342.707 457.064 350.098 452.577 349.746Z" fill="#EBEBFF"/>
<path d="M137.778 290.65C142.639 307.975 157.78 312.929 169.3 307.163C181.287 301.478 190.634 288.403 197.411 274.326C185.891 272.674 173.436 271.619 162.197 268.235C154.065 265.798 145.746 262.469 137.428 258.489C134.904 268.912 135.395 280.281 137.778 290.65Z" fill="#EBEBFF"/>
<path d="M228.348 370.266C227.857 368.533 227.367 366.774 226.876 364.987C222.623 349.529 218.604 333.016 217.623 317.044C216.571 299.935 216.034 286.724 215.823 276.6C212.856 276.302 200.331 274.678 197.387 274.299C189.442 288.376 185.026 299.61 170.936 305.268C157.406 311.034 143.807 307.948 138.105 290.623C135.301 280.254 134.717 268.885 137.708 258.489C135.628 257.65 133.572 256.784 131.492 255.89C119.388 267.558 109.948 282.934 102.938 299.123C99.7133 306.54 96.8626 314.147 94.3623 321.917C83.707 354.808 79.0336 390.325 77.8185 425.193C76.1361 473.623 78.0055 523.244 85.3894 570.971L344.248 559.438C294.64 505.134 249.846 446.85 228.348 370.266Z" fill="#A5A3FF"/>
<path d="M172.174 231.256C167.244 225.787 167.571 215.5 172.828 210.357C175.702 207.541 179.628 206.242 182.222 203.129C188.227 195.928 184.115 184.45 184.231 174.623C184.325 165.094 189.723 156.729 196.499 150.909C208.813 140.27 216.922 146.144 226.783 142.111C250.313 132.5 246.364 117.314 255.781 105.89C265.198 94.4926 279.638 90.2154 293.425 90.1883C303.66 90.1883 313.263 96.4688 323.498 96.1169C335.439 95.7108 336.397 80.1449 359.203 78.629C375.069 77.6003 390.444 87.5083 397.828 103.291C405.236 119.073 401.403 145.197 388.481 155.727C379.065 163.388 359.974 166.61 348.501 164.986C336.49 163.28 329.48 152.75 319.526 160.546C308.099 169.479 307.819 189.62 296.86 199.231C288.284 206.756 276.227 205.322 265.455 203.86C254.706 202.398 242.368 201.829 234.564 210.357C229.259 216.177 226.712 225.652 219.772 228.522C210.052 232.528 198.649 220.508 189.676 226.356C187.269 227.926 185.563 230.579 183.32 232.447C181.077 234.315 177.689 235.235 175.656 233.124L172.174 231.256Z" fill="#2E2500"/>
<path d="M174.16 214.58C180.446 208.949 181.708 199.61 181.123 190.893C180.306 178.494 177.081 165.446 185.586 155.457C198.882 139.864 220.66 144.195 235.311 131.309C243.349 124.244 245.896 112.522 252.626 104.157C259.543 95.5484 269.24 90.08 279.381 89.2408C296.229 87.8602 319.736 99.0406 332.401 80.172C336.326 74.2976 338.499 60.8162 329.667 59.1107C326.933 58.5964 323.615 59.8687 322.493 63.036C321.348 66.2846 324.409 68.3961 326.886 67.4757C328.195 66.9884 327.634 64.6062 326.325 65.0934C325.765 64.5791 325.227 64.0377 324.666 63.5233C325.25 62.5758 326.022 61.9803 326.98 61.6825C328.008 61.3035 329.246 61.3576 330.251 61.7908C332.775 62.8736 333.803 66.1492 333.826 69.0187C333.873 73.8645 331.443 78.3853 328.382 81.4985C322.306 87.6436 313.66 89.1867 305.879 88.8348C296.252 88.4016 286.672 85.6404 277.021 87.021C269.941 88.0497 263.118 91.217 257.346 96.0628C251.201 101.233 247.088 107.866 243.396 115.473C241.176 120.021 238.91 124.542 235.475 127.98C232.087 131.363 228.044 133.692 223.861 135.424C210.355 141.055 193.765 141.38 183.437 154.482C177.548 161.981 177.011 171.374 177.992 181.039C179.02 191.353 181.38 205.051 173.109 212.414C172.01 213.389 173.062 215.527 174.16 214.58Z" fill="#2E2500"/>
<path d="M206.22 223.378C213.253 227.385 221.595 226.843 227.974 221.402C231.433 218.451 234.12 214.255 237.905 211.792C243.21 208.354 249.285 209.491 254.916 211.169C263.819 213.795 272.278 216.664 281.578 215.284C289.453 214.12 296.416 210.113 301.744 203.237C307.352 195.982 311.184 186.697 318.124 180.931C326.536 173.946 337.589 174.623 347.239 176.924C364.133 180.904 384.86 191.082 399.09 174.109C402.922 169.534 409.021 156.621 401.777 152.614C399.417 151.315 396.286 151.45 394.697 154.13C393.202 156.675 393.716 160.167 396.029 161.683C397.221 162.468 398.296 160.329 397.104 159.544C393.879 157.433 397.595 153.724 400.048 154.482C401.52 154.942 402.432 156.052 402.736 157.947C403.039 159.95 402.549 162.36 401.988 164.228C400.703 168.694 397.922 172.484 394.697 175.273C388.084 180.985 379.976 181.932 371.985 180.795C356.539 178.575 341.164 169.236 325.368 174.271C311.464 178.711 307.258 194.683 297.351 204.834C291.345 210.979 283.401 213.308 275.526 213.199C267.488 213.064 260.267 209.788 252.486 207.948C244.705 206.107 238.256 207.433 232.321 213.632C229.026 217.043 226.082 220.725 221.782 222.431C216.992 224.326 211.828 223.811 207.318 221.239C206.056 220.536 204.981 222.674 206.22 223.378Z" fill="#2E2500"/>
<path d="M94.0352 333.72C85.8334 323.974 72.1638 325.247 60.6673 328.116C49.1707 330.986 36.4358 334.559 26.2945 327.683C25.5935 324.461 28.0938 321.402 30.7343 320.103C33.3981 318.804 36.389 318.479 38.8426 316.719C46.8574 310.926 43.3757 295.333 49.8717 287.374C55.1059 280.985 65.2705 281.581 69.0793 273.947C73.5892 264.905 65.4341 251.099 71.9067 243.844C73.5658 241.976 75.8557 241.11 77.912 239.946C88.7776 233.855 94.3857 217.558 90.1563 204.455C95.1101 204.266 99.5965 208.164 102.424 212.874C105.251 217.585 106.817 223.134 108.85 228.359C113.103 239.215 123.454 248.473 131.492 255.917C132.544 256.892 129.81 258.327 130.277 259.789C130.721 261.196 130.488 262.739 130.231 264.201C127.684 279.415 125.09 294.737 120.043 309.085C114.995 323.433 107.214 336.887 96.1382 345.604L94.0352 333.72Z" fill="#A5A3FF"/>
<path d="M210.496 282.068C226.292 261.602 248.537 247.228 272.582 241.949C264.356 249.691 255.383 259.464 256.645 271.24C257.019 274.678 258.281 278.062 257.93 281.527C256.879 291.949 242.205 296.984 243.163 307.407C243.793 314.337 251.481 319.047 251.061 326.005C250.64 332.826 242.438 337.537 243.583 344.25C244.308 348.501 248.514 350.883 250.547 354.592C253.538 360.033 251.388 366.963 251.808 373.271C252.369 381.987 259.403 395.117 267.16 397.174C244.051 397.986 220.146 378.549 208.93 356.514C197.691 334.478 198.765 305.62 211.594 284.64L210.496 282.068Z" fill="#A5A3FF"/>
<path d="M232.321 382.15C216.174 369.968 200.378 356.541 196.172 333.395C192.2 311.576 200.098 288.998 215.637 276.004C216.454 275.3 215.66 273.703 214.819 274.407C199.35 287.347 191.101 309.302 194.186 331.229C197.691 356.189 214.305 370.807 231.503 383.747C232.391 384.397 233.185 382.8 232.321 382.15Z" fill="#2E2500"/>
<path d="M91.8857 334.207C100.531 305.891 113.523 278.495 131.399 256.567C132.1 255.701 130.978 254.374 130.254 255.268C112.191 277.466 99.0827 305.106 90.3434 333.72C89.9929 334.83 91.5352 335.317 91.8857 334.207Z" fill="#2E2500"/>
<path d="M79.8051 316.557C81.5342 316.448 83.0764 316.99 84.5018 318.127C85.343 318.804 86.1609 317.206 85.3197 316.53C83.7074 315.23 81.7913 314.58 79.8284 314.716C78.7769 314.743 78.7769 316.611 79.8051 316.557Z" fill="#2E2500"/>
<path d="M84.4082 302.723C86.2074 304.754 88.1235 306.595 90.1564 308.273C90.9976 308.977 91.7921 307.352 90.9743 306.676C89.0348 305.079 87.2356 303.319 85.5531 301.397C84.782 300.585 83.6604 301.884 84.4082 302.723Z" fill="#2E2500"/>
<path d="M108.149 264.553C110.532 265.771 112.939 266.962 115.323 268.181C116.257 268.641 117.075 267.044 116.141 266.583C113.757 265.365 111.35 264.174 108.967 262.956C108.032 262.496 107.214 264.093 108.149 264.553Z" fill="#2E2500"/>
<path d="M115.019 259.112C115.697 261.521 117.075 263.524 118.991 264.743C119.903 265.311 120.697 263.714 119.809 263.145C118.267 262.144 117.122 260.574 116.561 258.625C116.257 257.488 114.715 257.975 115.019 259.112Z" fill="#2E2500"/>
<path d="M118.594 249.881C119.599 252.831 121.211 255.241 123.407 257.109C124.249 257.812 125.043 256.215 124.225 255.511C122.403 253.941 120.977 251.83 120.159 249.393C119.762 248.283 118.197 248.771 118.594 249.881Z" fill="#2E2500"/>
<path d="M208.884 289.756C211.057 289.134 213.23 288.511 215.403 287.888C216.408 287.591 215.987 285.804 214.982 286.102C212.809 286.724 210.636 287.347 208.463 287.97C207.458 288.24 207.879 290.027 208.884 289.756Z" fill="#2E2500"/>
<path d="M205.729 299.746C208.136 299.394 210.473 299.61 212.809 300.449C213.791 300.801 214.211 299.015 213.23 298.663C210.776 297.769 208.276 297.526 205.729 297.878C204.724 298.04 204.701 299.908 205.729 299.746Z" fill="#2E2500"/>
<path d="M200.705 339.973C202.364 341.976 204.023 343.98 205.682 346.01C206.407 346.876 207.528 345.55 206.827 344.711C205.168 342.707 203.509 340.704 201.85 338.674C201.126 337.78 200.004 339.107 200.705 339.973Z" fill="#2E2500"/>
<path d="M201.126 335.263C203.323 335.723 205.519 336.183 207.715 336.67C208.72 336.887 209.164 335.1 208.136 334.884C205.94 334.424 203.743 333.963 201.547 333.476C200.542 333.259 200.098 335.046 201.126 335.263Z" fill="#2E2500"/>
<path d="M200.261 327.331C202.201 328.549 204.28 329.199 206.453 329.253C207.482 329.28 207.482 327.439 206.453 327.385C204.537 327.331 202.738 326.762 201.056 325.707C200.144 325.165 199.35 326.762 200.261 327.331Z" fill="#2E2500"/>
<path d="M-0.904449 139.728C-0.0866076 142.95 1.82948 145.603 4.4232 147.119C5.33451 147.66 6.15236 146.063 5.24105 145.522C2.99782 144.222 1.36214 142.029 0.661133 139.241C0.333996 138.077 -1.20822 138.564 -0.904449 139.728Z" fill="#2E2500"/>
<path d="M-3.66161 195.278C-1.72215 194.412 0.2173 193.573 2.15675 192.706C3.1148 192.273 2.69419 190.487 1.73615 190.92C-0.203304 191.786 -2.14276 192.625 -4.08221 193.492C-5.04025 193.898 -4.61965 195.711 -3.66161 195.278Z" fill="#A5A3FF"/>
<path d="M10.9424 188.619C12.8585 187.725 14.7979 186.832 16.714 185.939C17.6487 185.506 17.2515 183.692 16.2934 184.152C14.3773 185.045 12.4379 185.939 10.5218 186.832C9.56375 187.265 9.98435 189.052 10.9424 188.619Z" fill="#A5A3FF"/>
<path d="M23.9815 184.287C25.1965 183.746 26.4116 183.177 27.6267 182.636C28.5847 182.203 28.1641 180.416 27.2061 180.849C25.991 181.391 24.7759 181.959 23.5609 182.501C22.6028 182.907 23.0234 184.72 23.9815 184.287Z" fill="#A5A3FF"/>
<path d="M391.403 316.692C392.104 319.507 392.828 322.323 393.529 325.138C393.809 326.275 395.375 325.788 395.071 324.651C394.37 321.836 393.646 319.02 392.945 316.205C392.641 315.041 391.099 315.528 391.403 316.692Z" fill="#A5A3FF"/>
<path d="M385.491 295.658C385.982 297.634 386.472 299.583 386.94 301.559C387.22 302.696 388.762 302.209 388.482 301.072C387.991 299.096 387.5 297.147 387.033 295.171C386.753 294.007 385.211 294.494 385.491 295.658Z" fill="#A5A3FF"/>
<path d="M379.088 274.759C380.023 277.304 380.958 279.848 381.892 282.393C382.289 283.476 383.668 282.555 383.271 281.446C382.336 278.901 381.402 276.356 380.467 273.811C380.07 272.729 378.691 273.676 379.088 274.759Z" fill="#A5A3FF"/>
<path d="M180.47 203.562C181.404 189.566 171.777 179.388 169.557 166.312C167.104 151.883 177.198 146.442 185.307 138.727C192.994 131.418 194.864 120.346 195.027 109.192C195.097 103.859 194.209 97.6058 190.424 94.0054C187.83 91.5419 183.764 90.7839 181.077 93.491C178.717 95.8733 178.18 100.99 181.077 103.182C183.671 105.132 187.223 103.507 188.017 100.123C188.391 98.5804 186.311 97.9307 185.961 99.4737C185.003 103.534 180.703 100.827 181.334 97.5517C182.082 93.6805 185.891 93.87 188.181 95.386C191.452 97.5246 192.527 102.127 192.831 106.214C193.251 112.224 192.387 118.884 191.055 124.731C188.742 134.91 180.68 139.052 174.254 145.332C167.922 151.558 165.702 159.761 167.922 169.101C170.749 180.931 179.184 190.757 178.32 203.616C178.226 205.159 180.353 205.159 180.47 203.562Z" fill="#2E2500"/>
<path d="M193.041 175.246C194.724 165.148 201.103 157.054 209.678 154.32C211.01 153.887 210.449 151.504 209.118 151.937C199.864 154.888 192.807 163.659 190.985 174.596C190.728 176.166 192.784 176.816 193.041 175.246Z" fill="#251404"/>
<path d="M240.406 147.985C245.336 144.412 250.43 140.622 253.351 134.585C254.987 131.228 256.085 127.574 257.931 124.352C259.987 120.779 262.534 117.747 265.408 115.067C266.483 114.065 264.965 112.332 263.89 113.307C259.123 117.72 255.618 123.134 253.071 129.55C250.056 137.184 245.336 141.488 239.308 145.846C238.163 146.686 239.238 148.824 240.406 147.985Z" fill="#251404"/>
<path d="M278.658 107.108C287.42 99.2571 298.753 103.264 308.193 106.918C309.502 107.433 310.063 105.023 308.754 104.536C298.379 100.557 286.602 96.8749 277.139 105.375C276.04 106.323 277.583 108.055 278.658 107.108Z" fill="#251404"/>
<path d="M347.52 98.066C352.73 92.2457 360.091 90.2966 366.984 92.8955C368.293 93.3827 368.853 91.0005 367.545 90.5132C359.927 87.6707 351.749 89.9176 346.001 96.3335C344.996 97.4163 346.515 99.1759 347.52 98.066Z" fill="#A5A3FF"/>
<path d="M175.516 277.601L185.33 203.075C185.33 203.075 153.504 210.763 147.896 238.375L161.145 239.783L147.242 265.69C142.148 275.192 146.003 287.753 155.14 291.381C155.303 291.435 155.444 291.516 155.607 291.57C164.557 295.062 174.09 288.403 175.516 277.601Z" fill="#EBEBFF"/>
<path d="M190.494 236.941C187.199 239.106 183.017 237.753 181.147 233.936C179.278 230.119 180.446 225.273 183.741 223.107C187.036 220.942 191.218 222.295 193.088 226.112C194.934 229.929 193.789 234.775 190.494 236.941Z" fill="#EBEBFF"/>
<path d="M184.138 231.445C186.615 230.904 189.092 230.389 191.569 229.902C192.574 229.713 192.153 227.926 191.148 228.115C188.671 228.603 186.194 229.117 183.717 229.659C182.713 229.875 183.133 231.662 184.138 231.445Z" fill="#2E2500"/>
<path d="M161.122 239.783L148.036 264.228L170.959 240.027L161.122 239.783Z" fill="#2E2500"/>
<path d="M157.103 224.136C157.103 224.136 165.678 226.735 172.899 227.385C172.899 227.385 159.439 235.912 152.172 232.799L157.103 224.136Z" fill="white"/>
<path d="M169.697 209.274C165.468 210.979 161.168 213.118 157.313 215.744C156.822 216.069 156.752 217.043 157.313 217.341C158.902 218.234 160.467 219.101 162.056 219.994C162.991 220.508 163.785 218.911 162.874 218.397C161.285 217.504 159.72 216.637 158.131 215.744C158.131 216.285 158.131 216.8 158.131 217.341C161.869 214.796 166.029 212.739 170.118 211.061C171.099 210.682 170.679 208.895 169.697 209.274Z" fill="#2E2500"/>
<path d="M172.502 219.859C174.348 218.424 177.689 220.319 178.601 222.376C179.068 223.432 180.446 222.512 179.979 221.429C178.671 218.505 174.231 216.231 171.684 218.235C170.843 218.911 171.661 220.536 172.502 219.859Z" fill="#2E2500"/>
</g>
<defs>
<clipPath id="clip0_977_2940">
<rect width="402" height="579" fill="white"/>
</clipPath>
</defs>
</svg>
