<svg width="64" height="64" viewBox="0 0 64 64" fill="none" xmlns="http://www.w3.org/2000/svg">
<rect width="64" height="64" rx="32" fill="#A28FFF"/>
<path fill-rule="evenodd" clip-rule="evenodd" d="M40.781 16.781C41.8224 15.7397 43.5109 15.7397 44.5523 16.781L52.5523 24.781C53.5937 25.8224 53.5937 27.5109 52.5523 28.5523C51.5109 29.5937 49.8224 29.5937 48.781 28.5523L40.781 20.5523C39.7397 19.5109 39.7397 17.8224 40.781 16.781Z" fill="#1C0070"/>
<path fill-rule="evenodd" clip-rule="evenodd" d="M52.5524 16.781C53.5938 17.8224 53.5938 19.5109 52.5524 20.5523L44.5524 28.5523C43.511 29.5937 41.8226 29.5937 40.7812 28.5523C39.7398 27.5109 39.7398 25.8224 40.7812 24.781L48.7812 16.781C49.8226 15.7397 51.511 15.7397 52.5524 16.781Z" fill="#1C0070"/>
<path fill-rule="evenodd" clip-rule="evenodd" d="M11.4476 16.781C12.489 15.7397 14.1774 15.7397 15.2188 16.781L23.2188 24.781C24.2602 25.8224 24.2602 27.5109 23.2188 28.5523C22.1774 29.5937 20.489 29.5937 19.4476 28.5523L11.4476 20.5523C10.4062 19.5109 10.4062 17.8224 11.4476 16.781Z" fill="#1C0070"/>
<path fill-rule="evenodd" clip-rule="evenodd" d="M23.219 16.781C24.2603 17.8224 24.2603 19.5109 23.219 20.5523L15.219 28.5523C14.1776 29.5937 12.4891 29.5937 11.4477 28.5523C10.4063 27.5109 10.4063 25.8224 11.4477 24.781L19.4477 16.781C20.4891 15.7397 22.1776 15.7397 23.219 16.781Z" fill="#1C0070"/>
<path fill-rule="evenodd" clip-rule="evenodd" d="M22.2598 37.9731C25.0541 35.8289 28.4778 34.6667 32 34.6667C35.5221 34.6667 38.9458 35.8289 41.7401 37.9731C44.5344 40.1172 46.5432 43.1235 47.4548 46.5256C47.8359 47.9482 46.9917 49.4105 45.5691 49.7916C44.1466 50.1728 42.6843 49.3286 42.3032 47.906C41.6954 45.6379 40.3563 43.6337 38.4934 42.2043C36.6305 40.7749 34.3481 40.0001 32 40.0001C29.6519 40.0001 27.3694 40.7749 25.5065 42.2043C23.6436 43.6337 22.3045 45.6379 21.6967 47.906C21.3156 49.3286 19.8533 50.1728 18.4308 49.7916C17.0082 49.4104 16.164 47.9482 16.5451 46.5256C17.4567 43.1235 19.4655 40.1172 22.2598 37.9731Z" fill="#1C0070"/>
</svg>
