<svg width="402" height="587" viewBox="0 0 402 587" fill="none" xmlns="http://www.w3.org/2000/svg">
<g opacity="0.64">
<mask id="mask0_296_1049" style="mask-type:luminance" maskUnits="userSpaceOnUse" x="-139" y="44" width="729" height="498">
<path d="M274.087 73.4403C172.222 27.0909 31.6584 34.5854 -3.2905 102.988C-25.5139 146.42 2.98 203.12 -27.7578 240.716C-47.6759 265.073 -58.096 268.022 -82.5018 287.864C-103.403 304.849 -121.569 321.466 -131.406 347.666C-145.084 384.033 -139.336 425.96 -117.942 457.965C-99.5305 485.517 -67.5325 499.769 -37.6861 511.195C4.73206 527.412 51.1461 534.293 96.3614 532.296C158.79 529.562 220.665 508.123 282.602 516.416C312.663 520.44 341.403 531.375 371.157 537.303C428.514 548.698 499.426 539.33 533.76 485.271C548.207 462.511 553.371 435.604 550.143 408.913C546.578 379.488 538.125 349.202 544.149 319.501C550.85 286.512 574.887 259.698 585.092 227.662C602.551 172.896 571.291 107.135 517.93 86.3714C496.967 78.2011 474.067 76.4811 451.567 76.3582C391.444 75.9896 328.893 98.3811 274.087 73.4403Z" fill="white"/>
</mask>
<g mask="url(#mask0_296_1049)">
<path d="M645 -3.8147e-06H-182V562.458H645V-3.8147e-06Z" fill="#19186B"/>
</g>
<mask id="mask1_296_1049" style="mask-type:luminance" maskUnits="userSpaceOnUse" x="-139" y="44" width="729" height="498">
<path d="M274.087 73.4403C172.222 27.0909 31.6584 34.5854 -3.2905 102.988C-25.5139 146.42 2.98 203.12 -27.7578 240.716C-47.6759 265.073 -58.096 268.022 -82.5018 287.864C-103.403 304.849 -121.569 321.466 -131.406 347.666C-145.084 384.033 -139.336 425.96 -117.942 457.965C-99.5305 485.517 -67.5325 499.769 -37.6861 511.195C4.73206 527.412 51.1461 534.293 96.3614 532.296C158.79 529.562 220.665 508.123 282.602 516.416C312.663 520.44 341.403 531.375 371.157 537.303C428.514 548.698 499.426 539.33 533.76 485.271C548.207 462.511 553.371 435.604 550.143 408.913C546.578 379.488 538.125 349.202 544.149 319.501C550.85 286.512 574.887 259.698 585.092 227.662C602.551 172.896 571.291 107.135 517.93 86.3714C496.967 78.2011 474.067 76.4811 451.567 76.3582C391.444 75.9896 328.893 98.3811 274.087 73.4403Z" fill="white"/>
</mask>
<g mask="url(#mask1_296_1049)">
<path d="M47.4576 439.751C32.2424 478.145 21.5764 525.631 12.2628 562.458L516.362 570.967C528.996 528.272 533.576 467.825 525.369 423.84C522.91 410.694 518.36 397.794 513.719 385.6C461.495 427.956 387.54 457.996 318.811 466.903C227.796 478.913 131.433 475.872 47.4576 439.751Z" fill="#19186B"/>
</g>
<mask id="mask2_296_1049" style="mask-type:luminance" maskUnits="userSpaceOnUse" x="-139" y="44" width="729" height="498">
<path d="M274.087 73.4403C172.222 27.0909 31.6584 34.5854 -3.2905 102.988C-25.5139 146.42 2.98 203.12 -27.7578 240.716C-47.6759 265.073 -58.096 268.022 -82.5018 287.864C-103.403 304.849 -121.569 321.466 -131.406 347.666C-145.084 384.033 -139.336 425.96 -117.942 457.965C-99.5305 485.517 -67.5325 499.769 -37.6861 511.195C4.73206 527.412 51.1461 534.293 96.3614 532.296C158.79 529.562 220.665 508.123 282.602 516.416C312.663 520.44 341.403 531.375 371.157 537.303C428.514 548.698 499.426 539.33 533.76 485.271C548.207 462.511 553.371 435.604 550.143 408.913C546.578 379.488 538.125 349.202 544.149 319.501C550.85 286.512 574.887 259.698 585.092 227.662C602.551 172.896 571.291 107.135 517.93 86.3714C496.967 78.2011 474.067 76.4811 451.567 76.3582C391.444 75.9896 328.893 98.3811 274.087 73.4403Z" fill="white"/>
</mask>
<g mask="url(#mask2_296_1049)">
<path d="M379.856 440.949C375.891 476.394 367.438 511.195 354.712 544.521C354.067 546.21 356.772 546.947 357.417 545.258C370.235 511.686 378.688 476.671 382.653 440.949C382.868 439.167 380.04 439.167 379.856 440.949Z" fill="#C2C1FF"/>
</g>
</g>
<path d="M55.1727 128.544L45.3059 133.919C39.312 138.403 40.1112 139.847 38.728 147.218L35.2546 169.118C35.1316 169.856 34.0558 169.856 33.9329 169.118L30.521 147.341C29.1685 140 29.2915 138.403 23.3591 133.919L14.0148 128.544C13.6459 128.267 13.6459 127.745 14.0148 127.468L24.5886 122.431C30.4902 117.947 30.1521 114.967 31.5046 107.657L33.9329 86.955C34.0558 86.2178 35.1316 86.2178 35.2546 86.955L38.1132 108.394C39.4349 115.643 40.1727 118.684 46.0436 123.168L55.2034 127.438C55.5415 127.745 55.5415 128.298 55.1727 128.544Z" fill="#EBEBFF"/>
<path d="M94.3326 180.913L87.4781 184.66C83.2977 187.763 83.8818 188.776 82.8981 193.906L80.5006 209.11C80.4084 209.632 79.6707 209.601 79.5785 209.11L77.2117 193.998C76.2588 188.899 76.3817 187.793 72.2321 184.66L65.7772 180.913C65.5313 180.729 65.5313 180.36 65.7772 180.176L73.1235 176.674C77.2117 173.541 76.9965 171.483 77.9186 166.415L79.6092 152.041C79.7014 151.519 80.4391 151.519 80.5313 152.041L82.4986 166.938C83.4207 171.975 83.9432 174.064 88.0006 177.197L94.3633 180.176C94.5785 180.36 94.5785 180.729 94.3326 180.913Z" fill="#EBEBFF"/>
<path d="M190.388 200.479C169.855 187.425 163.185 157.999 176.034 137.021C188.882 116.042 219.251 106.674 241.597 116.841C250.511 120.895 258.626 127.683 268.616 127.745C278.452 127.806 286.997 121.264 295.942 117.025C313.093 108.916 335.225 109.684 348.841 121.817C355.542 127.776 359.969 136.069 367.53 141.014C377.243 147.372 390.276 147.034 402.11 144.976C413.944 142.918 425.778 139.386 437.674 140.215C449.538 141.045 460.85 146.389 468.596 154.867C479.139 166.385 483.903 183.739 498.596 189.913C504.528 192.401 511.26 192.616 517.776 193.353C543.658 196.24 569.447 209.601 579.344 232.484C589.58 256.135 588.166 298.491 562.069 304.696C503.76 318.518 558.504 350.4 495.246 374.051C482.766 378.72 464.262 349.448 453.104 342.967C446.065 338.882 441.608 331.787 435.399 326.626C426.362 319.04 413.452 315.845 401.403 318.18C371.403 324.046 351.792 360.413 321.423 359.215C314.446 358.939 306.546 355.13 306.3 348.434C306.177 345.363 307.714 342.445 309.251 339.711C316.444 326.903 324.774 313.88 325.542 299.536C326.28 285.407 303.565 290.536 291.362 282.98C278.698 275.148 249.835 299.689 240.399 288.417C235.019 281.997 227.212 260.681 223.032 253.463C214.364 238.443 227.304 198.083 209.599 202.567L190.388 200.479Z" fill="#161513"/>
<path d="M173.329 171.023C167.98 167.368 159.989 169.641 154.548 172.159C147.939 175.231 145.019 180.913 146.648 188.07C147.693 192.646 150.275 197.131 149.353 201.953C148.093 208.618 141.822 206.56 137.15 208.68C134.691 209.785 133.062 211.843 132.109 214.301C131.341 216.266 129.988 221.427 130.88 223.116C130.019 221.519 127.591 222.932 128.452 224.529C129.159 225.88 130.726 226.832 132.263 226.065C134.384 225.02 133.523 222.072 133.708 220.137C133.923 217.925 134.353 215.437 135.613 213.563C137.488 210.799 140.439 210.799 143.39 210.338C146.249 209.878 148.831 209.14 150.552 206.683C154.948 200.356 150.306 193.046 149.169 186.595C148.093 180.422 151.566 176.429 156.976 174.248C161.402 172.466 167.704 170.623 171.915 173.511C173.421 174.463 174.835 172.036 173.329 171.023Z" fill="#161513"/>
<path d="M172.007 167.828C164.569 165.095 156.792 160.365 148.616 163.129C146.003 164.02 143.544 165.678 142.13 168.074C141.269 169.548 140.9 171.207 140.655 172.866C140.47 173.971 140.624 176.122 139.948 177.074C138.288 178.087 136.597 179.07 134.937 180.084C134.476 179.777 133.984 179.592 133.462 179.531C126.976 179.316 123.995 183.923 122.273 189.667C121.136 193.506 120.583 197.714 118.093 200.97C114.773 205.301 109.025 206.56 104.015 204.748C103.247 204.472 102.57 205.086 102.294 205.731C101.648 207.298 101.802 208.373 102.786 209.755C103.831 211.198 106.29 209.816 105.214 208.342C105.152 207.728 105.091 207.113 105.029 206.499C104.445 206.837 103.861 207.144 103.308 207.482C109.271 209.601 116.279 207.943 120.275 202.875C124.456 197.561 123.318 186.012 129.804 183.032C133.4 181.374 136.689 184.845 140.193 181.957C142.898 179.715 142.898 176.244 143.544 173.111C146.495 158.982 163.062 167.583 171.3 170.593C172.991 171.146 173.698 168.443 172.007 167.828Z" fill="#161513"/>
<path d="M246.515 341.001C249.989 361.918 270.46 367.293 289.026 366.403C312.54 365.297 335.225 357.342 354.62 344.165C363.903 337.868 372.417 330.497 380.286 322.511C382.868 319.9 400.85 295.88 402.479 296.188C376.844 291.304 350.163 290.567 324.805 290.597C300.03 290.628 277.591 290.29 256.567 291.181C247.776 306.17 243.565 323.063 246.515 341.001Z" fill="#EBEBFF"/>
<path d="M448.34 310.869C433.831 303.836 418.34 299.228 402.479 296.218C400.819 295.911 381.331 321.558 378.503 324.323C369.559 333.169 359.784 341.186 349.057 347.789C328.155 360.659 299.2 367.416 275.409 365.113C240.214 361.673 241.72 316.521 256.567 291.212C219.681 292.778 187.222 298.153 154.579 316.091C115.419 337.623 84.7117 374.051 62.7649 414.81C58.6461 422.489 54.8038 430.874 51.2075 439.751C136.904 475.872 235.204 478.913 328.063 466.903C398.206 457.996 460.42 427.956 513.719 385.6C501.393 353.84 480.86 326.596 448.34 310.869Z" fill="#A5A3FF"/>
<path d="M344.2 294.314L221.71 183.125C206.095 189.298 188.636 185.459 176.157 174.77C168.073 204.994 161.372 256.135 193.032 292.625L219.036 262.831C219.036 262.831 232.714 296.618 246.239 329.821C258.903 360.905 298.831 369.566 323.268 346.591C323.575 346.284 323.913 345.977 324.221 345.67C344.446 326.534 364.825 313.02 344.2 294.314Z" fill="#EBEBFF"/>
<path d="M221.71 183.125L184.702 149.522C184.702 149.522 180.276 159.474 176.187 174.77C188.636 185.459 206.095 189.298 221.71 183.125Z" fill="#EBEBFF"/>
<path d="M264.19 187.885C262.96 199.066 252.878 207.144 241.69 205.915C230.501 204.687 222.417 194.612 223.647 183.432C224.876 172.251 234.958 164.173 246.147 165.402C257.335 166.63 265.419 176.705 264.19 187.885Z" fill="#EBEBFF"/>
<path d="M240.706 194.796C243.903 188.039 247.13 181.282 250.45 174.616C251.249 172.989 248.821 171.576 248.022 173.204C244.702 179.9 241.474 186.657 238.278 193.384C237.478 195.011 239.907 196.424 240.706 194.796Z" fill="#161513"/>
<path d="M219.036 262.861L247.161 331.08L236.649 239.579L219.036 262.861Z" fill="#161513"/>
<path d="M171.362 196.885C167.581 209.509 164.599 223.024 163.37 236.17C163.278 237.276 164.63 237.859 165.491 237.368C170.071 234.88 174.65 232.423 179.23 229.935C180.829 229.075 179.415 226.648 177.816 227.508C173.237 229.996 168.657 232.453 164.077 234.941C164.784 235.341 165.491 235.74 166.198 236.17C167.396 223.3 170.378 210 174.097 197.653C174.589 195.902 171.884 195.134 171.362 196.885Z" fill="#161513"/>
<path d="M194.507 207.728C198.964 202.629 205.142 199.957 211.935 200.264C213.749 200.356 213.749 197.53 211.935 197.469C204.466 197.131 197.458 200.141 192.54 205.762C191.341 207.083 193.308 209.079 194.507 207.728Z" fill="#161513"/>
<path d="M187.899 247.412C194.907 251.62 203.544 244.586 200.347 236.876C199.671 235.218 196.935 235.955 197.642 237.613C199.825 242.927 194.384 248.026 189.313 244.954C187.776 244.033 186.362 246.46 187.899 247.412Z" fill="#161513"/>
<path d="M192.724 199.527C193.401 201.124 194.077 202.721 194.784 204.318C195.091 205.025 196.105 205.178 196.72 204.81C197.458 204.41 197.519 203.581 197.212 202.875C196.536 201.277 195.86 199.68 195.153 198.083C194.845 197.376 193.831 197.223 193.216 197.591C192.478 197.991 192.417 198.82 192.724 199.527Z" fill="#161513"/>
<path d="M204.435 198.697C203.821 196.793 203.175 194.889 202.56 192.984C202.007 191.264 199.271 192.001 199.855 193.721C200.47 195.626 201.116 197.53 201.73 199.434C202.284 201.154 204.989 200.417 204.435 198.697Z" fill="#161513"/>
<path d="M210.952 198.298C210.706 197.008 211.044 195.626 211.905 194.612C213.073 193.23 211.075 191.233 209.907 192.616C208.37 194.459 207.786 196.67 208.247 199.035C208.585 200.817 211.29 200.079 210.952 198.298Z" fill="#161513"/>
<path d="M190.942 174.678C195.306 172.989 200.009 174.125 203.052 177.688C204.22 179.07 206.218 177.074 205.05 175.691C201.392 171.453 195.429 169.917 190.204 171.944C188.544 172.62 189.251 175.323 190.942 174.678Z" fill="#161513"/>
<path d="M212.673 400.343C197.151 413.919 170.163 429.676 152.181 440.212C158.052 440.672 170.562 444.604 167.888 449.518C165.214 454.433 159.527 457.197 154.241 459.624C145.019 463.832 135.798 468.07 126.577 472.278C122.488 474.152 118.216 476.056 113.667 476.148C109.118 476.241 104.199 473.937 103.001 469.852C102.232 467.302 110.531 457.873 108.257 456.306C106.074 454.801 95.2855 462.204 92.888 463.432C68.0826 476.364 43.2464 489.325 18.441 502.256C15.8898 503.577 13.1234 504.959 10.2648 504.591C7.19102 504.192 4.85494 501.949 2.76477 499.799C-34.7046 461.313 -72.1739 422.796 -109.613 384.31C-89.049 367.017 -64.9813 353.379 -39.1001 344.411C-23.4853 338.974 -6.9791 335.135 7.03733 326.688L212.673 400.343Z" fill="#ACA9A5"/>
<path d="M215.409 396.258C187.96 406.179 162.571 421.383 141.238 440.734C146.341 440.212 151.597 441.194 156.116 443.529C148.523 449.18 140.47 454.218 132.017 458.579C126.577 461.405 120.183 463.985 114.374 461.989C108.564 459.992 105.859 451.054 111.269 448.167C78.5027 460.084 45.767 472.002 13.0005 483.95C11.0333 484.657 8.91237 485.394 6.85294 484.902C4.7935 484.38 3.28735 482.722 1.93489 481.155C-36.0877 436.771 -69.9301 387.013 -120.401 356.082C-111.303 352.581 -102.174 349.11 -93.0756 345.608C-106.815 335.38 -78.967 331.387 -94.6125 324.077C-52.1636 318.548 -8.14712 313.726 38.5436 329.207C38.5436 329.207 68.5744 270.141 111.454 261.971L215.409 396.258Z" fill="white"/>
<path d="M92.7343 242.62C66.1768 260.988 22.4677 291.519 6.05371 317.197C-38.4853 311.054 -84.4691 311.207 -129.531 317.719C-76.1391 355.898 -28.7107 400.22 11.2791 449.242C12.3549 450.563 13.523 451.945 15.2443 452.621C17.7341 453.603 20.7156 452.805 23.3898 452.068C58.2772 442.362 94.763 439.29 130.911 436.28C155.777 409.496 187.345 387.32 222.632 371.87L92.7343 242.62Z" fill="white"/>
<mask id="mask3_296_1049" style="mask-type:luminance" maskUnits="userSpaceOnUse" x="-130" y="242" width="353" height="212">
<path d="M92.7343 242.62C66.1768 260.988 22.4677 291.519 6.05371 317.197C-38.4853 311.054 -84.4691 311.207 -129.531 317.719C-76.1391 355.898 -28.7107 400.22 11.2791 449.242C12.3549 450.563 13.523 451.945 15.2443 452.621C17.7341 453.603 20.7156 452.805 23.3898 452.068C58.2772 442.362 94.763 439.29 130.911 436.28C155.777 409.496 187.345 387.32 222.632 371.87L92.7343 242.62Z" fill="white"/>
</mask>
<g mask="url(#mask3_296_1049)">
<path d="M-64.305 350.861C-40.1451 342.414 -14.6943 338.913 10.8488 340.51C12.6624 340.633 12.6624 337.807 10.8488 337.684C-14.9094 336.056 -40.6677 339.619 -65.0427 348.127C-66.7641 348.741 -66.0264 351.444 -64.305 350.861Z" fill="#EBEBFF"/>
</g>
<mask id="mask4_296_1049" style="mask-type:luminance" maskUnits="userSpaceOnUse" x="-130" y="242" width="353" height="212">
<path d="M92.7343 242.62C66.1768 260.988 22.4677 291.519 6.05371 317.197C-38.4853 311.054 -84.4691 311.207 -129.531 317.719C-76.1391 355.898 -28.7107 400.22 11.2791 449.242C12.3549 450.563 13.523 451.945 15.2443 452.621C17.7341 453.603 20.7156 452.805 23.3898 452.068C58.2772 442.362 94.763 439.29 130.911 436.28C155.777 409.496 187.345 387.32 222.632 371.87L92.7343 242.62Z" fill="white"/>
</mask>
<g mask="url(#mask4_296_1049)">
<path d="M-53.6084 361.488C-30.6472 352.581 -5.84184 349.755 18.6254 348.864C20.439 348.803 20.439 345.977 18.6254 346.069C-6.05701 346.991 -31.1698 349.816 -54.3461 358.816C-56.0366 359.43 -55.2989 362.133 -53.6084 361.488Z" fill="#EBEBFF"/>
</g>
<mask id="mask5_296_1049" style="mask-type:luminance" maskUnits="userSpaceOnUse" x="-130" y="242" width="353" height="212">
<path d="M92.7343 242.62C66.1768 260.988 22.4677 291.519 6.05371 317.197C-38.4853 311.054 -84.4691 311.207 -129.531 317.719C-76.1391 355.898 -28.7107 400.22 11.2791 449.242C12.3549 450.563 13.523 451.945 15.2443 452.621C17.7341 453.603 20.7156 452.805 23.3898 452.068C58.2772 442.362 94.763 439.29 130.911 436.28C155.777 409.496 187.345 387.32 222.632 371.87L92.7343 242.62Z" fill="white"/>
</mask>
<g mask="url(#mask5_296_1049)">
<path d="M-36.8562 371.471C-14.9402 362.103 8.97382 360.014 32.4575 358.11C34.2403 357.956 34.271 355.161 32.4575 355.284C8.42054 357.25 -15.8623 359.43 -38.2702 369.044C-39.93 369.751 -38.4853 372.177 -36.8562 371.471Z" fill="#EBEBFF"/>
</g>
<mask id="mask6_296_1049" style="mask-type:luminance" maskUnits="userSpaceOnUse" x="-130" y="242" width="353" height="212">
<path d="M92.7343 242.62C66.1768 260.988 22.4677 291.519 6.05371 317.197C-38.4853 311.054 -84.4691 311.207 -129.531 317.719C-76.1391 355.898 -28.7107 400.22 11.2791 449.242C12.3549 450.563 13.523 451.945 15.2443 452.621C17.7341 453.603 20.7156 452.805 23.3898 452.068C58.2772 442.362 94.763 439.29 130.911 436.28C155.777 409.496 187.345 387.32 222.632 371.87L92.7343 242.62Z" fill="white"/>
</mask>
<g mask="url(#mask6_296_1049)">
<path d="M-22.6861 386.736C-0.124586 378.351 23.3898 373.037 47.3653 370.949C49.1481 370.795 49.1788 367.969 47.3653 368.123C23.1439 370.242 -0.647129 375.525 -23.4546 384.003C-25.1144 384.648 -24.3767 387.351 -22.6861 386.736Z" fill="#EBEBFF"/>
</g>
<mask id="mask7_296_1049" style="mask-type:luminance" maskUnits="userSpaceOnUse" x="-130" y="242" width="353" height="212">
<path d="M92.7343 242.62C66.1768 260.988 22.4677 291.519 6.05371 317.197C-38.4853 311.054 -84.4691 311.207 -129.531 317.719C-76.1391 355.898 -28.7107 400.22 11.2791 449.242C12.3549 450.563 13.523 451.945 15.2443 452.621C17.7341 453.603 20.7156 452.805 23.3898 452.068C58.2772 442.362 94.763 439.29 130.911 436.28C155.777 409.496 187.345 387.32 222.632 371.87L92.7343 242.62Z" fill="white"/>
</mask>
<g mask="url(#mask7_296_1049)">
<path d="M-6.70248 400.251C12.9082 393.033 32.8263 385.846 53.9739 385.2C55.7874 385.139 55.7874 382.344 53.9739 382.375C32.5804 383.02 12.4164 390.207 -7.44018 397.517C-9.13075 398.162 -8.39306 400.896 -6.70248 400.251Z" fill="#EBEBFF"/>
</g>
<mask id="mask8_296_1049" style="mask-type:luminance" maskUnits="userSpaceOnUse" x="-130" y="242" width="353" height="212">
<path d="M92.7343 242.62C66.1768 260.988 22.4677 291.519 6.05371 317.197C-38.4853 311.054 -84.4691 311.207 -129.531 317.719C-76.1391 355.898 -28.7107 400.22 11.2791 449.242C12.3549 450.563 13.523 451.945 15.2443 452.621C17.7341 453.603 20.7156 452.805 23.3898 452.068C58.2772 442.362 94.763 439.29 130.911 436.28C155.777 409.496 187.345 387.32 222.632 371.87L92.7343 242.62Z" fill="white"/>
</mask>
<g mask="url(#mask8_296_1049)">
<path d="M7.22179 413.397C14.5066 407.807 25.9718 407.285 34.7014 405.473C45.3366 403.261 56.1871 400.374 67.0683 402.309C68.851 402.616 69.5888 399.913 67.806 399.606C56.9555 397.671 46.351 400.19 35.7465 402.401C30.06 403.568 24.3427 404.735 18.6562 405.933C14.0148 406.916 9.61934 408.022 5.80786 410.971C4.39392 412.076 5.77711 414.503 7.22179 413.397Z" fill="#EBEBFF"/>
</g>
<mask id="mask9_296_1049" style="mask-type:luminance" maskUnits="userSpaceOnUse" x="-130" y="242" width="353" height="212">
<path d="M92.7343 242.62C66.1768 260.988 22.4677 291.519 6.05371 317.197C-38.4853 311.054 -84.4691 311.207 -129.531 317.719C-76.1391 355.898 -28.7107 400.22 11.2791 449.242C12.3549 450.563 13.523 451.945 15.2443 452.621C17.7341 453.603 20.7156 452.805 23.3898 452.068C58.2772 442.362 94.763 439.29 130.911 436.28C155.777 409.496 187.345 387.32 222.632 371.87L92.7343 242.62Z" fill="white"/>
</mask>
<g mask="url(#mask9_296_1049)">
<path d="M17.7648 428.356C39.0046 417.298 62.8879 414.073 86.3101 411.063C88.0928 410.848 88.0928 408.022 86.3101 408.237C62.3346 411.309 38.021 414.626 16.3201 425.929C14.7525 426.758 16.1664 429.185 17.7648 428.356Z" fill="#EBEBFF"/>
</g>
<mask id="mask10_296_1049" style="mask-type:luminance" maskUnits="userSpaceOnUse" x="-130" y="242" width="353" height="212">
<path d="M92.7343 242.62C66.1768 260.988 22.4677 291.519 6.05371 317.197C-38.4853 311.054 -84.4691 311.207 -129.531 317.719C-76.1391 355.898 -28.7107 400.22 11.2791 449.242C12.3549 450.563 13.523 451.945 15.2443 452.621C17.7341 453.603 20.7156 452.805 23.3898 452.068C58.2772 442.362 94.763 439.29 130.911 436.28C155.777 409.496 187.345 387.32 222.632 371.87L92.7343 242.62Z" fill="white"/>
</mask>
<g mask="url(#mask10_296_1049)">
<path d="M41.4637 325.183C59.2916 306.201 78.2568 286.389 103.892 278.618C105.613 278.096 104.876 275.393 103.154 275.915C77.0273 283.84 57.6625 303.866 39.4657 323.217C38.2362 324.507 40.2034 326.504 41.4637 325.183Z" fill="#EBEBFF"/>
</g>
<mask id="mask11_296_1049" style="mask-type:luminance" maskUnits="userSpaceOnUse" x="-130" y="242" width="353" height="212">
<path d="M92.7343 242.62C66.1768 260.988 22.4677 291.519 6.05371 317.197C-38.4853 311.054 -84.4691 311.207 -129.531 317.719C-76.1391 355.898 -28.7107 400.22 11.2791 449.242C12.3549 450.563 13.523 451.945 15.2443 452.621C17.7341 453.603 20.7156 452.805 23.3898 452.068C58.2772 442.362 94.763 439.29 130.911 436.28C155.777 409.496 187.345 387.32 222.632 371.87L92.7343 242.62Z" fill="white"/>
</mask>
<g mask="url(#mask11_296_1049)">
<path d="M54.2505 333.845C68.4206 313.726 91.1666 302.699 112.806 292.41C114.435 291.642 113.021 289.215 111.392 289.983C89.2301 300.518 66.3305 311.852 51.8222 332.401C50.7772 333.906 53.2054 335.319 54.2505 333.845Z" fill="#EBEBFF"/>
</g>
<mask id="mask12_296_1049" style="mask-type:luminance" maskUnits="userSpaceOnUse" x="-130" y="242" width="353" height="212">
<path d="M92.7343 242.62C66.1768 260.988 22.4677 291.519 6.05371 317.197C-38.4853 311.054 -84.4691 311.207 -129.531 317.719C-76.1391 355.898 -28.7107 400.22 11.2791 449.242C12.3549 450.563 13.523 451.945 15.2443 452.621C17.7341 453.603 20.7156 452.805 23.3898 452.068C58.2772 442.362 94.763 439.29 130.911 436.28C155.777 409.496 187.345 387.32 222.632 371.87L92.7343 242.62Z" fill="white"/>
</mask>
<g mask="url(#mask12_296_1049)">
<path d="M67.8673 343.919C73.8919 334.09 83.1133 327.21 92.7342 321.159C102.847 314.832 113.359 309.211 124.21 304.204C125.839 303.436 124.425 301.01 122.796 301.778C111.054 307.214 99.5887 313.357 88.7075 320.391C79.6092 326.289 71.1563 333.138 65.439 342.506C64.4862 344.073 66.9145 345.486 67.8673 343.919Z" fill="#EBEBFF"/>
</g>
<mask id="mask13_296_1049" style="mask-type:luminance" maskUnits="userSpaceOnUse" x="-130" y="242" width="353" height="212">
<path d="M92.7343 242.62C66.1768 260.988 22.4677 291.519 6.05371 317.197C-38.4853 311.054 -84.4691 311.207 -129.531 317.719C-76.1391 355.898 -28.7107 400.22 11.2791 449.242C12.3549 450.563 13.523 451.945 15.2443 452.621C17.7341 453.603 20.7156 452.805 23.3898 452.068C58.2772 442.362 94.763 439.29 130.911 436.28C155.777 409.496 187.345 387.32 222.632 371.87L92.7343 242.62Z" fill="white"/>
</mask>
<g mask="url(#mask13_296_1049)">
<path d="M78.1338 354.485C97.4371 339.035 118.769 326.35 141.546 316.675C143.206 315.968 141.761 313.542 140.132 314.248C117.109 324.016 95.6543 336.885 76.1358 352.489C74.7219 353.625 76.7198 355.622 78.1338 354.485Z" fill="#EBEBFF"/>
</g>
<mask id="mask14_296_1049" style="mask-type:luminance" maskUnits="userSpaceOnUse" x="-130" y="242" width="353" height="212">
<path d="M92.7343 242.62C66.1768 260.988 22.4677 291.519 6.05371 317.197C-38.4853 311.054 -84.4691 311.207 -129.531 317.719C-76.1391 355.898 -28.7107 400.22 11.2791 449.242C12.3549 450.563 13.523 451.945 15.2443 452.621C17.7341 453.603 20.7156 452.805 23.3898 452.068C58.2772 442.362 94.763 439.29 130.911 436.28C155.777 409.496 187.345 387.32 222.632 371.87L92.7343 242.62Z" fill="white"/>
</mask>
<g mask="url(#mask14_296_1049)">
<path d="M90.4289 367.447C108.503 354.577 127.13 341.554 149.138 336.609C150.89 336.21 150.152 333.507 148.4 333.906C126.146 338.913 107.304 352.028 89.0149 365.021C87.5395 366.065 88.9227 368.491 90.4289 367.447Z" fill="#EBEBFF"/>
</g>
<mask id="mask15_296_1049" style="mask-type:luminance" maskUnits="userSpaceOnUse" x="-130" y="242" width="353" height="212">
<path d="M92.7343 242.62C66.1768 260.988 22.4677 291.519 6.05371 317.197C-38.4853 311.054 -84.4691 311.207 -129.531 317.719C-76.1391 355.898 -28.7107 400.22 11.2791 449.242C12.3549 450.563 13.523 451.945 15.2443 452.621C17.7341 453.603 20.7156 452.805 23.3898 452.068C58.2772 442.362 94.763 439.29 130.911 436.28C155.777 409.496 187.345 387.32 222.632 371.87L92.7343 242.62Z" fill="white"/>
</mask>
<g mask="url(#mask15_296_1049)">
<path d="M109.21 380.409C127.437 366.556 147.909 356.113 169.825 349.509C171.546 348.987 170.808 346.284 169.087 346.806C146.925 353.472 126.208 363.976 107.796 377.982C106.351 379.057 107.765 381.515 109.21 380.409Z" fill="#EBEBFF"/>
</g>
<mask id="mask16_296_1049" style="mask-type:luminance" maskUnits="userSpaceOnUse" x="-130" y="242" width="353" height="212">
<path d="M92.7343 242.62C66.1768 260.988 22.4677 291.519 6.05371 317.197C-38.4853 311.054 -84.4691 311.207 -129.531 317.719C-76.1391 355.898 -28.7107 400.22 11.2791 449.242C12.3549 450.563 13.523 451.945 15.2443 452.621C17.7341 453.603 20.7156 452.805 23.3898 452.068C58.2772 442.362 94.763 439.29 130.911 436.28C155.777 409.496 187.345 387.32 222.632 371.87L92.7343 242.62Z" fill="white"/>
</mask>
<g mask="url(#mask16_296_1049)">
<path d="M-86.4363 334.182C-66.5797 331.295 -46.5694 329.483 -26.5283 328.746C-17.3685 328.408 -8.17788 328.316 1.01272 328.439C7.80577 328.531 16.0128 330.65 21.2997 325.336C27.4472 319.163 33.0415 312.375 39.189 306.201C45.06 300.303 51.1153 294.621 57.3551 289.092C70.9719 277.052 85.4187 265.994 100.542 255.889C102.048 254.876 100.634 252.449 99.1277 253.463C70.9104 272.322 45.0292 294.621 22.3755 319.931C21.1152 321.343 19.9165 323.094 18.4103 324.261C15.8283 326.289 13.1849 325.92 10.2033 325.828C5.93076 325.705 1.62746 325.613 -2.64509 325.582C-12.4197 325.521 -22.225 325.705 -31.9997 326.135C-50.4731 326.995 -68.8543 328.777 -87.174 331.449C-88.9568 331.725 -88.1883 334.428 -86.4363 334.182Z" fill="#ACA9A5"/>
</g>
<path d="M140.193 445.833C135.859 447.092 131.525 448.474 127.161 449.641C126.7 449.764 124.702 450.593 124.271 450.317C123.042 449.426 124.548 447.983 125.04 447.491C126.638 445.833 130.48 445.433 132.663 445.31C134.015 445.218 134.015 443.13 132.663 443.191C129.927 443.345 117.632 446.14 120.675 451.054C121.689 452.713 124.21 452.528 125.839 452.221C130.849 451.208 135.829 449.334 140.747 447.89C142.038 447.491 141.484 445.464 140.193 445.833Z" fill="#161513"/>
<path d="M92.9494 446.877C66.2075 451.576 40.2956 459.869 15.7976 471.572C16.3509 471.633 16.9349 471.725 17.4882 471.787C-18.014 434.499 -55.2989 398.961 -94.2437 365.297C-95.5961 364.13 -97.5941 366.096 -96.2416 367.294C-57.2969 400.957 -20.0119 436.495 15.4902 473.783C15.9513 474.275 16.6275 474.275 17.1808 473.998C41.4636 462.388 67.1604 454.248 93.6564 449.58C95.5006 449.273 94.7322 446.57 92.9494 446.877Z" fill="#161513"/>
<path d="M120.152 424.793C89.2609 385.323 51.9453 351.26 10.1726 323.586C9.03531 322.848 7.99023 324.661 9.09679 325.398C50.7157 352.98 87.8777 386.951 118.677 426.267C119.476 427.373 120.982 425.868 120.152 424.793Z" fill="#161513"/>
<path d="M-96.4567 345.824C-56.6513 378.259 -18.3213 412.414 18.5026 448.198C19.7936 449.457 21.7915 447.46 20.5005 446.201C-16.2926 410.418 -54.6534 376.262 -94.4588 343.827C-95.842 342.691 -97.8707 344.687 -96.4567 345.824Z" fill="#161513"/>
<path d="M21.2383 448.781C32.5498 447.123 43.892 445.863 55.2957 444.972C57.0785 444.819 57.1093 442.024 55.2957 442.147C43.6461 443.037 32.058 444.358 20.4698 446.048C18.7178 446.355 19.4555 449.058 21.2383 448.781Z" fill="#161513"/>
<path d="M179.2 141.505C173.667 133.519 183.749 122.769 189.251 117.517C195.306 111.742 202.591 107.258 210.399 104.278C225.091 98.6575 241.72 98.2275 256.413 104.125C265.081 107.596 272.827 111.865 282.417 109.316C290.563 107.135 298.032 102.282 305.163 97.9511C320.009 88.9208 335.163 80.4434 353.083 84.9278C380.747 91.8695 400.389 118.561 429.774 120.527C447.909 121.755 467.766 108.609 484.795 118.991C497.182 126.516 502.776 141.29 514.242 149.952C527.059 159.597 547.438 158.184 557.459 144.976C561.24 140 563.699 131.646 558.104 126.946C554.078 123.568 547.254 123.506 544.641 128.544C543.811 130.141 546.24 131.584 547.069 129.956C549.19 125.871 555.369 126.946 557.551 130.479C560.809 135.669 556.444 142.611 552.602 146.082C546.086 152.01 536.68 154.529 528.043 153.024C512.705 150.321 505.297 135.454 495.799 124.888C491.711 120.312 486.916 116.227 481.075 114.046C473.299 111.159 464.969 112.142 457.038 113.739C448.032 115.551 439.057 118.315 429.743 117.67C422.458 117.179 415.45 114.814 408.903 111.681C385.819 100.654 364.21 77.4025 336.516 81.0577C320.378 83.177 307.376 93.9888 293.483 101.453C289.241 103.726 284.815 105.968 280.05 106.951C273.934 108.21 268.37 106.244 262.837 103.848C256.198 100.961 249.681 98.5347 242.427 97.5825C226.782 95.5246 210.46 99.3333 197.151 107.78C187.96 113.616 168.011 130.356 176.71 142.918C177.816 144.393 180.245 142.98 179.2 141.505Z" fill="#161513"/>
<path d="M339.897 274.718C356.495 281.567 367.223 296.341 370.327 313.726C371.587 320.791 372.755 328.715 378.841 333.415C384.067 337.469 390.921 337.623 397.223 337.715C406.598 337.868 415.112 338.79 421.721 346.254C427.899 353.195 429.743 361.826 430.266 370.826C430.665 377.89 431.126 385.907 436.813 390.944C440.87 394.538 446.588 395.951 451.905 395.275C458.206 394.477 464.2 390.484 466.014 384.156C467.827 377.829 463.432 370.826 456.362 372.546C454.61 372.976 455.348 375.679 457.1 375.249C465.614 373.16 463.954 384.648 460.358 388.334C457.868 390.883 454.364 392.296 450.829 392.572C444.067 393.156 437.674 389.839 435.092 383.45C432.233 376.385 433.585 368.399 432.049 361.058C430.85 355.315 428.329 349.786 424.579 345.24C420.768 340.602 415.665 337.162 409.764 335.841C403.432 334.428 396.915 335.227 390.522 334.612C381.762 333.722 376.598 328.807 374.507 320.361C372.848 313.665 372.294 306.938 369.62 300.549C364.18 287.557 353.667 277.359 340.696 271.984C338.975 271.308 338.237 274.011 339.897 274.718Z" fill="#161513"/>
<path d="M364.641 457.934C369.128 465.552 371.987 473.661 373.309 482.384C373.585 484.165 376.29 483.397 376.014 481.647C374.661 472.708 371.649 464.323 367.069 456.552C366.147 454.955 363.719 456.368 364.641 457.934Z" fill="#161513"/>
<path d="M-41.2517 310.194C-47.7681 304.45 -44.7558 292.502 -37.4709 288.109C-30.1553 283.717 -20.811 284.977 -12.6655 287.649C-20.1963 283.809 -22.3172 272.322 -17.2762 265.534C-12.2352 258.746 -1.84584 257.486 5.28533 262.094C0.213593 259.114 -0.862221 250.913 3.25664 246.797C7.06813 242.958 13.2157 243.234 18.5333 244.217C34.5477 247.227 49.7936 254.722 62.181 265.687C63.2568 266.64 64.3941 267.93 64.0252 269.312C63.7486 270.295 62.765 270.878 61.8736 271.308C49.1174 277.39 33.3797 276.53 21.1153 269.097C28.2464 271.615 35.3161 274.288 42.3551 277.052C47.8264 279.202 54.435 284.147 52.099 289.584C50.8387 292.532 47.4268 293.669 44.3838 294.437C27.8469 298.491 10.5415 299.413 -6.39503 297.171C6.57631 299.382 19.3018 303.436 31.228 309.242C33.1645 310.194 35.3161 311.484 35.685 313.634C36.1461 316.337 33.5641 318.456 31.1665 319.593C19.855 324.876 6.63778 322.756 -5.68806 320.514C-17.0303 318.456 -31.6615 312.651 -41.2517 310.194Z" fill="#EBEBFF"/>
<path d="M-20.5344 287.987C-14.4483 291.765 -8.11634 295.051 -1.53846 297.877C0.121382 298.583 1.53533 296.157 -0.124508 295.45C-6.70239 292.655 -13.0344 289.338 -19.1205 285.56C-20.6573 284.577 -22.0713 287.004 -20.5344 287.987Z" fill="#161513"/>
<path d="M-1.23107 259.974C14.7218 268.575 31.7813 274.748 49.5785 278.25C51.3613 278.588 52.099 275.885 50.3162 275.547C32.7649 272.076 15.9514 266.056 0.182876 257.548C-1.41549 256.688 -2.82944 259.114 -1.23107 259.974Z" fill="#161513"/>
<path d="M33.2566 275.731C34.4247 283.656 42.6931 288.908 50.3776 287.004C52.1296 286.574 51.3919 283.871 49.6399 284.301C43.3079 285.867 36.9452 281.352 35.9923 274.994C35.6849 273.182 32.98 273.95 33.2566 275.731Z" fill="#161513"/>
<path d="M45.7055 257.978C48.6563 264.827 56.0027 269.005 63.4105 268.022C65.1933 267.776 65.1933 264.981 63.4105 265.227C56.8633 266.087 50.7465 262.646 48.1338 256.565C47.4268 254.876 44.9985 256.319 45.7055 257.978Z" fill="#161513"/>
<path d="M15.398 308.013C20.2854 313.757 27.6932 316.214 35.0702 314.77C36.853 314.432 36.0846 311.699 34.3325 312.067C27.8776 313.327 21.6378 311.023 17.396 306.047C16.1972 304.665 14.23 306.662 15.398 308.013Z" fill="#161513"/>
<path d="M376.659 546.21C371.649 540.128 302.489 455.999 297.448 449.887C272.489 419.602 243.319 393.647 213.564 368.061C183.441 342.168 139.333 335.073 103.462 351.014C101.833 351.721 97.9904 355.683 97.0683 357.188C95.1318 360.321 97.6523 364.683 101.126 365.942C104.599 367.201 108.441 366.28 111.945 365.205C117.847 363.423 123.749 361.243 129.896 361.335C136.044 361.427 142.652 364.406 144.927 370.119C143.144 376.57 134.107 376.662 127.499 375.494C103.615 371.225 79.056 365.973 54.8039 365.113C49.0866 364.928 41.6173 369.536 41.9862 375.249C42.2321 378.842 45.8899 381.085 49.1481 382.651C68.8203 392.05 90.0908 396.197 111.208 401.572C94.1175 396.412 76.3818 394.538 59.2916 389.378C54.6809 387.996 48.6256 385.354 43.8919 385.999C39.1276 386.644 34.394 389.961 33.687 394.722C33.0722 398.93 35.8079 403.046 39.3735 405.38C42.9391 407.715 48.5026 409.896 52.6522 410.848C71.6482 415.24 90.2752 421.322 108.226 428.939C93.4105 423.994 78.1031 420.523 62.6112 418.557C57.5088 417.912 51.6379 417.697 48.0723 421.414C43.8612 425.837 45.6747 433.546 50.1624 437.693C54.6502 441.84 60.8284 443.406 66.6994 445.095C112.468 458.241 146.894 463.279 227.95 586.969L376.659 546.21Z" fill="#EBEBFF"/>
<path d="M34.5784 396.442C42.0169 397.026 48.5333 401.848 51.2075 408.821C51.853 410.479 54.5579 409.773 53.9125 408.083C50.7465 399.852 43.3694 394.323 34.5784 393.647C32.7649 393.494 32.7956 396.289 34.5784 396.442Z" fill="#161513"/>
<path d="M44.5989 375.31C51.392 374.419 57.9699 378.351 60.1215 384.924C60.6748 386.644 63.4105 385.907 62.8264 384.187C60.3059 376.539 52.6522 371.471 44.5989 372.515C42.8161 372.73 42.8161 375.556 44.5989 375.31Z" fill="#161513"/>
<path d="M46.5354 426.85C52.2834 427.311 57.5703 430.321 60.9514 435.021C62.3654 436.987 63.4719 439.198 64.056 441.532C64.4863 443.222 64.2096 445.095 65.4392 446.385C65.9002 446.877 66.5765 446.846 67.1297 446.6C67.7445 446.324 68.0211 445.925 68.1441 445.28C68.267 444.665 68.0519 443.99 67.4986 443.682C67.4371 443.652 67.3449 443.59 67.2834 443.56C65.6851 442.669 64.2711 445.095 65.8695 445.986C65.931 446.017 66.0232 446.078 66.0846 446.109C65.8695 445.587 65.6543 445.065 65.4392 444.512C65.5314 444.389 65.6236 444.266 65.7158 444.143C66.2691 444.205 66.8531 444.297 67.4064 444.358C66.9146 443.836 66.9146 441.41 66.7301 440.734C66.4228 439.567 66.0232 438.43 65.5314 437.324C64.3633 434.714 62.6728 432.348 60.6441 430.383C56.7711 426.605 51.8838 424.424 46.5047 423.994C44.7219 423.902 44.7526 426.728 46.5354 426.85Z" fill="#161513"/>
<path d="M99.1892 357.864C103.646 357.864 107.95 357.618 111.546 354.67C114.497 352.274 116.126 348.803 115.081 345.086C114.589 343.336 111.884 344.073 112.376 345.824C113.298 349.049 111.177 351.844 108.472 353.41C105.644 355.069 102.386 355.038 99.1892 355.038C97.3757 355.038 97.3757 357.864 99.1892 357.864Z" fill="#161513"/>
<path d="M78.9022 421.905C89.599 425.56 99.9576 429.983 110.04 435.082C111.638 435.911 113.083 433.485 111.454 432.656C101.187 427.403 90.5826 422.919 79.6399 419.172C77.9494 418.619 77.2116 421.322 78.9022 421.905Z" fill="#161513"/>
<path d="M70.8182 392.234C88.9842 397.118 107.181 402.002 125.347 406.886C127.099 407.346 127.837 404.643 126.085 404.183C107.919 399.299 89.722 394.415 71.5559 389.531C69.8039 389.04 69.0662 391.743 70.8182 392.234Z" fill="#161513"/>
<path d="M121.505 458.733C122.857 455.324 124.763 452.191 127.161 449.426C128.329 448.075 126.361 446.078 125.163 447.43C122.427 450.593 120.306 454.095 118.769 457.965C118.124 459.685 120.859 460.392 121.505 458.733Z" fill="white"/>
<path d="M134.569 434.683C136.843 430.936 138.626 426.943 139.948 422.765C140.501 421.045 137.765 420.308 137.243 422.028C136.013 425.99 134.292 429.738 132.14 433.27C131.218 434.806 133.646 436.219 134.569 434.683Z" fill="white"/>
<path d="M144.65 406.793C146.648 402.401 148.646 398.009 150.613 393.616C151.351 391.989 148.923 390.545 148.185 392.204C146.187 396.596 144.189 400.988 142.222 405.35C141.484 407.008 143.882 408.421 144.65 406.793Z" fill="white"/>
<path d="M171.7 364.314C174.681 361.365 176.925 357.925 178.462 354.055C179.138 352.366 176.402 351.659 175.757 353.318C174.405 356.758 172.345 359.768 169.702 362.348C168.441 363.577 170.409 365.573 171.7 364.314Z" fill="white"/>
<path d="M189.435 296.863C187.499 294.468 183.933 294.099 181.505 296.034L90.4597 369.751C90.3675 369.812 90.306 369.904 90.2445 369.966C94.7322 371.409 99.2507 372.515 103.769 373.467L188.605 304.788C191.003 302.853 191.403 299.29 189.435 296.863Z" fill="#161513"/>
<path d="M159.989 336.64C170.286 328.377 180.583 320.084 190.849 311.822C191.618 311.207 191.218 310.071 190.573 309.61C188.144 307.89 186.362 306.047 184.702 303.59C183.687 302.116 181.259 303.498 182.274 305.003C184.179 307.798 186.392 310.071 189.159 312.037C189.067 311.3 188.974 310.562 188.882 309.825C178.585 318.088 168.288 326.381 158.021 334.643C156.577 335.81 158.575 337.776 159.989 336.64Z" fill="#161513"/>
</svg>
