<svg width="402" height="874" viewBox="0 0 402 874" fill="none" xmlns="http://www.w3.org/2000/svg">
<g opacity="0.64">
<ellipse opacity="0.32" cx="-64" cy="276" rx="140" ry="136" fill="#CECDFF"/>
<path opacity="0.64" d="M372.52 901.985C349.176 901.985 330.176 882.908 330.176 859.469C330.176 836.03 349.176 816.953 372.52 816.953C395.864 816.953 414.864 836.03 414.864 859.469C414.929 882.843 395.864 901.985 372.52 901.985ZM372.52 834.467C358.838 834.467 347.684 845.666 347.684 859.404C347.684 873.142 358.838 884.341 372.52 884.341C386.202 884.341 397.356 873.142 397.356 859.404C397.356 845.666 386.202 834.467 372.52 834.467Z" fill="#CECDFF"/>
<path opacity="0.32" d="M4.61741 730C2.92804 730 1.28198 729.31 0.112416 727.931C-1.96681 725.475 -1.66359 721.769 0.848811 719.743L92.4647 643.249C96.9697 639.499 99.6987 634.242 100.219 628.424C100.738 622.606 98.919 616.96 95.1504 612.478C91.3818 607.996 86.0971 605.281 80.2493 604.764C74.4015 604.247 68.7269 606.057 64.2219 609.806L-27.394 686.301C-29.8631 688.37 -33.5451 688.068 -35.6243 685.568C-37.7035 683.112 -37.4003 679.406 -34.8879 677.38L56.728 600.843C63.6155 595.111 72.3222 592.353 81.2889 593.128C90.2556 593.904 98.3559 598.128 104.117 604.937C109.878 611.789 112.651 620.451 111.871 629.372C111.091 638.293 106.846 646.351 99.9586 652.083L8.34269 728.621C7.25976 729.569 5.91693 730 4.61741 730Z" fill="#CECDFF"/>
<ellipse cx="391" cy="463.5" rx="12" ry="11.5" fill="#222159"/>
<path d="M244.1 56.8966C230.266 42.0057 230.606 17.388 244.88 2.02365C259.155 -13.3407 282.026 -13.7066 295.861 1.18429C298.182 3.68276 298.146 7.71898 295.85 10.1906C293.522 12.6957 289.772 12.6676 287.482 10.2025C278.259 0.275209 262.887 0.630546 253.268 10.9848C243.617 21.3724 243.318 37.8844 252.541 47.8116C254.862 50.3101 254.826 54.3463 252.53 56.818C250.234 59.2896 246.422 59.3951 244.1 56.8966Z" fill="#222159"/>
<path opacity="0.64" d="M441.009 185.803C434.293 192.519 423.739 194.453 414.859 189.873C414.239 189.548 413.561 189.282 412.912 189.104C410.168 188.305 407.279 188.656 404.774 190.039C402.269 191.422 400.473 193.691 399.68 196.432L399.416 197.346C399.21 198.024 399.004 198.702 398.74 199.38C396.388 205.569 391.763 210.43 385.722 213.165C379.68 215.842 372.927 216.041 366.762 213.646L363.665 212.433C363.104 212.226 362.544 212.078 361.983 211.93C359.063 211.308 356.086 211.865 353.611 213.513C351.106 215.132 349.428 217.637 348.812 220.555C348.548 221.764 348.195 222.943 347.784 224.063C345.637 229.634 341.455 233.993 336.003 236.376C330.55 238.758 324.506 238.899 318.93 236.74L308.93 232.867C306.039 231.743 304.59 228.468 305.708 225.58C306.825 222.691 310.096 221.25 312.987 222.374L322.988 226.247C325.731 227.341 328.739 227.286 331.421 226.08C334.132 224.903 336.194 222.723 337.282 219.982C337.488 219.422 337.664 218.833 337.781 218.243C338.984 212.377 342.428 207.338 347.438 204.1C352.447 200.803 358.431 199.719 364.301 200.934C365.421 201.171 366.601 201.526 367.722 201.94L370.849 203.123C374.212 204.424 377.868 204.31 381.169 202.84C384.47 201.369 386.974 198.688 388.267 195.328C388.385 194.975 388.532 194.591 388.65 194.238L388.914 193.324C390.529 187.694 394.21 183.009 399.367 180.155C404.495 177.33 410.45 176.629 416.084 178.257C417.471 178.641 418.828 179.174 420.096 179.853C425.584 182.69 432.334 180.545 435.159 175.063C435.424 174.503 435.688 173.943 435.894 173.324L438.891 163.892C439.832 160.944 443.015 159.297 445.964 160.243C448.914 161.19 450.598 164.347 449.628 167.324L446.631 176.757C446.249 177.965 445.779 179.144 445.19 180.264C443.983 182.356 442.6 184.213 441.009 185.803Z" fill="#CECDFF"/>
</g>
</svg>
