<svg width="345" height="155" viewBox="0 0 345 155" fill="none" xmlns="http://www.w3.org/2000/svg">
<g clip-path="url(#clip0_1090_3128)">
<path d="M315.126 -27.8462C292.228 -30.4638 267.885 -35.0192 244.462 -33.7953C221.401 -32.5885 194.693 -16.9338 180.896 2.66438C174.611 11.5711 171.379 22.2116 165.672 31.4412C161.049 38.9371 154.783 45.1412 148.101 50.7164C135.171 61.5099 121.193 70.1956 111.098 84.1166C89.1029 114.457 84.0645 167.965 113.5 195.943C126.394 208.199 144.291 213.502 161.826 215.015C186.584 217.139 211.433 212.584 236.174 215.236C247.117 216.408 257.609 219.162 267.65 223.819C282.205 230.567 296.49 234.205 312.761 234.018C330.115 233.814 347.127 232.046 363.416 226.386C380.012 220.624 397.799 222.375 415.353 220.624C433.845 218.788 456.978 220.539 473.953 212.516C499.886 200.278 513.719 172.606 516.554 146.464C519.678 117.721 506.802 89.8447 483.073 71.4024C471.588 62.4957 462.053 53.776 460.59 38.5462C459.235 24.4892 455.443 16.0414 450.856 2.25644C438.883 -33.8293 395.759 -35.92 363.018 -30.2089C343.334 -26.7753 333.944 -27.3363 317.438 -27.5912C315.072 -27.6252 317.438 -27.5912 315.126 -27.8462Z" fill="#C2C1FF"/>
<path d="M127.261 55.4249C133.221 53.2663 139.108 48.9659 142.738 46.1953C153.194 38.2064 162.765 28.2119 163.92 14.9708C163.993 14.1719 164.029 13.339 163.722 12.5912C163.343 11.6393 162.476 10.9254 161.537 10.4325C157.311 8.22278 151.857 9.97353 148.173 12.9311C144.489 15.8887 141.943 19.8831 138.566 23.1466C131.559 29.9286 121.338 33.2432 114.674 40.3141C111.297 43.9006 109.094 49.6628 112.435 53.3173C116.336 57.6176 121.826 57.3967 127.261 55.4249Z" fill="#C2C1FF"/>
<path d="M331.669 250.428C346.501 219.913 352.1 187.806 350.571 153.116C349.579 130.52 341.358 109.871 325.871 97.4028C276.192 57.4522 232.31 100.604 232.31 100.604C217.498 84.504 192.976 73.4774 155.727 88.4916C143.813 93.3029 132.476 104.33 126.082 116.704C119.133 130.127 118.934 146.433 118.914 161.934C118.894 178.165 124.355 211.994 130.351 226.802C134.203 236.294 141.49 252.562 144.747 254.303L331.669 250.428Z" fill="#4D4BCC"/>
<path d="M255.303 133.478C221.985 144.168 182.631 136.043 159.499 108.691C154.893 103.375 151.418 97.6086 148.936 91.543C151.16 90.2325 153.424 89.128 155.727 88.2294C192.976 73.7206 217.498 84.3728 232.31 99.9112C232.31 99.9112 269.044 65.0528 313.342 88.6412C309.013 95.4182 304.685 102.195 298.827 108.261C287.231 120.673 271.506 127.937 255.303 133.478Z" fill="#EBEBFF"/>
<path d="M226.513 40.004C222.602 25.7386 229.69 19.7854 236.084 17.8384C242.497 15.8914 249.744 18.7932 254.113 23.6606C256.575 26.4126 258.481 29.8947 261.956 31.3924C264.179 32.3471 266.701 32.3284 269.143 32.2348C277.264 31.9166 285.425 30.9618 293.487 31.9165C301.548 32.8713 309.768 36.0539 314.454 42.3629C318.485 47.7732 319.597 54.9808 324.581 59.6236C333.377 67.8047 349.142 63.7609 359.09 70.6502C362.664 73.1214 365.186 76.9405 365.98 81.0591C367.688 89.9703 361.632 99.4057 364.888 107.942C367.509 114.794 375.67 119.381 376.325 126.645C376.722 131.138 373.883 135.518 369.931 137.99C365.96 140.461 361.056 141.266 356.31 141.153C344.873 140.91 333.675 135.518 326.705 126.925C323.409 122.863 321.046 118.183 317.79 114.12C314.534 110.039 310.007 106.445 304.626 105.939C302.541 105.752 300.436 106.033 298.331 106.07C289.654 106.22 281.037 101.783 276.43 94.8003C271.725 87.6676 270.692 84.8969 264.219 79.1683C252.743 69.0215 244.761 82.5193 231.179 71.2119C225.878 66.7937 232.192 52.3411 228.578 46.5938C226.811 43.7669 233.284 42.1008 229.928 41.3519L226.513 40.004Z" fill="#161513"/>
<path d="M228.637 26.2442C226.711 19.3736 232.589 12.7464 239.796 11.9601C244.185 11.4733 248.652 12.8774 252.226 15.2363C256.237 17.8572 258.719 22.2566 262.948 24.5406C268.091 27.3113 274.167 26.0757 279.627 25.0086C284.214 24.1287 288.781 23.2676 293.486 23.8479C301.548 24.8214 309.153 29.1085 313.739 35.4736C319.478 43.4675 318.266 54.6813 327.837 60.1853C337.268 65.6144 348.944 64.0793 358.951 67.8609C366.178 70.5942 372.731 76.7534 371.758 84.6162C370.705 93.2653 362.227 100.791 368.223 109.44C370.785 113.147 374.557 116.067 376.483 120.167C378.171 123.78 377.814 127.749 375.649 131.119C370.11 139.731 358.454 139.338 349.936 135.331C348.884 134.845 349.817 133.366 350.85 133.852C359.348 137.859 373.128 137.671 375.57 126.795C377.337 118.894 368.045 114.177 365.146 107.718C362.108 100.941 366.695 94.6881 368.938 88.4166C370.368 84.4103 370.467 80.3291 367.985 76.6598C365.483 72.9156 361.254 70.4257 356.886 69.0216C348.189 66.2322 338.678 66.7751 330.18 63.3117C322.496 60.1666 319.041 54.5129 316.777 47.193C315.526 43.1492 314.295 39.1617 311.615 35.717C309.053 32.4221 305.559 29.7825 301.687 27.9852C297.795 26.188 293.447 25.252 289.098 25.4017C284.531 25.5515 280.104 26.8245 275.616 27.4985C271.486 28.1163 267.158 28.3409 263.266 26.6748C259.057 24.8588 256.634 21.1146 253.298 18.2878C249.208 14.8244 243.231 12.4843 237.751 14.1317C232.629 15.6668 228.915 20.7964 230.325 25.8323C230.683 26.862 228.935 27.3113 228.637 26.2442Z" fill="#161513"/>
<path d="M230.047 27.2179C222.005 25.5143 213.785 29.4831 210.906 36.8779C208.245 43.7111 211.521 49.7954 214.738 55.8048C217.18 60.3914 219.523 65.3712 218.272 70.5944C217.041 75.7614 212.792 79.412 207.53 80.8909C201.196 82.6694 190.137 82.5571 190.137 91.2249C190.137 97.6462 195.835 102.982 194.664 109.59C193.85 114.121 189.938 116.143 185.431 116.517C182.85 116.742 180.249 116.536 177.667 116.816C173.2 117.303 170.996 119.718 169.745 123.706C168.514 127.618 165.794 135.257 159.678 132.598C156.263 131.119 156.938 125.765 160.869 125.597C162.041 125.54 162.041 127.263 160.869 127.319C158.348 127.431 159.4 129.565 160.075 130.314C161.207 131.587 162.458 131.55 163.987 130.689C165.555 129.809 166.389 128.143 166.985 126.57C167.918 124.08 168.276 121.384 169.824 119.119C172.247 115.543 176.635 115.057 180.785 114.963C183.207 114.907 185.769 115.057 188.111 114.364C191.964 113.241 193.353 109.965 192.897 106.408C192.202 100.847 187.893 96.0549 188.37 90.3076C188.747 85.7396 192.519 82.8941 196.828 81.4713C203.023 79.4307 210.37 80.1046 214.539 74.3947C221.966 64.248 209.258 54.1386 208.146 44.0668C206.855 32.2538 218.431 23.0244 230.523 25.5704C231.675 25.7951 231.198 27.4612 230.047 27.2179Z" fill="#161513"/>
<path d="M292.93 103.113C303.315 102.626 311.873 110.526 311.892 120.317C311.892 126.42 308.716 132.448 312.27 138.233C313.957 140.985 316.995 143.55 320.49 143.756C322.595 143.887 325.295 142.97 325.871 140.779C326.685 137.69 321.741 135.051 320.788 138.87C320.51 139.937 318.763 139.488 319.041 138.42C320.391 133.066 328.273 135.144 327.797 140.349C327.221 146.714 318.643 146.152 314.672 143.325C311.932 141.397 309.966 138.551 309.132 135.425C308.14 131.681 309.132 127.899 309.728 124.174C311.356 114.064 304.586 104.292 292.97 104.835C291.759 104.872 291.759 103.169 292.93 103.113Z" fill="#161513"/>
<path d="M243.688 47.8484C242.496 48.6721 241.285 48.3726 241.285 48.3726C241.206 47.6237 239.637 46.9498 239.637 46.9498C239.836 46.6877 240.769 45.9014 240.491 45.7329L243.688 47.8484Z" fill="#161513"/>
<path d="M244.144 48.5784C243.251 49.1401 242.119 49.4209 241.047 49.1962C240.749 49.1401 240.471 48.878 240.411 48.5972C240.312 48.1666 239.577 47.8671 239.18 47.6986C238.585 47.4365 238.684 46.7438 239.001 46.3507C239.121 46.2196 239.24 46.0886 239.359 45.9575C239.518 45.789 239.617 45.5082 239.617 45.789C239.696 45.995 239.796 46.2009 239.875 46.3881C239.855 46.3694 239.835 46.3506 239.835 46.3319C239.101 45.4895 240.372 44.2726 241.126 45.1151C241.96 46.0698 240.868 46.8187 240.272 47.5301C240.213 47.0808 240.153 46.6315 240.094 46.1822C240.947 46.5566 241.96 47.1931 242.159 48.1104C241.94 47.9045 241.742 47.7173 241.523 47.5114C242 47.605 242.715 47.3803 243.231 47.062C244.204 46.4817 245.117 47.9794 244.144 48.5784Z" fill="#161513"/>
<path d="M254.31 89.5025L237.194 26.9557C237.194 26.9557 207.51 44.9091 211.044 69.7518L224.943 66.0825C224.943 66.0825 222.342 78.4009 219.82 90.5134C217.458 101.858 227.902 111.893 239.974 109.89C240.133 109.871 240.292 109.833 240.451 109.815C250.458 108.111 256.851 98.7881 254.31 89.5025Z" fill="#EBEBFF"/>
<path d="M253.774 53.0154C251.153 56.0107 246.467 56.4226 243.29 53.9514C240.113 51.4803 239.677 47.0621 242.298 44.0668C244.918 41.0714 249.604 40.6595 252.781 43.1307C255.938 45.6019 256.395 50.0387 253.774 53.0154Z" fill="#EBEBFF"/>
<path d="M244.522 49.4022C246.845 48.0543 249.188 46.7251 251.55 45.4333C252.563 44.8717 253.476 46.3507 252.464 46.9123C250.101 48.204 247.778 49.5519 245.435 50.8811C244.442 51.4615 243.529 49.9825 244.522 49.4022Z" fill="#161513"/>
<path d="M224.963 66.0825L219.86 91.0563L235.01 62.7128L224.963 66.0825Z" fill="#161513"/>
<path d="M219.027 52.5284C219.027 52.5284 223.753 53.5581 230.266 51.9294C231.517 51.6111 232.688 52.6407 232.43 53.8202C231.854 56.2726 229.174 59.8296 218.809 61.1588L219.027 52.5284Z" fill="white"/>
<path d="M219.305 51.5736C222.422 52.2101 225.897 51.8357 228.955 51.2179C231.635 50.675 234.217 51.7234 233.244 54.7187C231.556 59.9793 223.931 61.4583 219.067 62.1322C217.736 62.3194 217.161 60.3912 218.511 60.204C222.045 59.7172 229.968 58.6501 231.099 54.4379C231.596 52.622 228.836 53.2959 227.605 53.4831C226.155 53.7078 224.686 53.8388 223.217 53.8575C221.727 53.8763 220.199 53.8014 218.749 53.5019C217.399 53.221 217.975 51.2928 219.305 51.5736Z" fill="#4D4BCC"/>
<path d="M224.626 39.0494C220.972 41.9512 217.379 45.2461 214.4 48.7469C214.182 48.2602 213.963 47.7734 213.765 47.2867C215.651 47.4364 217.557 47.5862 219.463 47.736C220.615 47.8296 220.635 49.5332 219.463 49.4583C217.557 49.3085 215.671 49.1588 213.765 49.009C212.931 48.9341 212.613 48.1291 213.129 47.5488C216.108 44.0292 219.702 40.753 223.355 37.8513C224.229 37.1212 225.519 38.338 224.626 39.0494Z" fill="#161513"/>
<path d="M305.658 153.098C306.015 166.371 305.281 179.644 303.355 192.805C301.647 204.505 298.768 216.206 291.997 226.297C291.382 227.233 289.793 226.372 290.429 225.436C297.12 215.476 299.92 203.906 301.607 192.356C303.494 179.363 304.209 166.221 303.851 153.098C303.811 151.993 305.638 151.993 305.658 153.098Z" fill="#161513"/>
<path d="M311.575 154.146C310.721 157.722 309.113 160.998 306.73 163.9C306.035 164.761 304.447 163.918 305.162 163.039C307.445 160.249 308.994 157.123 309.808 153.697C310.066 152.611 311.833 153.06 311.575 154.146Z" fill="#161513"/>
<path d="M171.016 151.881C172.584 174.87 174.312 198.215 183.207 219.913C183.624 220.943 181.877 221.392 181.46 220.362C172.505 198.534 170.777 175.001 169.209 151.881C169.129 150.795 170.936 150.795 171.016 151.881Z" fill="#161513"/>
<path d="M169.606 162.57C165.873 159.743 163.471 155.793 162.736 151.319C162.557 150.233 164.304 149.784 164.483 150.869C165.178 155.082 167.362 158.695 170.877 161.353C171.81 162.046 170.519 163.244 169.606 162.57Z" fill="#161513"/>
<path d="M235.507 53.5021C233.998 55.0934 231.894 55.9733 229.63 55.992C228.458 56.0107 228.458 54.2884 229.63 54.2884C231.437 54.2697 233.025 53.577 234.217 52.304C235.011 51.4802 236.282 52.6784 235.507 53.5021Z" fill="#161513"/>
<path d="M236.143 42.3069C233.78 40.9216 230.961 40.7156 228.419 41.8389C227.367 42.3069 226.453 40.828 227.506 40.3599C230.623 38.9746 234.118 39.1056 237.056 40.828C238.049 41.4083 237.136 42.8873 236.143 42.3069Z" fill="#161513"/>
<path d="M234.555 41.4644C234.614 42.0822 234.555 42.7 234.336 43.2804C234.158 43.7671 233.522 44.1228 233.006 43.7858C232.708 43.5986 232.43 43.4489 232.073 43.4114C231.755 43.374 231.437 43.4676 231.12 43.4676C230.167 43.4863 229.988 42.7375 229.908 42.0261C229.829 41.3147 229.829 40.5471 230.722 40.285C231.477 40.0791 232.47 40.491 233.185 40.6782C233.82 40.8467 234.098 41.6704 233.582 42.101C232.887 42.6813 231.874 42.7187 231.199 42.0635C230.385 41.2585 231.676 40.0604 232.49 40.8466C232.45 40.8092 232.331 40.8654 232.291 40.8841C232.43 41.3521 232.549 41.8389 232.688 42.3069C232.39 42.232 232.093 42.1571 231.815 42.0822C231.676 42.0448 231.517 42.0073 231.378 41.9699C231.1 41.9512 231.08 41.9137 231.318 41.8763C231.417 41.7827 231.537 41.6704 231.636 41.5768C231.676 41.4083 231.676 41.4083 231.676 41.5393C231.676 41.6329 231.695 41.7265 231.695 41.8201C231.695 41.895 231.815 42.3443 231.676 42.101C231.576 42.0073 231.457 41.895 231.358 41.8014C231.398 41.8201 231.417 41.8389 231.457 41.8576C231.298 41.8201 231.159 41.7827 231 41.7452C231.437 41.764 231.954 41.6704 232.45 41.7452C232.966 41.8201 233.463 42.0261 233.899 42.3069C233.463 42.4754 233.006 42.6439 232.569 42.8123C232.728 42.3443 232.788 41.9325 232.728 41.4457C232.668 40.9777 233.185 40.5846 233.641 40.5846C234.177 40.6033 234.495 40.9964 234.555 41.4644Z" fill="#161513"/>
<path d="M234.158 44.6283C232.648 44.4036 231.139 44.4598 229.67 44.7967C228.538 45.0401 228.042 43.3927 229.194 43.1493C231.02 42.7562 232.807 42.7 234.654 42.9808C235.786 43.168 235.309 44.8155 234.158 44.6283Z" fill="#161513"/>
<path d="M235.924 33.2648C234.554 32.7593 233.164 32.6282 231.735 32.9465C230.603 33.1899 230.107 31.5424 231.258 31.2991C232.986 30.9246 234.753 30.9995 236.401 31.6173C237.493 32.0105 237.016 33.6579 235.924 33.2648Z" fill="#161513"/>
<path d="M256.178 97.3653C254.947 94.0517 253.735 90.7381 252.504 87.4432C252.127 86.3948 253.874 85.9455 254.252 86.9939C255.483 90.3075 256.694 93.6211 257.925 96.916C258.322 97.9457 256.555 98.395 256.178 97.3653Z" fill="#161513"/>
<path d="M203.762 32.8476L199.544 35.0212C196.975 36.8178 197.328 37.4166 196.739 40.3887L195.255 49.2163C195.208 49.5047 194.736 49.5047 194.689 49.2163L193.228 40.4553C192.639 37.5054 192.71 36.8621 190.165 35.0434L186.159 32.8698C186.017 32.7589 186.017 32.5371 186.159 32.4483L190.683 30.4078C193.205 28.589 193.063 27.3913 193.629 24.4636L194.689 16.1018C194.736 15.8134 195.208 15.8134 195.255 16.1018L196.48 24.7297C197.046 27.6575 197.352 28.8774 199.873 30.6739L203.785 32.404C203.927 32.5371 203.927 32.7367 203.762 32.8476Z" fill="#EBEBFF"/>
<path d="M179.732 51.7002L175.514 53.8739C172.946 55.6704 173.299 56.2693 172.71 59.2414L171.202 68.0468C171.155 68.3352 170.684 68.3352 170.636 68.0468L169.175 59.2858C168.586 56.3358 168.657 55.6926 166.112 53.8739L162.106 51.7002C161.965 51.5893 161.965 51.3675 162.106 51.2788L166.63 49.2383C169.152 47.4195 169.01 46.2218 169.576 43.2941L170.613 34.9544C170.66 34.6661 171.131 34.6661 171.178 34.9544L172.404 43.5824C172.969 46.5101 173.299 47.73 175.797 49.5266L179.709 51.2566C179.874 51.3897 179.874 51.6115 179.732 51.7002Z" fill="#EBEBFF"/>
</g>
<defs>
<clipPath id="clip0_1090_3128">
<rect width="345" height="155" rx="32" fill="white"/>
</clipPath>
</defs>
</svg>
