<svg width="78" height="61" viewBox="0 0 78 61" fill="none" xmlns="http://www.w3.org/2000/svg">
<path d="M26.265 27.6187C25.8875 39.0434 38.3756 53.8016 38.3756 53.8016C38.3756 53.8016 52.9278 39.4475 52.5046 27.6187C52.1074 16.5172 38.3756 3.61777 38.3756 3.61777C38.3756 3.61777 26.6175 16.9489 26.265 27.6187Z" fill="white" fill-opacity="0.21"/>
<path d="M29.8107 25.651C27.9928 36.9094 38.496 53.4091 38.496 53.4091C38.496 53.4091 54.7232 41.3863 55.7992 29.607C56.809 18.5518 44.839 3.70566 44.839 3.70566C44.839 3.70566 31.5085 15.1365 29.8107 25.651Z" fill="white" fill-opacity="0.21"/>
<path d="M37.9277 21.2296C32.6772 31.1196 37.3473 50.5568 37.3473 50.5568C37.3473 50.5568 56.3698 45.3584 61.0876 34.7008C65.5153 24.6984 58.9473 6.26322 58.9473 6.26322C58.9473 6.26322 42.8314 11.9931 37.9277 21.2296Z" fill="white" fill-opacity="0.21"/>
<path d="M42.9014 22.0715C35.5945 30.2574 35.7673 50.3518 35.7673 50.3518C35.7673 50.3518 55.3762 50.3955 62.3385 41.3228C68.8729 32.8079 66.6354 13.1779 66.6354 13.1779C66.6354 13.1779 49.7255 14.4264 42.9014 22.0715Z" fill="white" fill-opacity="0.21"/>
<path d="M47.83 25.651C49.6479 36.9094 39.1448 53.4091 39.1448 53.4091C39.1448 53.4091 22.9175 41.3863 21.8416 29.607C20.8317 18.5518 32.8017 3.70566 32.8017 3.70566C32.8017 3.70566 46.1322 15.1365 47.83 25.651Z" fill="white" fill-opacity="0.21"/>
<path d="M40.0776 22.0685C44.5408 32.4094 38.3772 51.3437 38.3772 51.3437C38.3772 51.3437 19.8273 44.401 15.9546 33.3446C12.3201 22.9679 20.2968 5.20797 20.2968 5.20797C20.2968 5.20797 35.9094 12.4109 40.0776 22.0685Z" fill="white" fill-opacity="0.21"/>
<path d="M34.1768 22.8835C40.7214 31.8056 38.763 51.7867 38.763 51.7867C38.763 51.7867 19.2429 49.7509 13.12 39.9829C7.3735 30.8153 11.3455 11.5153 11.3455 11.5153C11.3455 11.5153 28.0645 14.5509 34.1768 22.8835Z" fill="white" fill-opacity="0.21"/>
</svg>
