<?xml version="1.0" encoding="UTF-8"?>
<!--Generator: Apple Native CoreSVG 341-->
<!DOCTYPE svg
PUBLIC "-//W3C//DTD SVG 1.1//EN"
       "http://www.w3.org/Graphics/SVG/1.1/DTD/svg11.dtd">
<svg version="1.1" xmlns="http://www.w3.org/2000/svg" xmlns:xlink="http://www.w3.org/1999/xlink" viewBox="0 0 21.5698 21.2255">
 <g>
  <rect height="21.2255" opacity="0" width="21.5698" x="0" y="0"/>
  <path d="M21.2182 3.42574L21.2182 17.8005C21.2182 20.0548 20.0576 21.2182 17.7601 21.2182L3.45445 21.2182C1.16871 21.2182 0 20.0657 0 17.8005L0 3.42574C0 1.16063 1.16871 0 3.45445 0L17.7601 0C20.0576 0 21.2182 1.17152 21.2182 3.42574ZM4.19063 16.4932C3.84422 16.4932 3.59766 16.7479 3.59766 17.0745C3.59766 17.393 3.84422 17.6476 4.19063 17.6476L12.8415 17.6476C13.1835 17.6476 13.43 17.393 13.43 17.0745C13.43 16.7479 13.1835 16.4932 12.8415 16.4932ZM4.19063 12.5726C3.84422 12.5726 3.59766 12.8272 3.59766 13.1457C3.59766 13.4723 3.84422 13.727 4.19063 13.727L16.0842 13.727C16.4145 13.727 16.661 13.4723 16.661 13.1457C16.661 12.8272 16.4145 12.5726 16.0842 12.5726ZM4.83832 3.19195C4.15371 3.19195 3.72574 3.61992 3.72574 4.29645L3.72574 7.4966C3.72574 8.16949 4.15371 8.60109 4.83832 8.60109L8.0223 8.60109C8.70691 8.60109 9.13488 8.16949 9.13488 7.4966L9.13488 4.29645C9.13488 3.61992 8.70691 3.19195 8.0223 3.19195Z" fill="#6260ff"/>
 </g>
</svg>
