<svg width="402" height="579" viewBox="0 0 402 579" fill="none" xmlns="http://www.w3.org/2000/svg">
<g clip-path="url(#clip0_978_3032)">
<g opacity="0.64">
<mask id="mask0_978_3032" style="mask-type:luminance" maskUnits="userSpaceOnUse" x="-139" y="103" width="729" height="498">
<path d="M274.087 132.44C172.222 86.0909 31.6584 93.5854 -3.2905 161.988C-25.5139 205.42 2.98 262.12 -27.7578 299.716C-47.6759 324.073 -58.096 327.022 -82.5018 346.864C-103.403 363.849 -121.569 380.466 -131.406 406.666C-145.084 443.033 -139.336 484.96 -117.942 516.965C-99.5305 544.517 -67.5325 558.769 -37.6861 570.195C4.73206 586.412 51.1461 593.293 96.3614 591.296C158.79 588.562 220.665 567.123 282.602 575.416C312.663 579.44 341.403 590.375 371.157 596.303C428.514 607.698 499.426 598.33 533.76 544.271C548.207 521.511 553.371 494.604 550.143 467.913C546.578 438.488 538.125 408.202 544.149 378.501C550.85 345.512 574.887 318.698 585.092 286.662C602.551 231.896 571.291 166.135 517.93 145.371C496.967 137.201 474.067 135.481 451.567 135.358C391.444 134.99 328.893 157.381 274.087 132.44Z" fill="white"/>
</mask>
<g mask="url(#mask0_978_3032)">
<path d="M645 59H-182V621.458H645V59Z" fill="#19186B"/>
</g>
<mask id="mask1_978_3032" style="mask-type:luminance" maskUnits="userSpaceOnUse" x="-139" y="103" width="729" height="498">
<path d="M274.087 132.44C172.222 86.0909 31.6584 93.5854 -3.2905 161.988C-25.5139 205.42 2.98 262.12 -27.7578 299.716C-47.6759 324.073 -58.096 327.022 -82.5018 346.864C-103.403 363.849 -121.569 380.466 -131.406 406.666C-145.084 443.033 -139.336 484.96 -117.942 516.965C-99.5305 544.517 -67.5325 558.769 -37.6861 570.195C4.73206 586.412 51.1461 593.293 96.3614 591.296C158.79 588.562 220.665 567.123 282.602 575.416C312.663 579.44 341.403 590.375 371.157 596.303C428.514 607.698 499.426 598.33 533.76 544.271C548.207 521.511 553.371 494.604 550.143 467.913C546.578 438.488 538.125 408.202 544.149 378.501C550.85 345.512 574.887 318.698 585.092 286.662C602.551 231.896 571.291 166.135 517.93 145.371C496.967 137.201 474.067 135.481 451.567 135.358C391.444 134.99 328.893 157.381 274.087 132.44Z" fill="white"/>
</mask>
<g mask="url(#mask1_978_3032)">
<path d="M47.4576 498.751C32.2424 537.145 21.5764 584.631 12.2628 621.458L516.362 629.967C528.996 587.272 533.576 526.825 525.369 482.84C522.91 469.694 518.36 456.794 513.719 444.6C461.495 486.956 387.54 516.996 318.811 525.903C227.796 537.913 131.433 534.872 47.4576 498.751Z" fill="#19186B"/>
</g>
<mask id="mask2_978_3032" style="mask-type:luminance" maskUnits="userSpaceOnUse" x="-139" y="103" width="729" height="498">
<path d="M274.087 132.44C172.222 86.0909 31.6584 93.5854 -3.2905 161.988C-25.5139 205.42 2.98 262.12 -27.7578 299.716C-47.6759 324.073 -58.096 327.022 -82.5018 346.864C-103.403 363.849 -121.569 380.466 -131.406 406.666C-145.084 443.033 -139.336 484.96 -117.942 516.965C-99.5305 544.517 -67.5325 558.769 -37.6861 570.195C4.73206 586.412 51.1461 593.293 96.3614 591.296C158.79 588.562 220.665 567.123 282.602 575.416C312.663 579.44 341.403 590.375 371.157 596.303C428.514 607.698 499.426 598.33 533.76 544.271C548.207 521.511 553.371 494.604 550.143 467.913C546.578 438.488 538.125 408.202 544.149 378.501C550.85 345.512 574.887 318.698 585.092 286.662C602.551 231.896 571.291 166.135 517.93 145.371C496.967 137.201 474.067 135.481 451.567 135.358C391.444 134.99 328.893 157.381 274.087 132.44Z" fill="white"/>
</mask>
<g mask="url(#mask2_978_3032)">
<path d="M379.856 499.949C375.891 535.394 367.438 570.195 354.712 603.521C354.067 605.21 356.772 605.947 357.417 604.258C370.235 570.686 378.688 535.671 382.653 499.949C382.868 498.167 380.04 498.167 379.856 499.949Z" fill="#C2C1FF"/>
</g>
</g>
<path d="M55.1727 187.544L45.3059 192.919C39.312 197.403 40.1112 198.847 38.728 206.218L35.2546 228.118C35.1316 228.856 34.0558 228.856 33.9329 228.118L30.521 206.341C29.1685 199 29.2915 197.403 23.3591 192.919L14.0148 187.544C13.6459 187.267 13.6459 186.745 14.0148 186.468L24.5886 181.431C30.4902 176.947 30.1521 173.967 31.5046 166.657L33.9329 145.955C34.0558 145.218 35.1316 145.218 35.2546 145.955L38.1132 167.394C39.4349 174.643 40.1727 177.684 46.0436 182.168L55.2034 186.438C55.5415 186.745 55.5415 187.298 55.1727 187.544Z" fill="#EBEBFF"/>
<path d="M94.3326 239.913L87.4781 243.66C83.2977 246.763 83.8818 247.776 82.8981 252.906L80.5006 268.11C80.4084 268.632 79.6707 268.601 79.5785 268.11L77.2117 252.998C76.2588 247.899 76.3817 246.793 72.2321 243.66L65.7772 239.913C65.5313 239.729 65.5313 239.36 65.7772 239.176L73.1235 235.674C77.2117 232.541 76.9965 230.484 77.9186 225.415L79.6092 211.041C79.7014 210.519 80.4391 210.519 80.5313 211.041L82.4986 225.938C83.4207 230.975 83.9432 233.064 88.0006 236.197L94.3633 239.176C94.5785 239.36 94.5785 239.729 94.3326 239.913Z" fill="#EBEBFF"/>
<path d="M190.388 259.479C169.855 246.425 163.185 216.999 176.034 196.021C188.882 175.042 219.251 165.674 241.597 175.841C250.511 179.895 258.626 186.683 268.616 186.745C278.452 186.806 286.997 180.264 295.942 176.025C313.093 167.916 335.225 168.684 348.841 180.817C355.542 186.776 359.969 195.069 367.53 200.014C377.243 206.372 390.276 206.034 402.11 203.976C413.944 201.918 425.778 198.386 437.674 199.215C449.538 200.045 460.85 205.389 468.596 213.867C479.139 225.385 483.903 242.739 498.596 248.913C504.528 251.401 511.26 251.616 517.776 252.353C543.658 255.24 569.447 268.601 579.344 291.484C589.58 315.135 588.166 357.491 562.069 363.696C503.76 377.518 558.504 409.4 495.246 433.051C482.766 437.72 464.262 408.448 453.104 401.967C446.065 397.882 441.608 390.787 435.399 385.626C426.362 378.04 413.452 374.845 401.403 377.18C371.403 383.046 351.792 419.413 321.423 418.215C314.446 417.939 306.546 414.13 306.3 407.434C306.177 404.363 307.714 401.445 309.251 398.711C316.444 385.903 324.774 372.88 325.542 358.536C326.28 344.407 303.565 349.536 291.362 341.98C278.698 334.148 249.835 358.689 240.399 347.417C235.019 340.997 227.212 319.681 223.032 312.463C214.364 297.443 227.304 257.083 209.599 261.567L190.388 259.479Z" fill="#161513"/>
<path d="M173.329 230.023C167.98 226.368 159.989 228.641 154.548 231.159C147.939 234.231 145.019 239.913 146.648 247.07C147.693 251.646 150.275 256.131 149.353 260.953C148.093 267.618 141.822 265.56 137.15 267.68C134.691 268.785 133.062 270.843 132.109 273.301C131.341 275.266 129.988 280.427 130.88 282.116C130.019 280.519 127.591 281.932 128.452 283.529C129.159 284.88 130.726 285.832 132.263 285.065C134.384 284.02 133.523 281.072 133.708 279.137C133.923 276.925 134.353 274.437 135.613 272.563C137.488 269.799 140.439 269.799 143.39 269.338C146.249 268.878 148.831 268.14 150.552 265.683C154.948 259.356 150.306 252.046 149.169 245.595C148.093 239.422 151.566 235.429 156.976 233.248C161.402 231.466 167.704 229.623 171.915 232.511C173.421 233.463 174.835 231.036 173.329 230.023Z" fill="#161513"/>
<path d="M172.007 226.828C164.569 224.095 156.792 219.365 148.616 222.129C146.003 223.02 143.544 224.678 142.13 227.074C141.269 228.548 140.9 230.207 140.655 231.866C140.47 232.971 140.624 235.122 139.948 236.074C138.288 237.087 136.597 238.07 134.937 239.084C134.476 238.777 133.984 238.592 133.462 238.531C126.976 238.316 123.995 242.923 122.273 248.667C121.136 252.506 120.583 256.714 118.093 259.97C114.773 264.301 109.025 265.56 104.015 263.748C103.247 263.472 102.57 264.086 102.294 264.731C101.648 266.298 101.802 267.373 102.786 268.755C103.831 270.198 106.29 268.816 105.214 267.342C105.152 266.728 105.091 266.113 105.029 265.499C104.445 265.837 103.861 266.144 103.308 266.482C109.271 268.601 116.279 266.943 120.275 261.875C124.456 256.561 123.318 245.012 129.804 242.032C133.4 240.374 136.689 243.845 140.193 240.957C142.898 238.715 142.898 235.244 143.544 232.111C146.495 217.982 163.062 226.583 171.3 229.593C172.991 230.146 173.698 227.443 172.007 226.828Z" fill="#161513"/>
<path d="M246.515 400.001C249.989 420.918 270.46 426.293 289.026 425.403C312.54 424.297 335.225 416.342 354.62 403.165C363.903 396.868 372.417 389.497 380.286 381.511C382.868 378.9 400.85 354.88 402.479 355.188C376.844 350.304 350.163 349.567 324.805 349.597C300.03 349.628 277.591 349.29 256.567 350.181C247.776 365.17 243.565 382.063 246.515 400.001Z" fill="#EBEBFF"/>
<path d="M448.34 369.869C433.831 362.836 418.34 358.228 402.479 355.218C400.819 354.911 381.331 380.558 378.503 383.323C369.559 392.169 359.784 400.186 349.057 406.789C328.155 419.659 299.2 426.416 275.409 424.113C240.214 420.673 241.72 375.521 256.567 350.212C219.681 351.778 187.222 357.153 154.579 375.091C115.419 396.623 84.7117 433.051 62.7649 473.81C58.6461 481.489 54.8038 489.874 51.2075 498.751C136.904 534.872 235.204 537.913 328.063 525.903C398.206 516.996 460.42 486.956 513.719 444.6C501.393 412.84 480.86 385.596 448.34 369.869Z" fill="#A5A3FF"/>
<path d="M344.2 353.314L221.71 242.125C206.095 248.298 188.636 244.459 176.157 233.77C168.073 263.994 161.372 315.135 193.032 351.625L219.036 321.831C219.036 321.831 232.714 355.618 246.239 388.821C258.903 419.905 298.831 428.566 323.268 405.591C323.575 405.284 323.913 404.977 324.221 404.67C344.446 385.534 364.825 372.02 344.2 353.314Z" fill="#EBEBFF"/>
<path d="M221.71 242.125L184.702 208.522C184.702 208.522 180.276 218.474 176.187 233.77C188.636 244.459 206.095 248.298 221.71 242.125Z" fill="#EBEBFF"/>
<path d="M264.19 246.885C262.96 258.066 252.878 266.144 241.69 264.915C230.501 263.687 222.417 253.612 223.647 242.432C224.876 231.251 234.958 223.173 246.147 224.402C257.335 225.63 265.419 235.705 264.19 246.885Z" fill="#EBEBFF"/>
<path d="M240.706 253.796C243.903 247.039 247.13 240.282 250.45 233.616C251.249 231.989 248.821 230.576 248.022 232.204C244.702 238.899 241.474 245.657 238.278 252.383C237.478 254.011 239.907 255.424 240.706 253.796Z" fill="#161513"/>
<path d="M219.036 321.861L247.161 390.08L236.649 298.579L219.036 321.861Z" fill="#161513"/>
<path d="M171.362 255.885C167.581 268.509 164.599 282.024 163.37 295.17C163.278 296.276 164.63 296.859 165.491 296.368C170.071 293.88 174.65 291.423 179.23 288.935C180.829 288.075 179.415 285.648 177.816 286.508C173.237 288.996 168.657 291.453 164.077 293.941C164.784 294.341 165.491 294.74 166.198 295.17C167.396 282.3 170.378 269 174.097 256.653C174.589 254.902 171.884 254.134 171.362 255.885Z" fill="#161513"/>
<path d="M194.507 266.728C198.964 261.629 205.142 258.957 211.935 259.264C213.749 259.356 213.749 256.53 211.935 256.469C204.466 256.131 197.458 259.141 192.54 264.762C191.341 266.083 193.308 268.079 194.507 266.728Z" fill="#161513"/>
<path d="M187.899 306.412C194.907 310.62 203.544 303.586 200.347 295.876C199.671 294.218 196.935 294.955 197.642 296.613C199.825 301.927 194.384 307.026 189.313 303.954C187.776 303.033 186.362 305.46 187.899 306.412Z" fill="#161513"/>
<path d="M192.724 258.527C193.401 260.124 194.077 261.721 194.784 263.318C195.091 264.025 196.105 264.178 196.72 263.81C197.458 263.41 197.519 262.581 197.212 261.875C196.536 260.277 195.86 258.68 195.153 257.083C194.845 256.376 193.831 256.223 193.216 256.591C192.478 256.991 192.417 257.82 192.724 258.527Z" fill="#161513"/>
<path d="M204.435 257.697C203.821 255.793 203.175 253.889 202.56 251.984C202.007 250.264 199.271 251.001 199.855 252.721C200.47 254.626 201.116 256.53 201.73 258.434C202.284 260.154 204.989 259.417 204.435 257.697Z" fill="#161513"/>
<path d="M210.952 257.298C210.706 256.008 211.044 254.626 211.905 253.612C213.073 252.23 211.075 250.233 209.907 251.616C208.37 253.459 207.786 255.67 208.247 258.035C208.585 259.817 211.29 259.079 210.952 257.298Z" fill="#161513"/>
<path d="M190.942 233.678C195.306 231.989 200.009 233.125 203.052 236.688C204.22 238.07 206.218 236.074 205.05 234.691C201.392 230.453 195.429 228.917 190.204 230.944C188.544 231.62 189.251 234.323 190.942 233.678Z" fill="#161513"/>
<path d="M212.673 459.343C197.151 472.919 170.163 488.676 152.181 499.212C158.052 499.672 170.562 503.604 167.888 508.518C165.214 513.433 159.527 516.197 154.241 518.624C145.019 522.832 135.798 527.07 126.577 531.278C122.488 533.152 118.216 535.056 113.667 535.148C109.118 535.241 104.199 532.937 103.001 528.852C102.232 526.302 110.531 516.873 108.257 515.306C106.074 513.801 95.2855 521.204 92.888 522.432C68.0826 535.364 43.2464 548.325 18.441 561.256C15.8898 562.577 13.1234 563.959 10.2648 563.591C7.19102 563.192 4.85494 560.949 2.76477 558.799C-34.7046 520.313 -72.1739 481.796 -109.613 443.31C-89.049 426.017 -64.9813 412.379 -39.1001 403.411C-23.4853 397.974 -6.9791 394.135 7.03733 385.688L212.673 459.343Z" fill="#ACA9A5"/>
<path d="M215.409 455.258C187.96 465.179 162.571 480.383 141.238 499.734C146.341 499.212 151.597 500.194 156.116 502.529C148.523 508.18 140.47 513.218 132.017 517.579C126.577 520.405 120.183 522.985 114.374 520.989C108.564 518.992 105.859 510.054 111.269 507.167C78.5027 519.084 45.767 531.002 13.0005 542.95C11.0333 543.657 8.91237 544.394 6.85294 543.902C4.7935 543.38 3.28735 541.722 1.93489 540.155C-36.0877 495.771 -69.9301 446.013 -120.401 415.082C-111.303 411.581 -102.174 408.11 -93.0756 404.608C-106.815 394.38 -78.967 390.387 -94.6125 383.077C-52.1636 377.548 -8.14712 372.726 38.5436 388.207C38.5436 388.207 68.5744 329.141 111.454 320.971L215.409 455.258Z" fill="white"/>
<path d="M92.7343 301.62C66.1768 319.988 22.4677 350.519 6.05371 376.197C-38.4853 370.054 -84.4691 370.207 -129.531 376.719C-76.1391 414.898 -28.7107 459.22 11.2791 508.242C12.3549 509.563 13.523 510.945 15.2443 511.621C17.7341 512.603 20.7156 511.805 23.3898 511.068C58.2772 501.362 94.763 498.29 130.911 495.28C155.777 468.496 187.345 446.32 222.632 430.87L92.7343 301.62Z" fill="white"/>
<mask id="mask3_978_3032" style="mask-type:luminance" maskUnits="userSpaceOnUse" x="-130" y="301" width="353" height="212">
<path d="M92.7343 301.62C66.1768 319.988 22.4677 350.519 6.05371 376.197C-38.4853 370.054 -84.4691 370.207 -129.531 376.719C-76.1391 414.898 -28.7107 459.22 11.2791 508.242C12.3549 509.563 13.523 510.945 15.2443 511.621C17.7341 512.603 20.7156 511.805 23.3898 511.068C58.2772 501.362 94.763 498.29 130.911 495.28C155.777 468.496 187.345 446.32 222.632 430.87L92.7343 301.62Z" fill="white"/>
</mask>
<g mask="url(#mask3_978_3032)">
<path d="M-64.305 409.861C-40.1451 401.414 -14.6943 397.913 10.8488 399.51C12.6624 399.633 12.6624 396.807 10.8488 396.684C-14.9094 395.056 -40.6677 398.619 -65.0427 407.127C-66.7641 407.741 -66.0264 410.444 -64.305 409.861Z" fill="#EBEBFF"/>
</g>
<mask id="mask4_978_3032" style="mask-type:luminance" maskUnits="userSpaceOnUse" x="-130" y="301" width="353" height="212">
<path d="M92.7343 301.62C66.1768 319.988 22.4677 350.519 6.05371 376.197C-38.4853 370.054 -84.4691 370.207 -129.531 376.719C-76.1391 414.898 -28.7107 459.22 11.2791 508.242C12.3549 509.563 13.523 510.945 15.2443 511.621C17.7341 512.603 20.7156 511.805 23.3898 511.068C58.2772 501.362 94.763 498.29 130.911 495.28C155.777 468.496 187.345 446.32 222.632 430.87L92.7343 301.62Z" fill="white"/>
</mask>
<g mask="url(#mask4_978_3032)">
<path d="M-53.6084 420.488C-30.6472 411.581 -5.84184 408.755 18.6254 407.864C20.439 407.803 20.439 404.977 18.6254 405.069C-6.05701 405.991 -31.1698 408.816 -54.3461 417.816C-56.0366 418.43 -55.2989 421.133 -53.6084 420.488Z" fill="#EBEBFF"/>
</g>
<mask id="mask5_978_3032" style="mask-type:luminance" maskUnits="userSpaceOnUse" x="-130" y="301" width="353" height="212">
<path d="M92.7343 301.62C66.1768 319.988 22.4677 350.519 6.05371 376.197C-38.4853 370.054 -84.4691 370.207 -129.531 376.719C-76.1391 414.898 -28.7107 459.22 11.2791 508.242C12.3549 509.563 13.523 510.945 15.2443 511.621C17.7341 512.603 20.7156 511.805 23.3898 511.068C58.2772 501.362 94.763 498.29 130.911 495.28C155.777 468.496 187.345 446.32 222.632 430.87L92.7343 301.62Z" fill="white"/>
</mask>
<g mask="url(#mask5_978_3032)">
<path d="M-36.8562 430.471C-14.9402 421.103 8.97382 419.014 32.4575 417.11C34.2403 416.956 34.271 414.161 32.4575 414.284C8.42054 416.25 -15.8623 418.43 -38.2702 428.044C-39.93 428.751 -38.4853 431.177 -36.8562 430.471Z" fill="#EBEBFF"/>
</g>
<mask id="mask6_978_3032" style="mask-type:luminance" maskUnits="userSpaceOnUse" x="-130" y="301" width="353" height="212">
<path d="M92.7343 301.62C66.1768 319.988 22.4677 350.519 6.05371 376.197C-38.4853 370.054 -84.4691 370.207 -129.531 376.719C-76.1391 414.898 -28.7107 459.22 11.2791 508.242C12.3549 509.563 13.523 510.945 15.2443 511.621C17.7341 512.603 20.7156 511.805 23.3898 511.068C58.2772 501.362 94.763 498.29 130.911 495.28C155.777 468.496 187.345 446.32 222.632 430.87L92.7343 301.62Z" fill="white"/>
</mask>
<g mask="url(#mask6_978_3032)">
<path d="M-22.6861 445.736C-0.124586 437.351 23.3898 432.037 47.3653 429.949C49.1481 429.795 49.1788 426.969 47.3653 427.123C23.1439 429.242 -0.647129 434.525 -23.4546 443.003C-25.1144 443.648 -24.3767 446.351 -22.6861 445.736Z" fill="#EBEBFF"/>
</g>
<mask id="mask7_978_3032" style="mask-type:luminance" maskUnits="userSpaceOnUse" x="-130" y="301" width="353" height="212">
<path d="M92.7343 301.62C66.1768 319.988 22.4677 350.519 6.05371 376.197C-38.4853 370.054 -84.4691 370.207 -129.531 376.719C-76.1391 414.898 -28.7107 459.22 11.2791 508.242C12.3549 509.563 13.523 510.945 15.2443 511.621C17.7341 512.603 20.7156 511.805 23.3898 511.068C58.2772 501.362 94.763 498.29 130.911 495.28C155.777 468.496 187.345 446.32 222.632 430.87L92.7343 301.62Z" fill="white"/>
</mask>
<g mask="url(#mask7_978_3032)">
<path d="M-6.70248 459.251C12.9082 452.033 32.8263 444.846 53.9739 444.2C55.7874 444.139 55.7874 441.344 53.9739 441.375C32.5804 442.02 12.4164 449.207 -7.44018 456.517C-9.13075 457.162 -8.39306 459.896 -6.70248 459.251Z" fill="#EBEBFF"/>
</g>
<mask id="mask8_978_3032" style="mask-type:luminance" maskUnits="userSpaceOnUse" x="-130" y="301" width="353" height="212">
<path d="M92.7343 301.62C66.1768 319.988 22.4677 350.519 6.05371 376.197C-38.4853 370.054 -84.4691 370.207 -129.531 376.719C-76.1391 414.898 -28.7107 459.22 11.2791 508.242C12.3549 509.563 13.523 510.945 15.2443 511.621C17.7341 512.603 20.7156 511.805 23.3898 511.068C58.2772 501.362 94.763 498.29 130.911 495.28C155.777 468.496 187.345 446.32 222.632 430.87L92.7343 301.62Z" fill="white"/>
</mask>
<g mask="url(#mask8_978_3032)">
<path d="M7.22179 472.397C14.5066 466.807 25.9718 466.285 34.7014 464.473C45.3366 462.261 56.1871 459.374 67.0683 461.309C68.851 461.616 69.5888 458.913 67.806 458.606C56.9555 456.671 46.351 459.19 35.7465 461.401C30.06 462.568 24.3427 463.735 18.6562 464.933C14.0148 465.916 9.61934 467.022 5.80786 469.971C4.39392 471.076 5.77711 473.503 7.22179 472.397Z" fill="#EBEBFF"/>
</g>
<mask id="mask9_978_3032" style="mask-type:luminance" maskUnits="userSpaceOnUse" x="-130" y="301" width="353" height="212">
<path d="M92.7343 301.62C66.1768 319.988 22.4677 350.519 6.05371 376.197C-38.4853 370.054 -84.4691 370.207 -129.531 376.719C-76.1391 414.898 -28.7107 459.22 11.2791 508.242C12.3549 509.563 13.523 510.945 15.2443 511.621C17.7341 512.603 20.7156 511.805 23.3898 511.068C58.2772 501.362 94.763 498.29 130.911 495.28C155.777 468.496 187.345 446.32 222.632 430.87L92.7343 301.62Z" fill="white"/>
</mask>
<g mask="url(#mask9_978_3032)">
<path d="M17.7648 487.356C39.0046 476.298 62.8879 473.073 86.3101 470.063C88.0928 469.848 88.0928 467.022 86.3101 467.237C62.3346 470.309 38.021 473.626 16.3201 484.929C14.7525 485.758 16.1664 488.185 17.7648 487.356Z" fill="#EBEBFF"/>
</g>
<mask id="mask10_978_3032" style="mask-type:luminance" maskUnits="userSpaceOnUse" x="-130" y="301" width="353" height="212">
<path d="M92.7343 301.62C66.1768 319.988 22.4677 350.519 6.05371 376.197C-38.4853 370.054 -84.4691 370.207 -129.531 376.719C-76.1391 414.898 -28.7107 459.22 11.2791 508.242C12.3549 509.563 13.523 510.945 15.2443 511.621C17.7341 512.603 20.7156 511.805 23.3898 511.068C58.2772 501.362 94.763 498.29 130.911 495.28C155.777 468.496 187.345 446.32 222.632 430.87L92.7343 301.62Z" fill="white"/>
</mask>
<g mask="url(#mask10_978_3032)">
<path d="M41.4637 384.183C59.2916 365.201 78.2568 345.389 103.892 337.618C105.613 337.096 104.876 334.393 103.154 334.915C77.0273 342.84 57.6625 362.866 39.4657 382.217C38.2362 383.507 40.2034 385.504 41.4637 384.183Z" fill="#EBEBFF"/>
</g>
<mask id="mask11_978_3032" style="mask-type:luminance" maskUnits="userSpaceOnUse" x="-130" y="301" width="353" height="212">
<path d="M92.7343 301.62C66.1768 319.988 22.4677 350.519 6.05371 376.197C-38.4853 370.054 -84.4691 370.207 -129.531 376.719C-76.1391 414.898 -28.7107 459.22 11.2791 508.242C12.3549 509.563 13.523 510.945 15.2443 511.621C17.7341 512.603 20.7156 511.805 23.3898 511.068C58.2772 501.362 94.763 498.29 130.911 495.28C155.777 468.496 187.345 446.32 222.632 430.87L92.7343 301.62Z" fill="white"/>
</mask>
<g mask="url(#mask11_978_3032)">
<path d="M54.2505 392.845C68.4206 372.726 91.1666 361.699 112.806 351.41C114.435 350.642 113.021 348.215 111.392 348.983C89.2301 359.518 66.3305 370.852 51.8222 391.401C50.7772 392.906 53.2054 394.319 54.2505 392.845Z" fill="#EBEBFF"/>
</g>
<mask id="mask12_978_3032" style="mask-type:luminance" maskUnits="userSpaceOnUse" x="-130" y="301" width="353" height="212">
<path d="M92.7343 301.62C66.1768 319.988 22.4677 350.519 6.05371 376.197C-38.4853 370.054 -84.4691 370.207 -129.531 376.719C-76.1391 414.898 -28.7107 459.22 11.2791 508.242C12.3549 509.563 13.523 510.945 15.2443 511.621C17.7341 512.603 20.7156 511.805 23.3898 511.068C58.2772 501.362 94.763 498.29 130.911 495.28C155.777 468.496 187.345 446.32 222.632 430.87L92.7343 301.62Z" fill="white"/>
</mask>
<g mask="url(#mask12_978_3032)">
<path d="M67.8673 402.919C73.8919 393.09 83.1133 386.21 92.7342 380.159C102.847 373.832 113.359 368.211 124.21 363.204C125.839 362.436 124.425 360.01 122.796 360.778C111.054 366.214 99.5887 372.357 88.7075 379.391C79.6092 385.289 71.1563 392.138 65.439 401.506C64.4862 403.073 66.9145 404.486 67.8673 402.919Z" fill="#EBEBFF"/>
</g>
<mask id="mask13_978_3032" style="mask-type:luminance" maskUnits="userSpaceOnUse" x="-130" y="301" width="353" height="212">
<path d="M92.7343 301.62C66.1768 319.988 22.4677 350.519 6.05371 376.197C-38.4853 370.054 -84.4691 370.207 -129.531 376.719C-76.1391 414.898 -28.7107 459.22 11.2791 508.242C12.3549 509.563 13.523 510.945 15.2443 511.621C17.7341 512.603 20.7156 511.805 23.3898 511.068C58.2772 501.362 94.763 498.29 130.911 495.28C155.777 468.496 187.345 446.32 222.632 430.87L92.7343 301.62Z" fill="white"/>
</mask>
<g mask="url(#mask13_978_3032)">
<path d="M78.1338 413.485C97.4371 398.035 118.769 385.35 141.546 375.675C143.206 374.968 141.761 372.542 140.132 373.248C117.109 383.016 95.6543 395.885 76.1358 411.489C74.7219 412.625 76.7198 414.622 78.1338 413.485Z" fill="#EBEBFF"/>
</g>
<mask id="mask14_978_3032" style="mask-type:luminance" maskUnits="userSpaceOnUse" x="-130" y="301" width="353" height="212">
<path d="M92.7343 301.62C66.1768 319.988 22.4677 350.519 6.05371 376.197C-38.4853 370.054 -84.4691 370.207 -129.531 376.719C-76.1391 414.898 -28.7107 459.22 11.2791 508.242C12.3549 509.563 13.523 510.945 15.2443 511.621C17.7341 512.603 20.7156 511.805 23.3898 511.068C58.2772 501.362 94.763 498.29 130.911 495.28C155.777 468.496 187.345 446.32 222.632 430.87L92.7343 301.62Z" fill="white"/>
</mask>
<g mask="url(#mask14_978_3032)">
<path d="M90.4289 426.447C108.503 413.577 127.13 400.554 149.138 395.609C150.89 395.21 150.152 392.507 148.4 392.906C126.146 397.913 107.304 411.028 89.0149 424.021C87.5395 425.065 88.9227 427.491 90.4289 426.447Z" fill="#EBEBFF"/>
</g>
<mask id="mask15_978_3032" style="mask-type:luminance" maskUnits="userSpaceOnUse" x="-130" y="301" width="353" height="212">
<path d="M92.7343 301.62C66.1768 319.988 22.4677 350.519 6.05371 376.197C-38.4853 370.054 -84.4691 370.207 -129.531 376.719C-76.1391 414.898 -28.7107 459.22 11.2791 508.242C12.3549 509.563 13.523 510.945 15.2443 511.621C17.7341 512.603 20.7156 511.805 23.3898 511.068C58.2772 501.362 94.763 498.29 130.911 495.28C155.777 468.496 187.345 446.32 222.632 430.87L92.7343 301.62Z" fill="white"/>
</mask>
<g mask="url(#mask15_978_3032)">
<path d="M109.21 439.409C127.437 425.556 147.909 415.113 169.825 408.509C171.546 407.987 170.808 405.284 169.087 405.806C146.925 412.472 126.208 422.976 107.796 436.982C106.351 438.057 107.765 440.515 109.21 439.409Z" fill="#EBEBFF"/>
</g>
<mask id="mask16_978_3032" style="mask-type:luminance" maskUnits="userSpaceOnUse" x="-130" y="301" width="353" height="212">
<path d="M92.7343 301.62C66.1768 319.988 22.4677 350.519 6.05371 376.197C-38.4853 370.054 -84.4691 370.207 -129.531 376.719C-76.1391 414.898 -28.7107 459.22 11.2791 508.242C12.3549 509.563 13.523 510.945 15.2443 511.621C17.7341 512.603 20.7156 511.805 23.3898 511.068C58.2772 501.362 94.763 498.29 130.911 495.28C155.777 468.496 187.345 446.32 222.632 430.87L92.7343 301.62Z" fill="white"/>
</mask>
<g mask="url(#mask16_978_3032)">
<path d="M-86.4363 393.182C-66.5797 390.295 -46.5694 388.483 -26.5283 387.746C-17.3685 387.408 -8.17788 387.316 1.01272 387.439C7.80577 387.531 16.0128 389.65 21.2997 384.336C27.4472 378.163 33.0415 371.375 39.189 365.201C45.06 359.303 51.1153 353.621 57.3551 348.092C70.9719 336.052 85.4187 324.994 100.542 314.889C102.048 313.876 100.634 311.449 99.1277 312.463C70.9104 331.322 45.0292 353.621 22.3755 378.931C21.1152 380.343 19.9165 382.094 18.4103 383.261C15.8283 385.289 13.1849 384.92 10.2033 384.828C5.93076 384.705 1.62746 384.613 -2.64509 384.582C-12.4197 384.521 -22.225 384.705 -31.9997 385.135C-50.4731 385.995 -68.8543 387.777 -87.174 390.449C-88.9568 390.725 -88.1883 393.428 -86.4363 393.182Z" fill="#ACA9A5"/>
</g>
<path d="M140.193 504.833C135.859 506.092 131.525 507.474 127.161 508.641C126.7 508.764 124.702 509.593 124.271 509.317C123.042 508.426 124.548 506.983 125.04 506.491C126.638 504.833 130.48 504.433 132.663 504.31C134.015 504.218 134.015 502.13 132.663 502.191C129.927 502.345 117.632 505.14 120.675 510.054C121.689 511.713 124.21 511.528 125.839 511.221C130.849 510.208 135.829 508.334 140.747 506.89C142.038 506.491 141.484 504.464 140.193 504.833Z" fill="#161513"/>
<path d="M92.9494 505.877C66.2075 510.576 40.2956 518.869 15.7976 530.572C16.3509 530.633 16.9349 530.726 17.4882 530.787C-18.014 493.499 -55.2989 457.961 -94.2437 424.297C-95.5961 423.13 -97.5941 425.096 -96.2416 426.294C-57.2969 459.957 -20.0119 495.495 15.4902 532.783C15.9513 533.275 16.6275 533.275 17.1808 532.998C41.4636 521.388 67.1604 513.248 93.6564 508.58C95.5006 508.273 94.7322 505.57 92.9494 505.877Z" fill="#161513"/>
<path d="M120.152 483.793C89.2609 444.323 51.9453 410.26 10.1726 382.586C9.03531 381.848 7.99023 383.661 9.09679 384.398C50.7157 411.98 87.8777 445.951 118.677 485.267C119.476 486.373 120.982 484.868 120.152 483.793Z" fill="#161513"/>
<path d="M-96.4567 404.824C-56.6513 437.259 -18.3213 471.414 18.5026 507.198C19.7936 508.457 21.7915 506.46 20.5005 505.201C-16.2926 469.418 -54.6534 435.262 -94.4588 402.827C-95.842 401.691 -97.8707 403.687 -96.4567 404.824Z" fill="#161513"/>
<path d="M21.2383 507.781C32.5498 506.123 43.892 504.863 55.2957 503.972C57.0785 503.819 57.1093 501.024 55.2957 501.147C43.6461 502.037 32.058 503.358 20.4698 505.048C18.7178 505.355 19.4555 508.058 21.2383 507.781Z" fill="#161513"/>
<path d="M179.2 200.505C173.667 192.519 183.749 181.769 189.251 176.517C195.306 170.742 202.591 166.258 210.399 163.278C225.091 157.658 241.72 157.228 256.413 163.125C265.081 166.596 272.827 170.865 282.417 168.316C290.563 166.135 298.032 161.282 305.163 156.951C320.009 147.921 335.163 139.443 353.083 143.928C380.747 150.869 400.389 177.561 429.774 179.527C447.909 180.755 467.766 167.609 484.795 177.991C497.182 185.516 502.776 200.29 514.242 208.952C527.059 218.597 547.438 217.184 557.459 203.976C561.24 199 563.699 190.646 558.104 185.946C554.078 182.568 547.254 182.506 544.641 187.544C543.811 189.141 546.24 190.584 547.069 188.956C549.19 184.871 555.369 185.946 557.551 189.479C560.809 194.669 556.444 201.611 552.602 205.082C546.086 211.01 536.68 213.529 528.043 212.024C512.705 209.321 505.297 194.454 495.799 183.888C491.711 179.312 486.916 175.227 481.075 173.046C473.299 170.159 464.969 171.142 457.038 172.739C448.032 174.551 439.057 177.315 429.743 176.67C422.458 176.179 415.45 173.814 408.903 170.681C385.819 159.654 364.21 136.403 336.516 140.058C320.378 142.177 307.376 152.989 293.483 160.453C289.241 162.726 284.815 164.968 280.05 165.951C273.934 167.21 268.37 165.244 262.837 162.848C256.198 159.961 249.681 157.535 242.427 156.583C226.782 154.525 210.46 158.333 197.151 166.78C187.96 172.616 168.011 189.356 176.71 201.918C177.816 203.393 180.245 201.98 179.2 200.505Z" fill="#161513"/>
<path d="M339.897 333.718C356.495 340.567 367.223 355.341 370.327 372.726C371.587 379.791 372.755 387.715 378.841 392.415C384.067 396.469 390.921 396.623 397.223 396.715C406.598 396.868 415.112 397.79 421.721 405.254C427.899 412.195 429.743 420.826 430.266 429.826C430.665 436.89 431.126 444.907 436.813 449.944C440.87 453.538 446.588 454.951 451.905 454.275C458.206 453.477 464.2 449.484 466.014 443.156C467.827 436.829 463.432 429.826 456.362 431.546C454.61 431.976 455.348 434.679 457.1 434.249C465.614 432.16 463.954 443.648 460.358 447.334C457.868 449.883 454.364 451.296 450.829 451.572C444.067 452.156 437.674 448.839 435.092 442.45C432.233 435.385 433.585 427.399 432.049 420.058C430.85 414.315 428.329 408.786 424.579 404.24C420.768 399.602 415.665 396.162 409.764 394.841C403.432 393.428 396.915 394.227 390.522 393.612C381.762 392.722 376.598 387.807 374.507 379.361C372.848 372.665 372.294 365.938 369.62 359.549C364.18 346.557 353.667 336.359 340.696 330.984C338.975 330.308 338.237 333.011 339.897 333.718Z" fill="#161513"/>
<path d="M364.641 516.934C369.128 524.552 371.987 532.661 373.309 541.384C373.585 543.165 376.29 542.397 376.014 540.647C374.661 531.708 371.649 523.323 367.069 515.552C366.147 513.955 363.719 515.368 364.641 516.934Z" fill="#161513"/>
<path d="M-41.2517 369.194C-47.7681 363.45 -44.7558 351.502 -37.4709 347.109C-30.1553 342.717 -20.811 343.977 -12.6655 346.649C-20.1963 342.809 -22.3172 331.322 -17.2762 324.534C-12.2352 317.746 -1.84584 316.486 5.28533 321.094C0.213593 318.114 -0.862221 309.913 3.25664 305.797C7.06813 301.958 13.2157 302.234 18.5333 303.217C34.5477 306.227 49.7936 313.722 62.181 324.687C63.2568 325.64 64.3941 326.93 64.0252 328.312C63.7486 329.295 62.765 329.878 61.8736 330.308C49.1174 336.39 33.3797 335.53 21.1153 328.097C28.2464 330.615 35.3161 333.288 42.3551 336.052C47.8264 338.202 54.435 343.147 52.099 348.584C50.8387 351.532 47.4268 352.669 44.3838 353.437C27.8469 357.491 10.5415 358.413 -6.39503 356.171C6.57631 358.382 19.3018 362.436 31.228 368.242C33.1645 369.194 35.3161 370.484 35.685 372.634C36.1461 375.337 33.5641 377.456 31.1665 378.593C19.855 383.876 6.63778 381.756 -5.68806 379.514C-17.0303 377.456 -31.6615 371.651 -41.2517 369.194Z" fill="#EBEBFF"/>
<path d="M-20.5344 346.987C-14.4483 350.765 -8.11634 354.051 -1.53846 356.877C0.121382 357.583 1.53533 355.157 -0.124508 354.45C-6.70239 351.655 -13.0344 348.338 -19.1205 344.56C-20.6573 343.577 -22.0713 346.004 -20.5344 346.987Z" fill="#161513"/>
<path d="M-1.23107 318.974C14.7218 327.575 31.7813 333.748 49.5785 337.25C51.3613 337.588 52.099 334.885 50.3162 334.547C32.7649 331.076 15.9514 325.056 0.182876 316.548C-1.41549 315.688 -2.82944 318.114 -1.23107 318.974Z" fill="#161513"/>
<path d="M33.2566 334.731C34.4247 342.656 42.6931 347.908 50.3776 346.004C52.1296 345.574 51.3919 342.871 49.6399 343.301C43.3079 344.867 36.9452 340.352 35.9923 333.994C35.6849 332.182 32.98 332.95 33.2566 334.731Z" fill="#161513"/>
<path d="M45.7055 316.978C48.6563 323.827 56.0027 328.005 63.4105 327.022C65.1933 326.776 65.1933 323.981 63.4105 324.227C56.8633 325.087 50.7465 321.646 48.1338 315.565C47.4268 313.876 44.9985 315.319 45.7055 316.978Z" fill="#161513"/>
<path d="M15.398 367.013C20.2854 372.757 27.6932 375.214 35.0702 373.77C36.853 373.432 36.0846 370.699 34.3325 371.067C27.8776 372.327 21.6378 370.023 17.396 365.047C16.1972 363.665 14.23 365.662 15.398 367.013Z" fill="#161513"/>
<path d="M376.659 605.21C371.649 599.128 302.489 514.999 297.448 508.887C272.489 478.602 243.319 452.647 213.564 427.061C183.441 401.168 139.333 394.073 103.462 410.014C101.833 410.721 97.9904 414.683 97.0683 416.188C95.1318 419.321 97.6523 423.683 101.126 424.942C104.599 426.201 108.441 425.28 111.945 424.205C117.847 422.423 123.749 420.243 129.896 420.335C136.044 420.427 142.652 423.406 144.927 429.119C143.144 435.57 134.107 435.662 127.499 434.494C103.615 430.225 79.056 424.973 54.8039 424.113C49.0866 423.928 41.6173 428.536 41.9862 434.249C42.2321 437.842 45.8899 440.085 49.1481 441.651C68.8203 451.05 90.0908 455.197 111.208 460.572C94.1175 455.412 76.3818 453.538 59.2916 448.378C54.6809 446.996 48.6256 444.354 43.8919 444.999C39.1276 445.644 34.394 448.961 33.687 453.722C33.0722 457.93 35.8079 462.046 39.3735 464.38C42.9391 466.715 48.5026 468.896 52.6522 469.848C71.6482 474.24 90.2752 480.322 108.226 487.939C93.4105 482.994 78.1031 479.523 62.6112 477.557C57.5088 476.912 51.6379 476.697 48.0723 480.414C43.8612 484.837 45.6747 492.546 50.1624 496.693C54.6502 500.84 60.8284 502.406 66.6994 504.095C112.468 517.241 146.894 522.279 227.95 645.969L376.659 605.21Z" fill="#EBEBFF"/>
<path d="M34.5784 455.442C42.0169 456.026 48.5333 460.848 51.2075 467.821C51.853 469.479 54.5579 468.773 53.9125 467.083C50.7465 458.852 43.3694 453.323 34.5784 452.647C32.7649 452.494 32.7956 455.289 34.5784 455.442Z" fill="#161513"/>
<path d="M44.5989 434.31C51.392 433.419 57.9699 437.351 60.1215 443.924C60.6748 445.644 63.4105 444.907 62.8264 443.187C60.3059 435.539 52.6522 430.471 44.5989 431.515C42.8161 431.73 42.8161 434.556 44.5989 434.31Z" fill="#161513"/>
<path d="M46.5354 485.85C52.2834 486.311 57.5703 489.321 60.9514 494.021C62.3654 495.987 63.4719 498.198 64.056 500.532C64.4863 502.222 64.2096 504.095 65.4392 505.385C65.9002 505.877 66.5765 505.846 67.1297 505.6C67.7445 505.324 68.0211 504.925 68.1441 504.28C68.267 503.665 68.0519 502.99 67.4986 502.682C67.4371 502.652 67.3449 502.59 67.2834 502.56C65.6851 501.669 64.2711 504.095 65.8695 504.986C65.931 505.017 66.0232 505.078 66.0846 505.109C65.8695 504.587 65.6543 504.065 65.4392 503.512C65.5314 503.389 65.6236 503.266 65.7158 503.143C66.2691 503.205 66.8531 503.297 67.4064 503.358C66.9146 502.836 66.9146 500.41 66.7301 499.734C66.4228 498.567 66.0232 497.43 65.5314 496.324C64.3633 493.714 62.6728 491.348 60.6441 489.383C56.7711 485.605 51.8838 483.424 46.5047 482.994C44.7219 482.902 44.7526 485.728 46.5354 485.85Z" fill="#161513"/>
<path d="M99.1892 416.864C103.646 416.864 107.95 416.618 111.546 413.67C114.497 411.274 116.126 407.803 115.081 404.086C114.589 402.336 111.884 403.073 112.376 404.824C113.298 408.049 111.177 410.844 108.472 412.41C105.644 414.069 102.386 414.038 99.1892 414.038C97.3757 414.038 97.3757 416.864 99.1892 416.864Z" fill="#161513"/>
<path d="M78.9022 480.905C89.599 484.56 99.9576 488.983 110.04 494.082C111.638 494.911 113.083 492.485 111.454 491.656C101.187 486.403 90.5826 481.919 79.6399 478.172C77.9494 477.619 77.2116 480.322 78.9022 480.905Z" fill="#161513"/>
<path d="M70.8182 451.234C88.9842 456.118 107.181 461.002 125.347 465.886C127.099 466.346 127.837 463.643 126.085 463.183C107.919 458.299 89.722 453.415 71.5559 448.531C69.8039 448.04 69.0662 450.743 70.8182 451.234Z" fill="#161513"/>
<path d="M121.505 517.733C122.857 514.324 124.763 511.191 127.161 508.426C128.329 507.075 126.361 505.078 125.163 506.43C122.427 509.593 120.306 513.095 118.769 516.965C118.124 518.685 120.859 519.392 121.505 517.733Z" fill="white"/>
<path d="M134.569 493.683C136.843 489.936 138.626 485.943 139.948 481.765C140.501 480.045 137.765 479.308 137.243 481.028C136.013 484.99 134.292 488.738 132.14 492.27C131.218 493.806 133.646 495.219 134.569 493.683Z" fill="white"/>
<path d="M144.65 465.793C146.648 461.401 148.646 457.009 150.613 452.616C151.351 450.989 148.923 449.545 148.185 451.204C146.187 455.596 144.189 459.988 142.222 464.35C141.484 466.008 143.882 467.421 144.65 465.793Z" fill="white"/>
<path d="M171.7 423.314C174.681 420.365 176.925 416.925 178.462 413.055C179.138 411.366 176.402 410.659 175.757 412.318C174.405 415.758 172.345 418.768 169.702 421.348C168.441 422.577 170.409 424.573 171.7 423.314Z" fill="white"/>
<path d="M189.435 355.863C187.499 353.468 183.933 353.099 181.505 355.034L90.4597 428.751C90.3675 428.812 90.306 428.904 90.2445 428.966C94.7322 430.409 99.2507 431.515 103.769 432.467L188.605 363.788C191.003 361.853 191.403 358.29 189.435 355.863Z" fill="#161513"/>
<path d="M159.989 395.64C170.286 387.377 180.583 379.084 190.849 370.822C191.618 370.207 191.218 369.071 190.573 368.61C188.144 366.89 186.362 365.047 184.702 362.59C183.687 361.116 181.259 362.498 182.274 364.003C184.179 366.798 186.392 369.071 189.159 371.037C189.067 370.3 188.974 369.562 188.882 368.825C178.585 377.088 168.288 385.381 158.021 393.643C156.577 394.81 158.575 396.776 159.989 395.64Z" fill="#161513"/>
</g>
<defs>
<clipPath id="clip0_978_3032">
<rect width="402" height="579" fill="white"/>
</clipPath>
</defs>
</svg>
