<svg width="402" height="579" viewBox="0 0 402 579" fill="none" xmlns="http://www.w3.org/2000/svg">
<g clip-path="url(#clip0_978_3034)">
<path opacity="0.48" d="M128.806 459.935C66.8496 456.523 5.39873 445.433 -53.6303 427.067C-70.0243 421.949 -86.4715 416.164 -100.364 406.354C-114.256 396.544 -125.487 382.096 -127.669 365.542C-128.601 358.398 -127.696 350.668 -123.252 344.857C-114.496 333.367 -96.7976 333.981 -82.3464 336.62C-46.8971 343.071 -12.459 354.746 19.3709 371.14C-31.6208 349.442 -81.202 313.961 -96.5581 262.06C-98.5275 255.422 -99.8848 248.438 -98.9533 241.587C-96.3718 222.874 -76.518 209.759 -57.0635 208.533C-37.6355 207.307 -18.8995 215.33 -2.02649 224.714C27.0356 240.894 53.3565 261.713 75.499 286.078C26.4501 261.9 -2.53214 210.425 -15.2268 158.498C-16.7704 152.233 -18.1011 145.622 -16.4777 139.358C-13.0445 126.243 2.79058 119.072 16.6297 120.565C30.4688 122.057 42.5779 130.028 53.596 138.238C92.9309 167.534 127.875 204.534 144.854 249.771C108.952 212.265 97.6948 154.259 117.043 106.436C122.312 93.4012 130.11 80.6858 142.246 73.0886C154.408 65.4913 171.627 64.3717 182.645 73.3551C191.322 80.4459 194.489 91.9084 196.804 102.704C207.157 151.3 209.073 201.629 202.473 250.917C201.541 208.319 216.658 165.482 244.336 132.24C258.627 115.073 276.246 100.545 295.86 89.376C324.603 73.0353 357.87 102.225 343.685 131.441C343.578 131.654 343.498 131.841 343.392 132.054C322.394 174.945 291.069 213.064 252.639 242.494C276.246 206.107 309.885 175.878 349.087 155.832C364.204 148.101 382.328 141.81 397.95 148.421C418.229 157.005 423.632 184.248 415.062 204.108C406.493 223.967 388.183 238.069 370.618 251.237C341.422 273.149 312.254 295.061 283.059 316.973C325.933 284.345 371.336 250.571 425.096 242.201C435.794 240.521 447.957 240.308 456.074 247.212C465.708 255.422 465.309 270.857 458.709 281.6C452.108 292.342 440.878 299.486 430.019 306.257C394.277 328.569 358.535 350.881 322.819 373.193C362.5 347.496 408.143 320.572 454.663 330.355C469.461 333.474 484.79 342.004 488.276 356.292C492.322 372.9 478.722 388.707 464.484 398.837C432.042 421.949 392.175 432.398 353.319 442.395C280.69 461.081 203.511 479.741 131.76 458.682L128.806 459.935Z" fill="#3B38FF"/>
<path d="M134.196 354.932C127.541 353.43 121.865 352.27 120.612 352.179C106.959 351.132 93.0775 352.588 80.0399 356.912C8.4469 380.76 15.3532 475.401 28.1857 534.133C28.6643 536.295 32.3796 555.66 34.0207 555.728C34.0207 555.728 64.1987 557.048 105.773 558.868C106.571 489.919 110.172 420.764 134.196 354.932Z" fill="#A5A3FF"/>
<path d="M248.253 387.382C241.62 393.753 234.349 399.533 226.44 404.244C211.009 413.437 189.72 418.102 172.283 416.145C146.527 413.278 148.1 380.214 159.246 361.85C159.77 361.008 145.57 357.458 134.173 354.909C110.172 420.764 106.571 489.919 105.773 558.868C138.96 560.325 179.395 562.077 217.573 563.761C232.252 503.435 246.68 443.133 253.814 381.26C251.17 384.241 248.982 386.699 248.253 387.382Z" fill="#6260FF"/>
<path d="M381.524 438.195C381.569 422.516 378.88 405.746 373.045 391.159C356.018 348.606 299.036 330.971 266.122 367.061C265.575 367.675 258.897 375.435 253.814 381.238C246.68 443.133 232.252 503.435 217.573 563.738C285.314 566.696 345.875 569.336 345.898 569.336C346.263 569.336 354.24 547.126 355.243 544.828C359.642 534.702 363.563 524.371 366.982 513.857C373.364 494.219 378.606 473.443 380.749 452.872C381.227 448.116 381.501 443.201 381.524 438.195Z" fill="#A5A3FF"/>
<path d="M130.709 275.265C131.666 277.859 132.623 280.43 133.604 283.024C134.059 284.276 136.088 283.73 135.609 282.478C134.652 279.884 133.695 277.313 132.715 274.719C132.259 273.467 130.253 273.991 130.709 275.265Z" fill="#211300"/>
<path d="M151.382 398.213C153.707 413.551 168.637 417.692 182.267 417.26C199.498 416.691 216.206 411.116 230.543 401.672C237.403 397.144 243.74 391.842 249.575 386.085C251.489 384.196 264.914 366.811 266.1 367.061C247.364 363.215 227.83 362.419 209.254 362.168C191.111 361.941 174.654 361.44 159.246 361.873C152.681 372.75 149.399 385.061 151.382 398.213Z" fill="#EBEBFF"/>
<path d="M272.869 470.03C269.587 495.494 263.023 520.411 253.336 544.214C252.834 545.465 254.84 545.989 255.341 544.76C265.097 520.798 271.638 495.699 274.943 470.03C275.126 468.711 273.029 468.711 272.869 470.03Z" fill="#211300"/>
<path d="M144.476 378.097C139.849 391.136 139.803 405.29 144.362 418.375C144.795 419.626 146.824 419.103 146.368 417.829C141.923 405.063 141.969 391.409 146.482 378.666C146.915 377.369 144.909 376.846 144.476 378.097Z" fill="#211300"/>
<path d="M156.533 427.636C169.617 432.779 185.184 430.913 198.495 427.75C212.923 424.314 227.716 418.443 238.885 408.476C239.888 407.589 238.406 406.11 237.403 406.997C226.508 416.736 211.989 422.403 197.926 425.748C184.956 428.82 169.822 430.663 157.08 425.634C155.85 425.133 155.303 427.136 156.533 427.636Z" fill="#211300"/>
<path d="M116.965 296.382C116.554 292.149 113.409 288.645 109.762 286.779C106.115 284.89 101.99 284.367 97.9552 283.866C88.7696 282.706 79.6068 281.545 70.4212 280.408C64.3583 279.634 57.999 278.746 53.1441 274.878C48.2892 271.009 45.8275 263.113 49.634 258.13C54.6712 251.553 66.2729 254.398 70.9911 247.571C74.5696 242.406 71.6065 234.828 66.8883 230.778C62.1701 226.727 56.1072 224.861 50.9332 221.47C43.3431 216.487 37.8727 208.067 36.2544 198.851C35.9581 197.213 35.7986 195.484 36.3 193.891C37.4625 190.25 41.8615 188.725 45.44 189.522C49.0413 190.318 52.05 192.753 55.0587 194.96C60.0504 198.601 66.2501 201.832 72.0395 199.853C77.6694 197.941 80.8605 191.774 82.5699 185.881C84.2794 179.964 85.1227 173.593 88.4733 168.518C92.0974 162.989 98.5934 159.643 104.998 160.03C111.403 160.394 117.512 164.468 120.566 170.384C123.256 175.641 123.529 181.807 124.714 187.656C125.877 193.481 128.521 199.671 133.763 201.992C137.615 203.698 142.014 202.947 146.208 202.879C150.402 202.811 155.189 203.858 157.263 207.681C158.471 209.933 158.448 212.664 158.288 215.235C157.514 227.114 154.459 238.697 153.32 250.552C152.157 262.385 153.16 275.106 159.656 284.89L116.965 296.382Z" fill="#211300"/>
<path d="M236.104 362.669L147.234 268.711C134.698 272.602 121.295 268.552 112.224 259.495C104.109 282.569 95.8128 322.005 118.332 352.338L140.396 330.675C140.396 330.675 149.057 357.822 157.605 384.492C165.605 409.455 196.239 418.602 216.662 402.15C216.935 401.922 217.209 401.718 217.459 401.49C234.372 387.791 251.056 378.484 236.104 362.669Z" fill="#EBEBFF"/>
<path d="M147.234 268.711L120.384 240.335C120.384 240.335 116.327 247.821 112.224 259.495C121.318 268.575 134.698 272.602 147.234 268.711Z" fill="#EBEBFF"/>
<path d="M180.079 274.969C178.438 283.616 170.118 289.305 161.457 287.666C152.795 286.028 147.097 277.722 148.738 269.075C150.379 260.428 158.699 254.739 167.36 256.377C176.022 257.993 181.72 266.322 180.079 274.969Z" fill="#EBEBFF"/>
<path d="M161.343 278.837C164.238 273.763 167.155 268.711 170.141 263.682C170.825 262.522 169.024 261.475 168.34 262.635C165.354 267.642 162.437 272.716 159.542 277.791C158.881 278.974 160.682 280.021 161.343 278.837Z" fill="#211300"/>
<path d="M140.396 330.674L158.22 385.538L155.531 313.608L140.396 330.674Z" fill="#211300"/>
<path d="M107.187 276.516C103.517 286.028 100.371 296.313 98.6619 306.349C98.5024 307.282 99.3457 307.896 100.189 307.532C103.904 305.871 107.642 304.21 111.358 302.548C112.588 302.002 111.517 300.205 110.309 300.751C106.594 302.412 102.856 304.073 99.1406 305.734C99.642 306.121 100.166 306.508 100.668 306.918C102.377 296.86 105.523 286.574 109.192 277.085C109.694 275.833 107.665 275.287 107.187 276.516Z" fill="#211300"/>
<path d="M128.954 274.149C130.116 277.449 131.302 280.749 132.464 284.048C132.92 285.3 134.926 284.754 134.47 283.502C133.307 280.202 132.122 276.903 130.96 273.603C130.527 272.352 128.498 272.898 128.954 274.149Z" fill="#211300"/>
<path d="M131.21 286.187C133.262 285.027 135.313 283.844 137.387 282.683C138.55 282.023 137.501 280.225 136.339 280.885C134.288 282.046 132.236 283.229 130.162 284.39C128.977 285.05 130.025 286.847 131.21 286.187Z" fill="#211300"/>
<path d="M121.729 264.911C126.242 269.758 132.35 272.352 138.983 272.238C140.328 272.215 140.328 270.122 138.983 270.167C132.874 270.281 127.381 267.937 123.21 263.454C122.276 262.453 120.794 263.932 121.729 264.911Z" fill="#211300"/>
<path d="M114.161 326.806C114.161 326.806 115.027 315.246 118.355 310.468C124.008 302.344 126.264 301.843 131.302 298.908C133.398 297.679 136.316 297.201 138.755 297.269C141.171 297.315 143.747 299.158 143.678 301.57C143.633 303.937 141.33 305.552 139.256 306.69C130.093 311.788 119.723 316.452 114.868 325.759L114.161 326.806Z" fill="#211300"/>
<path d="M145.342 296.564C146.733 299.59 146.687 302.981 145.274 306.008C144.704 307.214 146.505 308.26 147.074 307.054C148.852 303.3 148.852 299.295 147.143 295.517C146.573 294.311 144.795 295.358 145.342 296.564Z" fill="#211300"/>
<path d="M58.3865 447.639C56.1984 476.857 57.9079 507.031 63.4922 535.817C63.7429 537.136 65.7487 536.568 65.498 535.27C59.9365 506.689 58.2954 476.675 60.4607 447.639C60.5747 446.296 58.4777 446.296 58.3865 447.639Z" fill="#211300"/>
<path d="M174.244 312.106C173.856 312.197 177.344 319.433 179.782 324.735C180.466 326.192 181.104 327.739 182.358 328.763C183.589 329.787 185.549 330.22 187.19 329.309C189.31 328.149 189.925 325.282 189.082 323.37C188.216 321.459 186.347 320.275 184.546 319.183C181.173 317.112 174.244 312.106 174.244 312.106Z" fill="#C2B1FF"/>
<path d="M235.534 320.366C235.147 320.457 238.634 327.694 241.073 332.996C241.757 334.452 242.395 335.999 243.648 337.023C244.879 338.047 246.839 338.48 248.481 337.57C250.6 336.409 251.216 333.542 250.372 331.63C249.506 329.719 247.637 328.536 245.837 327.443C242.486 325.373 235.534 320.366 235.534 320.366Z" fill="#C2B1FF"/>
<path d="M77.9658 314.063C77.7151 313.767 72.7006 320.025 68.9853 324.508C67.9596 325.76 66.8656 327.011 66.4553 328.559C66.0678 330.129 66.5465 332.063 68.0508 333.155C70.0338 334.566 72.8829 333.861 74.2277 332.268C75.5725 330.675 75.846 328.467 76.0512 326.374C76.4615 322.46 77.9658 314.063 77.9658 314.063Z" fill="#C2B1FF"/>
<path d="M139.826 280.339C139.439 280.317 140.669 288.258 141.467 294.016C141.695 295.608 141.878 297.27 142.766 298.612C143.655 299.955 145.41 300.911 147.234 300.524C149.604 300.023 151.018 297.452 150.767 295.381C150.493 293.31 149.057 291.626 147.644 290.056C145.023 287.143 139.826 280.339 139.826 280.339Z" fill="#C2B1FF"/>
<path d="M153.73 257.424C150.516 246.729 154.482 237.058 162.118 229.481C167.907 223.723 175.68 218.74 179.509 211.299C182.837 204.859 179.121 198.533 172.899 195.734C169.047 194.005 164.739 193.845 160.614 193.504C157.309 193.231 153.092 193.686 154.117 188.976C154.687 186.359 156.032 183.4 159.086 183.127C160.408 183.014 160.431 180.92 159.086 181.057C155.895 181.33 153.912 183.4 152.773 186.29C151.793 188.748 150.676 192.958 153.616 194.505C155.257 195.37 157.582 195.347 159.383 195.506C162.642 195.802 165.947 195.871 169.115 196.667C174.859 198.101 180.671 202.879 178.119 209.365C176.25 214.075 171.737 217.921 168.067 221.243C164.443 224.52 160.636 227.683 157.491 231.46C151.2 238.992 148.898 248.527 151.747 257.993C152.089 259.245 154.117 258.699 153.73 257.424Z" fill="#211300"/>
<path d="M60.0504 259.814C63.4921 259.518 65.817 257.493 67.9596 254.921C70.3984 252.031 73.0196 248.686 73.4527 244.818C74.2277 237.718 67.1162 233.326 60.8253 233.053C53.919 232.78 43.5938 235.283 39.1947 241.131C37.5536 243.316 36.3228 246.707 38.0323 249.232C39.3771 251.235 42.0439 251.804 43.9813 250.347C45.0298 249.551 44.0041 247.731 42.9328 248.55C39.3999 251.212 39.491 244.545 40.38 243.088C41.1321 241.882 42.2034 240.836 43.3431 240.016C44.893 238.901 46.6936 238.128 48.4943 237.491C53.3036 235.761 59.207 234.168 64.2443 235.67C69.4411 237.195 72.8601 242.019 70.6036 247.321C68.9397 251.258 64.7002 257.356 60.0504 257.743C58.7284 257.857 58.7284 259.928 60.0504 259.814Z" fill="#211300"/>
<rect x="252" y="254" width="116" height="116" rx="58" fill="white"/>
<g filter="url(#filter0_ddddd_978_3034)">
<rect x="262" y="264" width="96" height="96" rx="48" fill="#C0A091"/>
<path fill-rule="evenodd" clip-rule="evenodd" d="M334 292C336.209 292 338 293.791 338 296L338 308C338 310.209 336.209 312 334 312C331.791 312 330 310.209 330 308L330 296C330 293.791 331.791 292 334 292Z" fill="#4F3422"/>
<path fill-rule="evenodd" clip-rule="evenodd" d="M286 292C288.209 292 290 293.791 290 296L290 308C290 310.209 288.209 312 286 312C283.791 312 282 310.209 282 308L282 296C282 293.791 283.791 292 286 292Z" fill="#4F3422"/>
<path fill-rule="evenodd" clip-rule="evenodd" d="M282 328C282 325.791 283.791 324 286 324H334C336.209 324 338 325.791 338 328C338 330.209 336.209 332 334 332H286C283.791 332 282 330.209 282 328Z" fill="#4F3422"/>
</g>
<rect x="189" y="139" width="80" height="80" rx="40" fill="white"/>
<g filter="url(#filter1_ddddd_978_3034)">
<rect x="197" y="147" width="64" height="64" rx="32" fill="#C2B1FF"/>
<path fill-rule="evenodd" clip-rule="evenodd" d="M237.781 163.781C238.822 162.74 240.511 162.74 241.552 163.781L249.552 171.781C250.594 172.822 250.594 174.511 249.552 175.552C248.511 176.594 246.822 176.594 245.781 175.552L237.781 167.552C236.74 166.511 236.74 164.822 237.781 163.781Z" fill="#3C357C"/>
<path fill-rule="evenodd" clip-rule="evenodd" d="M249.552 163.781C250.594 164.822 250.594 166.511 249.552 167.552L241.552 175.552C240.511 176.594 238.822 176.594 237.781 175.552C236.74 174.511 236.74 172.822 237.781 171.781L245.781 163.781C246.822 162.74 248.511 162.74 249.552 163.781Z" fill="#3C357C"/>
<path fill-rule="evenodd" clip-rule="evenodd" d="M208.448 163.781C209.489 162.74 211.178 162.74 212.219 163.781L220.219 171.781C221.26 172.822 221.26 174.511 220.219 175.552C219.178 176.594 217.489 176.594 216.448 175.552L208.448 167.552C207.406 166.511 207.406 164.822 208.448 163.781Z" fill="#3C357C"/>
<path fill-rule="evenodd" clip-rule="evenodd" d="M220.219 163.781C221.26 164.822 221.26 166.511 220.219 167.552L212.219 175.552C211.178 176.594 209.489 176.594 208.448 175.552C207.406 174.511 207.406 172.822 208.448 171.781L216.448 163.781C217.489 162.74 219.178 162.74 220.219 163.781Z" fill="#3C357C"/>
<path fill-rule="evenodd" clip-rule="evenodd" d="M219.26 184.973C222.054 182.829 225.478 181.667 229 181.667C232.522 181.667 235.946 182.829 238.74 184.973C241.535 187.117 243.543 190.123 244.455 193.526C244.836 194.948 243.992 196.41 242.569 196.792C241.147 197.173 239.684 196.328 239.303 194.906C238.696 192.638 237.356 190.634 235.494 189.204C233.631 187.775 231.348 187 229 187C226.652 187 224.369 187.775 222.507 189.204C220.644 190.634 219.305 192.638 218.697 194.906C218.316 196.328 216.853 197.173 215.431 196.792C214.008 196.41 213.164 194.948 213.545 193.526C214.457 190.123 216.466 187.117 219.26 184.973Z" fill="#3C357C"/>
</g>
<rect x="20" y="334" width="60" height="60" rx="30" fill="white"/>
<g filter="url(#filter2_ddddd_978_3034)">
<rect x="26" y="340" width="48" height="48" rx="24" fill="#ED7E1C"/>
<path fill-rule="evenodd" clip-rule="evenodd" d="M42.695 368.48C44.7907 366.872 47.3585 366 50.0001 366C52.6417 366 55.2095 366.872 57.3052 368.48C59.401 370.088 60.9075 372.343 61.5912 374.894C61.8771 375.961 61.2439 377.058 60.177 377.344C59.1101 377.63 58.0134 376.996 57.7275 375.929C57.2717 374.228 56.2673 372.725 54.8702 371.653C53.473 370.581 51.7612 370 50.0001 370C48.239 370 46.5272 370.581 45.13 371.653C43.7328 372.725 42.7285 374.228 42.2727 375.929C41.9868 376.996 40.8901 377.63 39.8232 377.344C38.7563 377.058 38.1231 375.961 38.409 374.894C39.0927 372.343 40.5992 370.088 42.695 368.48Z" fill="#663600"/>
<path fill-rule="evenodd" clip-rule="evenodd" d="M38 354C39.1046 354 40 354.895 40 356V362C40 363.105 39.1046 364 38 364C36.8954 364 36 363.105 36 362V356C36 354.895 36.8954 354 38 354Z" fill="#663600"/>
<path fill-rule="evenodd" clip-rule="evenodd" d="M62 354C63.1046 354 64 354.895 64 356V362C64 363.105 63.1046 364 62 364C60.8954 364 60 363.105 60 362V356C60 354.895 60.8954 354 62 354Z" fill="#663600"/>
</g>
</g>
<defs>
<filter id="filter0_ddddd_978_3034" x="245.2" y="260.8" width="129.6" height="158.4" filterUnits="userSpaceOnUse" color-interpolation-filters="sRGB">
<feFlood flood-opacity="0" result="BackgroundImageFix"/>
<feColorMatrix in="SourceAlpha" type="matrix" values="0 0 0 0 0 0 0 0 0 0 0 0 0 0 0 0 0 0 127 0" result="hardAlpha"/>
<feOffset/>
<feColorMatrix type="matrix" values="0 0 0 0 1 0 0 0 0 0.807843 0 0 0 0 0.360784 0 0 0 0.1 0"/>
<feBlend mode="normal" in2="BackgroundImageFix" result="effect1_dropShadow_978_3034"/>
<feColorMatrix in="SourceAlpha" type="matrix" values="0 0 0 0 0 0 0 0 0 0 0 0 0 0 0 0 0 0 127 0" result="hardAlpha"/>
<feOffset dy="2.4"/>
<feGaussianBlur stdDeviation="2.8"/>
<feColorMatrix type="matrix" values="0 0 0 0 1 0 0 0 0 0.807843 0 0 0 0 0.360784 0 0 0 0.1 0"/>
<feBlend mode="normal" in2="effect1_dropShadow_978_3034" result="effect2_dropShadow_978_3034"/>
<feColorMatrix in="SourceAlpha" type="matrix" values="0 0 0 0 0 0 0 0 0 0 0 0 0 0 0 0 0 0 127 0" result="hardAlpha"/>
<feOffset dy="10.4"/>
<feGaussianBlur stdDeviation="5.2"/>
<feColorMatrix type="matrix" values="0 0 0 0 1 0 0 0 0 0.807843 0 0 0 0 0.360784 0 0 0 0.09 0"/>
<feBlend mode="normal" in2="effect2_dropShadow_978_3034" result="effect3_dropShadow_978_3034"/>
<feColorMatrix in="SourceAlpha" type="matrix" values="0 0 0 0 0 0 0 0 0 0 0 0 0 0 0 0 0 0 127 0" result="hardAlpha"/>
<feOffset dy="24"/>
<feGaussianBlur stdDeviation="7.2"/>
<feColorMatrix type="matrix" values="0 0 0 0 1 0 0 0 0 0.807843 0 0 0 0 0.360784 0 0 0 0.05 0"/>
<feBlend mode="normal" in2="effect3_dropShadow_978_3034" result="effect4_dropShadow_978_3034"/>
<feColorMatrix in="SourceAlpha" type="matrix" values="0 0 0 0 0 0 0 0 0 0 0 0 0 0 0 0 0 0 127 0" result="hardAlpha"/>
<feOffset dy="42.4"/>
<feGaussianBlur stdDeviation="8.4"/>
<feColorMatrix type="matrix" values="0 0 0 0 1 0 0 0 0 0.807843 0 0 0 0 0.360784 0 0 0 0.01 0"/>
<feBlend mode="normal" in2="effect4_dropShadow_978_3034" result="effect5_dropShadow_978_3034"/>
<feBlend mode="normal" in="SourceGraphic" in2="effect5_dropShadow_978_3034" result="shape"/>
</filter>
<filter id="filter1_ddddd_978_3034" x="185.8" y="144.867" width="86.4" height="105.6" filterUnits="userSpaceOnUse" color-interpolation-filters="sRGB">
<feFlood flood-opacity="0" result="BackgroundImageFix"/>
<feColorMatrix in="SourceAlpha" type="matrix" values="0 0 0 0 0 0 0 0 0 0 0 0 0 0 0 0 0 0 127 0" result="hardAlpha"/>
<feOffset/>
<feColorMatrix type="matrix" values="0 0 0 0 1 0 0 0 0 0.807843 0 0 0 0 0.360784 0 0 0 0.1 0"/>
<feBlend mode="normal" in2="BackgroundImageFix" result="effect1_dropShadow_978_3034"/>
<feColorMatrix in="SourceAlpha" type="matrix" values="0 0 0 0 0 0 0 0 0 0 0 0 0 0 0 0 0 0 127 0" result="hardAlpha"/>
<feOffset dy="1.6"/>
<feGaussianBlur stdDeviation="1.86667"/>
<feColorMatrix type="matrix" values="0 0 0 0 1 0 0 0 0 0.807843 0 0 0 0 0.360784 0 0 0 0.1 0"/>
<feBlend mode="normal" in2="effect1_dropShadow_978_3034" result="effect2_dropShadow_978_3034"/>
<feColorMatrix in="SourceAlpha" type="matrix" values="0 0 0 0 0 0 0 0 0 0 0 0 0 0 0 0 0 0 127 0" result="hardAlpha"/>
<feOffset dy="6.93333"/>
<feGaussianBlur stdDeviation="3.46667"/>
<feColorMatrix type="matrix" values="0 0 0 0 1 0 0 0 0 0.807843 0 0 0 0 0.360784 0 0 0 0.09 0"/>
<feBlend mode="normal" in2="effect2_dropShadow_978_3034" result="effect3_dropShadow_978_3034"/>
<feColorMatrix in="SourceAlpha" type="matrix" values="0 0 0 0 0 0 0 0 0 0 0 0 0 0 0 0 0 0 127 0" result="hardAlpha"/>
<feOffset dy="16"/>
<feGaussianBlur stdDeviation="4.8"/>
<feColorMatrix type="matrix" values="0 0 0 0 1 0 0 0 0 0.807843 0 0 0 0 0.360784 0 0 0 0.05 0"/>
<feBlend mode="normal" in2="effect3_dropShadow_978_3034" result="effect4_dropShadow_978_3034"/>
<feColorMatrix in="SourceAlpha" type="matrix" values="0 0 0 0 0 0 0 0 0 0 0 0 0 0 0 0 0 0 127 0" result="hardAlpha"/>
<feOffset dy="28.2667"/>
<feGaussianBlur stdDeviation="5.6"/>
<feColorMatrix type="matrix" values="0 0 0 0 1 0 0 0 0 0.807843 0 0 0 0 0.360784 0 0 0 0.01 0"/>
<feBlend mode="normal" in2="effect4_dropShadow_978_3034" result="effect5_dropShadow_978_3034"/>
<feBlend mode="normal" in="SourceGraphic" in2="effect5_dropShadow_978_3034" result="shape"/>
</filter>
<filter id="filter2_ddddd_978_3034" x="17.6" y="338.4" width="64.8" height="79.2" filterUnits="userSpaceOnUse" color-interpolation-filters="sRGB">
<feFlood flood-opacity="0" result="BackgroundImageFix"/>
<feColorMatrix in="SourceAlpha" type="matrix" values="0 0 0 0 0 0 0 0 0 0 0 0 0 0 0 0 0 0 127 0" result="hardAlpha"/>
<feOffset/>
<feColorMatrix type="matrix" values="0 0 0 0 1 0 0 0 0 0.807843 0 0 0 0 0.360784 0 0 0 0.1 0"/>
<feBlend mode="normal" in2="BackgroundImageFix" result="effect1_dropShadow_978_3034"/>
<feColorMatrix in="SourceAlpha" type="matrix" values="0 0 0 0 0 0 0 0 0 0 0 0 0 0 0 0 0 0 127 0" result="hardAlpha"/>
<feOffset dy="1.2"/>
<feGaussianBlur stdDeviation="1.4"/>
<feColorMatrix type="matrix" values="0 0 0 0 1 0 0 0 0 0.807843 0 0 0 0 0.360784 0 0 0 0.1 0"/>
<feBlend mode="normal" in2="effect1_dropShadow_978_3034" result="effect2_dropShadow_978_3034"/>
<feColorMatrix in="SourceAlpha" type="matrix" values="0 0 0 0 0 0 0 0 0 0 0 0 0 0 0 0 0 0 127 0" result="hardAlpha"/>
<feOffset dy="5.2"/>
<feGaussianBlur stdDeviation="2.6"/>
<feColorMatrix type="matrix" values="0 0 0 0 1 0 0 0 0 0.807843 0 0 0 0 0.360784 0 0 0 0.09 0"/>
<feBlend mode="normal" in2="effect2_dropShadow_978_3034" result="effect3_dropShadow_978_3034"/>
<feColorMatrix in="SourceAlpha" type="matrix" values="0 0 0 0 0 0 0 0 0 0 0 0 0 0 0 0 0 0 127 0" result="hardAlpha"/>
<feOffset dy="12"/>
<feGaussianBlur stdDeviation="3.6"/>
<feColorMatrix type="matrix" values="0 0 0 0 1 0 0 0 0 0.807843 0 0 0 0 0.360784 0 0 0 0.05 0"/>
<feBlend mode="normal" in2="effect3_dropShadow_978_3034" result="effect4_dropShadow_978_3034"/>
<feColorMatrix in="SourceAlpha" type="matrix" values="0 0 0 0 0 0 0 0 0 0 0 0 0 0 0 0 0 0 127 0" result="hardAlpha"/>
<feOffset dy="21.2"/>
<feGaussianBlur stdDeviation="4.2"/>
<feColorMatrix type="matrix" values="0 0 0 0 1 0 0 0 0 0.807843 0 0 0 0 0.360784 0 0 0 0.01 0"/>
<feBlend mode="normal" in2="effect4_dropShadow_978_3034" result="effect5_dropShadow_978_3034"/>
<feBlend mode="normal" in="SourceGraphic" in2="effect5_dropShadow_978_3034" result="shape"/>
</filter>
<clipPath id="clip0_978_3034">
<rect width="402" height="579" fill="white"/>
</clipPath>
</defs>
</svg>
