<svg width="64" height="64" viewBox="0 0 64 64" fill="none" xmlns="http://www.w3.org/2000/svg">
<rect width="64" height="64" rx="32" fill="#9BB068"/>
<path fill-rule="evenodd" clip-rule="evenodd" d="M42.272 21.9422C43.2426 21.5402 44.2829 21.3333 45.3335 21.3333C46.3841 21.3333 47.4244 21.5402 48.395 21.9422C49.3656 22.3443 50.2475 22.9335 50.9904 23.6764C51.7332 24.4193 52.3225 25.3012 52.7245 26.2718C53.1266 27.2424 53.3335 28.2827 53.3335 29.3333C53.3335 30.806 52.1396 31.9999 50.6668 31.9999C49.1941 31.9999 48.0002 30.806 48.0002 29.3333C48.0002 28.9831 47.9312 28.6363 47.7972 28.3128C47.6632 27.9892 47.4667 27.6953 47.2191 27.4476C46.9715 27.2 46.6775 27.0036 46.354 26.8696C46.0305 26.7356 45.6837 26.6666 45.3335 26.6666C44.9833 26.6666 44.6365 26.7356 44.313 26.8696C43.9895 27.0036 43.6955 27.2 43.4479 27.4476C43.2003 27.6953 43.0038 27.9892 42.8698 28.3128C42.7358 28.6363 42.6668 28.9831 42.6668 29.3333C42.6668 30.806 41.4729 31.9999 40.0002 31.9999C38.5274 31.9999 37.3335 30.806 37.3335 29.3333C37.3335 28.2827 37.5404 27.2424 37.9425 26.2718C38.3445 25.3012 38.9338 24.4193 39.6766 23.6764C40.4195 22.9335 41.3014 22.3443 42.272 21.9422Z" fill="#3D4A26"/>
<path fill-rule="evenodd" clip-rule="evenodd" d="M45.5691 38.2085C46.9917 38.5896 47.8359 40.0519 47.4548 41.4745C46.5432 44.8766 44.5344 47.8829 41.7401 50.027C38.9458 52.1712 35.5221 53.3334 32 53.3334C28.4778 53.3334 25.0541 52.1712 22.2598 50.027C19.4655 47.8829 17.4567 44.8766 16.5451 41.4745C16.164 40.0519 17.0082 38.5896 18.4308 38.2085C19.8533 37.8273 21.3156 38.6715 21.6967 40.0941C22.3045 42.3622 23.6436 44.3664 25.5065 45.7958C27.3694 47.2252 29.6519 48 32 48C34.3481 48 36.6305 47.2252 38.4934 45.7958C40.3563 44.3664 41.6954 42.3622 42.3032 40.0941C42.6843 38.6715 44.1466 37.8273 45.5691 38.2085Z" fill="#3D4A26"/>
<path fill-rule="evenodd" clip-rule="evenodd" d="M15.605 21.9422C16.5756 21.5402 17.6159 21.3333 18.6665 21.3333C19.7171 21.3333 20.7574 21.5402 21.728 21.9422C22.6986 22.3443 23.5805 22.9335 24.3234 23.6764C25.0662 24.4193 25.6555 25.3012 26.0575 26.2718C26.4596 27.2424 26.6665 28.2827 26.6665 29.3333C26.6665 30.806 25.4726 31.9999 23.9998 31.9999C22.5271 31.9999 21.3332 30.806 21.3332 29.3333C21.3332 28.9831 21.2642 28.6363 21.1302 28.3128C20.9962 27.9892 20.7997 27.6953 20.5521 27.4476C20.3045 27.2 20.0105 27.0036 19.687 26.8696C19.3635 26.7356 19.0167 26.6666 18.6665 26.6666C18.3163 26.6666 17.9695 26.7356 17.646 26.8696C17.3225 27.0036 17.0285 27.2 16.7809 27.4476C16.5333 27.6953 16.3368 27.9892 16.2028 28.3128C16.0688 28.6363 15.9998 28.9831 15.9998 29.3333C15.9998 30.806 14.8059 31.9999 13.3332 31.9999C11.8604 31.9999 10.6665 30.806 10.6665 29.3333C10.6665 28.2827 10.8734 27.2424 11.2755 26.2718C11.6775 25.3012 12.2668 24.4193 13.0096 23.6764C13.7525 22.9335 14.6344 22.3443 15.605 21.9422Z" fill="#3D4A26"/>
</svg>
